<svg xmlns="http://www.w3.org/2000/svg" fill="#FFF" width="2402" height="2106.018" viewBox="0 0 2402 2106.018">
  <g id="Group_2" data-name="Group 2" transform="translate(-373.9 -561)">
    <g id="CODE_CITY" data-name="CODE CITY" transform="translate(734.399 1905.492)">
      <text id="CODE_CITY-2" data-name="CODE CITY" transform="translate(290 118)" fill="#FFF" font-size="117" font-family="Impact" letter-spacing="0.115em"><tspan x="-290.477" y="0">CODE CITY</tspan></text>
    </g>
    <g id="CODIANO" transform="translate(44 49)">
      <text id="CODIANO-2" data-name="CODIANO" transform="translate(1530.9 2617.018)" fill="#FFF" font-size="519.936" font-family="Blanka-Regular, Blanka"><tspan x="-1200.793" y="0">CODIANO</tspan></text>
    </g>
    <g id="Group_1" data-name="Group 1" transform="translate(-3064 143)">
      <rect id="Rectangle_1" data-name="Rectangle 1" width="1019" height="117" transform="translate(4416 1782)" fill="#FFF"/>
      <rect id="Rectangle_2" data-name="Rectangle 2" width="223" height="392" transform="translate(5212 1507)" fill="#FFF"/>
      <rect id="Rectangle_3" data-name="Rectangle 3" width="1336" height="143" transform="translate(4099 1507)" fill="#FFF"/>
      <rect id="Rectangle_4" data-name="Rectangle 4" width="164" height="838" transform="translate(4099 812)" fill="#FFF"/>
      <rect id="Rectangle_7" data-name="Rectangle 7" width="187" height="714" transform="translate(4416 812)" fill="#FFF"/>
      <rect id="Rectangle_8" data-name="Rectangle 8" width="905" height="256" transform="translate(4530 644)" fill="#FFF"/>
      <rect id="Rectangle_9" data-name="Rectangle 9" width="1344" height="69" transform="translate(4091 638)" fill="#FFF"/>
      <rect id="Rectangle_10" data-name="Rectangle 10" width="221" height="289" transform="translate(5214 418)" fill="#FFF"/>
      <rect id="Rectangle_11" data-name="Rectangle 11" width="1019" height="93" transform="translate(4416 418)" fill="#FFF"/>
      <rect id="Rectangle_12" data-name="Rectangle 12" width="26" height="190" transform="translate(4272 1324)" fill="#FFF"/>
      <rect id="Rectangle_13" data-name="Rectangle 13" width="26" height="253" transform="translate(4307 1254)" fill="#FFF"/>
      <rect id="Rectangle_14" data-name="Rectangle 14" width="26" height="126" transform="translate(4342 1384)" fill="#FFF"/>
      <rect id="Rectangle_15" data-name="Rectangle 15" width="26" height="225" transform="translate(4377 1289)" fill="#FFF"/>
      <path id="Subtraction_1" data-name="Subtraction 1" d="M350,624H323.1c8.965,0,18.015-.418,26.9-1.236V624Zm-28.09,0H0V0H350V6.236C341.091,5.416,332.007,5,323,5a314.694,314.694,0,0,0-66.664,7.134,307.9,307.9,0,0,0-62.225,20.633,296.775,296.775,0,0,0-55.526,32.978,282.706,282.706,0,0,0-46.569,44.169C47.412,163.193,22.848,235.849,22.848,314.5c0,170.05,134.159,308.89,299.062,309.5Z" transform="translate(4590 895)" fill="#FFF"/>
      <rect id="Rectangle_5" data-name="Rectangle 5" width="1637" height="88" transform="translate(3798 812)" fill="#FFF"/>
      <rect id="Rectangle_6" data-name="Rectangle 6" width="130" height="568" transform="translate(3798 812)" fill="#FFF"/>
    </g>
  </g>
</svg>
