<svg xmlns="http://www.w3.org/2000/svg" width="482" height="277.262" viewBox="0 0 482 277.262">
  <g id="Newsletter-pana" transform="translate(-47.103 -63.705)">
    <g id="freepik--background-complete--inject-2" transform="translate(47.103 112.865)">
      <path id="Path_4818" data-name="Path 4818" d="M128.891,398.335c20.239-13.509,25.18-39.067,24.708-62.111-.073-3.851.421-7.9-1.381-11.3s-6.09-5.77-9.6-4.2c-2.907,1.3-4.229,4.6-5.894,7.325a22.717,22.717,0,0,1-9.265,8.481c-2.5,1.228-5.581,1.962-7.994.589-3.328-1.875-3.633-6.468-3.568-10.29l.465-21.379c.08-3.822.16-7.732-1-11.38s-3.757-7.056-7.427-8.132-8.263.959-9.1,4.687c-.349,1.555-.051,3.176-.182,4.76s-.908,3.336-2.449,3.757-3.081-.727-4.222-1.824c-3.939-3.917-6.54-8.931-9.04-13.916s-4.84-10.087-8.4-14.352-8.524-7.7-14.062-8.059-11.511,2.907-13,8.255,1.613,10.9,5.014,15.3a85.677,85.677,0,0,0,17.782,17.179c1.206.879,2.514,1.824,2.965,3.241.8,2.565-1.686,5.087-4.251,5.864-2.907.9-6.032.56-9.062.865s-6.322,1.577-7.507,4.36c-1.65,3.888,1.6,8.03,4.818,10.762A74.166,74.166,0,0,0,78.981,339.64c2.834,1.076,5.814,2.02,8.088,4.033s3.633,5.472,2.18,8.139-5.014,3.488-7.994,2.907-5.625-2.231-8.459-3.336c-5.29-2.064-12.172-1.8-15.653,2.689-2.289,2.95-2.551,7.107-1.453,10.682a28.1,28.1,0,0,0,5.726,9.534C69.8,384.3,80.6,392.42,92.89,396.817s23.712,5.726,36.059,1.453" transform="translate(-47.103 -172.775)" fill="#ebebeb"/>
      <path id="Path_4819" data-name="Path 4819" d="M125.309,384.965A336.7,336.7,0,0,0,112.1,347.9q-2.006-4.84-3.968-9.549c-1.308-3.132-2.609-6.235-4.07-9.193a171.5,171.5,0,0,0-9.367-16.532c-3.241-5.087-6.5-9.854-9.585-14.265s-6.061-8.473-8.917-12.056a137.343,137.343,0,0,0-14.745-15.886c-1.882-1.737-3.386-3.038-4.411-3.9l-1.192-.981c-.269-.218-.414-.32-.414-.32s.116.131.371.363l1.141,1.025c1,.894,2.485,2.224,4.36,3.982a142.856,142.856,0,0,1,14.578,15.987c2.834,3.59,5.77,7.645,8.844,12.056s6.3,9.164,9.527,14.272a171.728,171.728,0,0,1,9.309,16.5c1.453,2.943,2.74,6.024,4.048,9.164l3.961,9.549A345.487,345.487,0,0,1,124.8,385.132" transform="translate(-49.379 -173.938)" fill="#e0e0e0"/>
      <path id="Path_4820" data-name="Path 4820" d="M122.15,337.3a8.533,8.533,0,0,0,.378-1.628c.218-1.054.472-2.587.77-4.491.6-3.8,1.243-9.076,1.948-14.9s1.453-11.075,2.115-14.846c.334-1.9.625-3.423.836-4.476a9.288,9.288,0,0,0,.269-1.65,9.449,9.449,0,0,0-.487,1.606c-.283,1.032-.632,2.558-1.017,4.44-.778,3.772-1.584,9.033-2.289,14.861s-1.308,10.988-1.773,14.9c-.24,1.824-.436,3.343-.589,4.513A9.942,9.942,0,0,0,122.15,337.3Z" transform="translate(-67.613 -182.162)" fill="#e0e0e0"/>
      <path id="Path_4821" data-name="Path 4821" d="M53.8,339.416a1.859,1.859,0,0,0,.509.087l1.453.153c1.279.116,3.125.291,5.4.581,4.564.545,10.828,1.519,17.7,2.907s13.022,2.907,17.441,4.171c2.18.6,4,1.148,5.225,1.512l1.453.421a1.57,1.57,0,0,0,.509.1,2.18,2.18,0,0,0-.465-.218l-1.388-.516c-1.214-.436-2.979-1.039-5.181-1.693-4.36-1.344-10.559-2.943-17.441-4.36a173.715,173.715,0,0,0-17.8-2.732c-2.289-.233-4.149-.349-5.436-.4l-1.453-.044a1.659,1.659,0,0,0-.523.029Z" transform="translate(-48.933 -194.206)" fill="#e0e0e0"/>
      <path id="Path_4822" data-name="Path 4822" d="M150.85,405.253a3.789,3.789,0,0,0,.334-.6l.872-1.773c.727-1.541,1.78-3.793,3.016-6.591,2.478-5.6,5.668-13.444,9.076-22.142s6.54-16.554,8.909-22.186c1.185-2.761,2.18-5.021,2.849-6.664.312-.727.567-1.344.77-1.817a3.633,3.633,0,0,0,.233-.647,2.7,2.7,0,0,0-.342.6L175.7,345.2c-.727,1.541-1.78,3.793-3.016,6.6-2.485,5.6-5.668,13.437-9.076,22.135s-6.54,16.554-8.917,22.186l-2.841,6.671c-.32.727-.574,1.337-.77,1.809a2.543,2.543,0,0,0-.233.654Z" transform="translate(-75.457 -195.149)" fill="#e0e0e0"/>
      <path id="Path_4823" data-name="Path 4823" d="M60.2,398.39a3.451,3.451,0,0,0,.654.262l1.918.654,7.063,2.354c5.959,1.991,14.156,4.847,23.2,7.994s17.274,5.973,23.254,7.87c2.994.952,5.428,1.693,7.114,2.18l1.955.552a3.814,3.814,0,0,0,.69.153,3.336,3.336,0,0,0-.661-.269l-1.911-.654-7.063-2.347c-5.959-2-14.156-4.854-23.211-8.03s-17.274-5.973-23.254-7.87c-2.994-.945-5.428-1.693-7.122-2.18l-1.948-.552A3.239,3.239,0,0,0,60.2,398.39Z" transform="translate(-50.682 -210.334)" fill="#e0e0e0"/>
      <rect id="Rectangle_968" data-name="Rectangle 968" width="64.356" height="95.474" transform="translate(369.596 137.356) rotate(-68.53)" fill="#ebebeb"/>
      <path id="Path_4824" data-name="Path 4824" d="M676.931,282.268a6.83,6.83,0,0,1-1.141.472l-3.328,1.192-12.3,4.244L619.4,301.918l-.334.109-.174-.305-.429-.727c-8.437-14.745-16.067-28.087-21.641-37.846-2.7-4.8-4.9-8.72-6.475-11.518-.727-1.308-1.286-2.355-1.722-3.154a7.716,7.716,0,0,1-.552-1.126,6.372,6.372,0,0,1,.727,1.039c.465.778,1.09,1.795,1.86,3.074l6.715,11.38,21.859,37.723.429.727-.509-.2L659.962,287.6l12.354-3.99,3.379-1.039a6.708,6.708,0,0,1,1.235-.305Z" transform="translate(-194.95 -169.054)" fill="#e0e0e0"/>
      <path id="Path_4825" data-name="Path 4825" d="M555.67,320.638c-.116-.211,9.8-5.814,22.128-12.463s22.433-11.918,22.528-11.707-9.8,5.814-22.135,12.47S555.779,320.834,555.67,320.638Z" transform="translate(-186.095 -182.477)" fill="#e0e0e0"/>
      <path id="Path_4826" data-name="Path 4826" d="M658.2,311.42c.225-.065,3.633,10.682,7.587,23.981s6.984,24.177,6.758,24.243-3.633-10.675-7.587-23.981S657.963,311.493,658.2,311.42Z" transform="translate(-214.112 -186.565)" fill="#e0e0e0"/>
      <rect id="Rectangle_969" data-name="Rectangle 969" width="57.111" height="38.493" transform="translate(406.849 22.8) rotate(-23.53)" fill="#ebebeb"/>
      <path id="Path_4827" data-name="Path 4827" d="M659.79,140a4.041,4.041,0,0,1-.283.683l-.9,1.911-3.4,6.991L643.767,172.7l-.094.189-.2-.058-.494-.131-25.166-6.853-7.608-2.136-2.064-.6a4.307,4.307,0,0,1-.727-.247,3.33,3.33,0,0,1,.727.145l2.086.509,7.681,1.918,25.2,6.707.5.131-.3.138c4.513-8.975,8.59-17.07,11.569-22.985,1.453-2.907,2.689-5.24,3.546-6.925l.988-1.868a4.194,4.194,0,0,1,.378-.632Z" transform="translate(-200.236 -139.715)" fill="#e0e0e0"/>
      <path id="Path_4828" data-name="Path 4828" d="M628.587,209.049c-.138,0,1.693-6.591,4.084-14.628s4.455-14.534,4.585-14.49-1.686,6.591-4.084,14.636S628.725,209.049,628.587,209.049Z" transform="translate(-206.022 -150.628)" fill="#e0e0e0"/>
      <path id="Path_4829" data-name="Path 4829" d="M664.21,168.869c.065-.124,6.053,2.987,13.364,6.94s13.182,7.267,13.081,7.4-6.046-2.979-13.357-6.94S664.144,168.963,664.21,168.869Z" transform="translate(-215.76 -147.604)" fill="#e0e0e0"/>
    </g>
    <g id="freepik--Floor--inject-2" transform="translate(50.749 338.549)">
      <path id="Path_4830" data-name="Path 4830" d="M521.392,450.359c0,.1-105.059.189-234.622.189s-234.651-.087-234.651-.189,105.037-.189,234.651-.189S521.392,450.25,521.392,450.359Z" transform="translate(-52.12 -450.17)" fill="#263238"/>
    </g>
    <g id="freepik--Device--inject-2" transform="translate(111.123 123.171)">
      <rect id="Rectangle_970" data-name="Rectangle 970" width="321.629" height="212.69" rx="14.57" transform="translate(13.48)" fill="#263238"/>
      <path id="Path_4831" data-name="Path 4831" d="M135.236,424.82H483.688V430.5a12.935,12.935,0,0,1-12.935,12.935H148.135A12.935,12.935,0,0,1,135.2,430.5V424.82Z" transform="translate(-135.2 -227.863)" fill="#263238"/>
      <rect id="Rectangle_971" data-name="Rectangle 971" width="303.462" height="179.611" transform="translate(22.113 8.444)" fill="#455a64"/>
      <path id="Path_4832" data-name="Path 4832" d="M331.42,424.82l4.324,6.875H396.59l4.011-6.875Z" transform="translate(-188.827 -227.863)" fill="#455a64"/>
      <rect id="Rectangle_972" data-name="Rectangle 972" width="291.587" height="172.954" rx="3.27" transform="translate(28.363 14.527)" fill="#ebebeb"/>
      <rect id="Rectangle_973" data-name="Rectangle 973" width="291.587" height="160.288" transform="translate(28.363 27.2)" fill="#ebebeb"/>
      <path id="Path_4833" data-name="Path 4833" d="M205.385,182.125a2.333,2.333,0,1,1-2.325-2.325A2.333,2.333,0,0,1,205.385,182.125Z" transform="translate(-153.107 -160.899)" fill="#455a64"/>
      <path id="Path_4834" data-name="Path 4834" d="M185.965,182.125a2.333,2.333,0,1,1-2.325-2.325A2.333,2.333,0,0,1,185.965,182.125Z" transform="translate(-147.799 -160.899)" fill="#455a64"/>
      <path id="Path_4835" data-name="Path 4835" d="M195.245,182.125a2.333,2.333,0,1,1-2.325-2.325,2.333,2.333,0,0,1,2.325,2.325Z" transform="translate(-150.335 -160.899)" fill="#455a64"/>
      <path id="Path_4836" data-name="Path 4836" d="M472.618,424.741c0,.116-71.391.2-159.423.2s-159.445-.087-159.445-.2,71.376-.211,159.445-.211S472.618,424.624,472.618,424.741Z" transform="translate(-140.27 -227.784)" fill="#455a64"/>
    </g>
    <g id="freepik--paper-plane--inject-2" transform="translate(98.772 63.705)">
      <path id="Path_4837" data-name="Path 4837" d="M143.97,340.42a1.585,1.585,0,0,1-.247-.145L143,339.8l-1.163-.792c-.458-.32-1-.669-1.57-1.141l-1.94-1.526c-.727-.574-1.453-1.272-2.224-1.984a53.108,53.108,0,0,1-5.087-5.45,56.566,56.566,0,0,1-9.571-17.92,70.57,70.57,0,0,1-3.016-26.721,77.03,77.03,0,0,1,2.711-15.471,62.714,62.714,0,0,1,6.715-15.653c.763-1.264,1.621-2.485,2.514-3.7l2.849-3.532c1.01-1.134,2.064-2.253,3.11-3.394s2.224-2.18,3.343-3.27A111.915,111.915,0,0,1,155.023,227.5c11.133-7.2,23.712-13.16,36.662-19.366,12.913-6.322,26.524-12.39,40.477-18.524,55.876-24.475,107.013-45.317,144.264-59.793,18.618-7.267,33.813-12.812,44.329-16.612,5.261-1.875,9.374-3.27,12.15-4.229l3.168-1.083.814-.262a1.679,1.679,0,0,1,.276-.08l-.262.116-.8.305-3.147,1.148-12.1,4.36c-10.479,3.888-25.638,9.5-44.227,16.83-37.163,14.628-88.265,35.557-144.133,60.018-13.953,6.141-27.535,12.187-40.448,18.5-12.964,6.2-25.522,12.136-36.611,19.287a111.179,111.179,0,0,0-15.261,11.627c-1.112,1.09-2.26,2.129-3.321,3.234s-2.086,2.238-3.1,3.365l-2.827,3.5c-.887,1.192-1.737,2.391-2.485,3.633a62,62,0,0,0-6.686,15.486,76.3,76.3,0,0,0-2.747,15.355,70.613,70.613,0,0,0,2.907,26.554,56.952,56.952,0,0,0,9.353,17.928,55,55,0,0,0,4.992,5.465c.792.727,1.5,1.453,2.18,2.006l1.9,1.555c.56.48,1.1.836,1.555,1.163l1.134.821.69.5a1.355,1.355,0,0,1,.24.116Z" transform="translate(-118.205 -81.687)" fill="#263238"/>
      <path id="Path_4838" data-name="Path 4838" d="M540.35,73.922l13.458,11.155-1.243,12.775,11.024-6.126,11.743,8.342L619.095,71.96Z" transform="translate(-233.578 -71.96)" fill="#be1a25"/>
      <g id="Group_6382" data-name="Group 6382" transform="translate(318.988 0.029)" opacity="0.5">
        <path id="Path_4839" data-name="Path 4839" d="M558.4,85.088,622.5,72,564.928,89.426l-7.768,8.437h0Z" transform="translate(-557.16 -72)"/>
      </g>
      <g id="Group_6383" data-name="Group 6383" transform="translate(318.988 17.455)" opacity="0.8">
        <path id="Path_4840" data-name="Path 4840" d="M564.928,95.98l3.256,2.311-11.024,6.126Z" transform="translate(-557.16 -95.98)"/>
      </g>
    </g>
    <g id="freepik--Letters--inject-2" transform="translate(153.78 165.341)">
      <rect id="Rectangle_974" data-name="Rectangle 974" width="70.221" height="47.33" transform="translate(0.242 74.934) rotate(-5.42)" fill="#fff"/>
      <path id="Path_4841" data-name="Path 4841" d="M268.517,352.852s-.051-.305-.109-.872-.153-1.453-.269-2.5c-.225-2.18-.552-5.407-.966-9.491-.814-8.2-1.969-19.941-3.386-34.235l.283.233-69.894,6.7c-.073.073.545-.676.291-.349h0v.371l.036.392.073.785.145,1.57c.1,1.046.2,2.086.3,3.118q.291,3.118.581,6.177.574,6.126,1.141,12.049c.727,7.885,1.453,15.464,2.129,22.644l-.327-.269,50.36-4.622,14.418-1.286,3.844-.334,1-.073a2.492,2.492,0,0,1,.349,0,2.828,2.828,0,0,1-.312.044l-.966.109-3.779.4-14.33,1.453L198.638,359.8h-.3v-.3c-.69-7.18-1.41-14.759-2.18-22.644q-.567-5.923-1.148-12.049-.3-3.059-.589-6.17c-.1-1.039-.2-2.078-.3-3.118l-.145-1.57-.08-.785V312.4l.3-.363,69.908-6.54h.262v.262c1.3,14.374,2.376,26.161,3.125,34.424.356,4.062.639,7.267.828,9.447.087,1.054.16,1.868.2,2.456A2.645,2.645,0,0,1,268.517,352.852Z" transform="translate(-193.9 -237.423)" fill="#455a64"/>
      <path id="Path_4842" data-name="Path 4842" d="M264.146,305.81a5.085,5.085,0,0,1-.545.727l-1.642,1.918-6.17,7.005-20.682,23.124-.182.211-.233-.153-1.86-1.185-27.367-17.55-8.248-5.385c-.93-.618-1.664-1.119-2.231-1.49a4.725,4.725,0,0,1-.727-.56,5.6,5.6,0,0,1,.821.443l2.289,1.388,8.328,5.181,27.469,17.39,1.86,1.192-.414.058,20.827-23,6.315-6.86,1.737-1.839A4.876,4.876,0,0,1,264.146,305.81Z" transform="translate(-193.998 -237.508)" fill="#455a64"/>
      <rect id="Rectangle_975" data-name="Rectangle 975" width="34.729" height="51.53" transform="matrix(0.272, -0.962, 0.962, 0.272, 208.479, 33.653)" fill="#fff"/>
      <path id="Path_4843" data-name="Path 4843" d="M530.257,259.5s.051-.225.16-.625.269-1.017.48-1.78c.429-1.577,1.054-3.851,1.853-6.751l6.773-24.315.131.233-49.6-13.967.291-.16h0v.124l-.036.138-.08.276-.16.56-.312,1.112-.625,2.18-1.235,4.36c-.821,2.907-1.628,5.748-2.42,8.546-1.591,5.588-3.11,10.966-4.556,16.06l-.153-.276,35.659,10.174,10.174,2.943,2.725.792.727.218.24.08-.225-.051-.727-.182-2.689-.727-10.174-2.82-35.848-10.021-.211-.058.058-.211c1.453-5.087,2.95-10.472,4.527-16.067q1.177-4.193,2.413-8.546l1.235-4.36c.2-.727.414-1.453.625-2.18l.313-1.112.16-.552.073-.283.044-.138v-.124h0l.3-.167,49.568,14.054.189.058-.058.182c-2.907,10.174-5.319,18.538-6.991,24.381l-1.889,6.693c-.218.727-.392,1.323-.509,1.737A2.4,2.4,0,0,1,530.257,259.5Z" transform="translate(-272.207 -211.82)" fill="#455a64"/>
      <path id="Path_4844" data-name="Path 4844" d="M543.361,226.182a3.787,3.787,0,0,1-.552.334l-1.628.872-6.075,3.154-20.289,10.334-.182.094-.116-.167-.952-1.3L499.5,220.23l-4.222-5.872-1.119-1.577a3.065,3.065,0,0,1-.363-.581,3.943,3.943,0,0,1,.443.523l1.2,1.562,4.36,5.777,14.178,19.192.959,1.3-.305-.073,20.348-10.174,6.141-3.016,1.679-.8a3.547,3.547,0,0,1,.56-.312Z" transform="translate(-275.863 -211.924)" fill="#455a64"/>
    </g>
    <g id="freepik--Plant--inject-2" transform="translate(158.342 157.166)">
      <path id="Path_4845" data-name="Path 4845" d="M201.618,201.013s3.423-2.769,8.72,5.537a113.786,113.786,0,0,1,7.47,13.182s1.359,1.715,2.5.4,2.536-4.883,4.731-4.476,3.248,2.82,3.176,6.5.073,11.736.087,12.463.523,1.722,1.453.952,5.988-7.652,9.106-5.051,1.235,12.812,1.054,13.931.073,1.562.618,1.788,2.035-2.253,3.554-4.149,3.633-3.83,5.29-2.18,2.907,9.062-3.045,21.852l-3.132,5.748-6.54.276c-14.1-.283-20.231-4.607-20.98-6.831s1.9-3.27,4.273-3.808,5.239-.785,5.283-1.373-.247-1.017-1.337-1.337-11.089-3.11-12.056-7.049,7.427-5.487,8.524-5.981.414-1.388-.218-1.715-7.834-3.99-11.169-5.53-5.087-3.474-4.455-5.7,4.411-1.846,6.1-2.3.727-2.42.727-2.42a113.368,113.368,0,0,1-8.575-12.485c-5.145-8.408-1.054-10.29-1.054-10.29" transform="translate(-200.178 -200.57)" fill="#be1a25"/>
      <path id="Path_4846" data-name="Path 4846" d="M208.71,211.4a1.655,1.655,0,0,0,.1.182l.305.523,1.2,2c1.046,1.73,2.573,4.229,4.476,7.267,3.8,6.162,9.127,14.621,15.043,23.937s11.257,17.775,15.094,23.908c1.911,3.067,3.459,5.545,4.542,7.267l1.235,1.977c.138.218.247.392.327.509l.116.174a1.663,1.663,0,0,0-.1-.182l-.305-.523-1.2-1.926c-1.046-1.73-2.58-4.229-4.476-7.3-3.808-6.155-9.127-14.621-15.043-23.945s-11.264-17.768-15.1-23.9l-4.535-7.267c-.53-.85-.945-1.519-1.235-1.977l-.327-.509A1.389,1.389,0,0,0,208.71,211.4Z" transform="translate(-202.51 -203.53)" fill="#263238"/>
      <path id="Path_4847" data-name="Path 4847" d="M231.322,228.29a2.041,2.041,0,0,0-.124.458c-.065.3-.153.727-.247,1.264-.2,1.068-.429,2.551-.654,4.2s-.407,3.074-.56,4.208c-.065.5-.131.923-.174,1.272a1.919,1.919,0,0,0-.044.472,2.072,2.072,0,0,0,.131-.458c.065-.3.145-.727.24-1.264.189-1.068.4-2.558.625-4.2s.429-3.074.589-4.208c.073-.494.131-.923.182-1.272A2.085,2.085,0,0,0,231.322,228.29Z" transform="translate(-208.197 -208.146)" fill="#263238"/>
      <path id="Path_4848" data-name="Path 4848" d="M223.568,243.917c0-.058-3.03-.676-6.787-1.373s-6.824-1.214-6.831-1.155,3.03.676,6.787,1.373S223.561,244.012,223.568,243.917Z" transform="translate(-202.849 -211.725)" fill="#263238"/>
      <path id="Path_4849" data-name="Path 4849" d="M237.478,263.995a2.062,2.062,0,0,0-.487,0l-1.308.131c-1.1.1-2.631.247-4.317.342s-3.219.145-4.324.167h-1.315a2.738,2.738,0,0,0-.487.036,1.909,1.909,0,0,0,.487.051c.305,0,.727.036,1.315.044,1.1,0,2.645,0,4.36-.094s3.219-.269,4.324-.414c.545-.073,1-.145,1.3-.2a2.327,2.327,0,0,0,.451-.065Z" transform="translate(-207.027 -217.9)" fill="#263238"/>
      <path id="Path_4850" data-name="Path 4850" d="M246.593,249.67a2.334,2.334,0,0,0-.218.385l-.538,1.1c-.436.923-1.032,2.18-1.679,3.633s-1.221,2.718-1.628,3.633c-.2.472-.363.85-.465,1.119a1.722,1.722,0,0,0-.145.422,1.5,1.5,0,0,0,.218-.385c.131-.254.312-.625.538-1.09.443-.93,1.039-2.18,1.686-3.633s1.214-2.718,1.621-3.633c.2-.465.363-.85.472-1.119a1.641,1.641,0,0,0,.138-.429Z" transform="translate(-211.586 -213.989)" fill="#263238"/>
      <path id="Path_4851" data-name="Path 4851" d="M260.022,265.07a2.457,2.457,0,0,0-.283.494c-.182.371-.414.843-.683,1.4-.574,1.177-1.352,2.82-2.18,4.636s-1.6,3.474-2.137,4.673c-.247.574-.458,1.054-.625,1.453a3.489,3.489,0,0,0-.2.538,2.411,2.411,0,0,0,.283-.5l.69-1.4c.567-1.185,1.344-2.82,2.18-4.644s1.6-3.466,2.137-4.665c.254-.574.458-1.054.625-1.453A2.588,2.588,0,0,0,260.022,265.07Z" transform="translate(-214.863 -218.198)" fill="#263238"/>
      <path id="Path_4852" data-name="Path 4852" d="M248.157,282.7a3.539,3.539,0,0,0-.61,0l-1.664.1c-1.4.087-3.343.2-5.487.269s-4.091.08-5.5.08H233.23a3.7,3.7,0,0,0-.61,0,3.234,3.234,0,0,0,.61.058c.392,0,.959.051,1.664.073,1.41.036,3.357.051,5.508,0s4.091-.2,5.494-.327c.727-.065,1.264-.124,1.657-.174a3.1,3.1,0,0,0,.6-.08Z" transform="translate(-209.044 -223.012)" fill="#263238"/>
      <path id="Path_4853" data-name="Path 4853" d="M544.13,291.089a9.992,9.992,0,0,0-7.841.058,17.674,17.674,0,0,0-6.388,4.8c-3.459,3.888-5.385,9.556-6.351,14.672,5.734.727,11.336-2.972,14.062-5.014,4.309-3.234,10.13-11.685,6.54-14.534" transform="translate(-288.556 -225.098)" fill="#be1a25"/>
      <path id="Path_4854" data-name="Path 4854" d="M507.26,314.5a8.539,8.539,0,0,0,4.731-7.158,11.344,11.344,0,0,0-3.052-8.219,4.814,4.814,0,0,0-3.554-1.9,3.634,3.634,0,0,0-2.958,2.224,7.419,7.419,0,0,0-.465,3.822c.436,4.433,1.671,8.64,5.3,11.227" transform="translate(-282.636 -226.986)" fill="#be1a25"/>
      <path id="Path_4855" data-name="Path 4855" d="M498.91,331.369a7.823,7.823,0,0,0,.727-.821c.436-.552,1.046-1.359,1.773-2.384a36.794,36.794,0,0,0,4.709-8.619,18.414,18.414,0,0,0,.85-9.767,12.168,12.168,0,0,0-.952-2.841,3.371,3.371,0,0,0-.5-.937,25.325,25.325,0,0,1,1.112,3.859,19.272,19.272,0,0,1-1.017,9.491,42.978,42.978,0,0,1-4.505,8.582A34.237,34.237,0,0,0,498.91,331.369Z" transform="translate(-281.822 -229.385)" fill="#263238"/>
      <path id="Path_4856" data-name="Path 4856" d="M531.989,299.55a10.176,10.176,0,0,0-1.453,1.068c-.908.727-2.18,1.78-3.808,3.1-3.183,2.652-7.529,6.388-12.216,10.624s-8.851,8.19-11.809,11.089c-1.453,1.453-2.66,2.638-3.466,3.474a10.373,10.373,0,0,0-1.206,1.337,11.005,11.005,0,0,0,1.366-1.177l3.6-3.336c3.023-2.827,7.216-6.715,11.911-10.951s8.982-7.994,12.092-10.748l3.684-3.241A11.421,11.421,0,0,0,531.989,299.55Z" transform="translate(-281.582 -227.622)" fill="#263238"/>
      <path id="Path_4857" data-name="Path 4857" d="M513.735,330.536a20,20,0,0,1,18.167-2.027c1.5.589,3.132,1.664,3.154,3.277s-1.577,2.747-3.074,3.343a17.07,17.07,0,0,1-18.473-4.222" transform="translate(-285.812 -235.179)" fill="#be1a25"/>
      <path id="Path_4858" data-name="Path 4858" d="M524.241,332.3a3.182,3.182,0,0,0-.937-.465,8.266,8.266,0,0,0-1.148-.429,16.038,16.038,0,0,0-1.577-.429,20.514,20.514,0,0,0-4.208-.531,22.578,22.578,0,0,0-10.108,2.129,21.278,21.278,0,0,0-3.633,2.18,13.5,13.5,0,0,0-1.257,1.032,8.528,8.528,0,0,0-.887.85c-.458.494-.727.778-.669.807s1.1-1,3.052-2.354a23.292,23.292,0,0,1,3.633-2.027,26.158,26.158,0,0,1,4.833-1.577,25.75,25.75,0,0,1,5.087-.509,23.169,23.169,0,0,1,4.135.392C522.832,331.85,524.205,332.432,524.241,332.3Z" transform="translate(-282.068 -236.065)" fill="#263238"/>
    </g>
    <g id="freepik--Newletter--inject-2" transform="translate(197.658 94.081)">
      <rect id="Rectangle_976" data-name="Rectangle 976" width="183.665" height="201.39" transform="translate(0.109 0.211)" fill="#fafafa"/>
      <path id="Path_4859" data-name="Path 4859" d="M438.055,315.36c0-1.453-.065-81.041-.167-201.39l.167.167H254.411l.189-.189v201.39l-.16-.16,183.665.16-183.666.16h-.16V113.76H438.3v.16C438.12,234.326,438.055,313.929,438.055,315.36Z" transform="translate(-254.28 -113.76)" fill="#263238"/>
      <path id="Path_4861" data-name="Path 4861" d="M353.734,350.839a3.059,3.059,0,0,1-1.9-.581h0l.32-.727h0a2.667,2.667,0,0,0,1.577.523c.669,0,1.046-.225,1.046-.61s-.523-.56-1.126-.727c-.814-.2-1.73-.414-1.73-1.453,0-.727.516-1.453,1.955-1.453a3.045,3.045,0,0,1,1.613.429h0l-.291.727h0a2.71,2.71,0,0,0-1.323-.378c-.654,0-1.025.233-1.025.632s.523.56,1.126.727c.807.2,1.73.414,1.73,1.453a1.294,1.294,0,0,1-.487,1.017A2.326,2.326,0,0,1,353.734,350.839Zm-1.875-.6a3.11,3.11,0,0,0,1.875.567c1.17,0,1.933-.552,1.933-1.41,0-.988-.908-1.206-1.7-1.4-.625-.145-1.155-.276-1.155-.727s.385-.669,1.061-.669a2.7,2.7,0,0,1,1.323.371l.269-.661a3.038,3.038,0,0,0-1.584-.414c-1.417,0-1.918.727-1.918,1.417,0,1,.9,1.221,1.7,1.41.625.145,1.155.276,1.155.727s-.392.647-1.083.647a2.711,2.711,0,0,1-1.577-.516Z" transform="translate(-280.941 -177.18)" fill="none"/>
      <path id="Path_4863" data-name="Path 4863" d="M360.394,350.891a1.962,1.962,0,0,1-2.129-2.18V346h.93v2.7c0,.937.392,1.4,1.206,1.4s1.2-.458,1.2-1.4V346h.916v2.74a1.955,1.955,0,0,1-2.122,2.151ZM358.3,346v2.7a2.093,2.093,0,1,0,4.179,0V346h-.843v2.667c0,.952-.414,1.453-1.235,1.453s-1.243-.48-1.243-1.453V346Z" transform="translate(-282.696 -177.232)" fill="none"/>
      <path id="Path_4865" data-name="Path 4865" d="M368.213,350.825H365.8V346h2.275c1.119,0,1.788.48,1.788,1.272a1.163,1.163,0,0,1-.589,1.054,1.206,1.206,0,0,1,.836,1.2C370.109,350.36,369.433,350.825,368.213,350.825Zm-2.376-.036h2.376c1.2,0,1.86-.458,1.86-1.294a1.17,1.17,0,0,0-.85-1.177h-.007a1.134,1.134,0,0,0,.61-1.046c0-.785-.64-1.235-1.751-1.235h-2.238Zm2.318-.669H366.7v-1.453h1.453c.727,0,1.054.233,1.054.727s-.356.727-1.083.727Zm-1.453-.036h1.453c.683,0,1.017-.218,1.017-.676s-.334-.676-1.017-.676H366.7Zm1.243-2.042h-1.272v-1.366h1.279c.647,0,.988.24.988.683s-.32.683-.966.683Zm-1.243-.036h1.243c.436,0,.952-.116.952-.647s-.516-.647-.952-.647H366.7Z" transform="translate(-284.759 -177.232)" fill="none"/>
      <path id="Path_4867" data-name="Path 4867" d="M374.361,350.839a3.1,3.1,0,0,1-1.911-.581h0l.313-.727h0a2.667,2.667,0,0,0,1.577.523c.669,0,1.046-.225,1.046-.61s-.523-.56-1.126-.727c-.814-.2-1.73-.414-1.73-1.453,0-.727.509-1.453,1.955-1.453a3.081,3.081,0,0,1,1.613.429h0l-.291.727h0a2.66,2.66,0,0,0-1.315-.378c-.654,0-1.025.233-1.025.632s.516.56,1.119.727c.814.2,1.73.414,1.73,1.453C376.323,350.308,375.553,350.839,374.361,350.839Zm-1.875-.6a3.1,3.1,0,0,0,1.875.567c1.17,0,1.926-.552,1.926-1.41,0-.988-.9-1.206-1.7-1.4-.618-.145-1.148-.276-1.148-.727s.385-.669,1.061-.669a2.675,2.675,0,0,1,1.315.371l.269-.661a2.994,2.994,0,0,0-1.577-.414c-1.417,0-1.918.727-1.918,1.417,0,1,.9,1.221,1.7,1.41.618.145,1.155.276,1.155.727s-.392.647-1.083.647a2.747,2.747,0,0,1-1.584-.516Z" transform="translate(-286.576 -177.18)" fill="none"/>
      <path id="Path_4869" data-name="Path 4869" d="M381.144,350.856a2.493,2.493,0,1,1,1.918-4.179h0l-.589.552h0a1.672,1.672,0,1,0,0,2.224h0l.6.574h0a2.449,2.449,0,0,1-1.933.828Zm0-4.949a2.456,2.456,0,1,0,1.875,4.128l-.552-.523a1.686,1.686,0,0,1-1.286.56,1.708,1.708,0,1,1,1.286-2.863l.552-.516a2.412,2.412,0,0,0-1.868-.785Z" transform="translate(-288.294 -177.197)" fill="none"/>
      <path id="Path_4871" data-name="Path 4871" d="M390,350.825h-1.01l-.981-1.4H386.77v1.4h-.93V346h2c1.272,0,2.064.669,2.064,1.737a1.555,1.555,0,0,1-1.01,1.526Zm-.988-.036h.916l-1.068-1.577h0a1.511,1.511,0,0,0,1.01-1.5c0-1.046-.778-1.7-2.027-1.7h-1.962V350.8h.857v-1.4h1.3Zm-1.221-2.107h-1.061v-1.955h1.061c.778,0,1.206.349,1.206.981s-.429.974-1.206.974Zm-1.025-.036h1.025c.727,0,1.17-.334,1.17-.937s-.414-.937-1.17-.937H386.77Z" transform="translate(-290.236 -177.232)" fill="none"/>
      <path id="Path_4872" data-name="Path 4872" d="M392.777,346h.887v4.811h-.894Z" transform="translate(-292.13 -177.232)" fill="#fafafa"/>
      <path id="Path_4873" data-name="Path 4873" d="M393.65,350.825h-.93V346h.93Zm-.894-.036h.894V346h-.857Z" transform="translate(-292.116 -177.232)" fill="none"/>
      <path id="Path_4875" data-name="Path 4875" d="M398.185,350.825H395.78V346h2.267c1.126,0,1.795.48,1.795,1.272a1.163,1.163,0,0,1-.589,1.054,1.206,1.206,0,0,1,.836,1.2C400.089,350.36,399.414,350.825,398.185,350.825Zm-2.369-.036h2.369c1.206,0,1.868-.458,1.868-1.294a1.177,1.177,0,0,0-.85-1.177H399.2a1.134,1.134,0,0,0,.61-1.046c0-.785-.64-1.235-1.759-1.235h-2.231Zm2.318-.669h-1.453v-1.453h1.453c.727,0,1.054.233,1.054.727s-.342.727-1.068.727Zm-1.453-.036h1.453c.683,0,1.017-.218,1.017-.676s-.334-.676-1.017-.676h-1.453Zm1.243-2.042h-1.257v-1.366h1.279c.647,0,.988.24.988.683s-.334.683-.981.683Zm-1.243-.036h1.243c.436,0,.952-.116.952-.647s-.516-.647-.952-.647h-1.243Z" transform="translate(-292.952 -177.232)" fill="none"/>
      <path id="Path_4877" data-name="Path 4877" d="M406.633,350.825H403V346h3.554v.792H403.93v1.214h2.325v.77H403.93v1.294h2.7ZM403,350.789h3.633v-.727h-2.718V348.7h2.325v-.727h-2.325v-1.243h2.623V346H403Z" transform="translate(-294.926 -177.232)" fill="none"/>
      <path id="Path_4878" data-name="Path 4878" d="M422.172,312.492c0,.109-24.937.2-55.692.2s-55.7-.093-55.7-.2,24.929-.2,55.7-.2S422.172,312.375,422.172,312.492Z" transform="translate(-276.754 -134.392)" fill="#263238"/>
      <path id="Path_4879" data-name="Path 4879" d="M434.564,321.172c0,.109-32.742.2-73.118.2s-73.126-.093-73.126-.2,32.734-.2,73.126-.2S434.564,321.063,434.564,321.172Z" transform="translate(-271.721 -136.337)" fill="#263238"/>
      <path id="Path_4880" data-name="Path 4880" d="M265.14,124.245a1.548,1.548,0,1,1-.453-1.1A1.555,1.555,0,0,1,265.14,124.245Z" transform="translate(-256.398 -116.201)" fill="#e0e0e0"/>
      <circle id="Ellipse_228" data-name="Ellipse 228" cx="1.555" cy="1.555" r="1.555" transform="translate(10.821 6.489)" fill="#e0e0e0"/>
      <path id="Path_4881" data-name="Path 4881" d="M279.41,124.245a1.555,1.555,0,1,1-1.555-1.555,1.555,1.555,0,0,1,1.555,1.555Z" transform="translate(-260.298 -116.201)" fill="#e0e0e0"/>
    </g>
    <g id="freepik--Character--inject-2" transform="translate(158.78 72.756)">
      <path id="Path_4882" data-name="Path 4882" d="M484.534,162.361l3.228-11.638S488.918,146,489.2,144.9c.365-1.459-.66-1.916-1.257-.923-.233.372-2.785,5.183-2.785,5.183s2.033-7.875,2.11-8.162c.659-2.568-.939-2.328-1.4-1.381s-3.359,8.7-3.359,8.7c2.708-10.125,1.862-11.017,1.094-11.18s-3.1,9.1-3.1,9.1a8.534,8.534,0,0,0-2.444-2.669c-2.444-1.684-6.525,0-6.719,1.148s1.257,1.474,1.257,1.474a3.684,3.684,0,0,1,5.889,3.336,2.292,2.292,0,0,1-4.485.442c-1.016-4.57-2.584-3.1-2.584-3.1l1.552,10.086L471.29,162" transform="translate(-273.851 -63.131)" fill="#ffbe9d"/>
      <path id="Path_4883" data-name="Path 4883" d="M338.5,230.606l69.712-.465,1.916,47.4-72.18-.714Z" transform="translate(-243.966 -83.978)" fill="#455a64"/>
      <path id="Path_4884" data-name="Path 4884" d="M338.66,222.474l35.411-28.614,34.3,28.149" transform="translate(-244.125 -75.846)" fill="#263238"/>
      <path id="Path_4885" data-name="Path 4885" d="M338,282.537c-.093-.078,5.493-6.168,12.468-13.6s12.7-13.384,12.786-13.306-5.493,6.168-12.468,13.6S338.046,282.622,338,282.537Z" transform="translate(-243.977 -89.69)" fill="#263238"/>
      <path id="Path_4886" data-name="Path 4886" d="M424.081,283.439c-.085.078-5.516-5.9-12.127-13.345s-11.925-13.547-11.824-13.624,5.516,5.9,12.127,13.345S424.158,283.362,424.081,283.439Z" transform="translate(-257.902 -89.879)" fill="#263238"/>
      <path id="Path_4887" data-name="Path 4887" d="M408.372,230.14l-35.023,27.947L338.66,230.606" transform="translate(-244.125 -83.978)" fill="#263238"/>
      <path id="Path_4888" data-name="Path 4888" d="M277.536,155.753h.233l-.931-3.1-2.987-11.917a2.188,2.188,0,0,1,1.4-2.6l2.149-.078,7.355-3.437a2.328,2.328,0,0,1,3.1,1.777c.272,2.2,1.761,8.077,3.344,6.013l.116-.132c2.227-3.065,5-4.725,6.145-4.655a1.28,1.28,0,0,1,.776,2.2,1.381,1.381,0,0,1-.419.365,2.192,2.192,0,0,0-.241.163,18.475,18.475,0,0,0-2.654,2.9,10.234,10.234,0,0,0-1.622,3.1c-.4,1.241-.683,2.328-.908,3.243l.574,6.083" transform="translate(-229.585 -62.536)" fill="#ffbe9d"/>
      <path id="Path_4889" data-name="Path 4889" d="M284.413,80.979s-8.6-1.645-20.949-12.872S245.007,41.674,243.533,41.79s-7.953-2.685-19.459,24.262-6.479,32.99-4.05,32.874,18.823-5.191,29.181-4.314,23.773,5.881,23.773,5.881Z" transform="translate(-216.817 -41.756)" fill="#455a64"/>
      <path id="Path_4890" data-name="Path 4890" d="M318.689,104.885l-2.762,5.625-1.234,2.522a7.247,7.247,0,0,1-9.31,3.476l-18.512-5.866L296.824,86l18.582,9.233A7.247,7.247,0,0,1,318.689,104.885Z" transform="translate(-232.518 -51.672)" fill="#263238"/>
      <path id="Path_4891" data-name="Path 4891" d="M305.133,121.1l-5.509,11.638-2.948-.729-18.621,16.053-5.625-10.28s11.134-5.175,13.1-9.248-.466-4.927-.466-4.927l5.136-6.207Z" transform="translate(-229.281 -58.71)" fill="#263238"/>
      <path id="Path_4892" data-name="Path 4892" d="M225.533,66.7c-6.1,14.594-8.441,27.512-5.237,28.855s10.754-9.4,16.852-24,8.442-27.512,5.237-28.855S231.631,52.1,225.533,66.7Z" transform="translate(-217.275 -41.941)" fill="#263238"/>
      <path id="Path_4893" data-name="Path 4893" d="M328.752,118.485l-5.012-1.42,2.91-5.935,3.786,2.211Z" transform="translate(-240.781 -57.304)" fill="#455a64"/>
      <path id="Path_4894" data-name="Path 4894" d="M293.06,120.13l13.586,8.131,1.575-3.305Z" transform="translate(-233.905 -59.321)" fill="#455a64"/>
      <path id="Path_4895" data-name="Path 4895" d="M326.65,111.13l-2.91,5.935,1.024.287,2.335-5.959Z" transform="translate(-240.781 -57.304)" fill="#455a64"/>
      <path id="Path_4896" data-name="Path 4896" d="M319.957,111.67c-.062.163-2.568-.776-5.594-2s-5.431-2.421-5.354-2.584,2.576.776,5.6,2S320.027,111.507,319.957,111.67Z" transform="translate(-237.479 -56.393)" fill="#455a64"/>
      <path id="Path_4897" data-name="Path 4897" d="M322.146,107.14c-.078.163-2.328-.722-5.074-1.963s-4.88-2.39-4.8-2.553,2.328.722,5.066,1.971A24.574,24.574,0,0,1,322.146,107.14Z" transform="translate(-238.21 -55.394)" fill="#455a64"/>
      <path id="Path_4898" data-name="Path 4898" d="M317.89,116.587c0,.085-.613,0-1.552-.295-.481-.132-1.04-.3-1.66-.5s-1.265-.512-1.955-.776c-2.754-1.187-4.865-2.328-4.8-2.506s2.328.776,5.051,1.916c.683.287,1.319.605,1.916.838l1.591.613C317.37,116.23,317.913,116.5,317.89,116.587Z" transform="translate(-237.235 -57.61)" fill="#455a64"/>
      <path id="Path_4899" data-name="Path 4899" d="M240.876,68.776s-7.565-4.4-11.343,5.757,4.081,11.584,4.081,11.584A67.02,67.02,0,0,0,240.876,68.776Z" transform="translate(-219.437 -47.599)" fill="#455a64"/>
      <path id="Path_4900" data-name="Path 4900" d="M248.4,53.34a10.529,10.529,0,0,1-.233,1.924c-.2,1.234-.481,3.026-.9,5.222-.279,1.086-.59,2.273-.923,3.546-.171.636-.341,1.3-.52,1.971l-.279,1.04c-.1.349-.233.683-.349,1.04l-1.552,4.376c-.132.38-.272.776-.411,1.148s-.326.776-.489,1.141l-1.04,2.328L240.66,79.4c-.178.372-.326.776-.528,1.117s-.388.714-.59,1.071c-.776,1.4-1.552,2.77-2.25,4.066-.186.318-.349.644-.543.947l-.59.892-1.141,1.7-2.041,3.041c-1.373,1.761-2.529,3.158-3.321,4.12a12.727,12.727,0,0,1-1.288,1.459,10.684,10.684,0,0,1,1.094-1.606l3.15-4.244,1.971-3.1c.349-.551.722-1.117,1.094-1.7l.582-.892c.186-.3.341-.628.528-.954l2.2-4.05.574-1.032c.194-.357.341-.776.52-1.117l1.032-2.328c.349-.776.7-1.552,1.032-2.328.163-.38.357-.776.5-1.125l.411-1.141c.543-1.505,1.078-2.956,1.552-4.337.116-.349.256-.683.365-1.024s.186-.691.287-1.024c.186-.667.365-1.319.543-1.947.357-1.257.691-2.436,1-3.507.45-2.157.822-3.879,1.086-5.16A12.555,12.555,0,0,1,248.4,53.34Z" transform="translate(-219.406 -44.352)" fill="#263238"/>
      <path id="Path_4901" data-name="Path 4901" d="M304,187.3l-7.7-29.227-19.226.512,5.982,40.788c.776,8.876,5.99,14.68,14.742,16.092,5.276.846,10.994-4.182,15.23-7.433,2.762-2.126,3.251-1.707,6.106-4.3h0l12.414-8.954.3,1.474h-.078l2.1,24.921,25.65,20.173,30.593-24.51-.7-10.606c.078,0,.147-.155,0-.155l-.776-12.01,15.673,17.977a17.9,17.9,0,0,0,31.454-3.662l8.069-41.121-17.721-3.81-8.294,29.607L398.054,170.3c-11.421-14.881-24.75-13.624-24.75-13.624l-24.58-.434h-.054c-.729,0-14.462.458-23.773,10.4Z" transform="translate(-230.323 -67.415)" fill="#be1a25"/>
      <path id="Path_4902" data-name="Path 4902" d="M411.936,175.771a7.005,7.005,0,0,0-.776-.287,6.207,6.207,0,0,0-2.374-.248,11.111,11.111,0,0,0-3.639,1.04c-1.358.605-2.762,1.552-4.4,2.506a11.405,11.405,0,0,1-5.873,1.862,10.358,10.358,0,0,1-3.383-.776c-1.1-.434-2.2-.97-3.344-1.428a13.19,13.19,0,0,0-7.549-.714c-2.638.5-5.059,1.986-7.534,3.422a28.812,28.812,0,0,1-3.825,1.909,15.347,15.347,0,0,1-4.035.978,15.913,15.913,0,0,1-7.759-1.071,29.756,29.756,0,0,1-6.091-3.631c-1.792-1.3-3.445-2.529-5.066-3.468a18.233,18.233,0,0,0-4.655-1.916,11.467,11.467,0,0,0-3.771-.31,9.853,9.853,0,0,0-3.1.877l.178-.109c.124-.07.31-.171.566-.295a8.619,8.619,0,0,1,2.328-.628,11.475,11.475,0,0,1,3.841.248,18.14,18.14,0,0,1,4.741,1.885c1.645.931,3.313,2.165,5.113,3.445a29.173,29.173,0,0,0,6.036,3.553,15.665,15.665,0,0,0,11.514.062,27.636,27.636,0,0,0,3.771-1.893c2.46-1.428,4.927-2.941,7.658-3.453a13.578,13.578,0,0,1,7.759.776c2.328.939,4.4,2.149,6.595,2.219a11.2,11.2,0,0,0,5.726-1.777c1.622-.892,3.057-1.87,4.446-2.46a11,11,0,0,1,3.724-.993,5.8,5.8,0,0,1,2.405.326A2.986,2.986,0,0,1,411.936,175.771Z" transform="translate(-243.251 -71.265)" fill="#fafafa"/>
      <path id="Path_4903" data-name="Path 4903" d="M422.549,193.8a4.3,4.3,0,0,1-.419,1.086,6.866,6.866,0,0,1-2.227,2.452,10.164,10.164,0,0,1-4.935,1.753,32.1,32.1,0,0,1-6.983-.31c-2.529-.256-5.431-.566-8.279.372a18.878,18.878,0,0,0-4.112,2.165,29.6,29.6,0,0,1-4.322,2.514,18.4,18.4,0,0,1-10.575,1.234,17.527,17.527,0,0,1-5.369-1.885c-1.707-.916-3.3-2.048-4.942-3.1a20.173,20.173,0,0,0-5.136-2.576,12.871,12.871,0,0,0-5.509-.349c-3.647.535-6.983,2-10.257,2.894a19.66,19.66,0,0,1-4.942.822,11.638,11.638,0,0,1-4.655-.776,23.1,23.1,0,0,1-6.843-4.935,33.363,33.363,0,0,0-5.338-4.4,11.118,11.118,0,0,0-4.888-1.66,7.836,7.836,0,0,0-3.243.388c-.706.264-1.04.489-1.055.466a4.84,4.84,0,0,1,1.024-.543,7.542,7.542,0,0,1,3.29-.466,11.141,11.141,0,0,1,4.989,1.622,33,33,0,0,1,5.431,4.384,22.934,22.934,0,0,0,6.773,4.834,11.39,11.39,0,0,0,4.531.776,19.226,19.226,0,0,0,4.849-.838c1.629-.458,3.282-1.032,4.981-1.552a31.611,31.611,0,0,1,5.315-1.428,13.19,13.19,0,0,1,5.679.349,21.011,21.011,0,0,1,5.245,2.622c1.653,1.071,3.235,2.2,4.9,3.1a17.264,17.264,0,0,0,5.253,1.847,18.062,18.062,0,0,0,10.358-1.187c3.1-1.35,5.509-3.693,8.473-4.655a13.733,13.733,0,0,1,4.376-.628,37.072,37.072,0,0,1,4.05.295,32.392,32.392,0,0,0,6.905.365,10.188,10.188,0,0,0,4.872-1.653,7.077,7.077,0,0,0,2.242-2.366A11.3,11.3,0,0,0,422.549,193.8Z" transform="translate(-239.611 -74.739)" fill="#fafafa"/>
      <path id="Path_4904" data-name="Path 4904" d="M471.975,220.14a6.208,6.208,0,0,0-1.078-.877,5.369,5.369,0,0,0-3.639-.551,11.879,11.879,0,0,0-4.911,2.622c-.846.66-1.722,1.373-2.716,2.017a8.488,8.488,0,0,1-7.029,1.35,25.361,25.361,0,0,1-3.251-.947c-1.016-.341-1.971-.691-2.886-.931a14.494,14.494,0,0,0-2.584-.434,7.138,7.138,0,0,0-3.685.59c-.776.4-1.164.776-1.195.729a1.342,1.342,0,0,1,.256-.264,2.482,2.482,0,0,1,.349-.279,3.1,3.1,0,0,1,.512-.326,7.13,7.13,0,0,1,3.786-.776,14.393,14.393,0,0,1,2.646.4c.939.233,1.909.574,2.917.908,2.01.652,4.322,1.451,6.727,1a9.086,9.086,0,0,0,3.228-1.381c.97-.628,1.839-1.334,2.7-1.986a11.878,11.878,0,0,1,5.082-2.607,5.431,5.431,0,0,1,3.779.691,4.006,4.006,0,0,1,.776.706A1.6,1.6,0,0,1,471.975,220.14Z" transform="translate(-266.614 -81.325)" fill="#fafafa"/>
      <path id="Path_4905" data-name="Path 4905" d="M481.042,191.317a2.1,2.1,0,0,1-.667.419,6.161,6.161,0,0,1-2.087.528,10.219,10.219,0,0,1-3.173-.287,30.472,30.472,0,0,1-3.678-1.226,20.79,20.79,0,0,0-3.647-1.086,8.877,8.877,0,0,0-3.1,0,7.045,7.045,0,0,0-2.607,1.125,2.056,2.056,0,0,1,.574-.543,5.493,5.493,0,0,1,1.971-.861,8.62,8.62,0,0,1,3.189-.078,19.686,19.686,0,0,1,3.74,1.086,38.014,38.014,0,0,0,3.623,1.241,10.792,10.792,0,0,0,3.065.357,8.27,8.27,0,0,0,2.8-.675Z" transform="translate(-271.787 -74.801)" fill="#fafafa"/>
      <path id="Path_4906" data-name="Path 4906" d="M404.544,229.173a18.788,18.788,0,0,0-2.025-.931,13.78,13.78,0,0,0-6-.621,25.728,25.728,0,0,0-8.535,2.716c-3.1,1.451-6.339,3.391-10.133,4.655a19.118,19.118,0,0,1-5.71.985,17.636,17.636,0,0,1-5.322-.916,46.166,46.166,0,0,1-4.523-1.8c-1.389-.613-2.677-1.21-3.879-1.676a20.235,20.235,0,0,0-5.866-1.552l-.954-.054h-.706a3.1,3.1,0,0,1-.582,0,3.244,3.244,0,0,1,.582-.078l.7-.062h.97a19.4,19.4,0,0,1,5.959,1.42c1.218.458,2.514,1.04,3.879,1.637a46.321,46.321,0,0,0,4.508,1.753,17.474,17.474,0,0,0,5.206.877,18.691,18.691,0,0,0,5.586-.978c3.732-1.21,6.983-3.1,10.086-4.57a25.333,25.333,0,0,1,8.69-2.661,13.314,13.314,0,0,1,6.075.776A7.868,7.868,0,0,1,404.544,229.173Z" transform="translate(-246.736 -83.329)" fill="#fafafa"/>
      <path id="Path_4907" data-name="Path 4907" d="M283.64,204.1a1.078,1.078,0,0,1,.365-.171,2.01,2.01,0,0,1,1.179.047,3.352,3.352,0,0,1,1.552,1.055,11.28,11.28,0,0,1,1.226,2.118,7.324,7.324,0,0,0,1.715,2.281,8.3,8.3,0,0,0,2.871,1.552,16.2,16.2,0,0,0,7.557.365,53.535,53.535,0,0,1,7.7-.923,10.955,10.955,0,0,1,6.083,1.684,6.921,6.921,0,0,1,2.77,3.228,4.2,4.2,0,0,1,.326,1.552,14.8,14.8,0,0,0-.473-1.466,6.92,6.92,0,0,0-2.778-3.049,10.808,10.808,0,0,0-5.928-1.552,55.4,55.4,0,0,0-7.635.954,16.356,16.356,0,0,1-7.759-.411,8.534,8.534,0,0,1-2.972-1.691,7.448,7.448,0,0,1-1.753-2.405,11.421,11.421,0,0,0-1.148-2.1,3.2,3.2,0,0,0-1.4-1.047,2.234,2.234,0,0,0-1.49-.016Z" transform="translate(-231.794 -78.088)" fill="#fafafa"/>
      <path id="Path_4908" data-name="Path 4908" d="M299.628,173.031a7.938,7.938,0,0,0-2.708-1.4,8.86,8.86,0,0,0-3.282-.217,14.486,14.486,0,0,0-3.879,1.125c-1.335.574-2.568,1.234-3.709,1.792a28.52,28.52,0,0,1-3.1,1.358,13.06,13.06,0,0,1-2.219.566,2.747,2.747,0,0,1-.838.054,27.464,27.464,0,0,0,2.956-.892,33.315,33.315,0,0,0,3.049-1.42c1.125-.574,2.366-1.241,3.724-1.831a14.02,14.02,0,0,1,4.027-1.117,8.589,8.589,0,0,1,3.406.31,6.123,6.123,0,0,1,2.041,1.071A2.327,2.327,0,0,1,299.628,173.031Z" transform="translate(-230.953 -70.721)" fill="#fafafa"/>
      <g id="Group_6385" data-name="Group 6385" transform="translate(124.856 126.634)" opacity="0.3">
        <path id="Path_4909" data-name="Path 4909" d="M377.74,248.807c9.954-5.773,21.484-12.546,27.233-22.5,3.678-6.378,5.509-14.012,6.207-21.337l1.5,22.772-30.593,24.51Z" transform="translate(-377.74 -204.97)"/>
      </g>
      <g id="Group_6386" data-name="Group 6386" transform="translate(73.532 95.141)" opacity="0.2">
        <path id="Path_4910" data-name="Path 4910" d="M337.093,164.38a43.914,43.914,0,0,1-13.671,22.205,16.983,16.983,0,0,1-5.509,3.476,7.619,7.619,0,0,1-6.323-.411l.147-.528,15.517-15.355Z" transform="translate(-311.59 -164.38)"/>
      </g>
      <path id="Path_4911" data-name="Path 4911" d="M313.738,208.488c-.062,0,.186-.706.4-1.839a13.484,13.484,0,0,0,.039-4.477,13.23,13.23,0,0,0-1.474-4.229c-.566-1.009-1.024-1.552-.97-1.614a5.252,5.252,0,0,1,1.218,1.466,11.731,11.731,0,0,1,1.622,4.306,11.592,11.592,0,0,1-.155,4.609,5.268,5.268,0,0,1-.675,1.777Z" transform="translate(-238.088 -76.4)" fill="#263238"/>
      <path id="Path_4912" data-name="Path 4912" d="M308.59,204.721a11.033,11.033,0,0,0,2.188-7.891,2.793,2.793,0,0,1,.31,1.218,8.256,8.256,0,0,1-1.6,5.78A3.687,3.687,0,0,1,308.59,204.721Z" transform="translate(-237.386 -76.512)" fill="#263238"/>
      <path id="Path_4913" data-name="Path 4913" d="M345.8,186.3c.109,0,.776,6.207,1.42,13.811s1.133,13.842,1.016,13.849-.776-6.207-1.42-13.811S345.679,186.308,345.8,186.3Z" transform="translate(-245.72 -74.152)" fill="#263238"/>
      <path id="Path_4914" data-name="Path 4914" d="M392.55,155.66a1.769,1.769,0,0,1,.171.419,8.532,8.532,0,0,1,.334,1.241,11.762,11.762,0,0,1-.07,4.741A12.274,12.274,0,0,1,389.6,168.2a12.065,12.065,0,0,1-15.952.349A12.3,12.3,0,0,1,370,162.565a11.924,11.924,0,0,1-.287-4.733,8.951,8.951,0,0,1,.287-1.257,1.871,1.871,0,0,1,.147-.427c.047,0-.147.605-.279,1.707a12.484,12.484,0,0,0,.4,4.655,12.166,12.166,0,0,0,3.616,5.78,11.793,11.793,0,0,0,15.455-.341,12.22,12.22,0,0,0,3.554-10.575C392.729,156.257,392.5,155.676,392.55,155.66Z" transform="translate(-251.06 -67.285)" fill="#263238"/>
      <path id="Path_4915" data-name="Path 4915" d="M457.215,213.1a19.49,19.49,0,0,1-.132-4.865,19.787,19.787,0,0,1,.683-4.826c.116,0-.132,2.18-.279,4.849S457.331,213.1,457.215,213.1Z" transform="translate(-270.646 -77.987)" fill="#263238"/>
      <path id="Path_4916" data-name="Path 4916" d="M460.6,214.439a6.541,6.541,0,0,1-.659-1.552,33.947,33.947,0,0,1-1.079-4,34.963,34.963,0,0,1-.6-4.1,6.34,6.34,0,0,1,0-1.715c.116,0,.349,2.591,1.009,5.734S460.715,214.4,460.6,214.439Z" transform="translate(-270.918 -77.913)" fill="#263238"/>
      <path id="Path_4917" data-name="Path 4917" d="M420.632,212.654c-.116,0-.372-4.368-.574-9.768s-.272-9.768-.163-9.776.365,4.368.566,9.76S420.741,212.646,420.632,212.654Z" transform="translate(-262.321 -75.678)" fill="#263238"/>
      <path id="Path_4918" data-name="Path 4918" d="M379,156.806h0a11.01,11.01,0,0,1-10.785-10.544c-.178-4.252-.326-8.154-.326-8.154s-8.9-.947-9.435-9.768,0-29.181,0-29.181h0a30.725,30.725,0,0,1,31.035,2.382l1.358.947-.652,43.449a11,11,0,0,1-11.2,10.87Z" transform="translate(-248.508 -53.922)" fill="#ffbe9d"/>
      <path id="Path_4919" data-name="Path 4919" d="M370.67,148.993a20.592,20.592,0,0,0,11.351-3.833s-2.413,6.486-11.266,6.122Z" transform="translate(-251.299 -64.931)" fill="#eb996e"/>
      <path id="Path_4920" data-name="Path 4920" d="M399.45,116.091c.147-.07,5.982-2.087,6.083,3.965s-5.99,4.9-6.005,4.725S399.45,116.091,399.45,116.091Z" transform="translate(-257.75 -58.331)" fill="#ffbe9d"/>
      <path id="Path_4921" data-name="Path 4921" d="M401.879,123.037a2.22,2.22,0,0,0,.287.147,1.055,1.055,0,0,0,.776,0,2.566,2.566,0,0,0,1.164-2.328,3.422,3.422,0,0,0-.318-1.5,1.218,1.218,0,0,0-.776-.776.535.535,0,0,0-.613.3c-.078.171,0,.287-.07.3s-.132-.1-.085-.357a.659.659,0,0,1,.225-.38.776.776,0,0,1,.582-.163,1.49,1.49,0,0,1,1.117.923,3.537,3.537,0,0,1,.4,1.676,2.717,2.717,0,0,1-1.5,2.638,1.125,1.125,0,0,1-.962-.147C401.895,123.176,401.863,123.044,401.879,123.037Z" transform="translate(-258.293 -58.907)" fill="#eb996e"/>
      <path id="Path_4922" data-name="Path 4922" d="M364,116.939a1.257,1.257,0,0,0,1.218,1.272,1.2,1.2,0,0,0,1.3-1.133,1.265,1.265,0,0,0-1.21-1.28,1.21,1.21,0,0,0-1.3,1.141Z" transform="translate(-249.805 -58.35)" fill="#263238"/>
      <path id="Path_4923" data-name="Path 4923" d="M362,115.257c.155.171,1.109-.543,2.467-.535s2.328.683,2.506.512-.085-.365-.52-.683a3.46,3.46,0,0,0-2-.621,3.352,3.352,0,0,0-1.971.636C362.065,114.884,361.925,115.187,362,115.257Z" transform="translate(-249.351 -57.932)" fill="#263238"/>
      <path id="Path_4924" data-name="Path 4924" d="M380.8,117.139a1.257,1.257,0,0,0,1.218,1.272,1.2,1.2,0,0,0,1.3-1.133A1.265,1.265,0,0,0,382.1,116a1.21,1.21,0,0,0-1.3,1.141Z" transform="translate(-253.57 -58.395)" fill="#263238"/>
      <path id="Path_4925" data-name="Path 4925" d="M379.214,115.617c.155.163,1.117-.543,2.475-.543s2.328.683,2.5.52-.085-.372-.52-.683a3.453,3.453,0,0,0-3.973.016C379.284,115.221,379.137,115.516,379.214,115.617Z" transform="translate(-253.21 -58.012)" fill="#263238"/>
      <path id="Path_4926" data-name="Path 4926" d="M371.881,125.73a9.093,9.093,0,0,0-2.211-.4c-.349,0-.675-.1-.729-.341a1.754,1.754,0,0,1,.225-1.024c.334-.838.675-1.722,1.032-2.646a52.818,52.818,0,0,0,2.328-6.905,48.368,48.368,0,0,0-2.855,6.7c-.341.931-.675,1.816-.985,2.661a1.986,1.986,0,0,0-.178,1.358.877.877,0,0,0,.566.512,2.514,2.514,0,0,0,.59.078A8.829,8.829,0,0,0,371.881,125.73Z" transform="translate(-250.804 -58.039)" fill="#263238"/>
      <path id="Path_4927" data-name="Path 4927" d="M376.749,130.17c-.217,0-.225,1.459-1.49,2.506s-2.832.884-2.84,1.094c0,.093.349.287,1.016.3a3.67,3.67,0,0,0,2.374-.83,3.2,3.2,0,0,0,1.148-2.1C377.029,130.527,376.866,130.162,376.749,130.17Z" transform="translate(-251.692 -61.572)" fill="#263238"/>
      <path id="Path_4928" data-name="Path 4928" d="M378.768,108.815c.132.365,1.49.194,3.1.388s2.879.621,3.1.295c.1-.163-.124-.512-.644-.869a5.431,5.431,0,0,0-4.71-.52C379,108.35,378.714,108.637,378.768,108.815Z" transform="translate(-253.113 -56.557)" fill="#263238"/>
      <path id="Path_4929" data-name="Path 4929" d="M362.641,110.166c.241.31,1.179,0,2.328,0s2.079.209,2.328-.116c.093-.155-.054-.466-.473-.776a3.212,3.212,0,0,0-1.87-.5,3.15,3.15,0,0,0-1.831.621C362.664,109.723,362.54,110.018,362.641,110.166Z" transform="translate(-249.492 -56.774)" fill="#263238"/>
      <path id="Path_4930" data-name="Path 4930" d="M352.724,90.373a3.274,3.274,0,0,1,1.21-2.917,2.328,2.328,0,0,1,2.995.225,2.708,2.708,0,0,1,2.328-3.274c1.443-.093,2.677,1,4.066,1.381a6.61,6.61,0,0,0,4.12-.489c1.311-.528,2.537-1.257,3.879-1.738a11.3,11.3,0,0,1,14.462,6.634,5.02,5.02,0,0,1,5.323,2.017,8.248,8.248,0,0,1,1.265,5.8,18.622,18.622,0,0,1-1.016,3.965v.341c-.093,4.857-.644,10.567-2.716,10.6-3.616.054-2.754-6.758-2.754-6.758-4.438-1.707-2.785-8.356-3.879-9.365s-3.429-3.352-12.717,1.4a18.008,18.008,0,0,1-11.025,1.187,1.92,1.92,0,0,1-.225-.047h-.132a8.372,8.372,0,0,1-2.382-1.009,4.7,4.7,0,0,1-1.963-2.188,2.568,2.568,0,0,1,.5-2.762A5.68,5.68,0,0,1,352.724,90.373Z" transform="translate(-247.273 -50.97)" fill="#263238"/>
    </g>
  </g>
</svg>
