<svg xmlns="http://www.w3.org/2000/svg" width="383.123" height="364.739" viewBox="0 0 383.123 364.739">
  <g id="verify_email" data-name="verify email" transform="translate(-25.77 -3.809)">
    <g id="freepik--background-complete--inject-31" transform="translate(52.703 3.809)">
      <path id="Path_4697" data-name="Path 4697" d="M410.94,139.131s-6.136-4.714-15.082,10.156-12.56,23.478-12.56,23.478-2.3,3.081-4.367.846-4.672-8.464-8.523-7.66c-3.986.846-5.586,5.078-5.3,11.57s.406,20.634.406,21.921-.846,3.047-2.539,1.693-10.867-13.178-16.233-8.464-1.617,22.581-1.236,24.544-.068,2.751-1.016,3.165-3.665-3.868-6.424-7.135-6.534-6.576-9.4-3.6S324.01,225.731,335,247.939l5.764,9.97,11.561.178c24.773-1.117,35.361-8.988,36.588-12.941s-3.5-5.654-7.693-6.492-9.251-1.16-9.352-2.192.389-1.794,2.294-2.412,19.356-5.925,20.888-12.924-13.3-9.31-15.234-10.156-.787-2.421.313-3.022,13.6-7.363,19.4-10.233,8.76-6.331,7.566-10.224c-1.143-3.758-7.837-3.047-10.816-3.766s-1.4-4.232-1.4-4.232,5.848-7.346,14.524-22.344,1.388-18.138,1.388-18.138" transform="translate(-98.905 -24.491)" fill="#ebebeb"/>
      <path id="Path_4698" data-name="Path 4698" d="M403.778,155s-.051.11-.161.322l-.525.931c-.465.846-1.151,2.023-2.023,3.563-1.76,3.089-4.342,7.55-7.549,13.042-6.415,11-15.4,26.1-25.391,42.758s-19.009,31.747-25.476,42.7l-7.617,12.992-2.082,3.521-.55.914c-.127.212-.195.3-.195.3s.051-.11.161-.322.3-.533.516-.931l2.031-3.563c1.76-3.089,4.342-7.55,7.55-13.042,6.415-11,15.4-26.1,25.391-42.758s19.009-31.747,25.475-42.7l7.617-12.983,2.082-3.529.55-.914A.975.975,0,0,1,403.778,155Z" transform="translate(-99.784 -27.038)" fill="#e0e0e0"/>
      <path id="Path_4699" data-name="Path 4699" d="M382.28,181.33a3.384,3.384,0,0,1,.237.8c.127.525.3,1.278.491,2.217.389,1.87.846,4.469,1.329,7.355s.846,5.408,1.176,7.372c.144.889.271,1.633.364,2.234a4.458,4.458,0,0,1,.11.846,3.6,3.6,0,0,1-.245-.8c-.127-.516-.3-1.278-.482-2.217-.372-1.87-.8-4.477-1.278-7.363s-.9-5.4-1.219-7.363c-.152-.846-.279-1.625-.381-2.226A4.011,4.011,0,0,1,382.28,181.33Z" transform="translate(-107.477 -31.083)" fill="#e0e0e0"/>
      <path id="Path_4700" data-name="Path 4700" d="M387.88,205.313c0-.093,5.307-1.3,11.849-2.691s11.934-2.446,11.959-2.353-5.3,1.3-11.849,2.7S387.905,205.415,387.88,205.313Z" transform="translate(-108.337 -33.992)" fill="#e0e0e0"/>
      <path id="Path_4701" data-name="Path 4701" d="M368.41,235.635a3.592,3.592,0,0,1,.846,0l2.3.169c1.947.144,4.638.33,7.617.423s5.671.1,7.617.085H389.1a3.29,3.29,0,0,1,.846,0,3.682,3.682,0,0,1-.846.1c-.55,0-1.337.093-2.311.127-1.955.085-4.655.127-7.617,0s-5.679-.322-7.617-.525c-.973-.11-1.76-.2-2.3-.288A3.318,3.318,0,0,1,368.41,235.635Z" transform="translate(-105.346 -39.423)" fill="#e0e0e0"/>
      <path id="Path_4702" data-name="Path 4702" d="M358.38,214.23a3.014,3.014,0,0,1,.406.677c.262.516.592,1.143.982,1.9.846,1.608,1.913,3.842,3.115,6.322s2.268,4.723,3.022,6.365c.347.762.643,1.413.846,1.947a2.945,2.945,0,0,1,.279.736,3.014,3.014,0,0,1-.406-.677c-.262-.516-.592-1.151-.982-1.9-.846-1.608-1.913-3.842-3.115-6.322s-2.268-4.731-3.022-6.365l-.846-1.947A3.649,3.649,0,0,1,358.38,214.23Z" transform="translate(-103.805 -36.138)" fill="#e0e0e0"/>
      <path id="Path_4703" data-name="Path 4703" d="M337.89,238a6.4,6.4,0,0,1,.508.846l1.27,2.429c1.049,2.057,2.488,4.909,4.054,8.066s2.971,6.035,3.969,8.117l1.16,2.48a4.627,4.627,0,0,1,.381.931,7.757,7.757,0,0,1-.508-.846l-1.261-2.429c-1.058-2.057-2.5-4.909-4.062-8.066s-2.962-6.026-3.961-8.117l-1.168-2.48a4.41,4.41,0,0,1-.381-.931Z" transform="translate(-100.657 -39.79)" fill="#e0e0e0"/>
      <path id="Path_4704" data-name="Path 4704" d="M351.16,264.305a5.817,5.817,0,0,1,1.075,0l2.928.118c2.471.093,5.925.2,9.665.229s7.194-.042,9.665-.11l2.937-.076a6.674,6.674,0,0,1,1.075,0,6.3,6.3,0,0,1-1.075.127c-.686.059-1.693.127-2.928.186-2.471.127-5.925.237-9.674.212s-7.2-.178-9.674-.339c-1.244-.076-2.243-.152-2.928-.22a5.666,5.666,0,0,1-1.066-.127Z" transform="translate(-102.695 -43.828)" fill="#e0e0e0"/>
      <rect id="Rectangle_937" data-name="Rectangle 937" width="4.867" height="216.262" transform="matrix(1, -0.005, 0.005, 1, 0.002, 143.03)" fill="#e0e0e0"/>
      <rect id="Rectangle_938" data-name="Rectangle 938" width="4.867" height="216.262" transform="matrix(1, -0.005, 0.005, 1, 11.647, 142.967)" fill="#e0e0e0"/>
      <rect id="Rectangle_939" data-name="Rectangle 939" width="4.867" height="216.262" transform="matrix(1, -0.005, 0.005, 1, 113.444, 142.416)" fill="#e0e0e0"/>
      <rect id="Rectangle_940" data-name="Rectangle 940" width="4.867" height="216.262" transform="matrix(1, -0.005, 0.005, 1, 125.098, 142.353)" fill="#e0e0e0"/>
      <rect id="Rectangle_941" data-name="Rectangle 941" width="129.959" height="4.934" transform="matrix(1, -0.005, 0.005, 1, 0, 143.024)" fill="#e0e0e0"/>
      <rect id="Rectangle_942" data-name="Rectangle 942" width="129.959" height="1.473" transform="matrix(1, -0.005, 0.005, 1, 0.24, 187.423)" fill="#e0e0e0"/>
      <rect id="Rectangle_943" data-name="Rectangle 943" width="129.959" height="1.473" transform="matrix(1, -0.005, 0.005, 1, 0.467, 229.282)" fill="#e0e0e0"/>
      <rect id="Rectangle_944" data-name="Rectangle 944" width="129.959" height="1.473" transform="matrix(1, -0.005, 0.005, 1, 0.693, 271.125)" fill="#e0e0e0"/>
      <rect id="Rectangle_945" data-name="Rectangle 945" width="129.959" height="1.473" transform="matrix(1, -0.005, 0.005, 1, 0.919, 312.976)" fill="#e0e0e0"/>
      <rect id="Rectangle_946" data-name="Rectangle 946" width="23.021" height="24.426" transform="translate(54.879 287.807) rotate(-0.573)" fill="#ebebeb"/>
      <rect id="Rectangle_947" data-name="Rectangle 947" width="23.021" height="24.426" transform="matrix(1, -0.005, 0.005, 1, 76.459, 288.141)" fill="#f5f5f5"/>
      <path id="Path_4705" data-name="Path 4705" d="M120.852,352.2c15.294.152,30.638,0,45.932-.22a.178.178,0,0,0,0-.355c-15.294-.076-30.638-.042-45.932.271a.152.152,0,1,0,0,.3Z" transform="translate(-67.288 -57.242)" fill="#e0e0e0"/>
      <rect id="Rectangle_948" data-name="Rectangle 948" width="16.86" height="17.884" transform="translate(53.96 195.838) rotate(-0.573)" fill="#ebebeb"/>
      <rect id="Rectangle_949" data-name="Rectangle 949" width="16.86" height="17.884" transform="translate(70.742 195.67) rotate(-0.573)" fill="#f5f5f5"/>
      <path id="Path_4706" data-name="Path 4706" d="M120.262,241.492q16.809.135,33.643-.152a.186.186,0,0,0,0-.364c-11.2-.059-22.437,0-33.643.212a.152.152,0,0,0,0,.3Z" transform="translate(-67.197 -40.244)" fill="#e0e0e0"/>
      <rect id="Rectangle_950" data-name="Rectangle 950" width="30.638" height="14.574" transform="translate(43.531 213.556) rotate(-0.573)" fill="#ebebeb"/>
      <rect id="Rectangle_951" data-name="Rectangle 951" width="30.638" height="14.574" transform="translate(74.015 213.242) rotate(-0.573)" fill="#f5f5f5"/>
      <path id="Path_4707" data-name="Path 4707" d="M107.832,261.281c20.313.229,40.778,0,61.124-.3a.186.186,0,0,0,0-.364c-20.355-.1-40.778-.093-61.124.355a.152.152,0,1,0,0,.3Z" transform="translate(-65.287 -43.257)" fill="#e0e0e0"/>
      <rect id="Rectangle_952" data-name="Rectangle 952" width="7.693" height="30.004" transform="matrix(1, -0.005, 0.005, 1, 43.37, 157.271)" fill="#ebebeb"/>
      <rect id="Rectangle_953" data-name="Rectangle 953" width="7.693" height="21.819" transform="matrix(1, -0.005, 0.005, 1, 35.568, 165.421)" fill="#e0e0e0"/>
      <rect id="Rectangle_954" data-name="Rectangle 954" width="11.959" height="24.316" transform="matrix(1, -0.005, 0.005, 1, 51.186, 162.848)" fill="#e0e0e0"/>
      <rect id="Rectangle_955" data-name="Rectangle 955" width="3.8" height="24.316" transform="translate(63.73 162.273) rotate(-0.573)" fill="#ebebeb"/>
      <rect id="Rectangle_956" data-name="Rectangle 956" width="3.8" height="18.696" transform="matrix(1, -0.005, 0.005, 1, 66.789, 168.384)" fill="#e0e0e0"/>
      <rect id="Rectangle_957" data-name="Rectangle 957" width="7.693" height="28.133" transform="matrix(0.925, 0.379, -0.379, 0.925, 42.326, 242.179)" fill="#e0e0e0"/>
      <rect id="Rectangle_958" data-name="Rectangle 958" width="7.693" height="30.004" transform="matrix(1, -0.005, 0.005, 1, 48.41, 241.041)" fill="#ebebeb"/>
      <rect id="Rectangle_959" data-name="Rectangle 959" width="11.959" height="24.316" transform="matrix(1, -0.005, 0.005, 1, 60.078, 246.606)" fill="#e0e0e0"/>
      <rect id="Rectangle_960" data-name="Rectangle 960" width="2.615" height="33.321" transform="matrix(1, -0.005, 0.005, 1, 57.414, 237.615)" fill="#ebebeb"/>
      <rect id="Rectangle_961" data-name="Rectangle 961" width="1.312" height="28.133" transform="matrix(1, -0.005, 0.005, 1, 56.13, 242.81)" fill="#f5f5f5"/>
      <rect id="Rectangle_962" data-name="Rectangle 962" width="1.312" height="28.133" transform="matrix(-0.005, -1, 1, -0.005, 72.276, 270.916)" fill="#f5f5f5"/>
      <rect id="Rectangle_963" data-name="Rectangle 963" width="30.664" height="7.778" transform="matrix(1, -0.005, 0.005, 1, 72.119, 261.835)" fill="#ebebeb"/>
      <rect id="Rectangle_964" data-name="Rectangle 964" width="24.629" height="7.778" transform="translate(73.258 253.446) rotate(-0.573)" fill="#e0e0e0"/>
      <path id="Path_4708" data-name="Path 4708" d="M249.59,36.979c1.092-5.163.432-11.053.491-16.318s.728-11.147-.212-16.343a.728.728,0,0,0-1.388,0c-.948,5.205-.389,11.053-.44,16.343s-.846,11.155.254,16.318a.677.677,0,0,0,1.295,0Z" transform="translate(-86.802 -3.809)" fill="#e0e0e0"/>
      <path id="Path_4709" data-name="Path 4709" d="M194.94,83.972h93.2s-8.608-41.192-47.3-41.192C206.408,42.78,194.94,83.972,194.94,83.972Z" transform="translate(-78.694 -9.797)" fill="#f5f5f5"/>
    </g>
    <g id="freepik--Floor--inject-31" transform="translate(25.77 362.921)">
      <path id="Path_4710" data-name="Path 4710" d="M408.893,428.33c0,.118-85.77.22-191.549.22s-191.574-.1-191.574-.22,85.753-.22,191.574-.22S408.893,428.2,408.893,428.33Z" transform="translate(-25.77 -428.11)" fill="#263238"/>
    </g>
    <g id="freepik--Device--inject-31" transform="translate(136.144 117.739)">
      <rect id="Rectangle_965" data-name="Rectangle 965" width="158.811" height="245.123" rx="11.55" transform="translate(0)" fill="#455a64"/>
      <path id="Path_4711" data-name="Path 4711" d="M253.534,413.381a6.111,6.111,0,1,1-6.094-6.551,6.339,6.339,0,0,1,6.094,6.551Z" transform="translate(-169.262 -179.658)" fill="#263238"/>
      <rect id="Rectangle_966" data-name="Rectangle 966" width="47.828" height="2.708" rx="1.22" transform="translate(55.487 7.059)" fill="#263238"/>
      <rect id="Rectangle_967" data-name="Rectangle 967" width="148.79" height="206.809" transform="translate(5.417 14.067)" fill="#263238"/>
      <path id="Path_4712" data-name="Path 4712" d="M277.633,370.157l.55-.051a11.336,11.336,0,0,0,1.591-.212,10.685,10.685,0,0,0,2.454-.846,10.275,10.275,0,0,0,2.886-2.031,10.487,10.487,0,0,0,2.421-3.69,11.418,11.418,0,0,0,.686-5.18,10.613,10.613,0,0,0-7.719-9.293,11.985,11.985,0,0,0-1.76-.339c-.609,0-1.219-.068-1.854-.059H205.379a10.8,10.8,0,0,0-5.129,1.337,10.563,10.563,0,0,0-5.341,8.608,11.273,11.273,0,0,0,.77,5.078,10.859,10.859,0,0,0,2.954,4.029,10.613,10.613,0,0,0,4.384,2.192,20.777,20.777,0,0,0,4.867.3h4.8l33.812.051,22.793.068,6.2.042h-6.2l-22.793.068-33.812.051H205.4a7.014,7.014,0,0,1-1.261-.076,12.343,12.343,0,0,1-1.244-.22,11,11,0,0,1-4.562-2.277,11.316,11.316,0,0,1-3.081-4.19,11.705,11.705,0,0,1-.8-5.231,10.673,10.673,0,0,1,1.65-5.078,10.909,10.909,0,0,1,3.944-3.758,11.2,11.2,0,0,1,5.349-1.4H276.9c.626,0,1.261,0,1.887.059a12.7,12.7,0,0,1,1.811.364,10.884,10.884,0,0,1,7.871,9.691,11.587,11.587,0,0,1-.736,5.273,10.672,10.672,0,0,1-2.488,3.733,10.393,10.393,0,0,1-2.954,2.031,10.841,10.841,0,0,1-2.5.846,10.075,10.075,0,0,1-1.608.161C277.853,370.165,277.633,370.157,277.633,370.157Z" transform="translate(-162.054 -170.627)" fill="#fff"/>
      <path id="Path_4713" data-name="Path 4713" d="M227.039,359.426l-.525.66a2.057,2.057,0,0,0-1.481-.677,1.879,1.879,0,1,0,0,3.749,2.175,2.175,0,0,0,1.481-.626l.533.592a3.03,3.03,0,0,1-2.065.846,2.7,2.7,0,1,1,0-5.391A2.945,2.945,0,0,1,227.039,359.426Z" transform="translate(-166.313 -172.244)" fill="#fff"/>
      <path id="Path_4714" data-name="Path 4714" d="M233.974,361.3a2.827,2.827,0,1,1-2.827-2.691,2.725,2.725,0,0,1,2.827,2.691Zm-4.74,0a1.9,1.9,0,1,0,1.888-1.9A1.913,1.913,0,0,0,229.235,361.3Z" transform="translate(-167.264 -172.249)" fill="#fff"/>
      <path id="Path_4715" data-name="Path 4715" d="M239.921,363.972l-2.844-3.826v3.826h-.9V358.64h.846l2.861,3.834V358.64h.846v5.332Z" transform="translate(-168.471 -172.254)" fill="#fff"/>
      <path id="Path_4716" data-name="Path 4716" d="M244.206,359.444v1.54h2.421v.8h-2.421v2.184H243.3V358.64h3.589v.8Z" transform="translate(-169.565 -172.254)" fill="#fff"/>
      <path id="Path_4717" data-name="Path 4717" d="M248.48,363.972V358.64h.9v5.332Z" transform="translate(-170.361 -172.254)" fill="#fff"/>
      <path id="Path_4718" data-name="Path 4718" d="M253.57,362.324h-1.507v1.608H251.2V358.6h2.158c1.363,0,2.15.66,2.15,1.82a1.693,1.693,0,0,1-1.1,1.693L255.6,363.9h-1.024Zm-.245-.8c.846,0,1.295-.355,1.295-1.075s-.466-1.041-1.295-1.041h-1.261v2.116Z" transform="translate(-170.779 -172.248)" fill="#fff"/>
      <path id="Path_4719" data-name="Path 4719" d="M262.5,363.972v-3.986l-1.693,3.385h-.592l-1.693-3.385v3.986h-.846V358.64H258.8l1.76,3.538,1.752-3.538h1.066v5.332Z" transform="translate(-171.774 -172.254)" fill="#fff"/>
      <path id="Path_4720" data-name="Path 4720" d="M266.923,359.446v1.439h2.607v.846h-2.607v1.447h3v.8H266V358.65h3.809v.8Z" transform="translate(-173.053 -172.256)" fill="#fff"/>
      <path id="Path_4721" data-name="Path 4721" d="M274.127,358.64a2.666,2.666,0,0,1,0,5.332H271.96V358.64Zm-1.286,4.536h1.3a1.786,1.786,0,0,0,1.828-1.854,1.82,1.82,0,0,0-1.862-1.87h-1.27Z" transform="translate(-173.968 -172.254)" fill="#fff"/>
    </g>
    <g id="freepik--Envelope--inject-31" transform="translate(157.606 157.602)">
      <path id="Path_4722" data-name="Path 4722" d="M182.395,240.073l112.7-.813,3.14,76.621L181.54,314.8Z" transform="translate(-181.538 -193.777)" fill="#be1a25"/>
      <path id="Path_4723" data-name="Path 4723" d="M182.55,231.816l57.214-46.3L295.252,231" transform="translate(-181.693 -185.52)" fill="#be1a25"/>
      <g id="Group_6374" data-name="Group 6374" transform="translate(0.857)" opacity="0.3">
        <path id="Path_4724" data-name="Path 4724" d="M182.55,231.816l57.214-46.3L295.252,231" transform="translate(-182.55 -185.52)"/>
      </g>
      <path id="Path_4725" data-name="Path 4725" d="M181.54,320.608c-.144-.127,8.878-9.979,20.152-22.005s20.516-21.658,20.66-21.523-8.878,9.979-20.152,22.005S181.684,320.744,181.54,320.608Z" transform="translate(-181.538 -199.587)" fill="#263238"/>
      <path id="Path_4726" data-name="Path 4726" d="M312.391,321.882c-.144.127-8.929-9.522-19.619-21.557s-19.246-21.9-19.1-22.005,8.929,9.522,19.619,21.557S312.535,321.755,312.391,321.882Z" transform="translate(-195.693 -199.777)" fill="#263238"/>
      <g id="Group_6375" data-name="Group 6375" transform="translate(0.857 45.483)" opacity="0.5">
        <path id="Path_4727" data-name="Path 4727" d="M295.252,239.26l-56.6,45.213-56.105-44.4" transform="translate(-182.55 -239.26)"/>
      </g>
      <path id="Path_4728" data-name="Path 4728" d="M189.229,238.78,189.06,206l98.711-2.421,1.075,35.869L239.656,278.4Z" transform="translate(-182.694 -188.295)" fill="#ebebeb"/>
      <path id="Path_4729" data-name="Path 4729" d="M246,269.144a24.557,24.557,0,1,1,24.35-21.794h0A24.545,24.545,0,0,1,246,269.144Zm-.068-48.243a23.7,23.7,0,1,0,23.571,26.381h0a24.085,24.085,0,0,0-23.571-26.432Z" transform="translate(-187.661 -190.822)" fill="#be1a25"/>
      <path id="Path_4730" data-name="Path 4730" d="M230.69,250.079l4.1-5.027,9.6,6.932,15.6-18.383,4.706,4.139L244.63,260.861Z" transform="translate(-189.09 -192.907)" fill="#be1a25"/>
    </g>
    <g id="freepik--Character--inject-31" transform="translate(252.111 230.215)">
      <path id="Path_4731" data-name="Path 4731" d="M374.881,290.049a1.016,1.016,0,0,0,1.5.6,1.693,1.693,0,0,0,.66-1.693,4.9,4.9,0,0,0-.753-1.744,1.862,1.862,0,1,0,.939-3.487,4.867,4.867,0,0,0,2.217-.923,1.972,1.972,0,0,0,.626-2.184,1.253,1.253,0,0,0-1.989-.389,3.656,3.656,0,0,0,1.126-.973,1.253,1.253,0,0,0,.059-1.4,1.363,1.363,0,0,0-1.583-.288,13.262,13.262,0,0,0-1.5.846,3.927,3.927,0,0,1-3.927-.144l-3.157,2.607Z" transform="translate(-304.86 -272.253)" fill="#263238"/>
      <path id="Path_4732" data-name="Path 4732" d="M355.4,275.389a4.833,4.833,0,0,0-3.284,4.037,2.539,2.539,0,0,0,.466,1.9,2.277,2.277,0,0,0,2.226.609,5.747,5.747,0,0,0,2.124-1.109,4.232,4.232,0,0,0,2-2.649,2.708,2.708,0,0,0-1.693-2.649,3.987,3.987,0,0,0-3.242.186" transform="translate(-302.245 -271.922)" fill="#263238"/>
      <path id="Path_4733" data-name="Path 4733" d="M356.956,291.612a9.843,9.843,0,0,1-1.4,3.148,4.13,4.13,0,0,1-2.852,1.769,2.641,2.641,0,0,1-2.742-1.642,1.955,1.955,0,0,1-1.4,1.354,1.617,1.617,0,0,1-1.743-.779,1.388,1.388,0,0,1,.491-1.786c-.677.381-1.523.77-2.192.372a1.388,1.388,0,0,1-.592-.787,3.33,3.33,0,0,1,1.049-3.03,6.163,6.163,0,0,0,1.777-2.776,6.5,6.5,0,0,0-.4-2.641,6.271,6.271,0,0,1-.119-2.962,3.639,3.639,0,0,1,1.693-2.387,2.539,2.539,0,0,1,2.81.161l.144,1.439,5.5,10.546" transform="translate(-301.069 -272.513)" fill="#263238"/>
      <path id="Path_4734" data-name="Path 4734" d="M369.453,313.651s1.972,20.863.313,23.58-22.005,31.112-22.005,31.112h.051c-.4.169-.846.33-1.286.508a6.77,6.77,0,0,1-2.209.389,9.954,9.954,0,0,1-2.776-.262c-.846-.288-1.549.567-1.109,1.21s2.666,1.473,5.425,1.21-.347,2.793-1.456,3.927-4.376,4.816-4.291,5.434c.118.906,1.109.948,2.192-.212s4.562-4.418,5.137-3.8-5.163,6.314-5.163,6.314-1.422,1.024-.779,1.76c1.143,1.32,6.771-5.2,7.3-5.831.364-.44,1.007.2.592.652s-5.84,5.569-4.68,6.923c.889,1.041,4.689-5.324,6.4-5.755s-3.385,4.528-2.48,5.493c.33.355.626.576,3.132-2.7a93.844,93.844,0,0,0,5.459-8.87c2.666-2.886,28.946-31.417,29.149-36.749.212-5.611,1.219-24.6,1.219-24.6Z" transform="translate(-300.405 -277.777)" fill="#eb996e"/>
      <path id="Path_4735" data-name="Path 4735" d="M335.992,421.916l-.245-7.744,14.507-.542.474,11.324-.9.093c-3.995.372-20.313,1.608-23.046.9C323.77,425.149,335.992,421.916,335.992,421.916Z" transform="translate(-298.285 -293.179)" fill="#be1a25"/>
      <g id="Group_6376" data-name="Group 6376" transform="translate(27.981 130.531)" opacity="0.4">
        <path id="Path_4736" data-name="Path 4736" d="M330.018,425.54s-4.274,1.405-3.707,2.1,17.122.059,24.409-.846l-.042-.322-19.306.9S330.864,425.54,330.018,425.54Z" transform="translate(-326.259 -425.54)" fill="#fff"/>
      </g>
      <path id="Path_4737" data-name="Path 4737" d="M350.912,426.61h-.245l-.711.068-2.632.22c-2.226.161-5.3.347-8.7.482s-6.483.178-8.709.186h-3.36a.845.845,0,0,1-.254,0h.973l2.632-.042c2.234-.042,5.315-.11,8.709-.245s6.475-.3,8.7-.432l2.632-.161h.719Z" transform="translate(-298.284 -295.173)" fill="#263238"/>
      <path id="Path_4738" data-name="Path 4738" d="M332.043,427.6a5.873,5.873,0,0,0-.533-1.244,6.179,6.179,0,0,0-.939-.973,1.938,1.938,0,0,1,1.083.846A1.9,1.9,0,0,1,332.043,427.6Z" transform="translate(-298.94 -294.984)" fill="#263238"/>
      <path id="Path_4739" data-name="Path 4739" d="M337.122,424.986a2.79,2.79,0,0,1-.474-.542,1.591,1.591,0,0,1-.339-.635,1.92,1.92,0,0,1,.482.533C337.021,424.665,337.165,424.961,337.122,424.986Z" transform="translate(-299.822 -294.743)" fill="#263238"/>
      <path id="Path_4740" data-name="Path 4740" d="M338.46,424.267a2.087,2.087,0,0,1-.525-.322c-.262-.22-.44-.415-.406-.457s.262.11.525.322S338.494,424.233,338.46,424.267Z" transform="translate(-300.008 -294.693)" fill="#263238"/>
      <path id="Path_4741" data-name="Path 4741" d="M339.177,422.7a1.769,1.769,0,0,1-.753.127.381.381,0,1,1,0-.178,1.735,1.735,0,0,1,.753.051Z" transform="translate(-300.031 -294.52)" fill="#263238"/>
      <path id="Path_4742" data-name="Path 4742" d="M339.4,421.61a1.532,1.532,0,0,1-.846.279,1.573,1.573,0,0,1-.846-.085,5.253,5.253,0,0,1,.846-.093A4.353,4.353,0,0,1,339.4,421.61Z" transform="translate(-300.037 -294.405)" fill="#263238"/>
      <path id="Path_4743" data-name="Path 4743" d="M336.129,423.5a2.69,2.69,0,0,1-.931,0,5.679,5.679,0,0,1-1-.178,3,3,0,0,1-.576-.212.525.525,0,0,1-.245-.288.364.364,0,0,1,.127-.372,1.693,1.693,0,0,1,2.133.415,1.624,1.624,0,0,1,.33.609.583.583,0,0,1,0,.254,2.691,2.691,0,0,0-.457-.779,1.693,1.693,0,0,0-.846-.491,1.447,1.447,0,0,0-1.109.118c-.144.118-.076.288.093.381a2.809,2.809,0,0,0,.525.2,5.839,5.839,0,0,0,.973.212C335.773,423.484,336.129,423.467,336.129,423.5Z" transform="translate(-299.37 -294.502)" fill="#263238"/>
      <path id="Path_4744" data-name="Path 4744" d="M336.325,423.457a.922.922,0,0,1-.127-.643,1.4,1.4,0,0,1,.229-.686.914.914,0,0,1,.753-.508.372.372,0,0,1,.3.415.9.9,0,0,1-.144.423,2.809,2.809,0,0,1-.415.584c-.288.3-.508.415-.525.4s.178-.178.432-.482a3.133,3.133,0,0,0,.364-.567c.118-.2.195-.567-.042-.592s-.457.22-.592.415a1.6,1.6,0,0,0-.245.618A3.449,3.449,0,0,0,336.325,423.457Z" transform="translate(-299.802 -294.407)" fill="#263238"/>
      <path id="Path_4745" data-name="Path 4745" d="M353.943,421.918a10.177,10.177,0,0,0-1.066.076,4.714,4.714,0,0,0-2.3,1.058,4.655,4.655,0,0,0-1.38,2.116c-.2.635-.2,1.049-.237,1.049a1,1,0,0,1,0-.3,3.979,3.979,0,0,1,.127-.787,4.41,4.41,0,0,1,3.783-3.258,3.6,3.6,0,0,1,.8,0A.777.777,0,0,1,353.943,421.918Z" transform="translate(-301.763 -294.443)" fill="#263238"/>
      <path id="Path_4746" data-name="Path 4746" d="M352.806,414.87a25.378,25.378,0,0,1,.237,2.971,24.036,24.036,0,0,1,.059,2.988,27.846,27.846,0,0,1-.237-2.979,23.9,23.9,0,0,1-.059-2.979Z" transform="translate(-302.353 -293.37)" fill="#263238"/>
      <path id="Path_4747" data-name="Path 4747" d="M345.95,425.517a8.26,8.26,0,0,1-2.107.288,8.516,8.516,0,0,1-2.133-.085c0-.051.956,0,2.124-.093A14.9,14.9,0,0,1,345.95,425.517Z" transform="translate(-300.651 -295.003)" fill="#263238"/>
      <path id="Path_4748" data-name="Path 4748" d="M350.008,425.389s-.076.2-.161.423-.135.415-.186.415-.085-.228,0-.482S349.94,425.355,350.008,425.389Z" transform="translate(-301.865 -294.985)" fill="#263238"/>
      <path id="Path_4749" data-name="Path 4749" d="M351.183,423.759a.961.961,0,0,1-.195.347c-.144.161-.288.262-.33.229s.059-.186.2-.347S351.149,423.725,351.183,423.759Z" transform="translate(-302.025 -294.734)" fill="#263238"/>
      <path id="Path_4750" data-name="Path 4750" d="M352.921,422.986c0,.051-.2.059-.415.144s-.364.2-.4.169.076-.237.339-.339S352.93,422.918,352.921,422.986Z" transform="translate(-302.248 -294.604)" fill="#263238"/>
      <path id="Path_4751" data-name="Path 4751" d="M354.261,422.582c0,.042-.059.119-.178.169s-.229.059-.254,0,.068-.127.186-.178S354.244,422.531,354.261,422.582Z" transform="translate(-302.513 -294.548)" fill="#263238"/>
      <g id="Group_6377" data-name="Group 6377" transform="translate(37.605 125.648)" opacity="0.3">
        <path id="Path_4752" data-name="Path 4752" d="M352.171,421.209l-14.5.313-.042-1.752,14.625.516Z" transform="translate(-337.63 -419.77)"/>
      </g>
      <path id="Path_4753" data-name="Path 4753" d="M391.627,361.226l-45.856-.626S333,361.785,333,378.407l1.617,32.729h19.543L352.83,379.77c1.092,0,15.886.491,15.886.491Z" transform="translate(-299.313 -285.032)" fill="#263238"/>
      <path id="Path_4754" data-name="Path 4754" d="M334.561,411.288a2.732,2.732,0,0,1-.059-.567c0-.415-.059-.956-.093-1.625l-.347-5.975c-.3-5.078-.846-12.01-1.253-19.729a69.876,69.876,0,0,1,0-10.9,15.92,15.92,0,0,1,.5-2.421,11.379,11.379,0,0,1,.94-2.141,12.239,12.239,0,0,1,2.658-3.216,13.813,13.813,0,0,1,2.878-1.887,14.529,14.529,0,0,1,2.438-.846l.914-.22.686-.11a2.857,2.857,0,0,1,.567-.059,2.386,2.386,0,0,1-.55.144l-.669.152-.906.254a17.885,17.885,0,0,0-2.37.939,13.907,13.907,0,0,0-2.785,1.9,12.4,12.4,0,0,0-2.539,3.165,11.47,11.47,0,0,0-.846,2.082,16.644,16.644,0,0,0-.474,2.361c-.432,3.284-.127,6.974,0,10.825.381,7.7.906,14.667,1.126,19.729.118,2.539.178,4.57.2,5.984v1.633a2.437,2.437,0,0,1-.017.533Z" transform="translate(-299.249 -285.184)" fill="#455a64"/>
      <path id="Path_4755" data-name="Path 4755" d="M436.743,420.743l-7.736.516L428,406.786l11.3-.846.127.846c.508,3.978,2.319,20.313,1.693,23C440.408,432.846,436.743,420.743,436.743,420.743Z" transform="translate(-313.909 -291.998)" fill="#be1a25"/>
      <g id="Group_6378" data-name="Group 6378" transform="translate(124.84 113.917)" opacity="0.4">
        <path id="Path_4756" data-name="Path 4756" d="M440.7,426.637s1.549,4.232,2.226,3.631-.542-17.113-1.693-24.358h-.322l1.583,19.272S440.666,425.791,440.7,426.637Z" transform="translate(-440.699 -405.91)" fill="#fff"/>
      </g>
      <path id="Path_4757" data-name="Path 4757" d="M440.89,405.7a1.007,1.007,0,0,1,.051.245,6.345,6.345,0,0,0,.093.711c.085.711.186,1.591.3,2.624.245,2.217.542,5.281.787,8.675s.415,6.466.5,8.7c0,1.033.059,1.921.085,2.632v.719a1.15,1.15,0,0,1,0,.254,1.948,1.948,0,0,1,0-.254,4.306,4.306,0,0,0-.042-.711c0-.719-.085-1.6-.144-2.641-.118-2.226-.3-5.3-.542-8.692s-.533-6.458-.745-8.675c-.093-1.033-.178-1.913-.245-2.624a5.786,5.786,0,0,0-.068-.719A2.309,2.309,0,0,0,440.89,405.7Z" transform="translate(-315.889 -291.961)" fill="#263238"/>
      <path id="Path_4758" data-name="Path 4758" d="M442.658,428.7a6.7,6.7,0,0,0-1.219.584,5.682,5.682,0,0,0-.939.973,1.93,1.93,0,0,1,.846-1.117,1.955,1.955,0,0,1,1.312-.44Z" transform="translate(-315.829 -295.494)" fill="#263238"/>
      <path id="Path_4759" data-name="Path 4759" d="M439.91,423.84a1.919,1.919,0,0,1-.516.5c-.313.237-.6.4-.635.355s.212-.262.525-.5A1.785,1.785,0,0,1,439.91,423.84Z" transform="translate(-315.561 -294.748)" fill="#263238"/>
      <path id="Path_4760" data-name="Path 4760" d="M439.154,422.51a2.442,2.442,0,0,1-.3.542c-.2.271-.406.457-.44.423s.093-.271.3-.533S439.112,422.484,439.154,422.51Z" transform="translate(-315.507 -294.543)" fill="#263238"/>
      <path id="Path_4761" data-name="Path 4761" d="M437.6,421.76a1.652,1.652,0,0,1,.152.745,1.693,1.693,0,0,1,0,.762,1.653,1.653,0,0,1-.152-.745A1.925,1.925,0,0,1,437.6,421.76Z" transform="translate(-315.379 -294.428)" fill="#263238"/>
      <path id="Path_4762" data-name="Path 4762" d="M436.45,421.54a1.456,1.456,0,0,1,.3.846,1.49,1.49,0,0,1-.051.846,4.428,4.428,0,0,1-.118-.846A4.353,4.353,0,0,1,436.45,421.54Z" transform="translate(-315.207 -294.394)" fill="#263238"/>
      <path id="Path_4763" data-name="Path 4763" d="M438.457,424.53a2.54,2.54,0,0,1,.068.931,5.4,5.4,0,0,1-.152,1.007,2.9,2.9,0,0,1-.186.584.533.533,0,0,1-.271.254.381.381,0,0,1-.389-.11,1.693,1.693,0,0,1,.347-2.15,1.626,1.626,0,0,1,.6-.347.5.5,0,0,1,.245-.042,2.438,2.438,0,0,0-.762.482,1.641,1.641,0,0,0-.457.846,1.4,1.4,0,0,0,.161,1.1c.118.144.288.076.372-.1a3.068,3.068,0,0,0,.186-.533,6.24,6.24,0,0,0,.178-.982C438.457,424.928,438.432,424.538,438.457,424.53Z" transform="translate(-315.336 -294.854)" fill="#263238"/>
      <path id="Path_4764" data-name="Path 4764" d="M438.41,424.61a.922.922,0,0,1-.643.161,1.6,1.6,0,0,1-.694-.2.948.948,0,0,1-.533-.745.373.373,0,0,1,.406-.313.956.956,0,0,1,.432.127,2.54,2.54,0,0,1,.592.4,1.4,1.4,0,0,1,.415.5,6.258,6.258,0,0,0-.491-.406,3.679,3.679,0,0,0-.584-.347c-.212-.11-.567-.178-.592.059s.245.457.44.584a1.507,1.507,0,0,0,.626.22,2.863,2.863,0,0,0,.626-.034Z" transform="translate(-315.221 -294.697)" fill="#263238"/>
      <path id="Path_4765" data-name="Path 4765" d="M436.236,406.39a6.6,6.6,0,0,0,.118,1.066,4.68,4.68,0,0,0,1.126,2.26,4.748,4.748,0,0,0,2.167,1.312c.643.169,1.058.161,1.058.195a.907.907,0,0,1-.3,0,3.606,3.606,0,0,1-.787-.1,4.418,4.418,0,0,1-3.385-3.673,3.386,3.386,0,0,1,0-.8A.846.846,0,0,1,436.236,406.39Z" transform="translate(-315.171 -292.067)" fill="#263238"/>
      <path id="Path_4766" data-name="Path 4766" d="M429.25,408.588a26.173,26.173,0,0,1,2.962-.339,24.322,24.322,0,0,1,2.979-.169,23.761,23.761,0,0,1-2.962.339,24.246,24.246,0,0,1-2.979.169Z" transform="translate(-314.101 -292.326)" fill="#263238"/>
      <path id="Path_4767" data-name="Path 4767" d="M440.108,414.39a8.265,8.265,0,0,1,.364,2.1,7.82,7.82,0,0,1,0,2.133c-.051,0-.059-.948-.161-2.116S440.057,414.407,440.108,414.39Z" transform="translate(-315.768 -293.296)" fill="#263238"/>
      <path id="Path_4768" data-name="Path 4768" d="M439.859,411l.432.144c.229.076.415.118.415.169s-.22.093-.474,0S439.825,411.068,439.859,411Z" transform="translate(-315.73 -292.775)" fill="#263238"/>
      <path id="Path_4769" data-name="Path 4769" d="M438.189,409.89a1.021,1.021,0,0,1,.355.186c.161.135.271.279.237.322s-.186-.051-.355-.186S438.164,409.932,438.189,409.89Z" transform="translate(-315.474 -292.604)" fill="#263238"/>
      <path id="Path_4770" data-name="Path 4770" d="M437.328,408.14c.051,0,.068.195.152.406s.22.355.186.389-.237-.059-.347-.322S437.286,408.132,437.328,408.14Z" transform="translate(-315.332 -292.336)" fill="#263238"/>
      <path id="Path_4771" data-name="Path 4771" d="M436.9,406.88a.356.356,0,0,1,.178.169c.051.118.068.228,0,.254s-.127-.059-.186-.178S436.86,406.9,436.9,406.88Z" transform="translate(-315.27 -292.142)" fill="#263238"/>
      <g id="Group_6379" data-name="Group 6379" transform="translate(119.753 114.323)" opacity="0.3">
        <path id="Path_4772" data-name="Path 4772" d="M435.613,406.432l.821,14.481-1.743.11V406.39Z" transform="translate(-434.69 -406.39)"/>
      </g>
      <path id="Path_4773" data-name="Path 4773" d="M377.628,398.866h0s39.077-21.337,43.5-28.285a14.964,14.964,0,0,0,1.3-13.88l-32.881,4.393-23.385,23.419h0c-5.078,4.037-14.278,12.475-14.278,20.8,0,14.236,18.408,11.908,31.62,11.942,18.061.042,38.332.119,38.332.119l.051-19.407Z" transform="translate(-302.215 -284.432)" fill="#263238"/>
      <path id="Path_4774" data-name="Path 4774" d="M371.33,410.57a36.4,36.4,0,0,0,4.816-1.887,34.7,34.7,0,0,0,4.663-2.243,35.787,35.787,0,0,0-4.816,1.9,34.752,34.752,0,0,0-4.663,2.234Z" transform="translate(-305.202 -292.074)" fill="#455a64"/>
      <path id="Path_4775" data-name="Path 4775" d="M375,405.674a15.777,15.777,0,0,0,3.385.3,16.209,16.209,0,0,0,3.436-.076,16.292,16.292,0,0,0-3.385-.3,15.091,15.091,0,0,0-3.436.085Z" transform="translate(-305.766 -291.934)" fill="#455a64"/>
      <path id="Path_4776" data-name="Path 4776" d="M386.982,365.78a3.007,3.007,0,0,1-.364.406l-1.117,1.1-4.156,4-13.821,13.085c-2.7,2.539-5.324,4.934-7.617,7.194a36.321,36.321,0,0,0-5.383,6.559,17.689,17.689,0,0,0-2.217,5.248l-.195.846a3.542,3.542,0,0,1-.093.66,2.117,2.117,0,0,1-.1.533,2.387,2.387,0,0,1,0-.542,3.24,3.24,0,0,1,.051-.669c.051-.254.093-.559.152-.9a16.825,16.825,0,0,1,2.124-5.374,35.549,35.549,0,0,1,5.357-6.695c2.277-2.294,4.892-4.672,7.617-7.228l13.914-12.966,4.232-3.893,1.176-1.049a3.527,3.527,0,0,1,.44-.322Z" transform="translate(-302.217 -285.827)" fill="#455a64"/>
      <path id="Path_4777" data-name="Path 4777" d="M375.092,309.682h0a6.695,6.695,0,0,1-9.369-3.343l-1.49-3.631s-5.078,1.794-7.617-2.835c-1.439-2.6-3.479-7.033-4.985-10.427a9,9,0,0,1,.846-8.768h0c4.139-5.222,7.423-4.35,14-3.284l.982.161,10.588,23.487a6.7,6.7,0,0,1-2.954,8.641Z" transform="translate(-302.058 -272.124)" fill="#ffbe9d"/>
      <path id="Path_4778" data-name="Path 4778" d="M355.309,294.3a.77.77,0,1,0-.973.465.762.762,0,0,0,.973-.465Z" transform="translate(-302.511 -274.687)" fill="#263238"/>
      <path id="Path_4779" data-name="Path 4779" d="M353.111,293.295c.118.042.381-.559,1.024-.906s1.286-.271,1.312-.389-.135-.161-.423-.2a1.693,1.693,0,0,0-1.1.212,1.769,1.769,0,0,0-.762.846C353.009,293.1,353.06,293.278,353.111,293.295Z" transform="translate(-302.395 -274.458)" fill="#263238"/>
      <path id="Path_4780" data-name="Path 4780" d="M362.141,289.93a.77.77,0,1,0,1.049-.279.762.762,0,0,0-1.049.279Z" transform="translate(-303.774 -274.115)" fill="#263238"/>
      <path id="Path_4781" data-name="Path 4781" d="M361.393,289.545c.118.042.381-.559,1.024-.906s1.286-.271,1.312-.389-.135-.161-.423-.2a1.693,1.693,0,0,0-1.1.212,1.768,1.768,0,0,0-.762.846C361.325,289.35,361.342,289.528,361.393,289.545Z" transform="translate(-303.669 -273.882)" fill="#263238"/>
      <path id="Path_4782" data-name="Path 4782" d="M361.522,296.8a3.241,3.241,0,0,0-1.151.339c-.178.068-.33.1-.389,0a1.041,1.041,0,0,1-.144-.542c-.059-.516-.127-1.033-.195-1.574a19.367,19.367,0,0,0-.753-4.02,20.6,20.6,0,0,0,.347,4.071c.076.542.152,1.058.229,1.574a1.185,1.185,0,0,0,.279.745.482.482,0,0,0,.432.11,1.1,1.1,0,0,0,.313-.118C361.183,297.077,361.581,296.848,361.522,296.8Z" transform="translate(-303.291 -274.338)" fill="#263238"/>
      <path id="Path_4783" data-name="Path 4783" d="M366.61,306.472a12.264,12.264,0,0,0,5.137-5s.372,4.122-4.494,6.212Z" transform="translate(-304.477 -275.947)" fill="#eb996e"/>
      <path id="Path_4784" data-name="Path 4784" d="M372.93,283.77c.076-.085,3.724-2.243,4.807,1.735.939,3.445-2.954,4.037-3,3.927S372.93,283.77,372.93,283.77Z" transform="translate(-305.448 -273.126)" fill="#ffbe9d"/>
      <path id="Path_4785" data-name="Path 4785" d="M375.772,287.665h.186a.626.626,0,0,0,.432-.152,1.524,1.524,0,0,0,.186-1.515,1.963,1.963,0,0,0-.466-.762.7.7,0,0,0-.592-.279.322.322,0,0,0-.279.279v.178c0,.008-.093,0-.11-.169a.364.364,0,0,1,.051-.254.465.465,0,0,1,.288-.2.846.846,0,0,1,.787.288,2.1,2.1,0,0,1,.533.846,1.574,1.574,0,0,1-.313,1.693.643.643,0,0,1-.55.11C375.806,287.75,375.764,287.682,375.772,287.665Z" transform="translate(-305.785 -273.382)" fill="#eb996e"/>
      <path id="Path_4786" data-name="Path 4786" d="M370.49,313.63s9.1-15.235,23.165-2.412c9.183,8.379,24.164,25.662,29.513,32.433,1.2,1.515,3.072,3.826,1.76,5.247-4.012,4.333-14.947,14.05-35.183,6.771l-19.2-26.694a13.237,13.237,0,0,1-.076-15.336Z" transform="translate(-304.7 -276.656)" fill="#be1a25"/>
      <path id="Path_4787" data-name="Path 4787" d="M381.866,305.668l-2.564-4.2L366.2,311.9l2.446,3.936Z" transform="translate(-304.414 -275.947)" fill="#be1a25"/>
      <g id="Group_6380" data-name="Group 6380" transform="translate(62.311 30.263)" opacity="0.3">
        <path id="Path_4788" data-name="Path 4788" d="M381.4,307.07s-10.317,8.921-10.461,8.768-4.122-3.013-4.122-3.013l3.631,2.04Z" transform="translate(-366.82 -307.07)"/>
      </g>
      <path id="Path_4789" data-name="Path 4789" d="M382,306.37a2.911,2.911,0,0,0-.66.355c-.406.254-.99.635-1.693,1.126-1.422.973-3.326,2.387-5.425,3.944-1.43,1.058-2.776,2.031-3.927,2.827h.169c-1.227-.66-2.251-1.21-2.971-1.574a6.77,6.77,0,0,0-1.16-.542,5.806,5.806,0,0,0,1.066.7c.694.423,1.693,1.007,2.9,1.693l.085.042.085-.051c1.176-.779,2.539-1.735,3.969-2.793l5.357-4.029,1.625-1.219a3.037,3.037,0,0,0,.576-.482Z" transform="translate(-304.434 -276.7)" fill="#263238"/>
      <path id="Path_4790" data-name="Path 4790" d="M314.824,352.473l-2.488-1.007a22.951,22.951,0,0,1-4.232-1.625,6.423,6.423,0,0,1-1.82-1.295,10.053,10.053,0,0,1-1.76-2.167.846.846,0,0,0-1.642.059c-.144.77.846,2.937,2.937,4.714s-2.234,1.693-3.817,1.693-6.5.254-6.889.745c-.567.711.1,1.447,1.693,1.4s6.356.169,6.314,1.007-8.117.745-8.117.745-1.693-.3-1.8.669c-.135,1.752,8.464,1.2,9.31,1.126.567-.051.559.846-.059.889s-8.057-.271-8.218,1.507c-.118,1.363,7.084-.381,8.591.533s-5.594.77-5.654,2.074c0,.491,0,.846,4.122.347s15.311-3.758,15.311-3.758l-1.879-7.795" transform="translate(-293.198 -282.752)" fill="#ffbe9d"/>
      <path id="Path_4791" data-name="Path 4791" d="M366.374,321.28s-13.381,18.451-16.479,19.17-37.6,6.145-37.6,6.145l1.693,11.257s42.817-1.2,46.965-4.985,16.673-23.021,16.673-23.021Z" transform="translate(-296.133 -278.991)" fill="#ffbe9d"/>
      <path id="Path_4792" data-name="Path 4792" d="M365.06,357.552a1.107,1.107,0,0,0,.355.313,2.217,2.217,0,0,0,1.27.262,2.184,2.184,0,0,0,1.65-.99,2.234,2.234,0,0,0,.11-2.344,1.786,1.786,0,0,0-.982-.846,1.608,1.608,0,0,0-1.21.093,1.295,1.295,0,0,0-.5,1.82,1.075,1.075,0,0,0,1.244.372c.3-.127.372-.313.356-.322a1.651,1.651,0,0,1-.406.178.906.906,0,0,1-.965-.372,1.007,1.007,0,0,1,.432-1.363,1.261,1.261,0,0,1,.931-.051,1.422,1.422,0,0,1,.77.66,1.989,1.989,0,0,1-1.464,2.886,2.9,2.9,0,0,1-1.591-.3Z" transform="translate(-304.239 -283.997)" fill="#eb996e"/>
      <path id="Path_4793" data-name="Path 4793" d="M389.277,325.728l-12.7,21.794L361.94,335.4S372.1,318.8,376.878,313.65Z" transform="translate(-303.759 -277.818)" fill="#be1a25"/>
      <path id="Path_4794" data-name="Path 4794" d="M351.22,377.08a6.508,6.508,0,0,1,4.283,5.594,10.842,10.842,0,0,0-4.283-5.594Z" transform="translate(-302.113 -287.564)" fill="#455a64"/>
      <path id="Path_4795" data-name="Path 4795" d="M368.775,285.592a1.253,1.253,0,0,0,.914.652c.381.076.77.068,1.16.144a2.674,2.674,0,0,1,1.549.906,3.972,3.972,0,0,0,.533.592.66.66,0,0,0,.745.076c.339-.254.186-.779,0-1.159q-1.193-2.361-2.37-4.723l-4.486.973,1.93,2.243" transform="translate(-304.509 -272.968)" fill="#263238"/>
      <path id="Path_4796" data-name="Path 4796" d="M351.8,278.581c.516-.618,1.286-1.126,1.9-.592a3.944,3.944,0,0,1,1.049,2.15,6.771,6.771,0,0,0,.8,2.285,2.835,2.835,0,0,0,4.968-.542,9.818,9.818,0,0,0,2.116,2.539,3.309,3.309,0,0,0,3.106.6,2.031,2.031,0,0,0,1.151-2.683,3.385,3.385,0,0,0,2.04.779,1.9,1.9,0,0,0,1.777-1.092,1.354,1.354,0,0,0-.846-1.777,2.437,2.437,0,0,0,2.768-.059,2.09,2.09,0,0,0,.533-2.649,1.837,1.837,0,0,0-2.539-.525,3.614,3.614,0,0,0,1.43-1.278,1.253,1.253,0,0,0-.4-1.693c-.7-.322-1.456.33-2.226.474-1.253.229-2.277-.9-3.284-1.693a8.218,8.218,0,0,0-6.551-1.312,13.34,13.34,0,0,0-6.018,3.2c-1.134.99-2.226,2.429-1.769,3.859" transform="translate(-302.185 -271.314)" fill="#263238"/>
      <path id="Path_4797" data-name="Path 4797" d="M354.636,290.589c0,.364-.347.677-.77.846a1.066,1.066,0,0,1-1.143-.085c-.245-.262,0-.846.66-1.143S354.636,290.226,354.636,290.589Z" transform="translate(-302.329 -274.199)" fill="#263238"/>
      <path id="Path_4798" data-name="Path 4798" d="M362.448,286.781c-.076.364-.525.592-.973.8s-.931.381-1.253.186a.5.5,0,0,1-.085-.609,1.515,1.515,0,0,1,.8-.779,1.5,1.5,0,0,1,1.117-.076C362.33,286.417,362.465,286.6,362.448,286.781Z" transform="translate(-303.472 -273.606)" fill="#263238"/>
      <path id="Path_4799" data-name="Path 4799" d="M364.936,296.1c.11-.042.4.846,0,1.777s-1.244,1.337-1.286,1.227a13.038,13.038,0,0,0,.846-1.4C364.818,296.87,364.792,296.117,364.936,296.1Z" transform="translate(-304.022 -275.122)" fill="#263238"/>
      <path id="Path_4800" data-name="Path 4800" d="M372.854,279.363a1.042,1.042,0,0,1-.195.118,1.752,1.752,0,0,1-.643.135,2.226,2.226,0,0,1-2.048-1.2l.228.051a4.232,4.232,0,0,1-2.793,1.109,4.367,4.367,0,0,1-3.385-1.413l.372-.152a1.693,1.693,0,0,1-.8,1.439,2.429,2.429,0,0,1-1.642.4,4.063,4.063,0,0,1-2.3-1.4c-.584-.635-1.05-1.295-1.591-1.811a3.5,3.5,0,0,0-1.777-1.024,3.165,3.165,0,0,0-1.769.22,6.5,6.5,0,0,0-2.175,1.583,6.146,6.146,0,0,1-.728.711,4.411,4.411,0,0,1,.6-.846,6.187,6.187,0,0,1,2.175-1.752,3.538,3.538,0,0,1,1.964-.3,3.792,3.792,0,0,1,1.989,1.092c.584.55,1.066,1.21,1.625,1.811a3.7,3.7,0,0,0,2.04,1.261c.931.135,2.006-.525,1.964-1.38v-.618l.406.474a4.1,4.1,0,0,0,3.089,1.32,4.029,4.029,0,0,0,2.6-.948l.152-.135.076.178a2.074,2.074,0,0,0,1.786,1.176A4.533,4.533,0,0,0,372.854,279.363Z" transform="translate(-302.172 -271.91)" fill="#455a64"/>
      <path id="Path_4801" data-name="Path 4801" d="M392.393,322.176c-.042,0,0-.508-.195-1.388a9.75,9.75,0,0,0-1.38-3.521,9.208,9.208,0,0,0-4.19-3.58,9.589,9.589,0,0,0-6.686-.237,10.511,10.511,0,0,0-3.072,1.693,15.851,15.851,0,0,0-2.37,2.327,39.015,39.015,0,0,0-3.216,4.68c-.846,1.38-1.54,2.539-2.057,3.258-.245.381-.457.66-.6.846s-.22.288-.237.279a9.742,9.742,0,0,1,.694-1.227c.491-.846,1.143-1.972,1.93-3.326a36.568,36.568,0,0,1,3.174-4.782,12.949,12.949,0,0,1,5.62-4.232,9.843,9.843,0,0,1,6.983.279,9.555,9.555,0,0,1,5.577,7.44,6.569,6.569,0,0,1,.059,1.058A1.133,1.133,0,0,1,392.393,322.176Z" transform="translate(-304.75 -277.635)" fill="#263238"/>
      <path id="Path_4802" data-name="Path 4802" d="M389.615,331.283a.957.957,0,0,0-.339-.694,1.549,1.549,0,0,0-.846-.322,4.368,4.368,0,0,1-1.32-.237,4.029,4.029,0,0,1-1.989-2.818c-.178-.626-.313-1.278-.55-1.913a3.309,3.309,0,0,0-1.143-1.642,4.088,4.088,0,0,0-1.913-.669,14.137,14.137,0,0,0-1.98,0,6.677,6.677,0,0,1-3.385-.508,2.878,2.878,0,0,1-1.49-1.786,1.608,1.608,0,0,1-.042-.643.549.549,0,0,1,.059-.212,6.016,6.016,0,0,0,.144.846,2.886,2.886,0,0,0,1.473,1.557,6.771,6.771,0,0,0,3.267.372,6.514,6.514,0,0,1,4.164.753,3.673,3.673,0,0,1,1.286,1.845c.245.677.372,1.346.533,1.964a3.8,3.8,0,0,0,1.693,2.632,4.5,4.5,0,0,0,1.236.288,1.583,1.583,0,0,1,.931.44.847.847,0,0,1,.288.592A.374.374,0,0,1,389.615,331.283Z" transform="translate(-305.705 -278.769)" fill="#fafafa"/>
      <path id="Path_4803" data-name="Path 4803" d="M383.6,339.96a5.612,5.612,0,0,0-.364-.677,3.275,3.275,0,0,0-1.693-1.066c-.846-.279-1.93-.245-3.123-.635a3.166,3.166,0,0,1-1.608-1.143c-.4-.567-.618-1.227-.982-1.76a4.944,4.944,0,0,0-3.216-1.693,8.09,8.09,0,0,1-3.013-1.143,3.055,3.055,0,0,1-1.2-1.82,1.227,1.227,0,0,1,.068-.8c.042,0,0,.288.1.762a2.962,2.962,0,0,0,1.177,1.591,8.353,8.353,0,0,0,2.92,1.007,9.44,9.44,0,0,1,1.837.559,3.784,3.784,0,0,1,1.65,1.312c.406.609.618,1.261.973,1.752a2.751,2.751,0,0,0,1.388,1.016c1.092.381,2.2.389,3.089.719a3.25,3.25,0,0,1,1.769,1.27,1.531,1.531,0,0,1,.212.567C383.612,339.893,383.621,339.96,383.6,339.96Z" transform="translate(-304.747 -280.21)" fill="#fafafa"/>
      <path id="Path_4804" data-name="Path 4804" d="M409.526,328.36a.949.949,0,0,1,0,.355,3.438,3.438,0,0,1-.372.948,6.221,6.221,0,0,1-2.844,2.361c-.711.33-1.515.626-2.344.99a7.542,7.542,0,0,0-2.378,1.54c-1.439,1.422-2.141,3.622-3.157,5.781a9.387,9.387,0,0,1-1.964,2.92,4.07,4.07,0,0,1-.669.542,4.233,4.233,0,0,1-.719.449,7.051,7.051,0,0,1-1.54.525c-2.057.44-3.927.33-5.391.8a4.6,4.6,0,0,0-2.835,2.048,4.3,4.3,0,0,0-.432,1.253v-.355a2.76,2.76,0,0,1,.288-.973,4.7,4.7,0,0,1,2.895-2.277c1.523-.516,3.428-.44,5.391-.889a6.548,6.548,0,0,0,1.447-.508,3.9,3.9,0,0,0,.66-.415,3.526,3.526,0,0,0,.618-.508,9.108,9.108,0,0,0,1.862-2.8c1-2.107,1.693-4.367,3.267-5.874a7.616,7.616,0,0,1,2.539-1.583c.846-.364,1.65-.635,2.353-.948a6.348,6.348,0,0,0,2.835-2.167,5.134,5.134,0,0,0,.491-1.21Z" transform="translate(-307.284 -280.078)" fill="#fafafa"/>
      <path id="Path_4805" data-name="Path 4805" d="M418.968,340.73a2.794,2.794,0,0,1-.542,1.32,6.949,6.949,0,0,1-3.089,2.344c-1.507.694-3.47,1.007-5.332,2.014a5.679,5.679,0,0,0-2.311,2.251,32.248,32.248,0,0,0-1.422,3.3,11.121,11.121,0,0,1-4.663,5.264,10.673,10.673,0,0,1-5.578,1.43,10.553,10.553,0,0,1-3.8-.779,8.81,8.81,0,0,1-.956-.457c-.212-.127-.313-.195-.3-.212s.466.2,1.32.508a11.349,11.349,0,0,0,3.749.626,10.605,10.605,0,0,0,5.366-1.464,10.876,10.876,0,0,0,4.46-5.078,30.364,30.364,0,0,1,1.456-3.385,6.12,6.12,0,0,1,2.488-2.387c1.964-1.033,3.927-1.3,5.408-1.947a7.237,7.237,0,0,0,3.072-2.15,6.882,6.882,0,0,0,.677-1.2Z" transform="translate(-308.22 -281.979)" fill="#fafafa"/>
      <path id="Path_4806" data-name="Path 4806" d="M429.214,350.505a15.667,15.667,0,0,0-3.385,2.065,11.189,11.189,0,0,0-2.683,3.335c-.389.7-.66,1.515-1.016,2.353a5.018,5.018,0,0,1-1.693,2.294,5.966,5.966,0,0,1-2.717.846c-.906.1-1.76.127-2.539.262a14.489,14.489,0,0,0-4.1,1.295,21.923,21.923,0,0,0-3.385,2.158,4.157,4.157,0,0,1,.762-.779,13.543,13.543,0,0,1,2.463-1.693,14.064,14.064,0,0,1,4.181-1.413c.846-.152,1.693-.186,2.539-.3a5.654,5.654,0,0,0,2.539-.787,4.663,4.663,0,0,0,1.549-2.1,22.842,22.842,0,0,1,1.049-2.378,11.1,11.1,0,0,1,2.844-3.385,10.581,10.581,0,0,1,2.539-1.515c.33-.127.584-.212.762-.262S429.206,350.488,429.214,350.505Z" transform="translate(-310.79 -283.477)" fill="#fafafa"/>
      <path id="Path_4807" data-name="Path 4807" d="M393,329.778a5.425,5.425,0,0,0,1.93-1.219,6.717,6.717,0,0,0,1.354-2.074,18.751,18.751,0,0,0,.906-2.954,15.85,15.85,0,0,1,1.007-3,6.255,6.255,0,0,1,1.591-2.074,3.918,3.918,0,0,1,1.557-.846,1.388,1.388,0,0,1,.643-.051,5.459,5.459,0,0,0-2,1.1,6.584,6.584,0,0,0-1.43,2.023,16.637,16.637,0,0,0-.939,2.937,18.233,18.233,0,0,1-.965,3.013,6.676,6.676,0,0,1-1.507,2.133,4.087,4.087,0,0,1-1.515.906A1.194,1.194,0,0,1,393,329.778Z" transform="translate(-308.531 -278.416)" fill="#fafafa"/>
      <path id="Path_4808" data-name="Path 4808" d="M390.11,313.3a4.96,4.96,0,0,1,3.5-3.834c.051.118-1.016.652-1.972,1.693S390.228,313.38,390.11,313.3Z" transform="translate(-308.087 -277.176)" fill="#fafafa"/>
      <path id="Path_4809" data-name="Path 4809" d="M381.085,303.76a12.982,12.982,0,0,1-1.329,1.989,25.139,25.139,0,0,1-1.591,2.065,4.03,4.03,0,0,1-1.286.956,4.147,4.147,0,0,1-1.693.279,11.26,11.26,0,0,0-1.617,0,4.046,4.046,0,0,0-1.363.457,3.767,3.767,0,0,0-1.625,1.8,5.357,5.357,0,0,0-.347,2.285,1.346,1.346,0,0,1-.169-.635,3.766,3.766,0,0,1,.229-1.769,3.91,3.91,0,0,1,1.693-2.031,4.045,4.045,0,0,1,1.507-.533,11.082,11.082,0,0,1,1.693-.042,3.182,3.182,0,0,0,2.683-1.075c.652-.686,1.168-1.413,1.642-1.98a12.5,12.5,0,0,1,1.574-1.769Z" transform="translate(-305.004 -276.299)" fill="#fafafa"/>
      <g id="Group_6381" data-name="Group 6381" transform="translate(75.277 47.275)" opacity="0.2">
        <path id="Path_4810" data-name="Path 4810" d="M394.184,327.17,387.76,353.2l-5.62-7.829Z" transform="translate(-382.14 -327.17)"/>
      </g>
      <path id="Path_4811" data-name="Path 4811" d="M429.25,424.892c-.118,0-.22-4.325-.22-9.657s.1-9.665.22-9.665.22,4.325.22,9.665S429.377,424.892,429.25,424.892Z" transform="translate(-314.067 -291.941)" fill="#455a64"/>
    </g>
    <g id="freepik--Plant--inject-31" transform="translate(72.898 315.203)">
      <path id="Path_4812" data-name="Path 4812" d="M90.678,371.73a9.488,9.488,0,0,1,6.61,3.445A16.783,16.783,0,0,1,100.606,382c1.236,4.782.406,10.4-1,15.133-5.146-1.887-8.277-7.423-9.7-10.326-2.234-4.6-3.487-14.253.787-15.074" transform="translate(-82.437 -371.73)" fill="#be1a25"/>
      <path id="Path_4813" data-name="Path 4813" d="M110.212,406.178a8.117,8.117,0,0,1-.313-8.142,10.774,10.774,0,0,1,6.534-5.154,4.553,4.553,0,0,1,3.809.212,3.462,3.462,0,0,1,1.312,3.267,7.025,7.025,0,0,1-1.515,3.326c-2.539,3.385-5.611,6.178-9.826,6.492" transform="translate(-85.678 -374.931)" fill="#be1a25"/>
      <path id="Path_4814" data-name="Path 4814" d="M110.749,423.152a6.1,6.1,0,0,1-.229-1c-.127-.7-.3-1.617-.508-2.717a28.777,28.777,0,0,1-.482-9.132,17.342,17.342,0,0,1,3.462-8.464,11.731,11.731,0,0,1,1.972-1.964,5.418,5.418,0,0,1,.618-.432,1.273,1.273,0,0,1,.229-.135,19.563,19.563,0,0,0-2.624,2.683,17.968,17.968,0,0,0-3.3,8.328,30.6,30.6,0,0,0,.381,9.039c.178,1.151.313,2.091.4,2.742a5.6,5.6,0,0,1,.085,1.049Z" transform="translate(-85.742 -375.967)" fill="#263238"/>
      <path id="Path_4815" data-name="Path 4815" d="M93.09,380.32a2.378,2.378,0,0,1,.2.389l.516,1.16c.449,1,1.083,2.463,1.845,4.274,1.523,3.622,3.555,8.658,5.679,14.27s3.927,10.74,5.18,14.473c.626,1.862,1.126,3.385,1.447,4.418.152.5.279.9.372,1.21a2.361,2.361,0,0,1,.11.432,2.594,2.594,0,0,1-.178-.406l-.432-1.185c-.381-1.083-.914-2.539-1.557-4.393-1.32-3.7-3.157-8.811-5.281-14.388s-4.113-10.656-5.578-14.3c-.719-1.786-1.3-3.258-1.693-4.316l-.457-1.176A1.643,1.643,0,0,1,93.09,380.32Z" transform="translate(-83.241 -373.05)" fill="#263238"/>
      <path id="Path_4816" data-name="Path 4816" d="M100.375,413.305A18.975,18.975,0,0,0,85.742,404c-1.532-.118-3.385.119-4.054,1.481s.2,3,1.227,4.139a16.225,16.225,0,0,0,17.52,4.071" transform="translate(-81.453 -376.683)" fill="#be1a25"/>
      <path id="Path_4817" data-name="Path 4817" d="M89.22,408.85a6.71,6.71,0,0,1,.956.051,7.807,7.807,0,0,1,1.109.135c.432.085.931.135,1.464.288a15.867,15.867,0,0,1,1.693.5,17.013,17.013,0,0,1,1.93.753,19.467,19.467,0,0,1,7.414,5.823,20.092,20.092,0,0,1,1.176,1.693q.462.77.846,1.583c.262.491.423.965.592,1.363a8.188,8.188,0,0,1,.372,1.066,4.367,4.367,0,0,1,.237.922c-.076,0-.432-1.295-1.43-3.233a15.934,15.934,0,0,0-.9-1.54,18.631,18.631,0,0,0-1.185-1.693,21.364,21.364,0,0,0-3.309-3.292,22.487,22.487,0,0,0-3.978-2.437,17.864,17.864,0,0,0-1.9-.77,17.374,17.374,0,0,0-1.693-.533C90.574,409.019,89.212,408.977,89.22,408.85Z" transform="translate(-82.646 -377.433)" fill="#263238"/>
    </g>
  </g>
</svg>
