<svg xmlns="http://www.w3.org/2000/svg" width="413.739" height="288.749" viewBox="0 0 413.739 288.749">
  <g id="Group_12006" data-name="Group 12006" transform="translate(-5976 -9735.956)">
    <g id="Group_12003" data-name="Group 12003" transform="translate(5976 9768.649)">
      <g id="No_data-pana" data-name="No data-pana" transform="translate(0 0)">
        <g id="freepik--background-complete--inject-5" transform="translate(14.282 10.167)">
          <rect id="Rectangle_1156" data-name="Rectangle 1156" width="90.29" height="132.95" transform="translate(0 82.917) rotate(-33.78)" fill="#f5f5f5"/>
          <path id="Path_4952" data-name="Path 4952" d="M253.529,277l-.849,5.271-37.309-5.378.849-5.271Z" transform="translate(-143.342 -139.003)" fill="#e0e0e0"/>
          <path id="Path_4953" data-name="Path 4953" d="M241.39,251.55l5.351.769-5.933,36.734-5.358-.776Z" transform="translate(-149.991 -132.357)" fill="#e0e0e0"/>
          <path id="Path_4954" data-name="Path 4954" d="M176.274,181.75c.054.074-7.465,5.2-16.8,11.438s-16.936,11.237-16.989,11.157,7.465-5.2,16.8-11.444S176.187,181.669,176.274,181.75Z" transform="translate(-119.209 -109.244)" fill="#e0e0e0"/>
          <path id="Path_4955" data-name="Path 4955" d="M206.464,171.39c.054.08-12.454,8.535-27.932,18.889S150.44,208.96,150.4,208.886s12.441-8.541,27.938-18.9S206.411,171.309,206.464,171.39Z" transform="translate(-121.828 -105.813)" fill="#e0e0e0"/>
          <path id="Path_4956" data-name="Path 4956" d="M214.734,183.75c.054.08-12.454,8.541-27.932,18.9s-28.092,18.681-28.132,18.6,12.454-8.535,27.938-18.9S214.681,183.669,214.734,183.75Z" transform="translate(-124.567 -109.906)" fill="#e0e0e0"/>
          <path id="Path_4957" data-name="Path 4957" d="M223.024,196.12c.054.08-12.454,8.541-27.932,18.889S167,233.7,167,233.616s12.448-8.541,27.932-18.9S222.971,196.039,223.024,196.12Z" transform="translate(-127.325 -114.002)" fill="#e0e0e0"/>
          <path id="Path_4958" data-name="Path 4958" d="M231.248,208.49c.053.08-12.454,8.535-27.932,18.889s-28.092,18.681-28.126,18.6,12.468-8.535,27.965-18.889S231.248,208.409,231.248,208.49Z" transform="translate(-130.037 -118.098)" fill="#e0e0e0"/>
          <rect id="Rectangle_1157" data-name="Rectangle 1157" width="75.829" height="111.654" transform="translate(262.969 148.922) rotate(-33.78)" fill="#f5f5f5"/>
          <path id="Path_4959" data-name="Path 4959" d="M623.332,362.945l-.716,4.428-31.336-4.515L592,358.43Z" transform="translate(-267.819 -167.749)" fill="#e0e0e0"/>
          <path id="Path_4960" data-name="Path 4960" d="M613.14,341.57l4.495.649-4.983,30.848-4.5-.649Z" transform="translate(-273.405 -162.166)" fill="#e0e0e0"/>
          <path id="Path_4961" data-name="Path 4961" d="M558.41,283c.054.08-6.254,4.394-14.093,9.632s-14.233,9.424-14.287,9.364,6.261-4.388,14.093-9.632S558.356,282.885,558.41,283Z" transform="translate(-247.537 -142.771)" fill="#e0e0e0"/>
          <path id="Path_4962" data-name="Path 4962" d="M583.818,274.25c.053.08-10.441,7.2-23.41,15.886s-23.584,15.685-23.638,15.6,10.441-7.2,23.41-15.892S583.744,274.169,583.818,274.25Z" transform="translate(-249.769 -139.874)" fill="#e0e0e0"/>
          <path id="Path_4963" data-name="Path 4963" d="M590.768,284.63c.054.08-10.441,7.2-23.41,15.892s-23.584,15.678-23.638,15.6,10.408-7.164,23.41-15.859S590.728,284.556,590.768,284.63Z" transform="translate(-252.07 -143.311)" fill="#e0e0e0"/>
          <path id="Path_4964" data-name="Path 4964" d="M597.708,295c.054.08-10.448,7.2-23.41,15.892s-23.584,15.678-23.638,15.6S561.1,319.3,574.07,310.6,597.661,294.933,597.708,295Z" transform="translate(-254.368 -146.745)" fill="#e0e0e0"/>
          <path id="Path_4965" data-name="Path 4965" d="M604.708,305.41c.054.08-10.441,7.19-23.41,15.886s-23.584,15.678-23.638,15.6,10.441-7.2,23.41-15.892S604.621,305.329,604.708,305.41Z" transform="translate(-256.686 -150.192)" fill="#e0e0e0"/>
          <rect id="Rectangle_1158" data-name="Rectangle 1158" width="77.99" height="114.837" transform="translate(157.512) rotate(28.14)" fill="#f5f5f5"/>
          <path id="Path_4966" data-name="Path 4966" d="M339.777,217.211l-4.361,1.492L324.34,188.088l4.368-1.5Z" transform="translate(-179.426 -110.847)" fill="#e0e0e0"/>
          <path id="Path_4967" data-name="Path 4967" d="M342.367,199.53l1.592,4.394-30.407,10.414-1.592-4.394Z" transform="translate(-175.326 -115.132)" fill="#e0e0e0"/>
          <path id="Path_4968" data-name="Path 4968" d="M374.392,123.8c-.054.1-7.023-3.525-15.578-8.093s-15.437-8.361-15.384-8.461,7.03,3.525,15.585,8.093S374.445,123.7,374.392,123.8Z" transform="translate(-185.747 -84.574)" fill="#e0e0e0"/>
          <path id="Path_4969" data-name="Path 4969" d="M388.969,145.626c-.053.1-11.6-5.973-25.785-13.558S337.546,118.25,337.6,118.149s11.591,5.966,25.778,13.558S389.022,145.526,388.969,145.626Z" transform="translate(-183.817 -88.183)" fill="#e0e0e0"/>
          <path id="Path_4970" data-name="Path 4970" d="M382.909,156.956c-.054.1-11.6-5.966-25.785-13.558s-25.638-13.819-25.584-13.919,11.591,5.973,25.778,13.558S382.962,156.856,382.909,156.956Z" transform="translate(-181.81 -91.935)" fill="#e0e0e0"/>
          <path id="Path_4971" data-name="Path 4971" d="M376.849,168.289c-.054.1-11.6-5.966-25.785-13.551s-25.638-13.8-25.584-13.919,11.591,5.966,25.778,13.551S376.9,168.189,376.849,168.289Z" transform="translate(-179.803 -95.69)" fill="#e0e0e0"/>
          <path id="Path_4972" data-name="Path 4972" d="M370.789,179.62c-.053.1-11.6-5.966-25.785-13.551S319.36,152.25,319.42,152.149s11.591,5.966,25.778,13.551S370.842,179.519,370.789,179.62Z" transform="translate(-177.797 -99.442)" fill="#e0e0e0"/>
        </g>
        <g id="freepik--Floor--inject-5" transform="translate(0 255.12)">
          <path id="Path_4974" data-name="Path 4974" d="M472.492,439.744c0,.094-86.451.174-193.074.174s-193.088-.06-193.088-.174,86.437-.174,193.088-.174S472.492,439.644,472.492,439.744Z" transform="translate(-86.33 -439.57)" fill="#263238"/>
        </g>
        <g id="freepik--Folder--inject-5" transform="translate(57.718 99.759)">
          <path id="Path_5054" data-name="Path 5054" d="M285.755,230.484l-23.678,121.6L259,368l157.852-.763c7.09-.033,13.377-6.327,15.645-15.678l28-114.8c1.732-7.1-2.067-14.481-7.444-14.474l-159.805.167C289.768,222.451,286.651,225.741,285.755,230.484Z" transform="translate(-201.225 -212.26)" fill="#be1a25"/>
          <g id="Group_11995" data-name="Group 11995" transform="translate(57.775 10.03)" opacity="0.5">
            <path id="Path_5055" data-name="Path 5055" d="M285.755,230.484l-23.678,121.6L259,368l157.852-.763c7.09-.033,13.377-6.327,15.645-15.678l28-114.8c1.732-7.1-2.067-14.481-7.444-14.474l-159.805.167C289.768,222.451,286.651,225.741,285.755,230.484Z" transform="translate(-259 -222.29)"/>
          </g>
          <path id="Path_5056" data-name="Path 5056" d="M373.126,338.864C355.736,198.63,304.105,195.835,182.908,216.91c-6.227.033-11.016,5.933-10.193,12.555l15.524,124.509a10.6,10.6,0,0,0,10.26,9.618l177.684-.354c19.785.408,21.678-5.431,21.678-5.431C375.146,362.829,373.126,338.9,373.126,338.864Z" transform="translate(-172.622 -207.295)" fill="#be1a25"/>
        </g>
        <g id="freepik--speech-bubble--inject-5" transform="translate(262.008 0)">
          <path id="Path_5059" data-name="Path 5059" d="M507.605,94.744a1.237,1.237,0,0,1-.756-1.09l-.268-6.207a1.244,1.244,0,0,1,1.532-1.271,3.893,3.893,0,0,0,3.023-.6,3.485,3.485,0,0,0,1.559-2.288,3.565,3.565,0,0,0-.749-2.675,4.013,4.013,0,0,0-2.635-1.585,4.682,4.682,0,0,0-4.749,3.344,1.251,1.251,0,0,1-2.408-.669,7.2,7.2,0,0,1,7.444-5.2,6.461,6.461,0,0,1,4.341,2.562,6.107,6.107,0,0,1,1.224,4.6,6.02,6.02,0,0,1-2.676,3.96,6.5,6.5,0,0,1-3.384,1.1l.207,4.789a1.251,1.251,0,0,1-1.739,1.2Z" transform="translate(-486.021 -64.222)" fill="#be1a25"/>
          <path id="Path_5060" data-name="Path 5060" d="M512.048,107.108a1.017,1.017,0,1,1-.347-.7A1.023,1.023,0,0,1,512.048,107.108Z" transform="translate(-488.631 -74.045)" fill="#be1a25"/>
          <path id="Path_5061" data-name="Path 5061" d="M478.144,79.914a3.135,3.135,0,0,0,.06-.4c0-.294.074-.669.127-1.2a14.493,14.493,0,0,1,.328-1.926c.087-.375.134-.789.268-1.211s.268-.876.415-1.338a23.07,23.07,0,0,1,3.344-6.374,22.407,22.407,0,0,1,7.03-6.113,22.073,22.073,0,0,1,4.956-2.047,22.441,22.441,0,0,1,5.719-.749,22.178,22.178,0,0,1,3.043.161c.515.054,1.023.187,1.538.274a11.451,11.451,0,0,1,1.538.375,21.4,21.4,0,0,1,5.946,2.7,22.367,22.367,0,0,1,8.842,11.1,21.9,21.9,0,0,1,1.338,7.632,21.511,21.511,0,0,1-1.4,7.852l-.3.762-.04.1.04.1c1.679,3.859,3.344,7.652,4.916,11.324l.281-.321L516.1,96.77l-.12-.047-.1.094a22.055,22.055,0,0,1-27.517,2.655,22.855,22.855,0,0,1-5.639-5.251,22.213,22.213,0,0,1-4.281-10.26c-.08-.669-.147-1.231-.207-1.739s0-.923-.033-1.278a5.965,5.965,0,0,1,0-.783.134.134,0,1,0-.04,0v2.073c0,.508.114,1.09.181,1.752a23.925,23.925,0,0,0,1.144,4.722,24.487,24.487,0,0,0,3.063,5.685,23.057,23.057,0,0,0,5.679,5.351,22.273,22.273,0,0,0,27.912-2.582l-.221.047,10.033,3.866.5.194-.221-.515c-1.592-3.672-3.237-7.458-4.91-11.324v.194l.308-.783a21.873,21.873,0,0,0,1.431-8.026,22.373,22.373,0,0,0-1.338-7.8,22.741,22.741,0,0,0-9.036-11.31,21.6,21.6,0,0,0-6.1-2.742,10.63,10.63,0,0,0-1.565-.368c-.522-.094-1.037-.227-1.559-.274a23,23,0,0,0-3.083-.174,22.447,22.447,0,0,0-5.806.789,22.869,22.869,0,0,0-5.023,2.1,22.454,22.454,0,0,0-7.07,6.254,22.875,22.875,0,0,0-3.3,6.475c-.14.482-.274.943-.395,1.338a11.77,11.77,0,0,0-.254,1.224,12.71,12.71,0,0,0-.281,1.94c-.04.515-.067.91-.087,1.2A1.7,1.7,0,0,0,478.144,79.914Z" transform="translate(-478.05 -58.148)" fill="#263238"/>
        </g>
      </g>
      <g id="Group_12000" data-name="Group 12000" transform="translate(72.173 61.883)" style="isolation: isolate">
        <g id="Group_11998" data-name="Group 11998" transform="translate(46.379 7.753)">
          <path id="Path_4932" data-name="Path 4932" d="M348,403.53l125.36-37.552L439.412,236.264l-125.36,37.552Z" transform="translate(-314.052 -236.264)" fill="#fff"/>
          <path id="Path_4933" data-name="Path 4933" d="M348.6,329.207c-.836.251-1.181,1.737-.769,3.313s1.429,2.655,2.265,2.4L407.271,317.8c.836-.251,1.181-1.737.769-3.313s-1.429-2.655-2.265-2.4Z" transform="translate(-332.025 -274.334)" fill="#e6e6e6"/>
          <path id="Path_4934" data-name="Path 4934" d="M358.5,364.559c-.836.251-1.181,1.737-.769,3.313s1.429,2.655,2.265,2.4l57.175-17.127c.836-.251,1.181-1.737.769-3.313s-1.429-2.655-2.265-2.4Z" transform="translate(-337.319 -292.094)" fill="#e6e6e6"/>
          <path id="Path_4935" data-name="Path 4935" d="M368.283,399.5c-.836.251-1.181,1.737-.769,3.313s1.429,2.655,2.265,2.4l57.175-17.127c.836-.251,1.181-1.737.769-3.313s-1.429-2.655-2.265-2.4Z" transform="translate(-342.553 -309.65)" fill="#e6e6e6"/>
          <path id="Path_4936" data-name="Path 4936" d="M378.182,434.855c-.836.251-1.181,1.737-.769,3.313s1.429,2.655,2.265,2.4l57.175-17.127c.836-.251,1.181-1.737.769-3.313s-1.429-2.655-2.265-2.4Z" transform="translate(-347.847 -327.409)" fill="#e6e6e6"/>
          <path id="Path_4937" data-name="Path 4937" d="M532.649,291.713a3,3,0,0,0-1.924,3.659,2.757,2.757,0,0,0,3.42,2.058l10.688-3.2a3,3,0,0,0,1.924-3.659,2.757,2.757,0,0,0-3.42-2.058Z" transform="translate(-429.884 -262.456)" fill="#e6e6e6"/>
          <path id="Path_4938" data-name="Path 4938" d="M542.356,326.38a3,3,0,0,0-1.924,3.659,2.757,2.757,0,0,0,3.42,2.058l10.688-3.2a3,3,0,0,0,1.924-3.659,2.757,2.757,0,0,0-3.42-2.058Z" transform="translate(-435.076 -279.872)" fill="#e6e6e6"/>
          <path id="Path_4939" data-name="Path 4939" d="M552.063,361.047a3,3,0,0,0-1.924,3.659,2.757,2.757,0,0,0,3.42,2.058l10.689-3.2a3,3,0,0,0,1.924-3.659,2.757,2.757,0,0,0-3.42-2.058Z" transform="translate(-440.268 -297.288)" fill="#e6e6e6"/>
          <path id="Path_4940" data-name="Path 4940" d="M561.77,395.713a3,3,0,0,0-1.924,3.659,2.757,2.757,0,0,0,3.42,2.058l10.688-3.2a3,3,0,0,0,1.924-3.659,2.757,2.757,0,0,0-3.42-2.058Z" transform="translate(-445.46 -314.704)" fill="#e6e6e6"/>
          <path id="Path_4941" data-name="Path 4941" d="M570.4,454.885a3.823,3.823,0,0,0-2.451,4.663,3.513,3.513,0,0,0,4.358,2.623l13.619-4.08a3.823,3.823,0,0,0,2.451-4.663,3.513,3.513,0,0,0-4.358-2.623h0Z" transform="translate(-449.781 -343.974)" fill="#be1a25"/>
          <path id="Path_5062" data-name="Path 5062" d="M.017,1.9,105.207,0l-.017.991L0,2.888Z" transform="matrix(0.963, -0.27, 0.27, 0.963, 33.331, 124.565)" fill="#e6e6e6"/>
        </g>
        <g id="Group_11999" data-name="Group 11999" transform="translate(113.038 123.743)">
          <g id="Group_11996" data-name="Group 11996" transform="translate(0 0)" opacity="0.5">
            <path id="Path_5057" data-name="Path 5057" d="M305.873,323.783l-2.987,3.431L279.88,305.071l2.987-3.431Z" transform="translate(-279.88 -300.88)" fill="#be1a25"/>
            <path id="Path_5058" data-name="Path 5058" d="M303.508,299.51l3.3,3.178L285.994,326.6l-3.3-3.178Z" transform="translate(-281.753 -299.51)" fill="#be1a25"/>
          </g>
        </g>
        <g id="Group_12001" data-name="Group 12001" transform="translate(0 13.546)">
          <g id="Group_11996-2" data-name="Group 11996" transform="translate(0 0)" opacity="0.5">
            <path id="Path_5057-2" data-name="Path 5057" d="M305.873,323.783l-2.987,3.431L279.88,305.071l2.987-3.431Z" transform="translate(-279.88 -300.88)" fill="#be1a25"/>
            <path id="Path_5058-2" data-name="Path 5058" d="M303.508,299.51l3.3,3.178L285.994,326.6l-3.3-3.178Z" transform="translate(-281.753 -299.51)" fill="#be1a25"/>
          </g>
        </g>
        <g id="Group_12002" data-name="Group 12002" transform="translate(87.045)">
          <g id="Group_11996-3" data-name="Group 11996" transform="translate(0 0)" opacity="0.5">
            <path id="Path_5057-3" data-name="Path 5057" d="M305.873,323.783l-2.987,3.431L279.88,305.071l2.987-3.431Z" transform="translate(-279.88 -300.88)" fill="#be1a25"/>
            <path id="Path_5058-3" data-name="Path 5058" d="M303.508,299.51l3.3,3.178L285.994,326.6l-3.3-3.178Z" transform="translate(-281.753 -299.51)" fill="#be1a25"/>
          </g>
        </g>
      </g>
    </g>
    <g id="Group_12005" data-name="Group 12005" transform="translate(6298.155 9735.956)">
      <path id="Path_4943" data-name="Path 4943" d="M773.447,701.093l-.063-.261a11.925,11.925,0,0,1,8.779-14.377l18.236-4.409,2.862,11.839Z" transform="translate(-711.677 -412.344)" fill="#2f2e41"/>
      <path id="Path_4945" data-name="Path 4945" d="M722.037,706.925H691.365v-.268a11.912,11.912,0,0,1,11.911-11.911h18.762Z" transform="translate(-673.804 -418.231)" fill="#2f2e41"/>
      <g id="Group_12004" data-name="Group 12004" transform="translate(0 0)">
        <path id="Path_4942" data-name="Path 4942" d="M500.8,475l-9.32,2.253-13.126-34.878,13.756-3.326Z" transform="translate(-413.628 -201.825)" fill="#a0616a"/>
        <path id="Path_4944" data-name="Path 4944" d="M431.044,485.939h-9.589l-4.562-36.986h14.152Z" transform="translate(-385.134 -206.418)" fill="#a0616a"/>
        <path id="Path_4946" data-name="Path 4946" d="M709.776,571.356,700.466,460.4l38.541-7.1.152-.027,11.281,7.252-3.926,40.836,18.078,63.666-15.609,4.108L730.875,510.08l-4.143-17.955-2.124,23.332L726.185,573Z" transform="translate(-678.024 -306.273)" fill="#2f2e41"/>
        <path id="Path_4947" data-name="Path 4947" d="M698.153,380.057l-.1-.129,13.318-100.277.017-.131.094-.094c.2-.2,4.863-4.807,9.662-4.807.694,0,1.354-.018,1.987-.034,3.673-.1,6.574-.172,10.022,3.277,3.513,3.513,14.975,16.34,14.975,33.909,0,17,1.548,69.85,1.564,70.381l.022.746-.626-.407c-.154-.1-15.571-9.916-28.5-.791-4.041,2.852-7.67,3.852-10.774,3.852A16,16,0,0,1,698.153,380.057Z" transform="translate(-676.904 -223.417)" fill="#be1a25"/>
        <circle id="Ellipse_229" data-name="Ellipse 229" cx="19.21" cy="19.21" r="19.21" transform="translate(16.127 18.429) rotate(-28.663)" fill="#a0616a"/>
        <path id="Path_4948" data-name="Path 4948" d="M671.417,478.772a7.865,7.865,0,0,0,.456-12.051l10.909-25.733L668.5,443.617l-8.17,24.033a7.908,7.908,0,0,0,11.088,11.122Z" transform="translate(-658.625 -300.581)" fill="#a0616a"/>
        <path id="Path_4949" data-name="Path 4949" d="M662.824,386.756l3.513-7.417a1.445,1.445,0,0,1-.519-.538c-3.282-5.688,16.543-52.924,17.864-56.058-.2-1.7-2.283-19.762-.761-25.849,1.791-7.165,5.469-10.5,12.3-11.166,7.531-.707,9.563,9.52,9.583,9.624l.007,26.293-8.643,30.266-19.713,40.213Z" transform="translate(-660.572 -228.581)" fill="#be1a25"/>
        <path id="Path_4950" data-name="Path 4950" d="M721.433,214.019c-2.3.3-4.04-2.057-4.846-4.235s-1.42-4.714-3.422-5.89c-2.735-1.607-6.235.326-9.363-.2-3.532-.6-5.829-4.343-6.009-7.921s1.244-7.02,2.641-10.319l.488,4.1a8.131,8.131,0,0,1,3.553-7.107l-.629,6.016a6.386,6.386,0,0,1,7.346-5.284l-.1,3.585a59.212,59.212,0,0,1,12.288-.6,19.873,19.873,0,0,1,11.314,4.359c4.639,4.031,6.334,10.669,5.765,16.789s-3.1,11.869-5.728,17.422c-.662,1.4-1.579,2.974-3.115,3.152a3.138,3.138,0,0,1-3.072-2.315,8.392,8.392,0,0,1,.037-4.123,17.529,17.529,0,0,0,.513-6.238c-.365-2.067-1.852-4.11-3.936-4.363s-4.216,2.128-3.214,3.973Z" transform="translate(-676.778 -180.71)" fill="#2f2e41"/>
      </g>
    </g>
  </g>
</svg>
