<svg xmlns="http://www.w3.org/2000/svg" xmlns:xlink="http://www.w3.org/1999/xlink" width="489.783" height="301.245" viewBox="0 0 489.783 301.245">
  <defs>
    <linearGradient id="linear-gradient" x1="0.5" y1="1" x2="0.5" gradientUnits="objectBoundingBox">
      <stop offset="0" stop-color="gray" stop-opacity="0.251"/>
      <stop offset="0.54" stop-color="gray" stop-opacity="0.122"/>
      <stop offset="1" stop-color="gray" stop-opacity="0.102"/>
    </linearGradient>
    <linearGradient id="linear-gradient-2" x1="0.001" y1="0.5" x2="1" y2="0.5" xlink:href="#linear-gradient"/>
  </defs>
  <g id="Group_12010" data-name="Group 12010" transform="translate(-445.673 -246.603)">
    <g id="undraw_printing_invoices_5r4r" transform="translate(445.693 246.583)">
      <path id="Path_5063" data-name="Path 5063" d="M500.853,280.922a100.366,100.366,0,0,1-2.94,24.218q-.99,4-2.3,7.843a93.432,93.432,0,0,1-3.709,9.281q-1.061,2.291-2.241,4.5a60.54,60.54,0,0,1-5.061,24.322,62.732,62.732,0,0,1-30.431,31.354,64.038,64.038,0,0,1-27.2,6.237H104.054A81.366,81.366,0,0,1,63.128,377.74q-2.757-1.6-5.373-3.4a81.26,81.26,0,0,1-10.633-8.766,79.123,79.123,0,0,1-11.689-14.5A77.286,77.286,0,0,1,23.545,309.81,97.308,97.308,0,0,1,11.07,261.623c0-22.455,7.3-42.939,19.3-58.445a82.164,82.164,0,0,1,8.2-9.119,76.273,76.273,0,0,1,9.373-7.672,72.331,72.331,0,0,1,8.317-4.99c1.2-.615,2.408-1.189,3.634-1.726,1.077-.478,2.166-.923,3.268-1.343q1.984-.757,4.017-1.385t4.013-1.106q2.911-.711,5.921-1.156c1.663-.245,3.327-.416,4.99-.549q1.984-.141,4-.166h.728c1.48,0,2.952.058,4.412.158.154-.308.32-.62.474-.927.582-1.106,1.185-2.212,1.792-3.3v-.029c.1-.187.208-.374.316-.557.491-.886,1-1.763,1.526-2.632.241-.416.478-.807.724-1.2.054-.1.108-.187.17-.283q.374-.624.761-1.247,1.925-3.073,4-6.05c.121-.17.233-.337.353-.5.216-.308.416-.611.657-.915.574-.8,1.164-1.609,1.759-2.4.416-.561.832-1.123,1.281-1.663q1.622-2.1,3.327-4.158c1.135-1.372,2.333-2.753,3.543-4.1.166-.187.333-.37.507-.557l1.776-1.934h0c.087-.091.162-.175.245-.258h0c.212-.229.416-.457.645-.682.952-1.006,1.929-2,2.911-2.982a158.515,158.515,0,0,1,15.985-13.889c.22-.175.445-.341.665-.507,1.056-.8,2.129-1.584,3.2-2.358a169.173,169.173,0,0,1,18.467-11.519c.441-.249.89-.486,1.343-.724a177.248,177.248,0,0,1,17.669-8.134q4.932-1.95,10.038-3.643c2.254-.736,4.516-1.439,6.807-2.079q5.314-1.526,10.762-2.753A192.677,192.677,0,0,1,235.482,87.7q4.99-.262,10.092-.262a193.364,193.364,0,0,1,48.652,6.154,1.755,1.755,0,0,0,1.509.786h1.4c.607.162,1.21.333,1.817.507q5.086,1.468,10.026,3.2l.832.3a178.971,178.971,0,0,1,23.665,10.4,171.349,171.349,0,0,1,19.814,12.242q1.46,1.048,2.878,2.117,1.722-1.11,3.5-2.117a68.859,68.859,0,0,1,14.5-6.179,66.159,66.159,0,0,1,32.535-1.272,71.99,71.99,0,0,1,36.452,20.559A85.059,85.059,0,0,1,454.1,147.968c.229.358.457.719.678,1.085a91.487,91.487,0,0,1,6.961,13.885c.071.175.141.345.2.52a96.1,96.1,0,0,1,4.283,13.868c.05.237.108.478.158.719a99.851,99.851,0,0,1,2.046,13.876,2.621,2.621,0,0,0,.033.507q.262,3.622.266,7.323c0,2.2-.075,4.391-.212,6.558,0,.237-.033.487-.054.728-.037.632-.091,1.247-.146,1.884a78.893,78.893,0,0,1,8.891,8.383q1.817,1.983,3.518,4.121a87.387,87.387,0,0,1,9.065,13.876A97.684,97.684,0,0,1,500.853,280.922Z" transform="translate(-11.09 -87.42)" fill="#00a120" opacity="0.1"/>
      <path id="Path_5064" data-name="Path 5064" d="M520.529,677.316c0,9.452-9.8,18.3-26.892,25.915H170.719c-14.941,0-28.934-5.406-40.926-14.833-3.015-3.576-4.6-7.281-4.6-11.086,0-10.046,11.078-19.423,30.231-27.349h0l.541-.216c5.406-2.216,11.448-4.308,18.051-6.275.166-.05.337-.1.5-.154h0q7.859-2.308,16.721-4.375c.187-.042.37-.087.557-.121,2.279-.541,4.6-1.044,6.978-1.547h0l.915-.191a521.007,521.007,0,0,1,58.216-8.358h.025q4.474-.416,9.044-.744c3.389-.27,6.82-.5,10.288-.711,2.649-.17,5.331-.316,8.021-.449a.079.079,0,0,1,.062,0c12.138-.611,24.68-.931,37.5-.931a690.888,690.888,0,0,1,88.244,5.406.213.213,0,0,1,.075,0c4.083.532,8.092,1.094,12,1.692,1.119.175,2.233.349,3.327.528q6.616,1.069,12.891,2.258h0C488.577,645.126,520.529,660.258,520.529,677.316Z" transform="translate(-77.755 -401.966)" fill="#00a120" opacity="0.1"/>
      <path id="Path_5068" data-name="Path 5068" d="M750.6,276.89l.091.158c-8.475,10.583-9.036,27.029-9.057,27.158l-1.788-2.079C739.871,301.994,742.07,287.548,750.6,276.89Z" transform="translate(-436.82 -198.091)" fill="#444053"/>
      <path id="Path_5073" data-name="Path 5073" d="M772.333,316.866s-4.574-9.606-.5-15.856" transform="translate(-454.516 -212.181)" fill="none" stroke="#444053" stroke-miterlimit="10" stroke-width="1"/>
      <path id="Path_5086" data-name="Path 5086" d="M750,266.57s0,8.836-2.4,9.464" transform="translate(-441.348 -192.062)" fill="none" stroke="#444053" stroke-miterlimit="10" stroke-width="1"/>
      <path id="Path_5087" data-name="Path 5087" d="M706.09,288.323s9.564.832,13.959-4.113" transform="translate(-417.099 -202.367)" fill="none" stroke="#444053" stroke-miterlimit="10" stroke-width="1"/>
      <rect id="Rectangle_1159" data-name="Rectangle 1159" width="159.762" height="80.646" transform="translate(164.329 93.815)" fill="#33323d"/>
      <rect id="Rectangle_1160" data-name="Rectangle 1160" width="259.803" height="53.085" transform="translate(114.562 198.962)" fill="#33323d"/>
      <path id="Path_5092" data-name="Path 5092" d="M385.233,510.35h133.22L545,597.332H357.16Z" transform="translate(-208.653 -298.119)" fill="#fff"/>
      <path id="Path_5093" data-name="Path 5093" d="M257.73,402.33v84.73H307.5v-49H482.57v49h49.767V402.33Z" transform="translate(-150.57 -235.017)" fill="#504f60"/>
      <rect id="Rectangle_1161" data-name="Rectangle 1161" width="274.607" height="27.561" transform="translate(107.16 167.313)" fill="#33323d" opacity="0.1"/>
      <circle id="Ellipse_230" data-name="Ellipse 230" cx="4.083" cy="4.083" r="4.083" transform="translate(362.884 177.014)" fill="#8ccf4d" opacity="0.8"/>
      <circle id="Ellipse_231" data-name="Ellipse 231" cx="4.083" cy="4.083" r="4.083" transform="translate(344.509 177.014)" fill="#fa5959" opacity="0.8"/>
      <rect id="Rectangle_1162" data-name="Rectangle 1162" width="148.023" height="87.79" transform="translate(170.201 74.416)" fill="#fff"/>
      <path id="Path_5094" data-name="Path 5094" d="M794.234,566.51c.312,3.4-2.254,6.695-1.505,10.021.158.711.466,1.385.578,2.079.308,1.975-.869,3.846-2,5.5l-9.66,14.213a8.829,8.829,0,0,1-1.381,1.7c-1.85,1.663-4.62,1.472-7.044,1.963a12.093,12.093,0,0,0-4.72,2.079.308.308,0,0,0-.062.416,4.063,4.063,0,0,0,3.51,1.663c.254.333,0,.832-.349,1.065-.52.358-1.247.453-1.335,1.335a1.463,1.463,0,0,0,.175.886,2.749,2.749,0,0,0,1.693,1.173c3.327,1.023,6.957-.773,9.46-3.219s4.3-5.531,6.757-8.021c1.36-1.376,2.911-2.557,4.308-3.892a48.369,48.369,0,0,0,7.069-9.148,10.061,10.061,0,0,0,1.53-3.115c.258-1.106.141-2.275.441-3.372a12.459,12.459,0,0,1,2.316-3.784,12.5,12.5,0,0,0,2.632-8.159,7.813,7.813,0,0,0-4.77-6.766,4.279,4.279,0,0,0-2.674-.162,6.342,6.342,0,0,0-2.724,2.166l-1.834,2.117a5.108,5.108,0,0,0-1.069,1.626,1.692,1.692,0,0,0,.378,1.8" transform="translate(-453.492 -363.96)" fill="#fbbebe"/>
      <path id="Path_5095" data-name="Path 5095" d="M794.234,566.51c.312,3.4-2.254,6.695-1.505,10.021.158.711.466,1.385.578,2.079.308,1.975-.869,3.846-2,5.5l-9.66,14.213a8.829,8.829,0,0,1-1.381,1.7c-1.85,1.663-4.62,1.472-7.044,1.963a12.093,12.093,0,0,0-4.72,2.079.308.308,0,0,0-.062.416,4.063,4.063,0,0,0,3.51,1.663c.254.333,0,.832-.349,1.065-.52.358-1.247.453-1.335,1.335a1.463,1.463,0,0,0,.175.886,2.749,2.749,0,0,0,1.693,1.173c3.327,1.023,6.957-.773,9.46-3.219s4.3-5.531,6.757-8.021c1.36-1.376,2.911-2.557,4.308-3.892a48.369,48.369,0,0,0,7.069-9.148,10.061,10.061,0,0,0,1.53-3.115c.258-1.106.141-2.275.441-3.372a12.459,12.459,0,0,1,2.316-3.784,12.5,12.5,0,0,0,2.632-8.159,7.813,7.813,0,0,0-4.77-6.766,4.279,4.279,0,0,0-2.674-.162,6.342,6.342,0,0,0-2.724,2.166l-1.834,2.117a5.108,5.108,0,0,0-1.069,1.626,1.692,1.692,0,0,0,.378,1.8" transform="translate(-453.492 -363.96)" opacity="0.05"/>
      <path id="Path_5096" data-name="Path 5096" d="M836.265,779.243a11.176,11.176,0,0,1-7.194,1.065c-.416-.046-.861-.075-1.114.229-.366.445.066,1.094.511,1.451a10.7,10.7,0,0,0,4.944,2.034,33.461,33.461,0,0,0,4.832.32,81.9,81.9,0,0,0,13.207-.486,1.785,1.785,0,0,0,.719-.212,1.335,1.335,0,0,0,.545-.832,3.279,3.279,0,0,0-1.144-3.14,9.947,9.947,0,0,0-3.081-1.663l-3.834-1.493c-.9-.354-2.345-1.281-3.327-1.21C839.538,775.45,837.787,778.353,836.265,779.243Z" transform="translate(-488.21 -489.247)" fill="#3f3d56"/>
      <path id="Path_5097" data-name="Path 5097" d="M836.265,779.243a11.176,11.176,0,0,1-7.194,1.065c-.416-.046-.861-.075-1.114.229-.366.445.066,1.094.511,1.451a10.7,10.7,0,0,0,4.944,2.034,33.461,33.461,0,0,0,4.832.32,81.9,81.9,0,0,0,13.207-.486,1.785,1.785,0,0,0,.719-.212,1.335,1.335,0,0,0,.545-.832,3.279,3.279,0,0,0-1.144-3.14,9.947,9.947,0,0,0-3.081-1.663l-3.834-1.493c-.9-.354-2.345-1.281-3.327-1.21C839.538,775.45,837.787,778.353,836.265,779.243Z" transform="translate(-488.21 -489.247)" opacity="0.05"/>
      <path id="Path_5098" data-name="Path 5098" d="M850.47,631.714c-1.593,2.125-3.248,4.574-2.853,7.206a16.022,16.022,0,0,0,1.589,3.979,28.033,28.033,0,0,1,1.609,5.589c.6,2.782,1.2,5.572,1.564,8.4.416,3.189-1.539,12.417-1.722,15.631a3.308,3.308,0,0,1-.674,2.171c-.212.22-.495.416-.586.686a1.152,1.152,0,0,0,.125.807,8.95,8.95,0,0,0,4.79,4.408,38.005,38.005,0,0,0,9.244,2.428,1.752,1.752,0,0,0,.869-.116,1.663,1.663,0,0,0,.674-.769c1.605-3.065.062-13.976.087-17.44,0-2.911.7-5.755.578-8.641-.1-2.316-.724-4.574-.948-6.886-.37-3.788.324-7.589,1.023-11.331.532-2.865,1.065-5.734,1.747-8.57a16.52,16.52,0,0,1,1.85-4.99c.753-1.193,1.776-2.187,2.636-3.327a14.97,14.97,0,0,0,2.948-10.97c-.05-.383-5.539,1.393-6.017,1.6a18.839,18.839,0,0,0-5.36,3.451,48.751,48.751,0,0,0-3.381,4.179q-2.358,2.869-4.653,5.784Q853,628.338,850.47,631.714Z" transform="translate(-499.74 -392.637)" fill="#464353"/>
      <path id="Path_5099" data-name="Path 5099" d="M850.47,631.447c-1.593,2.125-3.248,4.574-2.853,7.211a16.059,16.059,0,0,0,1.589,3.975,28.1,28.1,0,0,1,1.609,5.589c.6,2.782,1.2,5.572,1.564,8.4.416,3.189-1.539,12.421-1.722,15.635a3.3,3.3,0,0,1-.674,2.167c-.212.22-.495.416-.586.686a1.169,1.169,0,0,0,.125.832,8.943,8.943,0,0,0,4.79,4.4,36.614,36.614,0,0,0,9.244,1.734,1.751,1.751,0,0,0,.869-.116,1.664,1.664,0,0,0,.674-.769c1.605-3.065.062-13.282.087-16.741,0-2.911.7-5.759.578-8.645-.1-2.316-.724-4.574-.948-6.886-.37-3.788.324-7.589,1.023-11.327.532-2.869,1.065-5.738,1.747-8.574a16.52,16.52,0,0,1,1.85-4.99c.753-1.189,1.776-2.187,2.636-3.3a15,15,0,0,0,2.948-10.97c-.05-.387-5.539,1.389-6.017,1.6a18.736,18.736,0,0,0-5.36,3.46,52.64,52.64,0,0,0-3.381,4.158q-2.358,2.869-4.653,5.788Q853,628.087,850.47,631.447Z" transform="translate(-499.74 -392.507)" opacity="0.05"/>
      <circle id="Ellipse_232" data-name="Ellipse 232" cx="8.953" cy="8.953" r="8.953" transform="translate(324.025 174.386)" fill="#fbbebe"/>
      <path id="Path_5100" data-name="Path 5100" d="M819.237,524.986a11.619,11.619,0,0,0,7.431,5.2l-.674,2.441c-1.164,4.212-2.495,8.666-5.726,11.585a5.425,5.425,0,0,0-.911-4.187,16.057,16.057,0,0,0-3.04-3.177l-5.152-4.483a1.538,1.538,0,0,1-.387-.416,1.335,1.335,0,0,1,0-.981c.657-2.042,2.532-3.327,4.05-4.7a14.4,14.4,0,0,0,2.038-2.374C817.923,522.424,818.559,523.892,819.237,524.986Z" transform="translate(-478.2 -342.021)" fill="#fbbebe"/>
      <path id="Path_5101" data-name="Path 5101" d="M780.328,496.581l-.2-1.663c1.414.366,2.753-.832,3.655-2.079s1.742-2.711,3.119-3.227c1.663-.632,3.443.378,5.04,1.21a15.964,15.964,0,0,0,5.788,1.892,3.744,3.744,0,0,1,.956.158c1.04.37,1.534,1.663,1.684,2.857a11.014,11.014,0,0,0,.624,3.5c.387.8,1.056,1.393,1.464,2.179,1.094,2.121.037,5.015,1.193,7.094l-2.869-2.632c-.266-.241-.636-.491-.923-.287s-.245.511-.341.79a1.5,1.5,0,0,1-2.042.744,5.591,5.591,0,0,1-1.826-1.663A11.111,11.111,0,0,0,791.077,502a5.847,5.847,0,0,0-4.819.287c-1.339.757-2.32,2.52-3.959,2.582-2.25.083-3.185-4.1-4.229-5.759a2.038,2.038,0,0,0,.591-2.541C778.843,496.5,780.3,496.311,780.328,496.581Z" transform="translate(-459.147 -322.241)" fill="#464353"/>
      <path id="Path_5102" data-name="Path 5102" d="M862.17,777.347a9.465,9.465,0,0,1-6.437,2.4c-.6,0-1.439.116-1.443.719a.965.965,0,0,0,.175.5,5.918,5.918,0,0,0,3.327,2.6,11.82,11.82,0,0,0,4.017.258l3.93-.2c.74-.042,1.484-.079,2.225-.17s1.539-.245,2.312-.358a30.259,30.259,0,0,1,5.722-.27,1.7,1.7,0,0,0,1.41-.383c.316-.383.146-1.073.029-1.626-.233-1.139,0-2.333-.216-3.476a6.121,6.121,0,0,0-4.009-4.271c-1.767-.674-4.9-1.443-6.578-.324C864.835,773.95,863.754,775.912,862.17,777.347Z" transform="translate(-503.673 -487.422)" fill="#3f3d56"/>
      <path id="Path_5103" data-name="Path 5103" d="M871.479,611.492c.349,1.663,1.942,2.911,1.992,4.574.037,1.347-.927,2.495-1.618,3.638a24.127,24.127,0,0,0-1.663,3.742,57.22,57.22,0,0,1-4.857,9.627c-.923,1.46-1.954,3.048-1.742,4.765a7.142,7.142,0,0,0,.832,2.279l2.765,5.493a15.8,15.8,0,0,1,1.414,3.472c.237,1.044.262,2.125.416,3.189.437,3.368,2.017,6.761,1.085,10.026-.083.283-.374.624-.595.416a10.371,10.371,0,0,1,1.576,5.36,7.369,7.369,0,0,0,.029,3.019,3.282,3.282,0,0,1,.416,1.189c0,.274-.129.536-.158.832a1.778,1.778,0,0,0,1.38,1.663c.744.237,1.547.229,2.3.453,1.443.416,2.466,1.663,3.7,2.528a7.78,7.78,0,0,0,4.25,1.385,1.064,1.064,0,0,0,.624-.125,1.015,1.015,0,0,0,.349-.761,4.217,4.217,0,0,0-1.522-3.664,1.692,1.692,0,0,1-.561-.59,1.414,1.414,0,0,1-.054-.661,49.363,49.363,0,0,0-.162-9.073,13.722,13.722,0,0,1-.146-2.886,11.215,11.215,0,0,0,.233-2.4,12.858,12.858,0,0,0-.736-2.3,16.519,16.519,0,0,1-.353-4.283,37.34,37.34,0,0,0-1.214-7.368,5.512,5.512,0,0,0-1.148-2.661c-.574-.6-1.5-1.177-1.285-1.975a2.286,2.286,0,0,1,.524-.786,3.156,3.156,0,0,0,.661-2.408,1.073,1.073,0,0,0,1.247-.582,19.361,19.361,0,0,0,9.731-11.065,3.675,3.675,0,0,1,.416-.985,4.5,4.5,0,0,1,1.78-1.156c2.013-1.01,3.406-2.911,4.682-4.77a11.079,11.079,0,0,0,1.8-3.464,11.36,11.36,0,0,0,.25-2.495l.112-4.333a2.335,2.335,0,0,0-.083-.832,2.01,2.01,0,0,0-.466-.686,8.346,8.346,0,0,0-4.574-2.495c-1.181-.212-2.387-.17-3.58-.27-2.316-.191-4.6-.907-6.919-.74a11.069,11.069,0,0,0-8.6,6.013C873.4,610.49,872.772,611.492,871.479,611.492Z" transform="translate(-509.09 -388.77)" fill="#464353"/>
      <path id="Path_5104" data-name="Path 5104" d="M828.354,541.71a4.753,4.753,0,0,1-.262,1.971,1.379,1.379,0,0,1-1.618.832c.187-.416-.312-.911-.773-.857a1.438,1.438,0,0,0-1.023.869,3.227,3.227,0,0,0-.3,2,8.082,8.082,0,0,1,.507,2.495c-.1.707-.624,1.414-.345,2.079a3.369,3.369,0,0,0,.665.8,2.254,2.254,0,0,1-.237,3.1l6.978.137a4.929,4.929,0,0,0,.865,3.4,21.4,21.4,0,0,0,15.947,10.4,1.393,1.393,0,0,0-.333,2.125,1.965,1.965,0,0,0,2.237.125,16.354,16.354,0,0,0,1.921-1.435,5.868,5.868,0,0,1,3.942-1.065c.873.083,1.722.366,2.6.416,2.586.137,4.807-1.722,7.281-2.495,1.813-.557,3.863-.557,5.406-1.688a2.145,2.145,0,0,0,1-2.079,3.449,3.449,0,0,0-.753-1.223,20.711,20.711,0,0,1-2.017-3.78,22.651,22.651,0,0,0-5.044-6.753,45.284,45.284,0,0,0-4.99-3.8,8.793,8.793,0,0,0-1.356-.832,14.179,14.179,0,0,1-1.855-.753,9.392,9.392,0,0,1-1.921-2.162c-1.385-1.613-3.51-2.358-5.215-3.626-1.143-.832-2.15-1.971-3.518-2.383-.661-.2-1.368-.216-2.033-.416-1.505-.457-2.6-1.8-4.083-2.337a17.341,17.341,0,0,0-3.7-.47,8.549,8.549,0,0,1-3.8-1.443,4.577,4.577,0,0,0-1.247-.715c-1.867-.57-2.021,2.911-2.2,4.121A37.153,37.153,0,0,0,828.354,541.71Z" transform="translate(-486.174 -347.165)" fill="#00a120"/>
      <path id="Path_5105" data-name="Path 5105" d="M802.074,575.311c.312,3.4-2.254,6.691-1.505,10.022.158.711.466,1.385.578,2.079.312,1.975-.869,3.846-2,5.5l-9.66,14.18a8.82,8.82,0,0,1-1.381,1.7c-1.85,1.663-4.62,1.472-7.044,1.963a12.123,12.123,0,0,0-4.72,2.079.308.308,0,0,0-.062.416,4.05,4.05,0,0,0,3.51,1.663c.254.337,0,.832-.349,1.064-.52.362-1.248.457-1.335,1.339a1.463,1.463,0,0,0,.175.886,2.766,2.766,0,0,0,1.692,1.173c3.327,1.023,6.957-.773,9.46-3.219s4.3-5.531,6.761-8.021c1.36-1.376,2.911-2.557,4.3-3.892a49.062,49.062,0,0,0,7.069-9.148,10.106,10.106,0,0,0,1.53-3.115c.258-1.106.141-2.275.441-3.372a12.41,12.41,0,0,1,2.316-3.784,12.5,12.5,0,0,0,2.632-8.159,7.813,7.813,0,0,0-4.77-6.766,4.25,4.25,0,0,0-2.674-.162,6.366,6.366,0,0,0-2.724,2.167l-1.834,2.117a5.027,5.027,0,0,0-1.065,1.626,1.684,1.684,0,0,0,.374,1.8" transform="translate(-458.072 -369.081)" fill="#fbbebe"/>
      <path id="Path_5106" data-name="Path 5106" d="M841.36,549.615a5.306,5.306,0,0,0-3.568,1.106,5.124,5.124,0,0,0-.9,1.406,14.057,14.057,0,0,0-1.78,5.605,26.462,26.462,0,0,0,.645,4.686c.2,1.3-.308,2.62-.416,3.934a27.344,27.344,0,0,0,5.086-1.954,16.832,16.832,0,0,1,2.973-1.547c1.518-.5,4.067.362,5.5,1.073.079-1.015-.678-2.774-.6-3.788a4.286,4.286,0,0,1,.224-1.247,7.672,7.672,0,0,1,.761-1.21,4.957,4.957,0,0,0-.445-5.822,7.994,7.994,0,0,0-5.19-2.2,22.5,22.5,0,0,0-3.626-.129" transform="translate(-492.468 -357.344)" fill="#00a120"/>
      <path id="Path_5107" data-name="Path 5107" d="M303.365,387.377l-8.2-11.893s-.154-2.944-.69-3.63-.116-2.216-.116-2.216.578-.832.079-.919-.079-1.95-.079-1.95l-.037-2.982s.462-2.869.079-3.555a1.127,1.127,0,0,1,.037-1.227s.457-1.643,0-2.079-.345-2.982-.233-5.011a7.613,7.613,0,0,0-.8-3.476c0-.3-3.027-3.289-3.027-3.56s-1.917-1.376-3.069-1.663-1.722-.536-1.684-.69-1.8-.761-1.8-.761a3.637,3.637,0,0,1-2.225-.919c-.615-.8-2.495-1.035-2.541-1.044l-.037-.158a.862.862,0,0,0-.033-.175,8.042,8.042,0,0,0,.416-.749l.108-.233a3.252,3.252,0,0,0,1.884-.586,2.549,2.549,0,0,0,.919-1.834,4.008,4.008,0,0,0-.449-2.038,3.412,3.412,0,0,1-.657-2.15c.075-.32.266-.6.366-.919a2.428,2.428,0,0,0-.274-1.813c-.291-.553-.694-1.044-1.019-1.58a6.237,6.237,0,0,1-.811-2.237,3.448,3.448,0,0,0-.3-1.218,2.275,2.275,0,0,0-.674-.678,6.728,6.728,0,0,0-4.121-1.247,20.165,20.165,0,0,1-3.119.187,11.177,11.177,0,0,1-1.821-.474,4.7,4.7,0,0,0-3.888.2c-1.119.736-1.564,2.183-2.325,3.327a24.181,24.181,0,0,0-2.162,2.911v-.058a3.484,3.484,0,0,0-.287.769,5.481,5.481,0,0,0,.17,2.537,1.763,1.763,0,0,0,.62,1.131,3.576,3.576,0,0,0,1.339.266l-.05.216a8.753,8.753,0,0,0,6.075,10.18v.233a5.576,5.576,0,0,1-.042.657h0s-3.855-.794-4.89-.258-3.065.956-3.372,1.247-1.073.079-1.763,1.875-.765,3.63-1.663,4.474-1.339,1.414-1.381,2.025.116.765-.229.956-.832.994-.69,1.3a1.085,1.085,0,0,1-.416,1.144,1.272,1.272,0,0,0-.536,1.148s-.233.832-.769,1.035-.882,1.451-.882,1.451l-1.738,2-3.443-3.809a1.455,1.455,0,0,0-2.05-.1l-1.692,1.522a3.352,3.352,0,0,0-1.692,1.006,4.507,4.507,0,0,0-.877,1.306l-.923.832a2.358,2.358,0,0,0-.241,2.6l2.208,2.441v.021a3.909,3.909,0,0,0-2.133.869c-3.293,2.911-3.327,5.585-2.836,6.807s4.674,5.926,4.674,5.926a18.656,18.656,0,0,0,5.934,4.832h0l-.025.029a2.891,2.891,0,0,0-.2.237l-.058.075-.054.075-.062.091a.726.726,0,0,0-.046.075l-.067.108a.671.671,0,0,0-.042.075c-.029.05-.054.1-.079.15q-.014.024-.025.05c-.033.067-.067.133-.1.208l-.033.075c-.021.05-.037.1-.058.154a.932.932,0,0,0-.033.1l-.05.15a.835.835,0,0,0-.033.108.909.909,0,0,1-.046.166c-.012.058-.021.067-.029.1s-.042.179-.058.274a.209.209,0,0,1-.021.108.992.992,0,0,0-.033.2.532.532,0,0,0,0,.141l-.025.187V390a.778.778,0,0,1-.021.216c-.021.075,0,.087,0,.133v.37c-.075,4.474.187,5.123.187,5.123a2.5,2.5,0,0,0,2.033,1.526,2.537,2.537,0,0,0,.653-.033c2-.345,6.653-1.148,8.317-.832a14.3,14.3,0,0,0,4.133-.337l.345-.067.237.761.757-.208.645.37.416.237c.757,2.562,3.826,1.688,3.826,1.688l.728.416,7.4.191a14.844,14.844,0,0,0,2.62,1.247,2.014,2.014,0,0,0,.37.083,16.46,16.46,0,0,0,2.079.037c.566,0,1-.037,1-.037s-.075-2.008-.183-4.258a60.358,60.358,0,0,0,6.853-.561c3.95-.69,5.6-4.283,6.2-6.2a18.141,18.141,0,0,1,.387,2.383,17.289,17.289,0,0,0,.615,2.079,6.932,6.932,0,0,0,.832,1.53c2.911-.994,1.148-2.495.536-3.135s.416-1.185.416-1.185.807-.536.728-1.031-.116-1.031,2.495-.994S303.365,387.377,303.365,387.377ZM262.9,362.964a19.831,19.831,0,0,0,.724,3.194,4.159,4.159,0,0,1,.087,1.247c-1.543-.125-3.152-.191-3.152-.191a.391.391,0,0,1,.083.2l-.245-.054-.349-.083,2.844-4.329Zm-5.639,8.965,2.674.416.225.033a8.732,8.732,0,0,0-.137,1.247c0,.042.058.087.146.141a3.288,3.288,0,0,0-.05.636,7.415,7.415,0,0,0,2.724,1.044c-.021.079-.037.154-.058.22h0c-1.268-.665-3.26-.977-3.489-1.472s-7.015-2.865-7.015-2.865l-.674-.337,1.784.337.491-.05a26.505,26.505,0,0,0,3.381.649Z" transform="translate(-142.866 -224.198)" fill="url(#linear-gradient)"/>
      <path id="Path_5108" data-name="Path 5108" d="M308.287,463.635s-1.06,6.42-6.454,7.369-23.4.761-23.4.761-10.3-1.485-14.018-10.18-6.117-12.159-2.911-12.309,20.4,5.822,21.386,5.888S309.239,441.945,308.287,463.635Z" transform="translate(-156.512 -298.792)" fill="#65617d"/>
      <path id="Path_5109" data-name="Path 5109" d="M308.287,463.635s-1.06,6.42-6.454,7.369-23.4.761-23.4.761-10.3-1.485-14.018-10.18-6.117-12.159-2.911-12.309,20.4,5.822,21.386,5.888S309.239,441.945,308.287,463.635Z" transform="translate(-156.512 -298.792)" opacity="0.05"/>
      <path id="Path_5110" data-name="Path 5110" d="M259.73,487.319a2.458,2.458,0,0,0,2.013,1.518,2.753,2.753,0,0,0,.653-.037c1.975-.341,6.608-1.139,8.242-.832a14.3,14.3,0,0,0,4.092-.333c.861-.162,1.493-.316,1.493-.316s-1.522-5.052-1.709-5.2-6.84-4.158-6.84-4.158l-5.264-.378h0a2.782,2.782,0,0,0-1.788,1.048,5.637,5.637,0,0,0-1.065,3.585C259.468,486.666,259.73,487.319,259.73,487.319Z" transform="translate(-156.237 -315.328)" fill="#3f3d56"/>
      <path id="Path_5111" data-name="Path 5111" d="M259.75,487.354a2.458,2.458,0,0,0,2.013,1.518,22.354,22.354,0,0,1-1.43-2.079l.029-3.684a6.5,6.5,0,0,1,2.079-5.468h0s-2.774.187-2.853,4.632S259.75,487.354,259.75,487.354Z" transform="translate(-156.257 -315.363)" opacity="0.05"/>
      <path id="Path_5112" data-name="Path 5112" d="M310.622,465.421l4.9-3.838,7.71-7.6-2.079-.1c-.312.2-1.185.832-1.218,1.589-.037.927-2.079.067-3.148.595s-6.267,7.194-7.177,7.148-1.634-.462-2.017.187l-.025.042Z" transform="translate(-184.296 -301.489)" opacity="0.1"/>
      <path id="Path_5113" data-name="Path 5113" d="M262.11,478.624c.175.083.353.166.532.241,3.722,1.6,8.317,4.94,8.662,5.547a36.136,36.136,0,0,0,4.928,3.2c.861-.162,1.493-.316,1.493-.316s-1.522-5.052-1.709-5.2-6.84-4.158-6.84-4.158l-5.264-.378h0A2.782,2.782,0,0,0,262.11,478.624Z" transform="translate(-157.74 -315.316)" opacity="0.1"/>
      <path id="Path_5114" data-name="Path 5114" d="M236.949,443.144c.491,1.214,4.632,5.888,4.632,5.888a17.936,17.936,0,0,0,6.346,4.99c3.726,1.572,8.317,4.94,8.658,5.547a39.981,39.981,0,0,0,5.277,3.406l.47.274,1.035.6.549.312s1.272-1.019,2.541-2.046,2.495-2.033,2.495-2.079.532-1.405.416-1.48-.32-.565-.8-1.177a5.356,5.356,0,0,0-1.934-1.6,5.51,5.51,0,0,1-2.495-2.616s-.166-.121-.416-.283a5.149,5.149,0,0,0-1.7-.761c-.832-.1-2.4-1.813-2.4-1.813a4.649,4.649,0,0,1-1.48-1.555c-.416-.832-6.292-4.882-6.836-5.256l14.28,9.173,3.418,2.2,4.9-3.834,7.71-7.6-2.545-.116c-3.742-.162-10.4-.416-11.227-.225a6.525,6.525,0,0,1-2.079.137,7.362,7.362,0,0,1-3.152-.578c-1.256-.661-3.231-.973-3.46-1.464s-6.949-2.844-6.949-2.844-9.148-4.861-12.421-1.975S236.455,441.921,236.949,443.144Z" transform="translate(-142.908 -290.722)" fill="#65617d"/>
      <path id="Path_5115" data-name="Path 5115" d="M308.24,371.077l1.177,3.913,1.522,8.811,5.585.378,1.6-2.661,1.613-2.678s1.006-3.56,1.73-7c.636-3.048,1.056-6.009.362-6.329-.62-.283-1.023-1.31-1.289-2.416-.033-.133-.062-.274-.087-.416a21.9,21.9,0,0,1-.374-2.832s-11.7-.607-10.063,4.217a7.7,7.7,0,0,1,.441,2.566,3.361,3.361,0,0,1-.042.653A5.468,5.468,0,0,1,308.24,371.077Z" transform="translate(-184.687 -246.537)" fill="#ee8e9e"/>
      <path id="Path_5116" data-name="Path 5116" d="M302.4,380.906l.416,6.653.948,5.659,1.065,2.624.952,14.338s9.148,1.06,11.385-.021a.948.948,0,0,0,.416-.312c2.69-4.063,1.809-15.831,1.809-15.831l1.023-7.6-.682-3.942-1.663-.175-1.272-.137s-.287.353-.7.9c-1.127,1.485-3.2,4.412-3.056,5.63.187,1.663-.229,3.381-.877,3.647s-1.177.724-1.289.266a2.042,2.042,0,0,1-.116-1.214,9.873,9.873,0,0,0-.495-2.624,11.038,11.038,0,0,1-.948-3.3,3.916,3.916,0,0,0-.416-2.4c-.3-.266-.724-.532-.383-1.746s-1.5-3.58-1.5-3.58Z" transform="translate(-181.276 -257.01)" fill="#e3e8f4"/>
      <path id="Path_5117" data-name="Path 5117" d="M331.467,391.507l.383,11.356,2.191,1.218a.985.985,0,0,0,.416-.316c2.69-4.063,1.809-15.831,1.809-15.831l1.027-7.6-.686-3.942-1.663-.175c.64-3.048,1.056-6,.362-6.329-.62-.283-1.023-1.31-1.285-2.412h0l-1.185,8.034s.1.724.133,1.472a4.157,4.157,0,0,1-.1,1.414,4.72,4.72,0,0,0-.075,1.9,15.424,15.424,0,0,0-1.193,5.6C331.379,388.771,331.467,391.507,331.467,391.507Z" transform="translate(-198.246 -251.011)" opacity="0.1"/>
      <path id="Path_5118" data-name="Path 5118" d="M334.351,367s1.917.237,2.524,1.035a3.591,3.591,0,0,0,2.2.915s1.821.607,1.784.757.532.383,1.663.686a7.68,7.68,0,0,1,3.04,1.663c0,.258,3,3.227,3,3.53a7.582,7.582,0,0,1,.8,3.456c-.112,2.013-.229,4.574.229,4.99s0,2.05,0,2.05a1.123,1.123,0,0,0-.037,1.218c.378.682-.079,3.53-.079,3.53l.042,2.965s-.416,1.859.075,1.938-.075.911-.075.911-.416,1.518.112,2.2.682,3.605.682,3.605l8.13,11.814s.116,2.166-2.466,2.129-2.549.495-2.47.986-.724,1.027-.724,1.027-1.023.532-.416,1.177,2.354,2.129-.532,3.115a6.876,6.876,0,0,1-.832-1.518,17.238,17.238,0,0,1-.607-2.05s-.266-2.89-.8-3.268-.457-2.2-.457-2.2.761-1.48-.3-2.079-16.484-9.148-16.484-9.148l-.374-11.361s-.266-8.4,1.331-11.207a4.72,4.72,0,0,1,.075-1.9,9.838,9.838,0,0,0-.037-2.886Z" transform="translate(-198.544 -250.73)" fill="#3f3d56"/>
      <path id="Path_5119" data-name="Path 5119" d="M294.3,377.384s-3.817-.786-4.844-.254-3.036.948-3.327,1.247-1.06.079-1.746,1.863-.757,3.609-1.634,4.445-1.327,1.406-1.364,2.013.112.761-.229.948-.832.99-.686,1.293,7.9,6.99,7.9,6.99a18.318,18.318,0,0,0,.724,3.189c.341.645-.378,9.535-1.139,10.142s5.111.557,5.111.557.266-5.822.495-6.138-.154-6.533-.154-6.533-.037-5.318.457-6.724.416-6.079.416-6.079.437-2.8.969-3.456S294.3,377.384,294.3,377.384Z" transform="translate(-168.452 -256.54)" opacity="0.1"/>
      <path id="Path_5120" data-name="Path 5120" d="M294.031,377.111s-3.817-.786-4.844-.258-3.04.952-3.327,1.247-1.065.075-1.746,1.863-.761,3.605-1.634,4.441-1.331,1.405-1.368,2.013.116.761-.229.952-.832.986-.682,1.289,7.9,6.99,7.9,6.99a17.938,17.938,0,0,0,.724,3.189c.345.645-.383,9.535-1.144,10.142s5.131.553,5.131.553.266-5.822.491-6.134-.15-6.537-.15-6.537-.037-5.314.457-6.72.437-6.079.437-6.079.437-2.8.969-3.456S294.031,377.111,294.031,377.111Z" transform="translate(-168.292 -256.38)" fill="#3f3d56"/>
      <path id="Path_5121" data-name="Path 5121" d="M312.32,364.041a7.7,7.7,0,0,1,.441,2.566,8.732,8.732,0,0,0,9.98-3.95,21.892,21.892,0,0,1-.374-2.832S310.686,359.214,312.32,364.041Z" transform="translate(-186.979 -246.524)" opacity="0.1"/>
      <path id="Path_5122" data-name="Path 5122" d="M298.65,343.34a8.7,8.7,0,1,0,.191-1.809A8.611,8.611,0,0,0,298.65,343.34Z" transform="translate(-179.085 -231.827)" fill="#ee8e9e"/>
      <path id="Path_5123" data-name="Path 5123" d="M274.512,404l-2.079.645a1.077,1.077,0,0,1-.416,1.139,1.248,1.248,0,0,0-.528,1.139s-.229.832-.761,1.027-.873,1.443-.873,1.443l-1.747,2.013s-.649.532-.532.8-.686.341-.686.341l.416,6.761,3.609.686,2.241-.229,1.821-.682,1.6-.952.719-1.859,3.194-4.865Z" transform="translate(-160.532 -272.345)" fill="#3f3d56"/>
      <path id="Path_5124" data-name="Path 5124" d="M255.055,419.977s-4.632-6.682-8.092-3.077,1.406,9.46,2.545,9.269,6.574-.495,6.574-.495Z" transform="translate(-148.177 -279.257)" fill="#ee8e9e"/>
      <rect id="Rectangle_1163" data-name="Rectangle 1163" width="24.255" height="18.833" rx="1.54" transform="translate(96.758 127.095) rotate(27.04)" fill="#3f3d56"/>
      <rect id="Rectangle_1164" data-name="Rectangle 1164" width="20.388" height="15.365" transform="translate(97.729 129.491) rotate(27.04)" fill="#00a120"/>
      <circle id="Ellipse_233" data-name="Ellipse 233" cx="0.333" cy="0.333" r="0.333" transform="translate(93.205 135.639)" fill="#e6e8ec"/>
      <circle id="Ellipse_234" data-name="Ellipse 234" cx="0.553" cy="0.553" r="0.553" transform="translate(112.641 145.49)" fill="#e6e8ec"/>
      <path id="Path_5125" data-name="Path 5125" d="M260.93,425.871c-.042,5.015,10.329,6.079,10.329,6.079l2.649.416,1.189.187.495-4.9s-.545-.083-1.223-.241c-1.006-.233-2.308-.636-2.578-1.206C271.355,425.264,260.959,420.856,260.93,425.871Z" transform="translate(-157.05 -283.745)" fill="#ee8e9e"/>
      <path id="Path_5126" data-name="Path 5126" d="M299.11,341.541a1.031,1.031,0,0,1,.636.283c.291.312.308.865.69,1.056a.8.8,0,0,0,.453.05c1.01-.141,1.593-1.281,2.566-1.6a2.574,2.574,0,0,1,1.7.146,1.326,1.326,0,0,1,.566.362c.324.416.1,1.04.245,1.547.208.707,1.052.986,1.78,1.077a3.118,3.118,0,0,1,2.038.694,1.846,1.846,0,0,1,.362,1.472,1.147,1.147,0,0,0,0,.545c.2.57,1.185.482,1.443.033.191-.328.133-.6.578-.69a1.883,1.883,0,0,1,.927.162,6.877,6.877,0,0,0,2.408.37,8.7,8.7,0,1,0-16.384-5.51Z" transform="translate(-179.354 -231.837)" opacity="0.1"/>
      <path id="Path_5127" data-name="Path 5127" d="M307.151,340.427a1.152,1.152,0,0,1,0-.545,1.834,1.834,0,0,0-.362-1.468,3.113,3.113,0,0,0-2.038-.7c-.732-.1-1.572-.37-1.78-1.077-.15-.507.079-1.127-.245-1.543a1.248,1.248,0,0,0-.566-.362,2.578,2.578,0,0,0-1.7-.15c-.973.316-1.555,1.455-2.566,1.6a.765.765,0,0,1-.453-.05c-.383-.191-.416-.744-.69-1.056-.462-.487-1.339-.171-1.9-.532a1.751,1.751,0,0,1-.615-1.127,5.464,5.464,0,0,1-.166-2.52c.328-1.41,1.593-2.379,2.4-3.589.753-1.123,1.177-2.545,2.3-3.289a4.609,4.609,0,0,1,3.855-.2,10.879,10.879,0,0,0,1.8.474,20.317,20.317,0,0,0,3.09-.187,6.612,6.612,0,0,1,4.083,1.247,2.234,2.234,0,0,1,.665.674,3.5,3.5,0,0,1,.3,1.21,6.147,6.147,0,0,0,.8,2.221c.316.536.719,1.019,1.006,1.572a2.437,2.437,0,0,1,.274,1.8c-.1.312-.291.595-.366.915a3.447,3.447,0,0,0,.653,2.133,4,4,0,0,1,.445,2.025,2.536,2.536,0,0,1-.911,1.821,3.289,3.289,0,0,1-1.925.586,6.923,6.923,0,0,1-2.453-.37,1.934,1.934,0,0,0-.927-.162c-.445.091-.387.362-.578.69C308.336,340.909,307.354,341,307.151,340.427Z" transform="translate(-176.367 -225.318)" fill="#3f3d56"/>
      <path id="Path_5128" data-name="Path 5128" d="M309.558,465.938l4.9-3.834,7.71-7.6-2.545-.116a1.663,1.663,0,0,0-.536,1.04c-.037.927-2.079.062-3.148.595s-6.267,7.194-7.177,7.148-1.634-.462-2.017.183l-.025.042a1.072,1.072,0,0,1-.582.345Z" transform="translate(-183.461 -301.781)" opacity="0.1"/>
      <path id="Path_5129" data-name="Path 5129" d="M290.61,462.009l2.462,7.863.387,1.247,1.173-.32,2.586-.711,11.51-3.16a10.01,10.01,0,0,0,4.158-1.106,12.546,12.546,0,0,1,7.152-1.559c1.522.141,3.214-.516,4.62-3.11,0,0,3.189-9.419-4.861-12.117s-8.437,1.435-8.437,1.435l-.112.067c-.312.2-1.185.832-1.218,1.588-.037.927-2.079.067-3.148.595s-6.267,7.194-7.177,7.148-1.634-.462-2.017.187l-.025.042c-.283.387-1.127.478-1.688.491a4.976,4.976,0,0,1-.524,0l-.075.021-.582.175Z" transform="translate(-174.389 -298.119)" fill="#65617d"/>
      <path id="Path_5130" data-name="Path 5130" d="M292.14,437.853l1.189.187.495-4.9s-.545-.083-1.223-.241A25.065,25.065,0,0,1,292.14,437.853Z" transform="translate(-175.282 -289.227)" opacity="0.1"/>
      <path id="Path_5131" data-name="Path 5131" d="M323.448,389.585s3.53-1.027,2.657,9a28.044,28.044,0,0,1-7.406,16.371s-7.522,3.3-10.9,2.769-5.847-.645-5.847-.645a8.6,8.6,0,0,0-3.422-.911c-1.9-.075-5.884-1.247-5.963-1.634s.99-5.963.532-6.379c0,0,5.319.216,5.851.6s1.293.112,1.863,0a6.462,6.462,0,0,1,5.772-.3,3.5,3.5,0,0,0,1.634-.191,1.634,1.634,0,0,1,1.189-.075,3.266,3.266,0,0,0,.832-.416c.112-.15,1.027,0,1.027,0a.416.416,0,0,0,.57-.266,2.5,2.5,0,0,1,.532-.832s1.023-5.772,2.961-7.938a1.248,1.248,0,0,0,.416-1.1C315.585,397.029,318.89,388.367,323.448,389.585Z" transform="translate(-175.528 -263.856)" opacity="0.1"/>
      <path id="Path_5132" data-name="Path 5132" d="M323.224,387.729s3.535-1.023,2.661,9A28.023,28.023,0,0,1,318.48,413.1s-7.522,3.306-10.9,2.774-5.851-.657-5.851-.657a8.562,8.562,0,0,0-3.418-.911c-1.9-.079-5.888-1.247-5.963-1.634s.986-5.963.532-6.383c0,0,5.319.22,5.851.6s1.289.108,1.859,0a6.493,6.493,0,0,1,5.776-.3,3.466,3.466,0,0,0,1.63-.187,1.663,1.663,0,0,1,1.189-.079,3.455,3.455,0,0,0,.832-.416c.112-.154,1.023,0,1.023,0a.416.416,0,0,0,.57-.266,2.5,2.5,0,0,1,.532-.832s1.027-5.772,2.965-7.938a1.247,1.247,0,0,0,.416-1.1C315.365,395.177,318.667,386.528,323.224,387.729Z" transform="translate(-175.4 -262.773)" fill="#3f3d56"/>
      <path id="Path_5133" data-name="Path 5133" d="M300.64,478.275l5.015,6.071.033-.033c.037-.116.532-1.406.416-1.485a7.062,7.062,0,0,0-2.732-2.774,5.182,5.182,0,0,1-2.15-1.954Z" transform="translate(-180.248 -315.632)" opacity="0.1"/>
      <path id="Path_5134" data-name="Path 5134" d="M300.629,494.383l.549.312s1.272-1.019,2.541-2.046,2.495-2.033,2.495-2.079.532-1.405.416-1.48-.32-.566-.8-1.177c-3.4-.952-1.247,1.41-.948,1.518a3.463,3.463,0,0,0-4.366,3.56A5.581,5.581,0,0,0,300.629,494.383Z" transform="translate(-180.171 -321.232)" opacity="0.1"/>
      <path id="Path_5135" data-name="Path 5135" d="M305.329,496.262l.724.416,7.331.187a14.68,14.68,0,0,0,2.595,1.248,2.44,2.44,0,0,0,.366.079,16.214,16.214,0,0,0,2.046.037c.561,0,.994-.037.994-.037s-.345-9.244-.607-10.217c-.125-.466-.74-.366-1.347-.133a9.181,9.181,0,0,0-1.314.665,23.673,23.673,0,0,0-3.605.57c-.495.266-1.9-.154-2.774,0s-2.433-1.027-2.433-1.027c-4.254-1.405-1.859,1.214-1.555,1.331a3.462,3.462,0,0,0-4.37,3.56C301.167,497.451,305.329,496.262,305.329,496.262Z" transform="translate(-180.675 -321.202)" fill="#3f3d56"/>
      <path id="Path_5136" data-name="Path 5136" d="M336.375,492.72c.079,1.913,1.572,4.287,2.462,5.543.561,0,.994-.037.994-.037s-.345-9.244-.607-10.217c-.125-.466-.74-.366-1.347-.133A10.661,10.661,0,0,0,336.375,492.72Z" transform="translate(-201.121 -321.228)" fill="#565387"/>
      <path id="Path_5137" data-name="Path 5137" d="M336.375,492.72c.079,1.913,1.572,4.287,2.462,5.543.561,0,.994-.037.994-.037s-.345-9.244-.607-10.217c-.125-.466-.74-.366-1.347-.133A10.661,10.661,0,0,0,336.375,492.72Z" transform="translate(-201.121 -321.228)" opacity="0.1"/>
      <path id="Path_5138" data-name="Path 5138" d="M333.186,492.973c.507,1.846.5,3.917,1.306,5.173a2.437,2.437,0,0,0,.366.079,16.221,16.221,0,0,0,2.046.037c.561,0,.994-.037.994-.037s-.345-9.244-.607-10.217c-.125-.466-.74-.366-1.347-.133a9.183,9.183,0,0,0-1.314.665S332.542,490.607,333.186,492.973Z" transform="translate(-199.188 -321.228)" opacity="0.05"/>
      <path id="Path_5139" data-name="Path 5139" d="M272.54,455.34a15.149,15.149,0,0,1,6.728,5.381Z" transform="translate(-163.833 -302.336)" opacity="0.1"/>
      <g id="Group_12007" data-name="Group 12007" transform="translate(117.617 104.813)" opacity="0.1">
        <path id="Path_5140" data-name="Path 5140" d="M343.49,345.72a.125.125,0,0,1-.021.083,2.293,2.293,0,0,1-.129.316A2.9,2.9,0,0,1,343.49,345.72Z" transform="translate(-322.809 -343.113)"/>
        <path id="Path_5141" data-name="Path 5141" d="M294.047,340.215a3.248,3.248,0,0,1,.283-.765.937.937,0,0,1-.058.2,5.522,5.522,0,0,0,.171,2.52,1.763,1.763,0,0,0,.611,1.127c.566.362,1.443.046,1.9.532.291.312.308.865.69,1.056a.765.765,0,0,0,.453.05c1.01-.141,1.593-1.281,2.566-1.6a2.553,2.553,0,0,1,1.7.15,1.247,1.247,0,0,1,.566.362c.324.416.1,1.035.245,1.543.208.707,1.052.986,1.78,1.077a3.1,3.1,0,0,1,2.038.7,1.834,1.834,0,0,1,.362,1.468,1.152,1.152,0,0,0,0,.545c.2.57,1.185.482,1.443.033.191-.328.133-.6.578-.69a1.933,1.933,0,0,1,.927.162,6.924,6.924,0,0,0,2.453.37,3.289,3.289,0,0,0,1.925-.586,2.155,2.155,0,0,0,.59-.719,2.4,2.4,0,0,1-.832,1.289,3.29,3.29,0,0,1-1.925.586,6.924,6.924,0,0,1-2.453-.37,1.934,1.934,0,0,0-.927-.162c-.445.092-.387.362-.574.69-.262.449-1.247.536-1.447-.033a1.206,1.206,0,0,1,0-.545,1.834,1.834,0,0,0-.362-1.468,3.113,3.113,0,0,0-2.038-.7c-.732-.1-1.572-.37-1.78-1.077-.15-.507.079-1.127-.245-1.543a1.247,1.247,0,0,0-.561-.362,2.59,2.59,0,0,0-1.7-.15c-.969.316-1.555,1.455-2.566,1.6a.765.765,0,0,1-.453-.05c-.383-.191-.416-.744-.69-1.056-.462-.487-1.335-.171-1.9-.532a1.751,1.751,0,0,1-.615-1.127A5.465,5.465,0,0,1,294.047,340.215Z" transform="translate(-293.966 -339.45)"/>
      </g>
      <path id="Path_5142" data-name="Path 5142" d="M340.848,411.86c-.7.94-1.493,1.809-2.108,2.8a5.326,5.326,0,0,0-.923,3.327,8.65,8.65,0,0,0,1.331-2.379,33.273,33.273,0,0,1,2.557-3.838c.162-.245,1.21-1.663.682-1.722C341.946,409.985,341.085,411.54,340.848,411.86Z" transform="translate(-201.96 -275.876)" opacity="0.1"/>
      <path id="Path_5143" data-name="Path 5143" d="M347.414,599.379c.5,1.613,1.01,3.231,1.638,4.8a40.809,40.809,0,0,0,4.246,7.739,56.171,56.171,0,0,0,3.51,4.6c1.564,1.842,3.327,3.7,3.859,6.05a30.874,30.874,0,0,1,.345,4.158,5.088,5.088,0,0,0,1.713,3.693,6.241,6.241,0,0,0,2.815.927c.707.112,1.588.15,1.954-.462a1.775,1.775,0,0,0,.2-.807l.171-2.033c.033-.441.191-1,.632-1.023s.661.565,1.035.832a1.127,1.127,0,0,0,1.522-.528,2.566,2.566,0,0,0,.042-1.788,8.47,8.47,0,0,0-4.354-5.406,12.479,12.479,0,0,1-2.121-1.1,7.247,7.247,0,0,1-1.663-2.1c-3.859-6.354-7.739-12.741-10.462-19.656a14.554,14.554,0,0,1-1.077-3.876,25.453,25.453,0,0,1,.166-4.092,23.285,23.285,0,0,0-.674-7.289,5.821,5.821,0,0,0-.694-1.771,3.951,3.951,0,0,0-5.406-.782,5.572,5.572,0,0,0-2.154,3.938c-.121,1.381.674,2.811,1.077,4.1Q345.563,593.44,347.414,599.379Z" transform="translate(-204.783 -374.419)" fill="#a1616a"/>
      <path id="Path_5144" data-name="Path 5144" d="M347.414,599.379c.5,1.613,1.01,3.231,1.638,4.8a40.809,40.809,0,0,0,4.246,7.739,56.171,56.171,0,0,0,3.51,4.6c1.564,1.842,3.327,3.7,3.859,6.05a30.874,30.874,0,0,1,.345,4.158,5.088,5.088,0,0,0,1.713,3.693,6.241,6.241,0,0,0,2.815.927c.707.112,1.588.15,1.954-.462a1.775,1.775,0,0,0,.2-.807l.171-2.033c.033-.441.191-1,.632-1.023s.661.565,1.035.832a1.127,1.127,0,0,0,1.522-.528,2.566,2.566,0,0,0,.042-1.788,8.47,8.47,0,0,0-4.354-5.406,12.479,12.479,0,0,1-2.121-1.1,7.247,7.247,0,0,1-1.663-2.1c-3.859-6.354-7.739-12.741-10.462-19.656a14.554,14.554,0,0,1-1.077-3.876,25.453,25.453,0,0,1,.166-4.092,23.285,23.285,0,0,0-.674-7.289,5.821,5.821,0,0,0-.694-1.771,3.951,3.951,0,0,0-5.406-.782,5.572,5.572,0,0,0-2.154,3.938c-.121,1.381.674,2.811,1.077,4.1Q345.563,593.44,347.414,599.379Z" transform="translate(-204.783 -374.419)" opacity="0.05"/>
      <path id="Path_5145" data-name="Path 5145" d="M294.666,775.025a5.545,5.545,0,0,0,2.345.283c.058-.649.931-.794,1.58-.761a1.8,1.8,0,0,1,.9.208c.162.1.287.254.445.362a1.925,1.925,0,0,0,.919.237l3.377.283a10.161,10.161,0,0,0,4.483-.291,1.546,1.546,0,0,0,.719-.482c.383-.549,0-1.335-.528-1.734s-1.21-.578-1.742-.986c-1.173-.894-1.335-2.566-1.954-3.9a11.521,11.521,0,0,0-1.618-2.341A8.988,8.988,0,0,0,302,764.263c-1.356-.977-2.911-.956-4.5-1.1-1.123-.1-2.179-.166-2.986.832-1,1.247-.6,3.742-.536,5.2A37.618,37.618,0,0,0,294.666,775.025Z" transform="translate(-176.278 -482.126)" fill="#514e7f"/>
      <path id="Path_5146" data-name="Path 5146" d="M294.666,775.025a5.545,5.545,0,0,0,2.345.283c.058-.649.931-.794,1.58-.761a1.8,1.8,0,0,1,.9.208c.162.1.287.254.445.362a1.925,1.925,0,0,0,.919.237l3.377.283a10.161,10.161,0,0,0,4.483-.291,1.546,1.546,0,0,0,.719-.482c.383-.549,0-1.335-.528-1.734s-1.21-.578-1.742-.986c-1.173-.894-1.335-2.566-1.954-3.9a11.521,11.521,0,0,0-1.618-2.341A8.988,8.988,0,0,0,302,764.263c-1.356-.977-2.911-.956-4.5-1.1-1.123-.1-2.179-.166-2.986.832-1,1.247-.6,3.742-.536,5.2A37.618,37.618,0,0,0,294.666,775.025Z" transform="translate(-176.278 -482.126)" opacity="0.05"/>
      <path id="Path_5147" data-name="Path 5147" d="M288,629.988a2.347,2.347,0,0,0-1.289,2.686,9.881,9.881,0,0,0,1.36,2.94c1.505,2.69,2.154,5.768,3.418,8.574.944,2.079,2.221,4.034,3.152,6.138a10.486,10.486,0,0,1,.944,6.712c-.274,1.085-.807,2.079-1.16,3.148a17.467,17.467,0,0,0-.682,3.555,67.529,67.529,0,0,0-.245,12.334,3.684,3.684,0,0,0,.308,1.455c.212.416.578.832.416,1.247-.071.17-.225.3-.3.462-.216.466.216.961.611,1.293a1.077,1.077,0,0,1-.661.511,1.563,1.563,0,0,1,.665,1.742c-.349.054-.37.59-.15.873s.57.457.728.778a1.085,1.085,0,0,1-.6,1.364,2.849,2.849,0,0,1-1.63.125,17.885,17.885,0,0,1-2.724-.6,1.971,1.971,0,0,1-1.588-2.038,30.27,30.27,0,0,1-.187-5.1c.146-8.25,0-16.509-.358-24.755a28.213,28.213,0,0,0-2.428-9.61,50.437,50.437,0,0,0-2.366-4.574c-1.855-3.393-3.493-7.152-3.069-11,.046-.416.2-.911.607-.977a.882.882,0,0,1,.47.079,21.111,21.111,0,0,1,2.474,1.364A9.34,9.34,0,0,0,288,629.988Z" transform="translate(-168.247 -402.771)" fill="#464353"/>
      <path id="Path_5148" data-name="Path 5148" d="M288,629.988a2.347,2.347,0,0,0-1.289,2.686,9.881,9.881,0,0,0,1.36,2.94c1.505,2.69,2.154,5.768,3.418,8.574.944,2.079,2.221,4.034,3.152,6.138a10.486,10.486,0,0,1,.944,6.712c-.274,1.085-.807,2.079-1.16,3.148a17.467,17.467,0,0,0-.682,3.555,67.529,67.529,0,0,0-.245,12.334,3.684,3.684,0,0,0,.308,1.455c.212.416.578.832.416,1.247-.071.17-.225.3-.3.462-.216.466.216.961.611,1.293a1.077,1.077,0,0,1-.661.511,1.563,1.563,0,0,1,.665,1.742c-.349.054-.37.59-.15.873s.57.457.728.778a1.085,1.085,0,0,1-.6,1.364,2.849,2.849,0,0,1-1.63.125,17.885,17.885,0,0,1-2.724-.6,1.971,1.971,0,0,1-1.588-2.038,30.27,30.27,0,0,1-.187-5.1c.146-8.25,0-16.509-.358-24.755a28.213,28.213,0,0,0-2.428-9.61,50.437,50.437,0,0,0-2.366-4.574c-1.855-3.393-3.493-7.152-3.069-11,.046-.416.2-.911.607-.977a.882.882,0,0,1,.47.079,21.111,21.111,0,0,1,2.474,1.364A9.34,9.34,0,0,0,288,629.988Z" transform="translate(-168.247 -402.771)" opacity="0.05"/>
      <path id="Path_5149" data-name="Path 5149" d="M253.629,608.9a2.7,2.7,0,0,0-3.747.424,19.966,19.966,0,0,0-1.946,1.7,10.371,10.371,0,0,0-2.312,10.263,20.215,20.215,0,0,0,2.836,5.036l2.245,3.227c3.426,4.919,6.853,9.839,10.442,14.641a.557.557,0,0,0,.391.528c.129.033.291.029.37.137a.39.39,0,0,1,.046.22,3.182,3.182,0,0,1-.2,1.04.5.5,0,0,0-.042.358c.116.27.607.116.765.37.1.166-.025.383-.162.524s-.308.3-.283.495.366.416.353.657c0,.141-.125.249-.212.362a.927.927,0,0,0,.112,1.181c.237,2.345-1.04,4.574-1.293,6.911-.416,3.693,1.268,7.3,1.472,11a2.848,2.848,0,0,0,.233,1.214c.345.64,1.247,1.027,1.2,1.755a7.037,7.037,0,0,1-.254.882,6.7,6.7,0,0,0,.137,1.247c.008.416-.362.927-.753.761q.441,1.472.786,2.969l7.859.649a6.972,6.972,0,0,0-.071-2.121c-.162-.761-.5-1.468-.682-2.221a2.628,2.628,0,0,1,.308-2.225.869.869,0,0,1-.865-.711,3.455,3.455,0,0,1,.021-1.223c.208-2.05-.653-4.071-.628-6.129a29.93,29.93,0,0,1,.882-4.774c.615-3.41-.025-7.107,1.493-10.221.919-1.875,2.191-3.955,1.16-5.772-.507-.9-1.405-1.514-1.992-2.362a9.611,9.611,0,0,1-1.065-2.574c-1.21-3.742-3.169-7.219-4.886-10.778a11.228,11.228,0,0,1-1.052-2.832,14.847,14.847,0,0,1-.133-2.616,38.544,38.544,0,0,0-.287-4.694,4.465,4.465,0,0,0-.57-1.942,4.345,4.345,0,0,0-1.247-1.119C259.483,611.374,256.415,610.363,253.629,608.9Z" transform="translate(-147.819 -391.708)" fill="#464353"/>
      <path id="Path_5150" data-name="Path 5150" d="M287.071,781.95a5.635,5.635,0,0,0,2.349.279c.058-.649.927-.794,1.576-.761a1.8,1.8,0,0,1,.9.208c.162.1.287.258.449.362a1.879,1.879,0,0,0,.919.237l3.372.283a10.118,10.118,0,0,0,4.487-.291,1.505,1.505,0,0,0,.715-.482c.383-.549,0-1.331-.528-1.73s-1.21-.582-1.738-.99c-1.177-.894-1.335-2.562-1.959-3.9A11.253,11.253,0,0,0,296,772.818a8.982,8.982,0,0,0-1.6-1.63c-1.351-.981-2.911-.961-4.5-1.1-1.127-.1-2.183-.162-2.986.832-1,1.247-.6,3.742-.541,5.2A37.677,37.677,0,0,0,287.071,781.95Z" transform="translate(-171.843 -486.17)" fill="#514e7f"/>
      <circle id="Ellipse_235" data-name="Ellipse 235" cx="7.784" cy="7.784" r="7.784" transform="translate(142.277 188.009)" fill="#a1616a"/>
      <path id="Path_5151" data-name="Path 5151" d="M333.174,561.727c-1.114.961-2.715,1.031-4.179,1.181a26.248,26.248,0,0,0-8.994,2.6,3.244,3.244,0,0,0-1.04.715,2.936,2.936,0,0,0-.528,1.115,7.281,7.281,0,0,0-.3,2.707,7.713,7.713,0,0,0,.753,2.545,13.723,13.723,0,0,0,4.824,5.5,3.536,3.536,0,0,0,1.223.586c1.023.212,2.013-.378,3.023-.645a4.941,4.941,0,0,1,2.79.087c.832.283,1.742.8,2.566.453a2.632,2.632,0,0,0,1.16-1.322,45.014,45.014,0,0,0,2.125-4.632,17.822,17.822,0,0,1,.769-1.813c.9-1.717,2.462-3.044,3.239-4.828a1.06,1.06,0,0,0,.075-.907,1.247,1.247,0,0,0-.574-.437A13.643,13.643,0,0,1,337,562.2c-.511-.491-1.451-1.817-2.187-1.934C333.985,560.121,333.736,561.244,333.174,561.727Z" transform="translate(-190.456 -363.621)" fill="#a1616a"/>
      <path id="Path_5152" data-name="Path 5152" d="M301.577,585.059a4.772,4.772,0,0,1-2.944.033,33.6,33.6,0,0,1-7.4-2.15,4.009,4.009,0,0,1-1.817-1.4,4.575,4.575,0,0,1-.507-1.742l-.416-2.911a16.961,16.961,0,0,1,.133-2.969.861.861,0,0,0-.171-.645.7.7,0,0,0-.511-.162c-1.168.021-1.875,1.247-2.695,2.079a4.988,4.988,0,0,1-1.663,1.114c-.749.308-1.663.524-1.975,1.272-.125.312-.108.665-.241.977-.524,1.247-2.757.832-3.327,2.079-.162.349-.15.786-.416,1.06s-.765.27-1.177.337c-1.626.266-2.412,2.142-3.8,3.027-1.168.749-2.674.732-3.934,1.314a14.931,14.931,0,0,1-2.058,1.044,9.717,9.717,0,0,1-2.37.121.62.62,0,0,0-.47.154.628.628,0,0,0-.079.516,14.33,14.33,0,0,0,8.853,11.094,2.959,2.959,0,0,1,.757.366c.707.528.832,1.663,1.634,2.038a1.663,1.663,0,0,0,1.7-.366,15.255,15.255,0,0,0,1.247-1.356,4.886,4.886,0,0,1,2.74-1.443c.965-.154,2.042-.042,2.824-.636a8.758,8.758,0,0,0,.89-.948,5.59,5.59,0,0,1,2.017-1.206,20.614,20.614,0,0,1,6.416-1.41c2.05-.112,4.158.075,6.1-.591a3.677,3.677,0,0,0,1.36-.769,4.088,4.088,0,0,0,.907-1.576A12.059,12.059,0,0,0,301.577,585.059Z" transform="translate(-158.676 -371.136)" fill="#00a120"/>
      <path id="Path_5153" data-name="Path 5153" d="M324.558,574.01c.574-.054,1.152,0,1.73,0,.678,0,1.347-.166,2.025-.171a5.036,5.036,0,0,1,4.749,3.614.936.936,0,0,1,.029.511.362.362,0,0,1-.391.266,8.619,8.619,0,0,0-.877-1.751,4.919,4.919,0,0,0-2.611-1.821,6.761,6.761,0,0,0-3.21-.116c-.445.083-.877.2-1.31.32l-2.079.574c-.383.1-.769.208-1.139.345-.287.108-.778.5-1.06.52-.383,0-.075-.333.1-.557a2.765,2.765,0,0,1,1.36-.99A11.776,11.776,0,0,1,324.558,574.01Z" transform="translate(-191.691 -371.56)" fill="#00a120"/>
      <path id="Path_5154" data-name="Path 5154" d="M336.536,601.471c.5,1.613,1.006,3.231,1.638,4.8a40.581,40.581,0,0,0,4.246,7.739,56.149,56.149,0,0,0,3.51,4.6c1.559,1.842,3.3,3.7,3.859,6.046a30.983,30.983,0,0,1,.345,4.158,5.107,5.107,0,0,0,1.709,3.693,6.378,6.378,0,0,0,2.819.927c.7.112,1.584.15,1.954-.462a1.846,1.846,0,0,0,.2-.807l.166-2.033c.037-.441.2-1,.632-1.023s.665.565,1.04.832a1.127,1.127,0,0,0,1.522-.528,2.586,2.586,0,0,0,.042-1.788,8.5,8.5,0,0,0-4.354-5.406,12.7,12.7,0,0,1-2.125-1.1,7.2,7.2,0,0,1-1.663-2.108c-3.863-6.35-7.743-12.737-10.462-19.656a14.662,14.662,0,0,1-1.081-3.871,25.449,25.449,0,0,1,.171-4.092,23.286,23.286,0,0,0-.674-7.289,5.735,5.735,0,0,0-.7-1.771,3.947,3.947,0,0,0-5.406-.782,5.576,5.576,0,0,0-2.158,3.938c-.121,1.381.678,2.811,1.077,4.1Q334.682,595.533,336.536,601.471Z" transform="translate(-198.422 -375.638)" fill="#a1616a"/>
      <path id="Path_5155" data-name="Path 5155" d="M360.573,535.653c.062-.649-.52-1.247-1.181-1.663a15.633,15.633,0,0,1-2-1.223c-.59-.511-.915-1.177-1.505-1.688a6.691,6.691,0,0,0-2.245-1.119,17.1,17.1,0,0,0-5.373-.961,9.323,9.323,0,0,0-5.136,1.36,3.041,3.041,0,0,0-.873.832,3.569,3.569,0,0,0-.416,1.289,25.443,25.443,0,0,1-1.343,4.079,9.5,9.5,0,0,1-2.553,4.125c-1.455,1.21-3.68,1.909-4.641,3.372a1.081,1.081,0,0,0-.212.944c.137.37.578.624.986.857a13.354,13.354,0,0,1,5.447,5.215,6.051,6.051,0,0,1-.474,6.508c-.549.715-1.306,1.563-.769,2.283.832,1.094,3.614.466,4.262,1.622a2.359,2.359,0,0,1,.083,1.193c0,1.214,1.168,2.291,2.586,2.853a14.561,14.561,0,0,0,4.657.765,4.067,4.067,0,0,0,.116-3.015,1.214,1.214,0,0,1-.121-.686,1.663,1.663,0,0,1,.536-.657c1.7-1.613,1.343-3.984.32-5.9s-2.62-3.668-3.214-5.684a2.932,2.932,0,0,1,.5-2.961,10,10,0,0,1,1.468-1.069,5.547,5.547,0,0,0,2.054-2.578c.478-1.326.416-2.911,1.8-3.8,1.335-.832,3.21-.591,4.686-1.16A5.014,5.014,0,0,0,360.573,535.653Z" transform="translate(-199.189 -345.366)" fill="#464353"/>
      <path id="Path_5156" data-name="Path 5156" d="M569.5,664.4c-6.341-2.624-8.2-4.52-8.2-8.317,0-2.911,1.281-6.271,6.894-6.271a15.83,15.83,0,0,1,8.766,2.495l1.826-4.828a19.358,19.358,0,0,0-9.477-2.553V637.86h-3.688v7.36c-6.707,1.094-10.591,5.684-10.591,11.735,0,6.341,3.742,9.7,11.194,12.612,5.4,2.2,8.221,4.678,8.221,8.687,0,4.158-3.5,7.144-8.674,7.144a22.5,22.5,0,0,1-11.327-3.135l-1.751,4.882c2.553,1.826,6.928,3.135,11.153,3.21v7.36h6.275v-7.581c7.485-1.247,11.514-6.653,11.514-12.392C581.632,671.255,577.012,667.463,569.5,664.4Z" transform="translate(-327.487 -408.958)" fill="url(#linear-gradient-2)"/>
      <path id="Path_5157" data-name="Path 5157" d="M563.883,693.732v-7.36c-4.225-.075-8.6-1.385-11.153-3.21l1.751-4.882a22.5,22.5,0,0,0,11.327,3.135c5.177,0,8.658-2.986,8.658-7.144,0-4.009-2.84-6.487-8.238-8.674-7.435-2.911-11.194-6.271-11.194-12.612,0-6.05,3.884-10.641,10.591-11.735v-7.36h3.688v7.069a19.4,19.4,0,0,1,9.477,2.553l-1.826,4.807a15.83,15.83,0,0,0-8.766-2.495c-5.614,0-6.895,3.356-6.895,6.271,0,3.788,1.863,5.684,8.2,8.317,7.51,3.061,12.13,6.853,12.13,13.34,0,5.759-4.009,11.153-11.514,12.392v7.589Z" transform="translate(-327.511 -406.639)" fill="#00a120"/>
    </g>
    <path id="_98866" data-name="98866" d="M61.662,29.972l9.4,9.4L27.1,83.328,0,56.228l9.4-9.4,17.7,17.7Z" transform="translate(655.035 308.338)" fill="#00a120"/>
  </g>
</svg>
