<svg id="beverages" xmlns="http://www.w3.org/2000/svg" width="13.208" height="20.55" viewBox="0 0 13.208 20.55">
  <path id="Path_4636" data-name="Path 4636" d="M122.22,241.467a.367.367,0,0,1,0-.734h.367V240h-5.136v.734h3.3a.367.367,0,1,1,0,.734h-3.442l-.367.734h6.15l-.367-.734Z" transform="translate(-116.717 -230.461)" fill="#ffaf26"/>
  <path id="Path_4637" data-name="Path 4637" d="M219.249,306.935a7.039,7.039,0,0,1-1,3.669h1.731V304h-1.375A8.4,8.4,0,0,1,219.249,306.935Z" transform="translate(-213.379 -291.526)" fill="#ffaf26"/>
  <path id="Path_4638" data-name="Path 4638" d="M262.6,67.764a1.1,1.1,0,0,0-.2-.631L260.211,64h-1.819L256.2,67.133a1.1,1.1,0,0,0-.2.631V68.4h6.6Z" transform="translate(-249.396 -62.533)" fill="#ffaf26"/>
  <path id="Path_4639" data-name="Path 4639" d="M262.6,180.4V176H256v3.949l.227.454Z" transform="translate(-249.396 -169.396)" fill="#ffaf26"/>
  <path id="Path_4640" data-name="Path 4640" d="M298.935,32.367a.367.367,0,0,0-.367-.367h-2.2a.367.367,0,0,0-.367.367v.367h2.935Z" transform="translate(-287.562 -32)" fill="#ffaf26"/>
  <path id="Path_4641" data-name="Path 4641" d="M268.45,290.149l.307-2.149H262.8l.1.2a.366.366,0,0,1,.039.164V295.7a.366.366,0,0,1-.039.164l-.4.793a.733.733,0,0,0,1.169-.591.367.367,0,1,1,.734,0c0,.4.5.734,1.1.734s1.1-.336,1.1-.734a.367.367,0,0,1,.734,0,.734.734,0,1,0,1.468.01l-.366-5.857A.359.359,0,0,1,268.45,290.149Z" transform="translate(-255.606 -276.26)" fill="#ffaf26"/>
  <path id="Path_4642" data-name="Path 4642" d="M117.311,464.734h5.417l.367-.734h-6.15Z" transform="translate(-116.717 -444.189)" fill="#ffaf26"/>
  <path id="Path_4643" data-name="Path 4643" d="M186.88,310.6a6.7,6.7,0,0,0,1.1-3.669A8.28,8.28,0,0,0,187.29,304h-.682a8.4,8.4,0,0,1,.642,2.935,7.039,7.039,0,0,1-1,3.669Z" transform="translate(-182.847 -291.526)" fill="#ffaf26"/>
  <path id="Path_4644" data-name="Path 4644" d="M115.669,306.935a8.28,8.28,0,0,0-.693-2.935H112v6.6h2.565A6.7,6.7,0,0,0,115.669,306.935Z" transform="translate(-112 -291.526)" fill="#ffaf26"/>
</svg>
