<svg xmlns="http://www.w3.org/2000/svg" width="12.296" height="21.742" viewBox="0 0 12.296 21.742">
  <path id="Icon_material-attach-money" data-name="Icon material-attach-money" d="M16.1,14.042c-2.742-.713-3.624-1.449-3.624-2.6,0-1.317,1.22-2.235,3.261-2.235,2.15,0,2.947,1.027,3.02,2.537h2.669a4.815,4.815,0,0,0-3.877-4.6V4.5H13.925V7.109C11.582,7.616,9.7,9.138,9.7,11.47c0,2.79,2.307,4.179,5.677,4.989,3.02.725,3.624,1.788,3.624,2.911,0,.833-.592,2.162-3.261,2.162-2.488,0-3.467-1.111-3.6-2.537H9.48c.145,2.645,2.126,4.131,4.445,4.626v2.621h3.624v-2.6c2.355-.447,4.228-1.812,4.228-4.288C21.776,15.927,18.841,14.755,16.1,14.042Z" transform="translate(-9.48 -4.5)" fill="#ffaf26"/>
</svg>
