<svg xmlns="http://www.w3.org/2000/svg" width="27.503" height="17.502" viewBox="0 0 27.503 17.502">
  <path id="Icon_material-people" data-name="Icon material-people" d="M20.252,15a3.75,3.75,0,1,0-3.75-3.75A3.735,3.735,0,0,0,20.252,15Zm-10,0A3.75,3.75,0,1,0,6.5,11.25,3.735,3.735,0,0,0,10.251,15Zm0,2.5C7.338,17.5,1.5,18.964,1.5,21.877V25H19V21.877C19,18.964,13.164,17.5,10.251,17.5Zm10,0c-.363,0-.775.025-1.213.063A5.275,5.275,0,0,1,21.5,21.877V25H29V21.877C29,18.964,23.165,17.5,20.252,17.5Z" transform="translate(-1.5 -7.5)" fill="#ffaf26"/>
</svg>
