<svg xmlns="http://www.w3.org/2000/svg" width="21.32" height="18.211" viewBox="0 0 21.32 18.211">
  <path id="Icon_material-directions-bike" data-name="Icon material-directions-bike" d="M13.769,5.8a1.777,1.777,0,1,0-1.777-1.777A1.782,1.782,0,0,0,13.769,5.8ZM4.442,11.577a4.442,4.442,0,0,0,0,8.883,4.442,4.442,0,0,0,0-8.883Zm0,7.551a3.109,3.109,0,0,1,0-6.218,3.109,3.109,0,0,1,0,6.218Zm5.152-8.883,2.132-2.132.711.711a6.223,6.223,0,0,0,4.53,1.865V8.912a4.413,4.413,0,0,1-3.2-1.332L12.081,5.892a2.178,2.178,0,0,0-1.421-.533,1.491,1.491,0,0,0-1.244.533L6.929,8.379A1.754,1.754,0,0,0,6.4,9.623a1.491,1.491,0,0,0,.533,1.244l2.843,2.487V17.8h1.777V12.288Zm7.284,1.332a4.442,4.442,0,1,0,4.442,4.442A4.4,4.4,0,0,0,16.878,11.577Zm0,7.551a3.109,3.109,0,1,1,3.109-3.109A3.147,3.147,0,0,1,16.878,19.128Z" transform="translate(0 -2.25)" fill="#ffaf26"/>
</svg>
