<svg xmlns="http://www.w3.org/2000/svg" xmlns:xlink="http://www.w3.org/1999/xlink" width="143" height="55.997" viewBox="0 0 143 55.997">
  <defs>
    <radialGradient id="radial-gradient" cx="0.508" cy="0.35" fx="0.11376731842756271" r="2.569" gradientTransform="translate(-25.68 85.212) scale(0.196 0.192)" gradientUnits="objectBoundingBox">
      <stop offset="0" stop-color="#616c73"/>
      <stop offset="0.06" stop-color="#899196" stop-opacity="0.749"/>
      <stop offset="0.12" stop-color="#adb3b7" stop-opacity="0.522"/>
      <stop offset="0.2" stop-color="#cccfd1" stop-opacity="0.329"/>
      <stop offset="0.29" stop-color="#e3e5e6" stop-opacity="0.18"/>
      <stop offset="0.41" stop-color="#f3f4f4" stop-opacity="0.078"/>
      <stop offset="0.56" stop-color="#fcfdfd" stop-opacity="0.02"/>
      <stop offset="1" stop-color="#fff" stop-opacity="0"/>
    </radialGradient>
    <radialGradient id="radial-gradient-2" cx="0.499" cy="0.35" fx="0.10972708463668823" r="2.604" gradientTransform="matrix(-0.191, 0, 0, 0.192, -6.41, 85.212)" xlink:href="#radial-gradient"/>
    <linearGradient id="linear-gradient" x1="9.464" y1="0.832" x2="10.284" y2="0.174" gradientUnits="objectBoundingBox">
      <stop offset="0" stop-color="#485258"/>
      <stop offset="0.38" stop-color="#788c9a"/>
      <stop offset="0.4" stop-color="#838c8f"/>
      <stop offset="0.55" stop-color="#c08b53"/>
      <stop offset="0.66" stop-color="#e78a2d"/>
      <stop offset="0.72" stop-color="#f58a1f"/>
      <stop offset="0.92" stop-color="#ec1c24"/>
    </linearGradient>
    <linearGradient id="linear-gradient-2" x1="14.247" y1="0.831" x2="15.058" y2="0.187" gradientUnits="objectBoundingBox">
      <stop offset="0" stop-color="#788c9a"/>
      <stop offset="0.49" stop-color="#cbcccd"/>
      <stop offset="1" stop-color="#ec1c24"/>
    </linearGradient>
    <linearGradient id="linear-gradient-3" x1="5.267" y1="0.5" x2="6.267" y2="0.5" gradientUnits="objectBoundingBox">
      <stop offset="0.13" stop-color="#ec1c24"/>
      <stop offset="0.32" stop-color="#f58a1f"/>
      <stop offset="0.55" stop-color="#cbcccd"/>
      <stop offset="1" stop-color="#485258"/>
    </linearGradient>
    <clipPath id="clip-path">
      <path id="Path_4601" data-name="Path 4601" d="M516.337,258.053a1.261,1.261,0,0,0-.1-.621,3.621,3.621,0,0,0-.31-.605,7.107,7.107,0,0,0-.928-1.137,13.528,13.528,0,0,0-2.617-1.987,27.245,27.245,0,0,0-7-2.835,47.484,47.484,0,0,0-8.112-1.364c-2.774-.238-5.568.3-8.323.405a83.3,83.3,0,0,0-15.066,1.546c-1.27.273-2.518.572-3.755.884q-.927.231-1.842.483l-.885.244-.79.213c-1.047.274-2.1.54-3.159.777s-2.128.466-3.2.663A80.134,80.134,0,0,1,447.19,256.1a62.3,62.3,0,0,1-12.914-1,36.993,36.993,0,0,1-5.846-1.6,15.893,15.893,0,0,1-4.586-2.483c-1.174-.986-1.882-1.567-1.7-2.894a4.38,4.38,0,0,1,.935-2.021,12.4,12.4,0,0,1,2.03-1.975,15.837,15.837,0,0,0-3.448,1.258,8.58,8.58,0,0,0-2.706,2.085c-.684.842-1.109,1.238-1.164,2.234a5.5,5.5,0,0,0,.713,2.915,10.173,10.173,0,0,0,2.069,2.575,18.226,18.226,0,0,0,2.873,2.163,32.931,32.931,0,0,0,7.1,3.192,59.712,59.712,0,0,0,16.491,2.7,77.211,77.211,0,0,0,16.686-1.325c1.333-.257,2.652-.538,3.947-.851s2.57-.655,3.815-1.027l3.347-1.019c1.064-.319,2.141-.628,3.212-.931a101.984,101.984,0,0,1,12.272-2.912,61.993,61.993,0,0,1,13.512-.768,37.21,37.21,0,0,1,6.7,1.013,23.87,23.87,0,0,1,3.164,1.035,13.468,13.468,0,0,1,1.455.692,6.683,6.683,0,0,1,.655.409A2.415,2.415,0,0,1,516.337,258.053Z" transform="translate(-417.783 -244.13)" fill="none"/>
    </clipPath>
    <linearGradient id="linear-gradient-4" y1="0.5" x2="1" y2="0.5" gradientUnits="objectBoundingBox">
      <stop offset="0" stop-color="#fff"/>
      <stop offset="0.09" stop-color="#fff" stop-opacity="0.98"/>
      <stop offset="0.22" stop-color="#fff" stop-opacity="0.91"/>
      <stop offset="0.36" stop-color="#fff" stop-opacity="0.8"/>
      <stop offset="0.51" stop-color="#fff" stop-opacity="0.651"/>
      <stop offset="0.68" stop-color="#fff" stop-opacity="0.459"/>
      <stop offset="0.85" stop-color="#fff" stop-opacity="0.231"/>
      <stop offset="1" stop-color="#fff" stop-opacity="0"/>
    </linearGradient>
    <linearGradient id="linear-gradient-5" x1="0.5" y1="0.009" x2="0.5" y2="1.017" gradientUnits="objectBoundingBox">
      <stop offset="0.22" stop-color="#aa002a"/>
      <stop offset="1" stop-color="#cd212a"/>
    </linearGradient>
    <linearGradient id="linear-gradient-6" x1="0.527" y1="0.39" x2="0.465" y2="0.61" gradientUnits="objectBoundingBox">
      <stop offset="0" stop-color="#100d57"/>
      <stop offset="1" stop-color="#4f58ff"/>
    </linearGradient>
    <linearGradient id="linear-gradient-7" x1="0.5" y1="0.496" x2="0.497" y2="0.511" xlink:href="#linear-gradient-6"/>
    <linearGradient id="linear-gradient-8" x1="0.707" y1="-0.217" x2="0.3" y2="1.219" xlink:href="#linear-gradient-6"/>
    <linearGradient id="linear-gradient-9" x1="0.671" y1="-0.323" x2="0.327" y2="1.327" xlink:href="#linear-gradient-6"/>
    <linearGradient id="linear-gradient-10" x1="0.535" y1="0.39" x2="0.472" y2="0.612" xlink:href="#linear-gradient-6"/>
    <linearGradient id="linear-gradient-11" x1="0.698" y1="-0.217" x2="0.288" y2="1.23" xlink:href="#linear-gradient-6"/>
    <linearGradient id="linear-gradient-13" x1="0.671" y1="-0.323" x2="0.324" y2="1.338" xlink:href="#linear-gradient-6"/>
    <linearGradient id="linear-gradient-18" x1="-0.001" y1="0.5" x2="0.999" y2="0.5" gradientUnits="objectBoundingBox">
      <stop offset="0" stop-color="#7f0011"/>
      <stop offset="1" stop-color="#cd212a"/>
    </linearGradient>
    <linearGradient id="linear-gradient-19" x1="0.706" y1="0.044" x2="0.291" y2="0.955" xlink:href="#linear-gradient-6"/>
    <radialGradient id="radial-gradient-3" cx="0.664" cy="0.47" r="0.555" gradientTransform="translate(-0.185) scale(1.37 1)" gradientUnits="objectBoundingBox">
      <stop offset="0.22" stop-color="#880014"/>
      <stop offset="1" stop-color="#cd212a"/>
    </radialGradient>
    <linearGradient id="linear-gradient-20" x1="0.496" y1="0.821" x2="0.513" y2="-0.394" gradientUnits="objectBoundingBox">
      <stop offset="0.22" stop-color="#ff152f" stop-opacity="0"/>
      <stop offset="1" stop-color="#ff5584"/>
    </linearGradient>
  </defs>
  <g id="Artboard_2" data-name="Artboard 2" transform="translate(-115.97 -13.12)">
    <g id="Designed_by_Freepik" data-name="Designed by Freepik" transform="translate(123.846 13.12)">
      <g id="Group_5841" data-name="Group 5841" transform="translate(0 37.517)" opacity="0.5">
        <path id="Path_4595" data-name="Path 4595" d="M713.693,371.7c0,3.284-12.932,5.946-29.92,5.946S653,374.979,653,371.7s13.775-5.945,30.769-5.945S713.693,368.412,713.693,371.7Z" transform="translate(-603.741 -365.75)" fill="url(#radial-gradient)"/>
        <path id="Path_4596" data-name="Path 4596" d="M190,371.7c0,3.284,14.615,5.946,31.607,5.946s30.766-2.66,30.766-5.946-13.773-5.945-30.765-5.945S190,368.412,190,371.7Z" transform="translate(-190 -365.75)" fill="url(#radial-gradient-2)"/>
      </g>
      <path id="Path_4597" data-name="Path 4597" d="M502.812,49.945a8.881,8.881,0,0,1-2.854-.7c-.455-.278.077-.492,1.17-.492a5.826,5.826,0,0,1,2.843.688c.479.369-.036.616-1.154.506Zm7.086,1.97a5.558,5.558,0,0,1,2.5,1.015c.572.532.189.87-.958.648a10,10,0,0,1-3.184-1.213c-.483-.352-.261-.575.48-.567a7.008,7.008,0,0,1-2.382-.873c-.5-.419-.012-.729,1.108-.682a4.8,4.8,0,0,1,2.873.9c.448.409.262.739-.432.773Zm4.247.193c.638-.128.8-.559.379-1.031a3.552,3.552,0,0,0-2.723-.9c-1.064.027-1.522.456-1.03.966a4.9,4.9,0,0,0,2.3.951c-.7.079-.905.419-.443.858a6.046,6.046,0,0,0,2.979,1.213c1.042.1,1.395-.415.863-1.022a3.949,3.949,0,0,0-2.321-1.033Zm3.965-.149a3.1,3.1,0,0,1,2.183,1.055c.472.681.119,1.3-.851,1.309a4.136,4.136,0,0,1-2.754-1.18c-.434-.51-.237-.952.426-1.115a3.661,3.661,0,0,1-2.161-.981c-.474-.589-.057-1.135.957-1.234a2.909,2.909,0,0,1,2.6.9.741.741,0,0,1-.394,1.246Zm3.751-.434a.915.915,0,0,0,.426-1.41,2.441,2.441,0,0,0-2.459-.906c-.958.167-1.371.812-.922,1.459a2.884,2.884,0,0,0,2.021.993A.816.816,0,0,0,520.48,53a3.049,3.049,0,0,0,2.532,1.133.977.977,0,0,0,.851-1.534,2.46,2.46,0,0,0-2.015-1.07Zm3.561-.685a2,2,0,0,1,1.846,1.064,1.206,1.206,0,0,1-.894,1.736,2.334,2.334,0,0,1-2.305-1.084,1.044,1.044,0,0,1,.5-1.525,2.315,2.315,0,0,1-1.886-.989c-.41-.7.013-1.421.917-1.653a2.072,2.072,0,0,1,2.311.9,1.125,1.125,0,0,1-.489,1.55Zm3.4-.9a1.363,1.363,0,0,0,.568-1.667,1.764,1.764,0,0,0-2.164-.884,1.3,1.3,0,0,0-.938,1.809,1.863,1.863,0,0,0,1.734.981,1.31,1.31,0,0,0-.57,1.687,1.811,1.811,0,0,0,2.075,1.029,1.489,1.489,0,0,0,.963-1.9,1.613,1.613,0,0,0-1.667-1.054Zm3.25-1.114a1.317,1.317,0,0,1,1.49,1.029A1.863,1.863,0,0,1,532.5,51.9a1.4,1.4,0,0,1-1.83-.958,1.632,1.632,0,0,1,.638-1.828,1.512,1.512,0,1,1,1.416-2.061,1.654,1.654,0,0,1-.656,1.768Zm3.13-1.329a2.038,2.038,0,0,0,.731-1.858,1.248,1.248,0,0,0-1.825-.781,1.771,1.771,0,0,0-1.038,2.058,1.218,1.218,0,0,0,1.376.927,2.071,2.071,0,0,0-.724,1.942,1.093,1.093,0,0,0,1.6.878,2.351,2.351,0,0,0,1.133-2.193,1.016,1.016,0,0,0-1.246-.972Zm2.967-1.535c.589-.151,1.038.178,1.017.886a3.185,3.185,0,0,1-1.231,2.341c-.667.417-1.277.05-1.345-.8a2.553,2.553,0,0,1,.831-2.021.986.986,0,0,1-1.2-.882,2.062,2.062,0,0,1,1.118-2.142c.8-.387,1.519-.106,1.617.684a2.566,2.566,0,0,1-.812,1.941ZM541,44.186c.5-.532.88-.784.91-1.436-.021-.783-.667-1.036-1.411-.565-.762.436-1.286.856-1.191,1.647.039.662.47.986.995.825a3.292,3.292,0,0,0-.958,2.09c-.032.851.471,1.191,1.085.7a4.559,4.559,0,0,0,1.334-2.46c.106-.7-.244-1-.76-.8Zm2.586-1.461c.483-.277.735-.05.523.648a5.385,5.385,0,0,1-1.445,2c-.553.581-.914.342-.769-.5.121-.715.554-1.038,1.087-1.635-.478.243-.821-.026-.785-.687a3.226,3.226,0,0,1,1.26-2.325c.709-.516,1.25-.33,1.178.426a4.815,4.815,0,0,1-1.049,2.073Zm2.447-2.468a9.416,9.416,0,0,0,1.064-2.1c.17-.725-.237-.8-.867-.165a4.375,4.375,0,0,0-1.332,2.409c-.119.62.106.851.489.589a8.119,8.119,0,0,0-1.149,2.242c-.261.821-.042.984.426.28a28.865,28.865,0,0,0,1.508-2.766c.3-.618.2-.782-.128-.495ZM506.845,52.492c1.265.371,1.75.26,1.148-.168a9.265,9.265,0,0,0-2.726-1.016c.8.091,1.064-.085.6-.416a7.067,7.067,0,0,0-3.026-.92c-1.186-.128-1.746.026-1.259.319a14,14,0,0,0,2.478.78c-.8-.113-1.071-.038-.584.2a26.965,26.965,0,0,0,3.372,1.215ZM490.355,31.908c-.053.312-.106.435-.114.278a2.825,2.825,0,0,1,0-.833c.041-.319.123-.462.174-.307a3.632,3.632,0,0,1-.057.863Zm1.237-3.661c-.117.231-.259.281-.313.106a1,1,0,0,1,.042-.713c.1-.232.27-.3.361-.136a1.082,1.082,0,0,1-.089.745Zm1.758-2.979c-.142.2-.319.223-.414.039a.668.668,0,0,1,.028-.681c.135-.2.335-.235.455-.06A.688.688,0,0,1,493.349,25.268Zm2.128-2.519a.313.313,0,0,1-.513-.011.514.514,0,0,1,.014-.638.4.4,0,0,1,.577.037.483.483,0,0,1-.078.616Zm2.447-2.087a.464.464,0,0,1-.616-.094.361.361,0,0,1,.02-.559.526.526,0,0,1,.656.069.388.388,0,0,1-.061.583Zm2.679-1.8a.609.609,0,0,1-.7-.117c-.19-.183-.182-.405.011-.521a.666.666,0,0,1,.72.1A.324.324,0,0,1,500.6,18.865Zm2.883-1.512a.753.753,0,0,1-.754-.137c-.22-.168-.227-.375-.01-.478a.813.813,0,0,1,.776.119C503.717,17.027,503.7,17.249,503.486,17.353Zm3.053-1.267a1,1,0,0,1-.827-.139c-.234-.156-.24-.35-.017-.433a1.069,1.069,0,0,1,.835.129C506.769,15.8,506.766,16,506.54,16.086Zm3.217-1.026a1.256,1.256,0,0,1-.874-.138c-.246-.154-.265-.319-.031-.387a1.338,1.338,0,0,1,.881.137c.254.144.263.319.024.388Zm3.385-.783a1.636,1.636,0,0,1-.925-.142c-.269-.137-.286-.282-.045-.329a1.791,1.791,0,0,1,.942.137C513.383,14.077,513.389,14.224,513.143,14.277Zm3.545-.555a2.349,2.349,0,0,1-.976-.144c-.285-.117-.3-.234-.036-.262a2.8,2.8,0,0,1,.993.163C516.952,13.592,516.956,13.692,516.688,13.722Zm3.731-.28a3.83,3.83,0,0,1-1.038-.157c-.29-.094-.3-.166-.02-.165a4.29,4.29,0,0,1,1.034.159C520.694,13.367,520.7,13.438,520.419,13.442Zm3.925,0a7.4,7.4,0,0,1-1.084-.144c-.3-.071-.306-.106-.014-.088a9.5,9.5,0,0,1,1.077.146C524.634,13.416,524.641,13.456,524.343,13.442ZM490.617,33.906c-.112.347-.213.479-.245.3a3.966,3.966,0,0,1,.144-.975c.094-.362.213-.471.246-.279a2.566,2.566,0,0,1-.145.958Zm1.737-3.457c-.178.263-.374.307-.449.106a1.192,1.192,0,0,1,.192-.864c.171-.271.356-.309.432-.106a1.127,1.127,0,0,1-.174.856Zm2.2-2.873c-.2.228-.448.239-.557.028a.863.863,0,0,1,.152-.821c.185-.231.432-.25.551-.032A.8.8,0,0,1,494.558,27.576Zm2.524-2.473a.43.43,0,0,1-.669-.028.654.654,0,0,1,.134-.787.452.452,0,0,1,.683.078A.554.554,0,0,1,497.082,25.1Zm2.793-2.1a.59.59,0,0,1-.775-.115.488.488,0,0,1,.128-.705.579.579,0,0,1,.77.116.466.466,0,0,1-.123.7Zm2.995-1.838a.726.726,0,0,1-.851-.135.416.416,0,0,1,.106-.669.745.745,0,0,1,.851.138.409.409,0,0,1-.106.666Zm3.17-1.6a.912.912,0,0,1-.926-.159.359.359,0,0,1,.087-.627.908.908,0,0,1,.909.166A.345.345,0,0,1,506.04,19.567Zm3.311-1.383a1.085,1.085,0,0,1-.979-.173c-.252-.205-.221-.463.059-.569a1.089,1.089,0,0,1,.98.169C509.672,17.81,509.645,18.071,509.351,18.184Zm3.466-1.2a1.313,1.313,0,0,1-1.041-.176c-.266-.194-.25-.426.048-.519a1.383,1.383,0,0,1,1.033.177C513.135,16.657,513.116,16.9,512.817,16.988Zm3.6-.977a1.618,1.618,0,0,1-1.1-.176c-.284-.178-.269-.384.038-.466a1.736,1.736,0,0,1,1.1.184c.295.171.281.368-.036.453Zm3.74-.777a2.093,2.093,0,0,1-1.141-.183c-.307-.16-.3-.334.03-.39a2.378,2.378,0,0,1,1.151.2c.306.156.294.319-.035.374Zm3.892-.553a2.872,2.872,0,0,1-1.2-.192c-.319-.136-.3-.265.043-.289a3.345,3.345,0,0,1,1.206.183c.319.132.3.26-.047.294Zm4.049-.319a4.167,4.167,0,0,1-1.243-.165c-.331-.112-.312-.2.042-.213a5.076,5.076,0,0,1,1.245.168c.334.106.319.193-.044.213ZM491.039,35.774c-.18.373-.364.513-.4.319a2.4,2.4,0,0,1,.218-1.047c.164-.383.363-.5.426-.3a1.839,1.839,0,0,1-.242,1.021Zm2.2-3.231c-.25.286-.532.331-.619.106a1.13,1.13,0,0,1,.255-.933c.229-.295.515-.339.62-.106a.982.982,0,0,1-.256.932Zm2.593-2.723c-.268.256-.59.265-.725.022a.841.841,0,0,1,.23-.905c.259-.267.578-.284.726-.036a.818.818,0,0,1-.231.919Zm2.873-2.388c-.3.221-.661.221-.823-.032a.721.721,0,0,1,.193-.89.609.609,0,0,1,.862.081A.621.621,0,0,1,498.707,27.432Zm3.107-2.064a.742.742,0,0,1-.945-.129.547.547,0,0,1,.194-.813.756.756,0,0,1,.952.12A.546.546,0,0,1,501.814,25.368Zm3.268-1.858a.88.88,0,0,1-1.021-.156.485.485,0,0,1,.167-.781.892.892,0,0,1,1.021.156A.477.477,0,0,1,505.082,23.51Zm3.411-1.652a1.055,1.055,0,0,1-1.092-.182.432.432,0,0,1,.157-.745,1.043,1.043,0,0,1,1.085.183.429.429,0,0,1-.151.745Zm3.531-1.478a1.205,1.205,0,0,1-1.144-.194.386.386,0,0,1,.132-.7,1.227,1.227,0,0,1,1.143.194C512.443,19.926,512.38,20.239,512.024,20.38Zm3.659-1.3a1.427,1.427,0,0,1-1.2-.2c-.295-.24-.236-.532.116-.66a1.466,1.466,0,0,1,1.2.213c.305.234.245.525-.119.651Zm3.773-1.141a1.627,1.627,0,0,1-1.246-.2c-.313-.223-.267-.484.1-.6a1.8,1.8,0,0,1,1.277.213c.319.205.25.471-.124.583Zm3.891-.969a1.977,1.977,0,0,1-1.3-.205c-.335-.2-.286-.44.1-.522a2.225,2.225,0,0,1,1.318.223C523.8,16.661,523.739,16.878,523.347,16.967Zm4.01-.785A2.478,2.478,0,0,1,526,15.969c-.342-.183-.285-.371.119-.426a2.773,2.773,0,0,1,1.363.213C527.829,15.931,527.766,16.118,527.356,16.182Zm4.149-.6a3.234,3.234,0,0,1-1.4-.186c-.349-.155-.285-.306.13-.346a3.488,3.488,0,0,1,1.383.185C531.979,15.375,531.923,15.532,531.506,15.582ZM491.637,37.524a1.448,1.448,0,0,0,.33-1.055c-.089-.22-.38-.124-.614.281a1.843,1.843,0,0,0-.313,1.1C491.107,38.066,491.376,37.911,491.637,37.524Zm2.621-2.967c-.319.3-.692.349-.82.106a1.075,1.075,0,0,1,.36-1c.309-.311.658-.361.79-.106a.928.928,0,0,1-.33.995Zm2.96-2.541c-.345.281-.768.278-.934.013a.863.863,0,0,1,.31-1c.322-.28.73-.3.909-.019A.811.811,0,0,1,497.218,32.016Zm3.168-2.27a.743.743,0,0,1-1.021-.057.8.8,0,0,1,1.311-.873.666.666,0,0,1-.289.935Zm3.362-2.005a.924.924,0,0,1-1.132-.148.625.625,0,0,1,.282-.926.9.9,0,0,1,1.115.147.609.609,0,0,1-.265.927Zm3.494-1.838a1.034,1.034,0,0,1-1.194-.183.572.572,0,0,1,.248-.905,1.026,1.026,0,0,1,1.185.194A.552.552,0,0,1,507.242,25.9Zm3.617-1.676a1.188,1.188,0,0,1-1.265-.213.518.518,0,0,1,.236-.872,1.186,1.186,0,0,1,1.254.213.511.511,0,0,1-.226.866Zm3.715-1.535a1.324,1.324,0,0,1-1.317-.219c-.3-.3-.2-.67.213-.837a1.34,1.34,0,0,1,1.3.23C515.081,22.153,515,22.521,514.575,22.691Zm3.807-1.392a1.5,1.5,0,0,1-1.363-.231c-.317-.283-.229-.638.2-.793a1.52,1.52,0,0,1,1.36.233C518.9,20.785,518.807,21.143,518.381,21.3Zm3.9-1.261a1.684,1.684,0,0,1-1.408-.236c-.332-.271-.244-.6.2-.745a1.713,1.713,0,0,1,1.406.253c.343.265.246.583-.2.722Zm3.992-1.134a1.918,1.918,0,0,1-1.452-.24c-.347-.261-.261-.55.2-.67a2.142,2.142,0,0,1,1.457.256C526.833,18.491,526.737,18.782,526.276,18.9Zm4.086-.986a2.249,2.249,0,0,1-1.489-.233c-.35-.233-.26-.5.205-.586a2.456,2.456,0,0,1,1.49.237c.359.219.258.483-.213.582Zm4.183-.851a2.589,2.589,0,0,1-1.521-.213c-.356-.206-.249-.426.226-.5a2.873,2.873,0,0,1,1.512.206c.361.188.265.417-.213.505ZM492.38,39.184c-.345.384-.7.521-.81.309s.106-.726.426-1.131.686-.494.807-.255-.083.7-.426,1.079Zm3-2.678c-.415.3-.86.338-1.016.084s.056-.737.446-1.053.818-.355.986-.083S495.8,36.2,495.384,36.506Zm3.265-2.333a.834.834,0,0,1-1.126-.015c-.2-.285,0-.775.4-1.064s.884-.292,1.088.01a.8.8,0,0,1-.367,1.071Zm3.432-2.128a.957.957,0,0,1-1.219-.087.794.794,0,0,1,.381-1.064.945.945,0,0,1,1.212.132c.243.323.072.768-.373,1.025Zm3.584-1.92a1.111,1.111,0,0,1-1.312-.172c-.262-.329-.08-.8.363-1.032A1.065,1.065,0,0,1,506,29.1a.67.67,0,0,1-.336,1.022Zm3.681-1.787a1.238,1.238,0,0,1-1.371-.213c-.289-.331-.127-.8.334-1.017a1.189,1.189,0,0,1,1.354.224c.29.339.157.793-.319,1.011Zm3.779-1.674a1.358,1.358,0,0,1-1.434-.24c-.309-.337-.15-.79.329-.995a1.29,1.29,0,0,1,1.4.251C513.733,26.025,513.605,26.46,513.125,26.664Zm3.848-1.558a1.467,1.467,0,0,1-1.479-.261c-.325-.333-.177-.775.31-.966a1.419,1.419,0,0,1,1.449.263C517.58,24.479,517.466,24.91,516.974,25.106Zm3.918-1.459a1.567,1.567,0,0,1-1.514-.277c-.337-.336-.195-.745.295-.927a1.551,1.551,0,0,1,1.5.279C521.5,23.054,521.383,23.468,520.892,23.647Zm3.988-1.361a1.724,1.724,0,0,1-1.548-.272c-.347-.315-.213-.72.29-.884a1.719,1.719,0,0,1,1.538.293C525.52,21.735,525.387,22.116,524.88,22.287Zm4.053-1.265a1.858,1.858,0,0,1-1.571-.268c-.349-.3-.222-.675.294-.828a1.966,1.966,0,0,1,1.568.29C529.57,20.507,529.451,20.869,528.933,21.022Zm4.121-1.162a2.11,2.11,0,0,1-1.61-.256c-.361-.279-.213-.628.319-.755a2.125,2.125,0,0,1,1.6.273C533.708,19.395,533.586,19.725,533.054,19.86Zm4.182-1.064a2.266,2.266,0,0,1-1.615-.234c-.356-.253-.2-.553.338-.668a2.328,2.328,0,0,1,1.6.226C537.911,18.365,537.768,18.665,537.236,18.8ZM493.25,40.769c.434-.369.7-.82.532-1.075-.139-.257-.625-.2-1.032.2s-.647.911-.532,1.148c.135.213.6.1,1.03-.273Zm3.341-2.357c-.492.3-1.039.319-1.228.049-.167-.283.081-.782.548-1.1s1-.34,1.192-.037S497.082,38.117,496.591,38.412Zm3.538-2.112a1.058,1.058,0,0,1-1.322-.054c-.226-.311.012-.828.5-1.128a.962.962,0,0,1,1.284.062C500.816,35.515,500.628,36.013,500.129,36.3Zm3.66-1.962a1.174,1.174,0,0,1-1.409-.122c-.261-.342-.033-.864.464-1.152a1.12,1.12,0,0,1,1.391.174C504.514,33.594,504.307,34.076,503.789,34.339Zm3.76-1.8a1.3,1.3,0,0,1-1.489-.213c-.27-.37-.073-.877.449-1.127a1.221,1.221,0,0,1,1.461.23c.3.364.106.867-.426,1.113Zm3.83-1.724a1.379,1.379,0,0,1-1.537-.257c-.31-.376-.106-.886.426-1.13a1.314,1.314,0,0,1,1.518.273c.319.375.132.878-.4,1.114Zm3.9-1.639a1.478,1.478,0,0,1-1.587-.283c-.33-.381-.135-.889.416-1.12a1.409,1.409,0,0,1,1.553.3C515.986,28.465,515.832,28.945,515.28,29.172Zm3.944-1.563a1.546,1.546,0,0,1-1.621-.3c-.345-.387-.156-.886.4-1.1a1.49,1.49,0,0,1,1.6.319c.334.395.181.869-.371,1.089Zm3.989-1.5a1.6,1.6,0,0,1-1.642-.311c-.343-.382-.174-.869.382-1.079a1.593,1.593,0,0,1,1.632.334C523.93,25.441,523.773,25.906,523.213,26.11Zm4.027-1.433a1.689,1.689,0,0,1-1.662-.319c-.352-.376-.174-.835.387-1.037a1.721,1.721,0,0,1,1.669.332c.351.367.172.817-.395,1.016Zm4.079-1.378a1.78,1.78,0,0,1-1.676-.3c-.352-.359-.175-.8.4-.987a1.812,1.812,0,0,1,1.678.326C532.068,22.688,531.893,23.108,531.318,23.3Zm4.118-1.317a1.867,1.867,0,0,1-1.686-.284c-.346-.342-.169-.759.411-.926a1.987,1.987,0,0,1,1.7.3c.356.328.157.728-.426.905Zm4.149-1.266a1.983,1.983,0,0,1-1.688-.253c-.346-.307-.141-.69.439-.851a2.058,2.058,0,0,1,1.681.238c.339.3.143.688-.432.864ZM494.23,42.286c-.532.338-1.091.432-1.244.2s.139-.745.638-1.123,1.093-.415,1.268-.139-.127.721-.662,1.064Zm3.653-2.021c-.584.284-1.232.283-1.434-.014s.074-.8.638-1.113,1.177-.319,1.4.018-.018.825-.6,1.109Zm3.766-1.858a1.313,1.313,0,0,1-1.517-.118c-.247-.331.021-.865.587-1.164a1.2,1.2,0,0,1,1.49.113c.259.365.022.89-.559,1.17Zm3.841-1.776a1.375,1.375,0,0,1-1.588-.187c-.281-.377-.022-.917.56-1.205a1.317,1.317,0,0,1,1.57.221c.294.4.051.9-.542,1.17Zm3.9-1.672a1.47,1.47,0,0,1-1.646-.27c-.306-.4-.066-.952.532-1.209a1.4,1.4,0,0,1,1.628.274c.309.419.085.958-.516,1.2Zm3.952-1.637a1.536,1.536,0,0,1-1.7-.313c-.325-.419-.083-.966.517-1.222a1.464,1.464,0,0,1,1.677.319c.326.419.106.964-.495,1.214Zm3.979-1.6a1.588,1.588,0,0,1-1.728-.332c-.335-.426-.106-.987.5-1.233a1.522,1.522,0,0,1,1.7.343c.341.438.135.981-.473,1.222Zm4-1.548a1.617,1.617,0,0,1-1.749-.353c-.332-.436-.113-.985.492-1.227a1.587,1.587,0,0,1,1.732.357C522.143,29.392,521.933,29.938,521.32,30.178Zm4.026-1.518a1.655,1.655,0,0,1-1.758-.362c-.348-.429-.131-.978.484-1.212a1.621,1.621,0,0,1,1.746.382c.345.438.144.958-.472,1.192Zm4.036-1.489a1.671,1.671,0,0,1-1.755-.357c-.351-.423-.123-.958.488-1.181a1.7,1.7,0,0,1,1.762.372c.347.423.129.939-.495,1.17Zm4.068-1.466a1.728,1.728,0,0,1-1.766-.338c-.346-.407-.118-.928.505-1.147a1.717,1.717,0,0,1,1.758.357c.34.409.128.906-.5,1.128Zm4.064-1.445a1.73,1.73,0,0,1-1.745-.312c-.334-.393-.113-.9.52-1.1a1.772,1.772,0,0,1,1.752.332c.327.389.106.86-.532,1.078Zm4.069-1.446a1.735,1.735,0,0,1-1.736-.274c-.326-.368-.069-.83.565-1.029a1.746,1.746,0,0,1,1.7.251c.307.357.087.826-.532,1.052ZM495.329,43.19c.638-.3,1.023-.169.8-.457s-.912-.287-1.525.051-.929.262-.745.506.832.2,1.468-.1Zm3.911-1.109c-.674.255-1.388.222-1.626-.088s.082-.83.729-1.121,1.368-.263,1.62.09S499.913,41.828,499.24,42.082Zm3.968-1.584a1.546,1.546,0,0,1-1.7-.213c-.273-.373.031-.9.682-1.182a1.429,1.429,0,0,1,1.689.181c.288.4,0,.942-.667,1.21Zm3.99-1.569a1.584,1.584,0,0,1-1.75-.276c-.3-.406-.024-.969.633-1.25a1.534,1.534,0,0,1,1.757.281c.317.426.024.988-.638,1.247Zm4.007-1.532a1.635,1.635,0,0,1-1.8-.336c-.328-.436-.051-1.025.613-1.289a1.585,1.585,0,0,1,1.8.336C512.143,36.56,511.872,37.142,511.205,37.4Zm4.016-1.521a1.634,1.634,0,0,1-1.821-.384c-.332-.461-.065-1.046.6-1.316a1.577,1.577,0,0,1,1.809.377c.338.473.082,1.064-.586,1.324Zm4.022-1.524a1.644,1.644,0,0,1-1.836-.4c-.347-.476-.085-1.082.58-1.344a1.629,1.629,0,0,1,1.838.4C520.174,33.495,519.908,34.095,519.243,34.351Zm4.018-1.521a1.625,1.625,0,0,1-1.837-.415c-.348-.489-.093-1.085.567-1.345a1.638,1.638,0,0,1,1.845.418C524.183,31.978,523.931,32.571,523.261,32.83Zm4.011-1.53a1.629,1.629,0,0,1-1.837-.411c-.348-.488-.088-1.091.584-1.348a1.649,1.649,0,0,1,1.851.433C528.216,30.464,527.939,31.038,527.272,31.3Zm4.016-1.522a1.626,1.626,0,0,1-1.827-.4c-.344-.481-.078-1.079.588-1.332a1.65,1.65,0,0,1,1.842.419C532.23,28.944,531.961,29.525,531.289,29.778Zm4.009-1.535a1.59,1.59,0,0,1-1.809-.382c-.33-.471-.057-1.058.617-1.306a1.627,1.627,0,0,1,1.814.394C536.244,27.411,535.966,27.982,535.3,28.242Zm3.984-1.562a1.554,1.554,0,0,1-1.769-.33c-.318-.448-.039-1.039.632-1.277a1.619,1.619,0,0,1,1.782.348c.293.438.022,1-.645,1.262Zm3.968-1.6a1.529,1.529,0,0,1-1.757-.293c-.3-.43.021-.964.694-1.218a1.5,1.5,0,0,1,1.7.255c.276.407.011.98-.638,1.255ZM496.576,44.6c-.739.25-1.514.252-1.737,0s.156-.7.851-1a1.783,1.783,0,0,1,1.777.055c.252.3-.152.7-.891.951Zm4.129-1.308c.755-.219,1.093-.161.8-.532a1.776,1.776,0,0,0-1.837-.168c-.729.266-1.093.182-.822.514a2.011,2.011,0,0,0,1.861.185Zm4.122-.738a1.916,1.916,0,0,1-1.915-.29c-.306-.392.035-.923.776-1.183a1.716,1.716,0,0,1,1.882.26c.329.424,0,.975-.738,1.214Zm4.1-1.348a1.868,1.868,0,0,1-1.943-.355c-.327-.436-.007-1,.709-1.277a1.764,1.764,0,0,1,1.934.349c.349.464.034,1.032-.7,1.277ZM513,39.837a1.84,1.84,0,0,1-1.964-.412c-.345-.472-.039-1.077.686-1.337a1.781,1.781,0,0,1,1.96.4C514.034,38.987,513.732,39.586,513,39.837Zm4.053-1.409a1.8,1.8,0,0,1-1.971-.449c-.357-.5-.053-1.11.665-1.383a1.743,1.743,0,0,1,1.962.438c.353.513.069,1.135-.655,1.4Zm4.026-1.436a1.755,1.755,0,0,1-1.963-.46c-.357-.517-.067-1.163.66-1.436a1.7,1.7,0,0,1,1.952.461C522.082,36.088,521.8,36.727,521.076,36.992Zm3.992-1.479a1.707,1.707,0,0,1-1.948-.462c-.363-.53-.058-1.191.668-1.464a1.672,1.672,0,0,1,1.931.469.989.989,0,0,1-.651,1.457Zm3.969-1.5a1.635,1.635,0,0,1-1.915-.468c-.343-.536-.048-1.194.676-1.479a1.653,1.653,0,0,1,1.931.486c.345.533.028,1.182-.688,1.461Zm3.947-1.547a1.6,1.6,0,0,1-1.887-.452c-.337-.529-.024-1.195.694-1.475a1.578,1.578,0,0,1,1.885.462C534,31.533,533.694,32.185,532.985,32.464Zm3.914-1.6a1.513,1.513,0,0,1-1.848-.426c-.316-.526.005-1.182.722-1.466a1.53,1.53,0,0,1,1.846.426C537.924,29.916,537.6,30.572,536.9,30.868Zm3.863-1.66a1.416,1.416,0,0,1-1.783-.361c-.294-.507.039-1.17.745-1.454a1.47,1.47,0,0,1,1.8.38c.277.494-.061,1.133-.756,1.435Zm3.809-1.752a1.329,1.329,0,0,1-1.729-.3c-.274-.482.092-1.109.8-1.409a1.288,1.288,0,0,1,1.682.26c.239.463-.081,1.116-.756,1.452ZM497.937,45.982c.835-.176,1.288-.551.973-.872a2.437,2.437,0,0,0-2.053-.182c-.8.249-1.22.665-.946.918a2.934,2.934,0,0,0,2.021.136Zm4.311-.928a2.611,2.611,0,0,1-2.1-.3c-.323-.348.06-.82.886-1.038a2.3,2.3,0,0,1,2.082.274c.35.389-.029.9-.871,1.064Zm4.241-1.013c.81-.206,1.164-.2.795-.651a2.076,2.076,0,0,0-2.094-.352c-.807.234-1.192.189-.834.6a2.381,2.381,0,0,0,2.133.4Zm4.156-.547a2.173,2.173,0,0,1-2.119-.459c-.368-.467-.015-1.039.781-1.292a2.036,2.036,0,0,1,2.11.434c.379.495.026,1.092-.771,1.316ZM514.75,42.3a2.073,2.073,0,0,1-2.114-.5c-.385-.5-.033-1.121.755-1.383a1.942,1.942,0,0,1,2.095.477c.379.527.045,1.17-.736,1.409Zm4.043-1.277a1.935,1.935,0,0,1-2.094-.532c-.379-.543-.037-1.185.738-1.455a1.866,1.866,0,0,1,2.082.5c.369.554.047,1.226-.727,1.484Zm3.985-1.347a1.818,1.818,0,0,1-2.055-.54c-.378-.569-.037-1.233.738-1.521a1.762,1.762,0,0,1,2.049.532c.366.576.029,1.262-.733,1.533Zm3.936-1.41a1.718,1.718,0,0,1-2.012-.537c-.362-.578-.032-1.283.745-1.574a1.694,1.694,0,0,1,2.014.532,1.106,1.106,0,0,1-.745,1.576Zm3.884-1.489a1.61,1.61,0,0,1-1.96-.532,1.129,1.129,0,0,1,.763-1.6,1.623,1.623,0,0,1,1.976.539,1.154,1.154,0,0,1-.779,1.589Zm3.841-1.543a1.516,1.516,0,0,1-1.9-.513,1.179,1.179,0,0,1,.795-1.611,1.521,1.521,0,0,1,1.915.5,1.226,1.226,0,0,1-.8,1.625Zm3.786-1.639a1.409,1.409,0,0,1-1.843-.475,1.225,1.225,0,0,1,.83-1.613,1.418,1.418,0,0,1,1.846.451A1.3,1.3,0,0,1,538.226,33.6Zm3.7-1.748a1.386,1.386,0,0,0,.885-1.625,1.3,1.3,0,0,0-1.766-.4,1.312,1.312,0,0,0-.858,1.635,1.242,1.242,0,0,0,1.737.387Zm3.617-1.887a1.584,1.584,0,0,0,.893-1.672c-.195-.518-.918-.623-1.624-.246a1.4,1.4,0,0,0-.91,1.608A1.106,1.106,0,0,0,545.541,29.962ZM499.412,47.33a4.129,4.129,0,0,1-2.3-.294c-.307-.271.179-.638,1.073-.817a3.049,3.049,0,0,1,2.274.346C500.819,46.9,500.351,47.238,499.412,47.33Zm4.459-.532c.92-.113,1.3-.595.914-1.016a2.633,2.633,0,0,0-2.254-.414c-.9.174-1.352.627-1,.995a3.323,3.323,0,0,0,2.341.435Zm4.312-.71a2.85,2.85,0,0,1-2.329-.527c-.37-.44.046-.958.929-1.156a2.316,2.316,0,0,1,2.249.48c.4.475.031,1.036-.851,1.2Zm4.191-.88c.86-.2,1.215-.81.818-1.337a2.222,2.222,0,0,0-2.241-.537c-.851.221-1.252.81-.871,1.309A2.507,2.507,0,0,0,512.373,45.209Zm4.079-1.005c.835-.223,1.2-.312.8-.882a2.068,2.068,0,0,0-2.209-.579c-.836.257-1.218.31-.836.863A2.261,2.261,0,0,0,516.452,44.2Zm4-1.129c.816-.254,1.181-.381.793-.981a1.9,1.9,0,0,0-2.16-.6c-.822.274-1.2.948-.818,1.534s1.369.3,2.185.044Zm3.912-.667a1.142,1.142,0,0,0,.808-1.626,1.8,1.8,0,0,0-2.108-.613c-.807.285-1.192,1.005-.823,1.615a1.869,1.869,0,0,0,2.128.623Zm3.83-1.348a1.231,1.231,0,0,0,.842-1.679,1.694,1.694,0,0,0-2.058-.614,1.221,1.221,0,0,0-.826,1.691A1.683,1.683,0,0,0,528.195,41.059Zm3.765-1.449a1.318,1.318,0,0,0,.878-1.718,1.57,1.57,0,0,0-1.995-.6A1.291,1.291,0,0,0,530,39.022,1.54,1.54,0,0,0,531.96,39.61Zm3.686-1.551a1.444,1.444,0,0,0,.911-1.768,1.429,1.429,0,0,0-1.9-.557,1.376,1.376,0,0,0-.888,1.763A1.4,1.4,0,0,0,535.646,38.059Zm3.611-1.671a1.6,1.6,0,0,0,.95-1.809,1.258,1.258,0,0,0-1.8-.483,1.484,1.484,0,0,0-.929,1.779,1.246,1.246,0,0,0,1.78.517Zm3.5-1.826c-.716.394-1.416.195-1.639-.419a1.616,1.616,0,0,1,.957-1.815c.752-.378,1.519-.188,1.7.416a1.78,1.78,0,0,1-1.015,1.818Zm3.381-2.01c-.677.452-1.344.274-1.514-.319a1.794,1.794,0,0,1,1.026-1.809c.705-.438,1.391-.327,1.517.24a2.151,2.151,0,0,1-1.029,1.89Zm-45.128,16.1c1.032.005,1.552-.286,1.149-.647a4.155,4.155,0,0,0-2.546-.517c-1,.1-1.513.395-1.136.669a5.609,5.609,0,0,0,2.533.495Zm4.565-.139a4.167,4.167,0,0,1-2.533-.6c-.405-.378.047-.8,1.044-.9a3.272,3.272,0,0,1,2.48.546c.418.449.005.918-.99.958Zm4.345-.394c.942-.113,1.341-.666.923-1.186a2.723,2.723,0,0,0-2.437-.593c-.958.146-1.383.638-.967,1.105A3.243,3.243,0,0,0,509.919,48.121ZM514.1,47.5a2.762,2.762,0,0,1-2.405-.7c-.414-.527-.014-1.105.9-1.3a2.463,2.463,0,0,1,2.383.644c.419.569.018,1.2-.882,1.36Zm4.029-.815a2.4,2.4,0,0,1-2.331-.725c-.416-.585-.019-1.218.877-1.444a2.23,2.23,0,0,1,2.334.671C519.394,45.805,519,46.482,518.126,46.683Zm3.907-.977a2.091,2.091,0,0,1-2.234-.73c-.391-.623,0-1.3.865-1.572a1.99,1.99,0,0,1,2.243.689c.382.647-.035,1.372-.872,1.613Zm3.8-1.125a1.858,1.858,0,0,1-2.144-.714c-.365-.651.015-.83.867-1.122a1.819,1.819,0,0,1,2.172.694C527.068,44.113,526.657,44.311,525.835,44.582Zm3.7-1.266c-.8.3-1.695.553-2.032-.123a1.3,1.3,0,0,1,.877-1.778,1.652,1.652,0,0,1,2.083.682C530.773,42.779,530.329,43.013,529.53,43.316Zm3.6-.834a1.363,1.363,0,1,1-1-2.513,1.493,1.493,0,0,1,1.987.656,1.546,1.546,0,0,1-.981,1.857Zm3.5-1.546a1.272,1.272,0,0,1-1.809-.629,1.564,1.564,0,0,1,.963-1.886,1.3,1.3,0,0,1,1.863.592,1.737,1.737,0,0,1-1.021,1.924Zm3.395-1.7a1.088,1.088,0,0,1-1.672-.569,1.709,1.709,0,0,1,1.022-1.924c.767-.393,1.542-.167,1.718.513a2,2,0,0,1-1.064,1.98Zm3.255-1.9c-.708.438-1.354.229-1.5-.447a1.968,1.968,0,0,1,1.064-1.983c.759-.421,1.46-.237,1.585.417a2.362,2.362,0,0,1-1.147,2.013Zm-35.854,12.87c1.058.035,1.463-.394.993-.871a4.053,4.053,0,0,0-2.726-.7c-1.064.03-1.521.4-1.048.787A5.592,5.592,0,0,0,507.423,50.211Zm4.341-.076a4.089,4.089,0,0,1-2.691-.835c-.478-.485-.051-.94.964-1.03a3.265,3.265,0,0,1,2.638.725C513.149,49.538,512.75,50.082,511.764,50.136Zm4.117-.366c.944-.118,1.313-.745.875-1.35a2.79,2.79,0,0,0-2.541-.755c-.972.15-1.383.711-.9,1.261A3.226,3.226,0,0,0,515.881,49.77Zm3.924-.613a2.635,2.635,0,0,1-2.439-.839c-.46-.606-.053-1.252.872-1.453a2.446,2.446,0,0,1,2.447.775c.4.656.018,1.346-.878,1.518Zm3.774-.816a1.152,1.152,0,0,0,.891-1.66,2.117,2.117,0,0,0-2.332-.783c-.9.251-1.293.958-.862,1.61A2.2,2.2,0,0,0,523.578,48.341Zm3.638-1a1.883,1.883,0,0,1-2.17-.812c-.4-.688.011-1.46.884-1.745a1.856,1.856,0,0,1,2.214.776A1.322,1.322,0,0,1,527.216,47.336Zm3.491-1.181a1.522,1.522,0,0,0,.988-1.882,1.622,1.622,0,0,0-2.086-.754,1.37,1.37,0,0,0-.906,1.859A1.564,1.564,0,0,0,530.707,46.156ZM534.1,44.8a1.345,1.345,0,0,1-1.861-.735c-.3-.731.129-1.039.958-1.383a1.415,1.415,0,0,1,1.952.716c.2.751-.271,1.064-1.047,1.4Zm3.259-1.527c.753-.374,1.243-.75,1.106-1.5a1.186,1.186,0,0,0-1.786-.632,1.741,1.741,0,0,0-1.018,2.012c.184.752.946.494,1.7.121Zm3.14-1.147a.936.936,0,0,1-1.53-.614,2,2,0,0,1,1.094-2.071c.763-.433,1.49-.186,1.61.532a2.575,2.575,0,0,1-1.17,2.148Zm2.965-1.958a3.225,3.225,0,0,0,1.255-2.2c-.044-.7-.677-.886-1.422-.426a2.4,2.4,0,0,0-1.143,2.15c.046.745.638.958,1.31.477Zm2.784-2.229c-.616.571-1.122.4-1.082-.319a2.978,2.978,0,0,1,1.218-2.209c.671-.57,1.195-.479,1.156.195a4.929,4.929,0,0,1-1.293,2.332Zm1.3-4.833c-.047-.627-.664-.72-1.361-.223a2.287,2.287,0,0,0-1.121,2.012c.076.656.669.833,1.326.319A3.068,3.068,0,0,0,547.541,33.109Z" transform="translate(-458.27 -13.12)" fill-rule="evenodd" fill="url(#linear-gradient)"/>
      <path id="Path_4598" data-name="Path 4598" d="M535.05,36.212a.247.247,0,0,1-.153.309.715.715,0,0,1-.553-.014Q534.689,36.354,535.05,36.212Zm-2.9,1.407a.307.307,0,0,1-.129.415.576.576,0,0,1-.541-.007Q531.8,37.813,532.147,37.618Zm-2.642,1.855a.377.377,0,0,1-.164.348.437.437,0,0,1-.319.073c.155-.143.319-.284.48-.426Zm-4.033,13.162c.226-.118.434-.093.532.095a.836.836,0,0,1-.149.792c-.139-.292-.268-.587-.382-.886Zm.951,1.934c.328-.19.65-.176.792.052a.754.754,0,0,1-.192.851c-.213-.294-.414-.595-.6-.9Zm1.277,1.763a.672.672,0,0,1,.814.151.608.608,0,0,1-.063.666C528.188,56.883,527.936,56.611,527.7,56.332Zm1.755,1.747a.606.606,0,0,1,.443.242.438.438,0,0,1,.079.186c-.178-.14-.352-.282-.521-.426Zm4.758,2.949a1.219,1.219,0,0,1,.881-.783,1.716,1.716,0,0,1,1.882.26c.329.425,0,.975-.738,1.214-.05.015-.1.03-.149.041q-.967-.329-1.876-.732Zm2.928,1.064a1.957,1.957,0,0,1,1.477.379Q537.868,62.3,537.141,62.092Zm5.339.376a2.6,2.6,0,0,1,1.369.065C543.389,62.523,542.932,62.5,542.48,62.468Zm3.019.052c-.136-.481.246-.4.958-.612a2.055,2.055,0,0,1,2.209.579c.062.088.106-.389.131-.3a26.547,26.547,0,0,1-3.3.332Zm4.511.01a1.352,1.352,0,0,1-.332-.333c-.383-.586-.009-1.267.818-1.534a1.912,1.912,0,0,1,2.16.6.906.906,0,0,1,.155.5,24.443,24.443,0,0,1-2.8.771ZM554,61.32a1.393,1.393,0,0,1-.345-.367c-.366-.61.006-1.327.823-1.615a1.774,1.774,0,0,1,2.108.613c.016.031.034.064.049.1A21.476,21.476,0,0,1,554,61.323Zm3.511-1.809a1.241,1.241,0,0,1,.882-1.575,1.906,1.906,0,0,1,1.252-.03,17.916,17.916,0,0,1-2.131,1.6Zm3.9-3.432a1.5,1.5,0,0,1-1.356-.655,1.136,1.136,0,0,1,.763-1.6,1.682,1.682,0,0,1,1.872.388,13.32,13.32,0,0,1-1.277,1.867Zm2.322-4.324a1.439,1.439,0,0,1-1.218-.577c-.334-.532-.024-1.195.694-1.475a1.879,1.879,0,0,1,.916-.106,10.5,10.5,0,0,1-.392,2.158Zm-.376-7a.988.988,0,0,1-.255-.213.6.6,0,0,1-.121-.625C563.118,44.191,563.244,44.471,563.358,44.753Zm-1.17-2.2a1.626,1.626,0,0,1-1.127-.388.523.523,0,0,1,.161-.885,13.728,13.728,0,0,1,.966,1.277Zm-1.965-2.332a1.837,1.837,0,0,1-1.45-.3c-.322-.28-.237-.627.2-.8A16.386,16.386,0,0,1,560.223,40.219ZM557.547,38.1a1.9,1.9,0,0,1-1.309-.269c-.261-.188-.278-.4-.076-.549q.717.386,1.383.818ZM547.8,34.685l.076.041c.295.171.281.368-.036.453a1.618,1.618,0,0,1-1.1-.176c-.251-.157-.269-.337-.057-.434C547.054,34.6,547.427,34.639,547.8,34.685ZM525.973,46.744c-.2.228-.448.239-.557.028a.861.861,0,0,1,.153-.821c.186-.231.431-.25.55-.032a.8.8,0,0,1-.146.826Zm2.524-2.473a.43.43,0,0,1-.669-.028.654.654,0,0,1,.134-.787.452.452,0,0,1,.683.078A.554.554,0,0,1,528.5,44.272Zm2.793-2.1a.59.59,0,0,1-.775-.115.488.488,0,0,1,.128-.705.579.579,0,0,1,.77.116.466.466,0,0,1-.123.7Zm2.995-1.838a.726.726,0,0,1-.851-.135.416.416,0,0,1,.106-.669.745.745,0,0,1,.851.138.409.409,0,0,1-.106.666Zm3.17-1.6a.912.912,0,0,1-.926-.159.358.358,0,0,1,.087-.627.907.907,0,0,1,.909.166A.345.345,0,0,1,537.455,38.735Zm3.311-1.383a1.085,1.085,0,0,1-.979-.173c-.252-.205-.221-.463.059-.569a1.089,1.089,0,0,1,.98.169C541.087,36.978,541.06,37.239,540.766,37.352Zm3.466-1.2a1.313,1.313,0,0,1-1.041-.176c-.266-.194-.25-.426.048-.519a1.383,1.383,0,0,1,1.033.177C544.55,35.825,544.531,36.064,544.232,36.156Zm-16.98,12.832c-.268.256-.592.265-.725.022a.843.843,0,0,1,.23-.905c.259-.267.578-.283.726-.036a.819.819,0,0,1-.231.919Zm2.873-2.388c-.3.221-.662.221-.823-.032a.723.723,0,0,1,.193-.89.61.61,0,0,1,.862.081A.622.622,0,0,1,530.125,46.6Zm3.107-2.064a.742.742,0,0,1-.945-.129.547.547,0,0,1,.194-.813.756.756,0,0,1,.952.12A.546.546,0,0,1,533.231,44.536Zm3.266-1.858a.88.88,0,0,1-1.021-.156.485.485,0,0,1,.167-.781.892.892,0,0,1,1.021.156A.477.477,0,0,1,536.5,42.678Zm3.411-1.652a1.055,1.055,0,0,1-1.092-.182.432.432,0,0,1,.157-.745,1.043,1.043,0,0,1,1.085.183.429.429,0,0,1-.151.745Zm3.531-1.478a1.205,1.205,0,0,1-1.144-.194.386.386,0,0,1,.132-.7,1.229,1.229,0,0,1,1.143.193A.382.382,0,0,1,543.439,39.548Zm3.659-1.3a1.427,1.427,0,0,1-1.2-.2c-.295-.24-.236-.532.116-.66a1.466,1.466,0,0,1,1.2.213c.305.234.245.525-.119.651Zm3.773-1.141a1.627,1.627,0,0,1-1.246-.2c-.313-.223-.267-.484.1-.6a1.8,1.8,0,0,1,1.277.213c.319.205.25.472-.124.583Zm-22.236,14.08c-.345.281-.768.279-.934.013a.863.863,0,0,1,.31-1c.322-.28.73-.3.909-.019A.811.811,0,0,1,528.635,51.184Zm3.168-2.27a.743.743,0,0,1-1.021-.057.8.8,0,0,1,1.311-.873.666.666,0,0,1-.289.935Zm3.362-2.005a.924.924,0,0,1-1.132-.148.625.625,0,0,1,.282-.926.9.9,0,0,1,1.115.147A.609.609,0,0,1,535.165,46.908Zm3.494-1.838a1.034,1.034,0,0,1-1.194-.183.572.572,0,0,1,.248-.905,1.026,1.026,0,0,1,1.185.194A.552.552,0,0,1,538.659,45.07Zm3.617-1.676a1.188,1.188,0,0,1-1.265-.213.518.518,0,0,1,.236-.872,1.186,1.186,0,0,1,1.254.213.511.511,0,0,1-.226.866Zm3.715-1.535a1.324,1.324,0,0,1-1.317-.219c-.3-.3-.2-.67.213-.837a1.34,1.34,0,0,1,1.3.23C546.5,41.321,546.416,41.689,545.992,41.859Zm3.8-1.392a1.5,1.5,0,0,1-1.363-.231c-.317-.283-.229-.638.2-.793a1.52,1.52,0,0,1,1.36.233C550.318,39.953,550.222,40.311,549.8,40.467Zm3.9-1.261a1.684,1.684,0,0,1-1.408-.236c-.332-.271-.246-.6.195-.745a1.72,1.72,0,0,1,1.409.253c.345.265.246.583-.2.722ZM530.064,53.341a.834.834,0,0,1-1.126-.015c-.2-.285,0-.775.4-1.064s.885-.293,1.089.01a.8.8,0,0,1-.367,1.071Zm3.432-2.128a.958.958,0,0,1-1.219-.087.794.794,0,0,1,.381-1.064.945.945,0,0,1,1.212.132c.243.323.072.768-.373,1.025Zm3.584-1.92a1.111,1.111,0,0,1-1.312-.172c-.262-.329-.08-.8.363-1.032a1.065,1.065,0,0,1,1.285.182A.67.67,0,0,1,537.08,49.292Zm3.681-1.788a1.227,1.227,0,0,1-1.371-.213c-.289-.332-.127-.8.334-1.017a1.189,1.189,0,0,1,1.354.224c.29.339.157.793-.319,1.01Zm3.779-1.672a1.358,1.358,0,0,1-1.433-.239c-.307-.336-.151-.792.328-1a1.29,1.29,0,0,1,1.4.251c.311.346.183.781-.3.984Zm3.848-1.558a1.467,1.467,0,0,1-1.479-.261c-.325-.333-.177-.775.31-.966a1.419,1.419,0,0,1,1.449.263C549,43.647,548.881,44.078,548.389,44.274Zm3.918-1.459a1.567,1.567,0,0,1-1.514-.277c-.337-.336-.195-.745.295-.927a1.552,1.552,0,0,1,1.5.279C552.922,42.222,552.8,42.636,552.307,42.815Zm3.988-1.361a1.724,1.724,0,0,1-1.548-.272c-.347-.315-.213-.72.29-.884a1.719,1.719,0,0,1,1.538.293C556.935,40.9,556.8,41.284,556.295,41.455ZM531.544,55.468a1.058,1.058,0,0,1-1.322-.054c-.226-.311.012-.828.5-1.128a.962.962,0,0,1,1.284.062C532.231,54.683,532.043,55.181,531.544,55.468Zm3.66-1.962a1.174,1.174,0,0,1-1.409-.122c-.261-.342-.033-.864.464-1.152a1.12,1.12,0,0,1,1.391.174C535.929,52.762,535.722,53.244,535.2,53.507Zm3.76-1.8a1.3,1.3,0,0,1-1.49-.213c-.27-.37-.073-.877.449-1.127a1.221,1.221,0,0,1,1.461.23c.3.364.106.867-.426,1.113Zm3.83-1.724a1.379,1.379,0,0,1-1.537-.257c-.31-.376-.106-.886.426-1.13a1.314,1.314,0,0,1,1.518.273c.319.374.132.878-.4,1.114Zm3.9-1.639a1.478,1.478,0,0,1-1.587-.283c-.33-.381-.135-.889.416-1.119a1.407,1.407,0,0,1,1.553.3C547.4,47.633,547.247,48.113,546.695,48.34Zm3.944-1.563a1.546,1.546,0,0,1-1.621-.3c-.345-.387-.156-.886.4-1.1a1.49,1.49,0,0,1,1.6.319c.334.395.181.869-.371,1.089Zm3.989-1.5a1.6,1.6,0,0,1-1.642-.311c-.343-.382-.174-.869.382-1.079a1.593,1.593,0,0,1,1.632.334C555.345,44.609,555.188,45.074,554.628,45.278Zm4.027-1.433a1.689,1.689,0,0,1-1.662-.319c-.352-.376-.174-.835.387-1.037a1.721,1.721,0,0,1,1.669.332c.351.367.172.817-.395,1.016ZM533.067,57.572a1.313,1.313,0,0,1-1.517-.118c-.247-.331.021-.865.587-1.164a1.2,1.2,0,0,1,1.49.113c.258.365.022.89-.559,1.17Zm3.841-1.776a1.375,1.375,0,0,1-1.588-.187c-.281-.377-.022-.917.56-1.205a1.317,1.317,0,0,1,1.57.221c.294.4.051.9-.542,1.17Zm3.9-1.671a1.47,1.47,0,0,1-1.646-.272c-.306-.4-.066-.951.532-1.208a1.4,1.4,0,0,1,1.628.274c.309.419.085.958-.516,1.205Zm3.95-1.635a1.536,1.536,0,0,1-1.7-.313c-.324-.419-.083-.966.517-1.222a1.464,1.464,0,0,1,1.677.319c.326.419.106.964-.495,1.214Zm3.979-1.6a1.588,1.588,0,0,1-1.728-.332c-.335-.426-.106-.987.5-1.233a1.522,1.522,0,0,1,1.7.343c.34.438.135.981-.473,1.222Zm3.995-1.548a1.617,1.617,0,0,1-1.749-.354c-.332-.435-.113-.984.492-1.226a1.587,1.587,0,0,1,1.732.357C553.558,48.56,553.348,49.106,552.735,49.346Zm4.026-1.518A1.655,1.655,0,0,1,555,47.466c-.348-.429-.131-.978.484-1.212a1.621,1.621,0,0,1,1.746.382C557.578,47.074,557.377,47.593,556.761,47.827Zm4.036-1.489a1.671,1.671,0,0,1-1.755-.357c-.351-.423-.123-.958.488-1.181a1.7,1.7,0,0,1,1.762.372c.347.423.129.939-.495,1.17ZM534.625,59.659a1.546,1.546,0,0,1-1.7-.213c-.273-.373.031-.9.682-1.182a1.429,1.429,0,0,1,1.689.181c.288.4,0,.942-.667,1.21Zm3.99-1.569a1.584,1.584,0,0,1-1.75-.276c-.3-.406-.024-.969.633-1.25a1.533,1.533,0,0,1,1.755.287c.317.426.024.988-.638,1.247Zm4.007-1.532a1.635,1.635,0,0,1-1.8-.336c-.328-.436-.051-1.025.613-1.289a1.585,1.585,0,0,1,1.8.336C543.56,55.722,543.288,56.3,542.621,56.558Zm4.015-1.515a1.634,1.634,0,0,1-1.821-.384c-.332-.461-.065-1.046.6-1.316a1.577,1.577,0,0,1,1.809.377c.338.473.082,1.064-.586,1.324Zm4.022-1.524a1.644,1.644,0,0,1-1.836-.4c-.347-.476-.085-1.082.58-1.344a1.629,1.629,0,0,1,1.838.4C551.589,52.663,551.323,53.263,550.658,53.519ZM554.677,52a1.625,1.625,0,0,1-1.837-.415c-.348-.489-.093-1.085.567-1.345a1.638,1.638,0,0,1,1.845.418C555.6,51.146,555.346,51.739,554.677,52Zm4.01-1.53a1.629,1.629,0,0,1-1.836-.411c-.353-.488-.088-1.091.584-1.348a1.649,1.649,0,0,1,1.851.433C559.631,49.632,559.354,50.206,558.686,50.468Zm4.017-1.522a1.626,1.626,0,0,1-1.827-.4c-.344-.481-.078-1.079.588-1.332a1.65,1.65,0,0,1,1.842.419C563.645,48.112,563.376,48.693,562.7,48.946ZM540.342,60.371a1.868,1.868,0,0,1-1.943-.355c-.327-.436-.007-1,.709-1.277a1.764,1.764,0,0,1,1.934.349c.349.464.034,1.032-.7,1.277ZM544.412,59a1.84,1.84,0,0,1-1.964-.412c-.345-.472-.039-1.077.686-1.337a1.781,1.781,0,0,1,1.96.4C545.449,58.153,545.147,58.752,544.412,59Zm4.053-1.407a1.8,1.8,0,0,1-1.971-.449c-.357-.5-.053-1.11.665-1.383a1.743,1.743,0,0,1,1.962.438c.353.513.069,1.135-.655,1.4Zm4.026-1.436a1.755,1.755,0,0,1-1.963-.46c-.357-.517-.067-1.163.66-1.436a1.7,1.7,0,0,1,1.952.461C553.5,55.256,553.215,55.9,552.491,56.16Zm3.992-1.479a1.707,1.707,0,0,1-1.948-.462c-.363-.53-.058-1.191.668-1.464a1.671,1.671,0,0,1,1.931.469A.989.989,0,0,1,556.483,54.681Zm3.969-1.5a1.635,1.635,0,0,1-1.915-.468c-.343-.536-.048-1.194.676-1.479a1.653,1.653,0,0,1,1.931.486c.345.533.028,1.182-.688,1.461ZM542.06,62.661a2.173,2.173,0,0,1-2.119-.459c-.368-.467-.015-1.039.781-1.292a2.036,2.036,0,0,1,2.11.434C543.21,61.839,542.856,62.436,542.06,62.661Zm4.106-1.193c.781-.24,1.118-.875.736-1.409a1.922,1.922,0,0,0-2.095-.477c-.782.268-1.134.873-.755,1.383a2.058,2.058,0,0,0,2.114.5Zm4.043-1.277c.773-.259,1.105-.923.727-1.484a1.841,1.841,0,0,0-2.082-.5c-.779.281-1.115.916-.738,1.455a1.946,1.946,0,0,0,2.094.532Zm3.985-1.347c.762-.271,1.1-.958.733-1.533a1.787,1.787,0,0,0-2.049-.532c-.767.274-1.11.964-.738,1.521a1.833,1.833,0,0,0,2.054.54Zm1.928-1.947c-.361-.573-.032-1.283.745-1.574a1.694,1.694,0,0,1,2.014.532,1.107,1.107,0,0,1-.745,1.576,1.714,1.714,0,0,1-2.013-.53Z" transform="translate(-489.685 -32.288)" fill-rule="evenodd" fill="url(#linear-gradient-2)"/>
      <path id="Path_4599" data-name="Path 4599" d="M481.355,294.157a1.261,1.261,0,0,0-.1-.621,3.607,3.607,0,0,0-.31-.605,7.1,7.1,0,0,0-.928-1.137A13.574,13.574,0,0,0,477.4,289.8a27.283,27.283,0,0,0-7-2.834,47.487,47.487,0,0,0-8.112-1.364c-2.774-.238-5.569.3-8.323.405a83.3,83.3,0,0,0-15.066,1.546c-1.27.272-2.518.572-3.755.884q-.927.232-1.842.483l-.885.244-.79.213c-1.047.274-2.1.54-3.159.777s-2.128.466-3.2.663a80.135,80.135,0,0,1-13.062,1.383,62.3,62.3,0,0,1-12.914-1,36.994,36.994,0,0,1-5.846-1.6,15.864,15.864,0,0,1-4.586-2.477c-1.173-.984-1.882-1.567-1.7-2.894a4.381,4.381,0,0,1,.935-2.021,12.409,12.409,0,0,1,2.03-1.975,15.835,15.835,0,0,0-3.446,1.251,8.581,8.581,0,0,0-2.706,2.085c-.684.842-1.109,1.238-1.164,2.234a5.5,5.5,0,0,0,.713,2.915,10.188,10.188,0,0,0,2.067,2.58,18.228,18.228,0,0,0,2.873,2.163,32.931,32.931,0,0,0,7.1,3.192,59.674,59.674,0,0,0,16.491,2.7,77.209,77.209,0,0,0,16.686-1.325c1.333-.257,2.652-.538,3.947-.851s2.57-.655,3.815-1.027l3.347-1.02c1.064-.319,2.141-.628,3.212-.931a101.972,101.972,0,0,1,12.272-2.912,61.993,61.993,0,0,1,13.512-.768,37.214,37.214,0,0,1,6.7,1.013,23.878,23.878,0,0,1,3.164,1.035,13.462,13.462,0,0,1,1.455.692,6.684,6.684,0,0,1,.655.409A2.414,2.414,0,0,1,481.355,294.157Z" transform="translate(-362.29 -251.821)" fill="url(#linear-gradient-3)"/>
      <g id="Group_5842" data-name="Group 5842" transform="translate(24.234 24.578)" clip-path="url(#clip-path)">
        <path id="Path_4600" data-name="Path 4600" d="M433.387,251.282a11.6,11.6,0,0,1,3.578-2.082,23.933,23.933,0,0,1,2.5-.8,3.047,3.047,0,0,0-.34.885,2.357,2.357,0,0,0-.033.393c-.086.08-.171.159-.251.239a4.009,4.009,0,0,0-1.238,2.021c-.24,1.327.706,1.909,2.251,2.894a23.777,23.777,0,0,0,6.064,2.483,61.886,61.886,0,0,0,7.738,1.6,108.085,108.085,0,0,0,17.093,1,139.3,139.3,0,0,0,17.29-1.383c1.421-.2,2.83-.426,4.232-.663s2.795-.5,4.179-.777l1.048-.213,1.17-.244c.8-.167.775-.329,1.6-.483,1.636-.312,3.289-.611,4.97-.884a161.793,161.793,0,0,1,21.056-1.546c3.645-.106,8.192-.644,11.861-.405a81.779,81.779,0,0,1,10.737,1.364,52.243,52.243,0,0,1,5.772,1.489c-2.081-.3-4.2-.486-6.316-.59a119.836,119.836,0,0,0-18.725.767c-5.883.685-11.667,1.717-17.358,2.912-1.421.3-2.843.609-4.256.931l-4.422,1.023c-1.651.372-2.5.71-4.209,1.029s-3.46.594-5.226.851a134.406,134.406,0,0,1-22.085,1.326,102.76,102.76,0,0,1-21.827-2.7,51.833,51.833,0,0,1-9.4-3.2,24.85,24.85,0,0,1-3.8-2.163,11.37,11.37,0,0,1-2.732-2.582c-.663-.929-1.026-1.353-.943-2.341C433.37,251.381,433.38,251.336,433.387,251.282Z" transform="translate(-431.694 -247.946)" opacity="0.3" fill="url(#linear-gradient-4)"/>
      </g>
    </g>
    <g id="Objects" transform="translate(115.97 15.46)">
      <text id="You_Dream_We_Deliver" data-name="You Dream We Deliver" transform="translate(17.655 51.657)" fill="#58585b" font-size="7" font-family="BaskOldFace, Baskerville Old Face" letter-spacing="0.2em"><tspan x="0" y="0">You Dream We Deliver</tspan></text>
      <path id="Path_4602" data-name="Path 4602" d="M706.89,339.79h5.73l-2.865,3.442-2.865,3.441-2.865-3.441-2.865-3.442Z" transform="translate(-638.901 -307.375)" fill="url(#linear-gradient-5)"/>
      <path id="Path_4603" data-name="Path 4603" d="M758.918,329.238c-.213-.128-.432-.26-.638-.4C758.486,328.977,758.7,329.109,758.918,329.238Z" transform="translate(-689.944 -297.59)" fill="url(#linear-gradient-6)"/>
      <path id="Path_4604" data-name="Path 4604" d="M776.065,338.833c-.213-.09-.413-.184-.615-.283Q775.753,338.7,776.065,338.833Z" transform="translate(-705.287 -306.267)" fill="url(#linear-gradient-7)"/>
      <path id="Path_4605" data-name="Path 4605" d="M758.23,57.288c.213-.138.426-.27.638-.4C758.657,57.019,758.442,57.151,758.23,57.288Z" transform="translate(-689.899 -54.573)" fill="url(#linear-gradient-8)"/>
      <path id="Path_4606" data-name="Path 4606" d="M776.065,48.26q-.312.135-.615.283Q775.753,48.4,776.065,48.26Z" transform="translate(-705.287 -46.861)" fill="url(#linear-gradient-9)"/>
      <path id="Path_4607" data-name="Path 4607" d="M758.23,328.84c.213.137.426.269.638.4C758.657,329.11,758.442,328.978,758.23,328.84Z" transform="translate(-689.899 -297.59)" fill="url(#linear-gradient-10)"/>
      <path id="Path_4608" data-name="Path 4608" d="M758.918,56.89c-.213.129-.432.261-.638.4C758.486,57.15,758.7,57.018,758.918,56.89Z" transform="translate(-689.944 -54.573)" fill="url(#linear-gradient-11)"/>
      <path id="Path_4609" data-name="Path 4609" d="M775.45,338.55q.3.147.615.283C775.858,338.743,775.652,338.649,775.45,338.55Z" transform="translate(-705.287 -306.267)" fill="url(#linear-gradient-7)"/>
      <path id="Path_4610" data-name="Path 4610" d="M776.065,48.26q-.312.135-.615.283Q775.753,48.4,776.065,48.26Z" transform="translate(-705.287 -46.861)" fill="url(#linear-gradient-13)"/>
      <path id="Path_4611" data-name="Path 4611" d="M758.23,328.84c.213.137.426.269.638.4C758.657,329.11,758.442,328.978,758.23,328.84Z" transform="translate(-689.899 -297.59)" fill="url(#linear-gradient-10)"/>
      <path id="Path_4612" data-name="Path 4612" d="M758.918,56.89c-.213.129-.432.261-.638.4C758.486,57.15,758.7,57.018,758.918,56.89Z" transform="translate(-689.944 -54.573)" fill="url(#linear-gradient-11)"/>
      <path id="Path_4613" data-name="Path 4613" d="M775.45,338.55q.3.147.615.283C775.858,338.743,775.652,338.649,775.45,338.55Z" transform="translate(-705.287 -306.267)" fill="url(#linear-gradient-7)"/>
      <path id="Path_4614" data-name="Path 4614" d="M776.065,48.26q-.312.135-.615.283Q775.753,48.4,776.065,48.26Z" transform="translate(-705.287 -46.861)" fill="url(#linear-gradient-13)"/>
      <path id="Path_4615" data-name="Path 4615" d="M697.756,41.66c-.106.033-.219.066-.328.106q-.518.166-1.022.366c-.076.029-.15.06-.226.089-.115.048-.23.1-.344.146q-.312.135-.615.283c-.2.1-.4.2-.6.306s-.395.213-.587.329c-.213.129-.432.261-.638.4-.07.045-.141.09-.213.138-.093.063-.185.124-.277.189s-.208.147-.31.222c-.067.049-.135.1-.2.15s-.106.082-.163.124l-.132.106c-.067.051-.132.106-.2.157s-.13.106-.194.16q-.172.144-.342.294c-.056.049-.113.1-.168.151l-.165.152c-.05.045-.1.09-.146.138s-.074.069-.106.106c-.06.059-.119.117-.178.177s-.118.117-.177.178h0l-.171.18c-.115.121-.229.245-.338.369-.055.062-.106.126-.166.189l-.106.121c-.024.028-.049.055-.071.085s-.048.055-.071.084q-.119.144-.233.29c-.037.046-.074.094-.106.142-.066.085-.131.17-.195.256l-.011.015c-.043.056-.085.115-.126.172l-.012.016q-.147.2-.287.413c-.066.1-.133.2-.2.3-.026.04-.051.081-.078.121-.067.106-.134.213-.2.319-.076.126-.15.252-.222.381s-.144.256-.213.386c-.049.091-.1.184-.144.277q-.089.174-.172.348c-.022.048-.045.095-.068.143s-.044.094-.066.142c-.046.1-.093.2-.137.309s-.079.182-.115.273a.017.017,0,0,1-.009.017l-.007.02q-.065.16-.128.319a.024.024,0,0,1-.008.021c-.047.121-.091.242-.135.363-.032.085-.061.171-.09.256l-.054.163c-.018.053-.035.106-.054.163-.027.084-.052.168-.078.253-.017.059-.034.117-.05.174l-.057.2c-.024.091-.05.184-.073.277q-.029.106-.054.213c-.02.08-.039.16-.057.238a.308.308,0,0,1-.006.031c-.01.04-.019.082-.028.124s-.022.106-.033.154c-.024.113-.047.227-.069.34-.026.135-.049.27-.07.406-.01.053-.018.106-.027.16a.215.215,0,0,1,0,.027l-.023.163c-.015.106-.028.213-.041.319s-.025.213-.035.319-.024.232-.033.348-.019.236-.027.355q0,.065-.006.131a7.29,7.29,0,0,1,14.5.937,17.011,17.011,0,0,1-12.14,16.291,17,17,0,0,0,9.722-32.577Zm-4.362,30.554c.213.137.426.269.638.4-.216-.128-.431-.26-.643-.4Zm1.832,1.033q.3.147.615.283c-.212-.09-.417-.184-.619-.283Z" transform="translate(-625.059 -40.964)" fill="url(#linear-gradient-18)"/>
      <path id="Path_4616" data-name="Path 4616" d="M699.862,133.612a7.29,7.29,0,0,1-14.518.942c0-.063-.008-.127-.011-.192v-.077h0c0-.087-.006-.176-.007-.265h0c0-.135-.005-.27-.005-.4s0-.27.005-.405h0c0-.089,0-.178.007-.265h0v-.077c0-.065.006-.128.011-.191a7.29,7.29,0,0,1,14.518.934Z" transform="translate(-624.746 -116.629)" fill="url(#linear-gradient-19)"/>
      <path id="Path_4617" data-name="Path 4617" d="M610.654,59.386a7.3,7.3,0,0,1-7.228-6.347q0,.065.006.131c-.006-.106-.012-.213-.017-.319v-.077h0c0-.087-.006-.176-.008-.265h0c0-.135-.005-.27-.005-.4s0-.27.005-.405h0c0-.089,0-.178.008-.265h0v-.077c0-.106.011-.213.017-.319s.016-.237.027-.355.019-.231.033-.348.022-.213.035-.319.027-.213.041-.319l.023-.163a.215.215,0,0,0,0-.027c.008-.052.017-.106.027-.16.021-.136.045-.271.07-.406.022-.114.045-.228.069-.34.011-.051.02-.106.033-.154s.018-.084.028-.124a.054.054,0,0,1,.006-.031c.018-.079.037-.159.057-.238s.035-.145.054-.213c.023-.093.049-.185.073-.277l.057-.2c.016-.057.033-.116.05-.174.026-.085.051-.169.078-.253.019-.054.036-.106.054-.163s.035-.106.054-.163c.03-.085.059-.171.09-.256.044-.121.088-.242.135-.363a.026.026,0,0,1,.007-.021q.062-.16.128-.319l.007-.02s.005-.012.009-.017c.036-.091.076-.183.115-.273s.091-.213.137-.309c.022-.048.044-.1.066-.141s.046-.095.068-.143q.083-.174.172-.348c.047-.093.095-.185.144-.277.069-.13.14-.259.213-.386s.147-.255.222-.381c.065-.106.132-.213.2-.319.027-.04.052-.081.078-.121.065-.1.132-.2.2-.3q.141-.213.287-.413l.012-.016c.041-.057.083-.116.126-.172l.011-.015c.064-.086.129-.171.195-.256.035-.048.072-.1.106-.142q.114-.147.233-.29c.023-.029.048-.056.071-.084s.047-.057.071-.085l.106-.121c.054-.064.106-.128.166-.189.106-.124.224-.248.338-.369l.171-.18h0c.059-.061.118-.12.177-.178l.178-.177c.036-.036.073-.071.106-.106s.1-.094.146-.138l.165-.152a1.887,1.887,0,0,1,.168-.151q.169-.15.341-.294c.064-.054.129-.106.194-.16s.129-.106.2-.157l.132-.106q.08-.064.163-.124c.066-.052.134-.1.2-.15.106-.076.205-.149.31-.222s.184-.127.277-.189c.07-.048.141-.094.213-.138.213-.138.426-.27.638-.4.193-.106.388-.222.587-.329s.4-.213.6-.306.407-.193.615-.283c.114-.05.229-.1.344-.146.076-.03.15-.061.226-.089q.5-.2,1.022-.366l.328-.106a17.09,17.09,0,0,0-9.722,0h0a17,17,0,0,0,0,32.582h0A17.011,17.011,0,0,0,617.943,52.1a7.3,7.3,0,0,1-7.289,7.289Z" transform="translate(-542.827 -35.115)" fill="url(#radial-gradient-3)"/>
      <path id="Path_4618" data-name="Path 4618" d="M610.654,59.386a7.3,7.3,0,0,1-7.228-6.347q0,.065.006.131c-.006-.106-.012-.213-.017-.319v-.077h0c0-.087-.006-.176-.008-.265h0c0-.135-.005-.27-.005-.4s0-.27.005-.405h0c0-.089,0-.178.008-.265h0v-.077c0-.106.011-.213.017-.319s.016-.237.027-.355.019-.231.033-.348.022-.213.035-.319.027-.213.041-.319l.023-.163a.215.215,0,0,0,0-.027c.008-.052.017-.106.027-.16.021-.136.045-.271.07-.406.022-.114.045-.228.069-.34.011-.051.02-.106.033-.154s.018-.084.028-.124a.054.054,0,0,1,.006-.031c.018-.079.037-.159.057-.238s.035-.145.054-.213c.023-.093.049-.185.073-.277l.057-.2c.016-.057.033-.116.05-.174.026-.085.051-.169.078-.253.019-.054.036-.106.054-.163s.035-.106.054-.163c.03-.085.059-.171.09-.256.044-.121.088-.242.135-.363a.026.026,0,0,1,.007-.021q.062-.16.128-.319l.007-.02s.005-.012.009-.017c.036-.091.076-.183.115-.273s.091-.213.137-.309c.022-.048.044-.1.066-.141s.046-.095.068-.143q.083-.174.172-.348c.047-.093.095-.185.144-.277.069-.13.14-.259.213-.386s.147-.255.222-.381c.065-.106.132-.213.2-.319.027-.04.052-.081.078-.121.065-.1.132-.2.2-.3q.141-.213.287-.413l.012-.016c.041-.057.083-.116.126-.172l.011-.015c.064-.086.129-.171.195-.256.035-.048.072-.1.106-.142q.114-.147.233-.29c.023-.029.048-.056.071-.084s.047-.057.071-.085l.106-.121c.054-.064.106-.128.166-.189.106-.124.224-.248.338-.369l.171-.18h0c.059-.061.118-.12.177-.178l.178-.177c.036-.036.073-.071.106-.106s.1-.094.146-.138l.165-.152a1.887,1.887,0,0,1,.168-.151q.169-.15.341-.294c.064-.054.129-.106.194-.16s.129-.106.2-.157l.132-.106q.08-.064.163-.124c.066-.052.134-.1.2-.15.106-.076.205-.149.31-.222s.184-.127.277-.189c.07-.048.141-.094.213-.138.213-.138.426-.27.638-.4.193-.106.388-.222.587-.329s.4-.213.6-.306.407-.193.615-.283c.114-.05.229-.1.344-.146.076-.03.15-.061.226-.089q.5-.2,1.022-.366l.328-.106a17.09,17.09,0,0,0-9.722,0h0a17,17,0,0,0,0,32.582h0A17.011,17.011,0,0,0,617.943,52.1a7.3,7.3,0,0,1-7.289,7.289Z" transform="translate(-542.827 -35.115)" fill="url(#linear-gradient-20)"/>
      <path id="Path_4619" data-name="Path 4619" d="M699.54,133.51a7.29,7.29,0,1,1-7.29-7.29,7.29,7.29,0,0,1,7.29,7.29Z" transform="translate(-624.424 -116.527)" fill="#fff"/>
      <path id="Path_4620" data-name="Path 4620" d="M118.9,62.419c0-5.314-.032-5.966-.1-7.01-.065-.945-.359-1.5-1.17-1.695-.294-.065-.745-.065-1.076-.1-.426-.033-.587-.163-.587-.359s.2-.294.717-.294c1.859,0,3.424.1,4.859.1.684,0,8.673-.033,9.194-.033A11.509,11.509,0,0,0,132.5,52.9a2.349,2.349,0,0,1,.521-.131c.164,0,.2.131.2.294s-.065.489-.163,1.434c-.1.652-.163,1.794-.261,3.49,0,.261-.131.456-.327.456-.163,0-.293-.164-.326-.456a3.86,3.86,0,0,0-.163-1.142c-.164-.745-.587-1.17-2.152-1.3-1.076-.1-3.913-.163-4.894-.163-.2,0-.261.1-.261.326v7.173c0,.229.032.392.261.392.913.033,3.553,0,4.728-.032,1.6-.066,2.021-.164,2.38-.745.2-.294.294-.426.456-.426.2,0,.2.2.2.392,0,.327-.163,1.5-.261,2.766-.033.75-.033,2.348-.033,2.707,0,.426-.1.619-.294.619-.228,0-.294-.228-.359-.521-.033-.262-.065-.489-.1-.75-.13-.946-.586-1.5-2.184-1.6-.913-.065-3.586-.13-4.6-.13-.164,0-.2.163-.2.426v2.243c0,1.109-.033,3.032,0,4.271.032,2.283.489,2.8,4.108,2.8a9.02,9.02,0,0,0,3.032-.392c.913-.359,1.3-1.076,1.6-2.576q.1-.587.392-.587c.261,0,.294.327.294.718a26.607,26.607,0,0,1-.522,4.368c-.228.851-.456.881-1.663.881-4.5,0-6.944-.2-10.368-.2-1.533,0-2.9.1-4.7.1-.587,0-.783-.1-.783-.327,0-.163.163-.326.652-.326a6.431,6.431,0,0,0,.978-.131c.914-.13,1.044-1.369,1.109-3.424.066-1.3.1-3.228.1-5.249Z" transform="translate(-115.97 -50.892)" fill="#3b5e73"/>
      <path id="Path_4621" data-name="Path 4621" d="M361.6,93.725c0-4.142-.033-4.894-.066-5.8-.032-1.17-.488-1.5-1.336-1.63-.359-.033-.685-.065-1.011-.1-.392,0-.522-.2-.522-.326,0-.229.261-.327.587-.327,1.859,0,3.163.1,4.793.1,2.086,0,3.945-.1,5.087-.1,6.423,0,7.6,2.74,7.6,4.369,0,2.282-1.7,3.717-3.652,4.63,3.192.945,5.739,2.706,5.739,6.162,0,3.163-3.228,6.26-9.1,6.26-1.011,0-4.989-.163-5.674-.163-1.369,0-2.772.1-4.4.1-.456,0-.652-.131-.652-.327,0-.163.1-.326.521-.326a4.692,4.692,0,0,0,.815-.1c.685-.1,1.011-.426,1.077-1.532a67.114,67.114,0,0,0,.2-6.88Zm5.412,4.956c0,1.4-.033,3.163.1,4.662a1.321,1.321,0,0,0,.652,1.3,4.114,4.114,0,0,0,1.924.426c1.532,0,3.261-1.011,3.261-3.717a5.115,5.115,0,0,0-1.468-4.011,4.464,4.464,0,0,0-2.766-1.206,9.82,9.82,0,0,0-1.533.033c-.1,0-.163.065-.163.2Zm0-4.761c0,.229.163.294.326.294a8.286,8.286,0,0,0,1.761.1,3.283,3.283,0,0,0,1.826-.426,3.162,3.162,0,0,0,.914-2.544c0-2.347-1.17-4.043-3.457-4.043a3.08,3.08,0,0,0-1.076.131c-.131.065-.294.13-.294.521Z" transform="translate(-332.84 -80.175)" fill="#3b5e73"/>
      <path id="Path_4622" data-name="Path 4622" d="M961.184,93.725c0-4.4-.033-4.826-.1-5.739-.066-1.206-.587-1.6-1.207-1.663-.522-.1-.783-.1-1.011-.131-.359,0-.489-.163-.489-.326s.1-.327.587-.327c1.17,0,4.173.1,4.532.1.488,0,3.553-.1,5.021-.1,2.934,0,4.956.294,6.13.946a4.694,4.694,0,0,1,2.766,4.4c0,2.217-1.5,4.011-3.88,5.543a66.633,66.633,0,0,0,5.412,7.435c1.5,1.728,2.184,2.151,3.1,2.282.293.065.553.065.782.1.294.033.456.2.456.359,0,.261-.326.294-.587.294h-2.543c-3.391,0-4.788-.327-5.869-1.011a10.947,10.947,0,0,1-2.8-3.391c-1.369-2.283-1.859-3.229-2.413-4.076a.325.325,0,0,0-.326-.164l-1.957-.032a.205.205,0,0,0-.229.228v1.729c0,2.119.066,3.489.131,4.337.065.717.228,1.3,1.109,1.532a6.618,6.618,0,0,0,1.336.2c.522.033.522.2.522.359s-.131.294-.554.294c-1.99,0-5.445-.1-5.608-.1-.327,0-3.392.1-4.337.1-.489,0-.587-.163-.587-.359,0-.164.2-.294.521-.294.261-.033.685-.033,1.011-.1.587-.131.851-.619.913-1.63.131-1.17.164-3.065.164-5.837Zm5.379,1.759a.541.541,0,0,0,.261.426,5.95,5.95,0,0,0,2.413.392,3.2,3.2,0,0,0,1.794-.456c.521-.392,1.011-1.533,1.011-3.359,0-4.011-2.738-4.956-4.206-4.956a3.138,3.138,0,0,0-1.077.1c-.13.065-.2.1-.2.326Z" transform="translate(-868.755 -80.175)" fill="#3b5e73"/>
      <path id="Path_4623" data-name="Path 4623" d="M1227.76,93.073c0-5.9,4.043-11.183,12.618-11.183,7.435,0,12.1,4.988,12.1,10.533,0,6.62-4.6,11.608-12.292,11.608C1231.509,104.031,1227.76,98.059,1227.76,93.073Zm18.455.652c0-4.3-1.565-9.944-6.847-9.944-2.511,0-5.347,1.277-5.347,7.89,0,5.213,2.086,10.4,6.945,10.4,1.793,0,5.249-.687,5.249-8.35Z" transform="translate(-1109.475 -76.914)" fill="#3b5e73"/>
    </g>
  </g>
</svg>
