<svg xmlns="http://www.w3.org/2000/svg" width="19.853" height="19.415" viewBox="0 0 19.853 19.415">
  <path id="Icon_material-notifications-active" data-name="Icon material-notifications-active" d="M8.571,5.323,7.147,3.9a10.38,10.38,0,0,0-4.1,7.816H5.036A8.409,8.409,0,0,1,8.571,5.323Zm12.336,6.392H22.9A10.443,10.443,0,0,0,18.8,3.9L17.382,5.323a8.458,8.458,0,0,1,3.525,6.392Zm-1.961.5c0-3.057-1.633-5.615-4.48-6.293V5.243a1.493,1.493,0,1,0-2.987,0v.677C8.621,6.6,7,9.146,7,12.213v4.978L5.006,19.183v1h15.93v-1l-1.991-1.991ZM12.972,23.165a1.744,1.744,0,0,0,.4-.04A2.02,2.02,0,0,0,14.8,21.951a2,2,0,0,0,.149-.777H10.97A2.006,2.006,0,0,0,12.972,23.165Z" transform="translate(-3.045 -3.75)" fill="#ffaf26"/>
</svg>
