<svg xmlns="http://www.w3.org/2000/svg" width="16.451" height="17.421" viewBox="0 0 16.451 17.421">
  <path id="Icon_awesome-file-alt" data-name="Icon awesome-file-alt" d="M9.6,4.627V0H1.028A.939.939,0,0,0,0,.817V16.6a.939.939,0,0,0,1.028.817H15.423a.939.939,0,0,0,1.028-.817V5.444H10.625A.944.944,0,0,1,9.6,4.627Zm2.742,8.03a.472.472,0,0,1-.514.408h-7.2a.472.472,0,0,1-.514-.408v-.272a.472.472,0,0,1,.514-.408h7.2a.472.472,0,0,1,.514.408Zm0-2.178a.472.472,0,0,1-.514.408h-7.2a.472.472,0,0,1-.514-.408v-.272A.472.472,0,0,1,4.627,9.8h7.2a.472.472,0,0,1,.514.408Zm0-2.45V8.3a.472.472,0,0,1-.514.408h-7.2A.472.472,0,0,1,4.113,8.3V8.03a.472.472,0,0,1,.514-.408h7.2A.472.472,0,0,1,12.338,8.03Zm4.113-3.882v.208H10.967V0h.261a1.177,1.177,0,0,1,.728.238l4.194,3.335A.74.74,0,0,1,16.451,4.148Z" fill="#ffaf26"/>
</svg>
