<svg xmlns="http://www.w3.org/2000/svg" width="22.452" height="16.839" viewBox="0 0 22.452 16.839" fill="#FFAF26">
  <path id="Icon_awesome-image" data-name="Icon awesome-image" d="M20.347,21.339H2.1a2.1,2.1,0,0,1-2.1-2.1V6.6A2.1,2.1,0,0,1,2.1,4.5H20.347a2.1,2.1,0,0,1,2.1,2.1V19.234A2.1,2.1,0,0,1,20.347,21.339ZM4.911,6.956A2.456,2.456,0,1,0,7.367,9.411,2.456,2.456,0,0,0,4.911,6.956Zm-2.1,11.577H19.645V13.621L15.808,9.783a.526.526,0,0,0-.744,0L9.121,15.726,6.687,13.292a.526.526,0,0,0-.744,0L2.806,16.428Z" transform="translate(0 -4.5)"/>
</svg>
