<svg xmlns="http://www.w3.org/2000/svg" width="13.196" height="18.977" viewBox="0 0 13.196 18.977">
  <g id="Group_6421" data-name="Group 6421" transform="translate(-29.638 -496.511)">
    <path id="Path_4645" data-name="Path 4645" d="M177.088,88.985h9.272v1.4h-9.272Z" transform="translate(-145.488 410.824)" fill="#ffaf26"/>
    <path id="Path_4646" data-name="Path 4646" d="M228.591,0h-.78l-.68,2.186h2.14Z" transform="translate(-191.965 496.511)" fill="#ffaf26"/>
    <path id="Path_4647" data-name="Path 4647" d="M195.411,284.97a1.418,1.418,0,0,0-2.709,0l-.964,3.1a1.415,1.415,0,0,0,.221,1.281,1.463,1.463,0,0,0,1.171.572h1.853a1.463,1.463,0,0,0,1.171-.572,1.414,1.414,0,0,0,.221-1.281Z" transform="translate(-157.821 223.064)" fill="#ffaf26"/>
    <path id="Path_4648" data-name="Path 4648" d="M137.1,164.88l-3.387-8.069h-5.934l-3.387,8.069a3.1,3.1,0,0,0,.794,3.5,6.014,6.014,0,0,0,4.272,1.6h2.576a6.015,6.015,0,0,0,4.272-1.6A3.1,3.1,0,0,0,137.1,164.88Zm-2.32,2.69A4.01,4.01,0,0,1,132,168.587h-2.5a4.01,4.01,0,0,1-2.784-1.018,2.008,2.008,0,0,1-.53-2.277l1.3-3.1a3.88,3.88,0,0,1,6.524,0l1.3,3.1A2.008,2.008,0,0,1,134.78,167.569Z" transform="translate(-94.51 345.512)" fill="#ffaf26"/>
  </g>
</svg>
