<svg xmlns="http://www.w3.org/2000/svg" xmlns:xlink="http://www.w3.org/1999/xlink" width="20.225" height="13.484" viewBox="0 0 20.225 13.484">
  <defs>
    <linearGradient id="linear-gradient" x1="0.5" x2="0.5" y2="1" gradientUnits="objectBoundingBox">
      <stop offset="0" stop-color="#161616"/>
      <stop offset="0.515" stop-color="#3e3939"/>
      <stop offset="1" stop-color="#110d0d"/>
    </linearGradient>
  </defs>
  <path id="Icon_awesome-eye" data-name="Icon awesome-eye" d="M20.1,10.729A11.262,11.262,0,0,0,10.113,4.5,11.264,11.264,0,0,0,.122,10.73a1.136,1.136,0,0,0,0,1.025,11.262,11.262,0,0,0,9.991,6.229,11.264,11.264,0,0,0,9.991-6.23A1.136,1.136,0,0,0,20.1,10.729ZM10.113,16.3a5.056,5.056,0,1,1,5.056-5.056A5.056,5.056,0,0,1,10.113,16.3Zm0-8.427A3.347,3.347,0,0,0,9.224,8a1.68,1.68,0,0,1-2.349,2.349,3.363,3.363,0,1,0,3.238-2.482Z" transform="translate(0 -4.5)" fill="url(#linear-gradient)"/>
</svg>
