<svg xmlns="http://www.w3.org/2000/svg" xmlns:xlink="http://www.w3.org/1999/xlink" viewBox="0 0 1576 585.3"><defs><style>.cls-1{fill:none;}.cls-2{isolation:isolate;}.cls-3{opacity:0.5;}.cls-4,.cls-5{mix-blend-mode:multiply;}.cls-4{fill:url(#radial-gradient);}.cls-5{fill:url(#radial-gradient-2);}.cls-6,.cls-7{fill-rule:evenodd;}.cls-6{fill:url(#linear-gradient);}.cls-7{fill:url(#linear-gradient-2);}.cls-8{fill:url(#linear-gradient-3);}.cls-9{clip-path:url(#clip-path);}.cls-10{opacity:0.3;mix-blend-mode:screen;fill:url(#linear-gradient-4);}.cls-11{font-size:75.09px;fill:#58585b;font-family:BaskOldFace, Baskerville Old Face;letter-spacing:0.2em;}.cls-12{fill:url(#linear-gradient-5);}.cls-13{fill:url(#Безымянный_градиент_4);}.cls-14{fill:url(#Безымянный_градиент_4-2);}.cls-15{fill:url(#Безымянный_градиент_4-3);}.cls-16{fill:url(#Безымянный_градиент_4-4);}.cls-17{fill:url(#Безымянный_градиент_4-5);}.cls-18{fill:url(#Безымянный_градиент_4-6);}.cls-19{fill:url(#Безымянный_градиент_4-7);}.cls-20{fill:url(#Безымянный_градиент_4-8);}.cls-21{fill:url(#linear-gradient-6);}.cls-22{fill:url(#Безымянный_градиент_4-13);}.cls-23{fill:url(#radial-gradient-3);}.cls-24{mix-blend-mode:color-dodge;fill:url(#linear-gradient-7);}.cls-25{fill:#fff;}.cls-26{fill:#3b5e73;}</style><radialGradient id="radial-gradient" cx="-17566.12" cy="12151.86" fx="-17791.06951598617" r="290.03" gradientTransform="translate(18333.34 -1903.99) scale(0.99 0.19)" gradientUnits="userSpaceOnUse"><stop offset="0" stop-color="#616c73"/><stop offset="0.06" stop-color="#899196" stop-opacity="0.75"/><stop offset="0.12" stop-color="#adb3b7" stop-opacity="0.52"/><stop offset="0.2" stop-color="#cccfd1" stop-opacity="0.33"/><stop offset="0.29" stop-color="#e3e5e6" stop-opacity="0.18"/><stop offset="0.41" stop-color="#f3f4f4" stop-opacity="0.08"/><stop offset="0.56" stop-color="#fcfdfd" stop-opacity="0.02"/><stop offset="1" stop-color="#fff" stop-opacity="0"/></radialGradient><radialGradient id="radial-gradient-2" cx="-2966.13" cy="12151.86" fx="-3194.172436005427" r="294.02" gradientTransform="matrix(-0.99, 0, 0, 0.19, -2454.1, -1903.99)" xlink:href="#radial-gradient"/><linearGradient id="linear-gradient" x1="5590.37" y1="335.33" x2="6031.8" y2="80.47" gradientTransform="matrix(-1, 0, 0, 1, 6571.44, 0)" gradientUnits="userSpaceOnUse"><stop offset="0" stop-color="#485258"/><stop offset="0.38" stop-color="#788c9a"/><stop offset="0.4" stop-color="#838c8f"/><stop offset="0.55" stop-color="#c08b53"/><stop offset="0.66" stop-color="#e78a2d"/><stop offset="0.72" stop-color="#f58a1f"/><stop offset="0.92" stop-color="#ec1c24"/></linearGradient><linearGradient id="linear-gradient-2" x1="5715.74" y1="254.75" x2="6011.36" y2="84.08" gradientTransform="matrix(-1, 0, 0, 1, 6571.44, 0)" gradientUnits="userSpaceOnUse"><stop offset="0" stop-color="#788c9a"/><stop offset="0.49" stop-color="#cbcccd"/><stop offset="1" stop-color="#ec1c24"/></linearGradient><linearGradient id="linear-gradient-3" x1="5262.22" y1="370.27" x2="6188.65" y2="370.27" gradientTransform="matrix(-1, 0, 0, 1, 6571.44, 0)" gradientUnits="userSpaceOnUse"><stop offset="0.13" stop-color="#ec1c24"/><stop offset="0.32" stop-color="#f58a1f"/><stop offset="0.55" stop-color="#cbcccd"/><stop offset="1" stop-color="#485258"/></linearGradient><clipPath id="clip-path"><path class="cls-1" d="M1344.12,375a11.85,11.85,0,0,0-.91-5.84,34,34,0,0,0-2.91-5.69,66.79,66.79,0,0,0-8.72-10.69,127.15,127.15,0,0,0-24.6-18.68c-18.75-11.35-41.55-20.17-65.83-26.65a446.31,446.31,0,0,0-76.25-12.82c-26.07-2.24-52.34,2.78-78.23,3.81-51.83,2.08-94.05,4.2-141.61,14.53-11.94,2.57-23.67,5.38-35.29,8.31q-8.71,2.17-17.31,4.54l-8.32,2.29-7.43,2c-9.84,2.58-19.71,5.08-29.69,7.3s-20,4.38-30.06,6.23a753.19,753.19,0,0,1-122.77,13c-41.19.89-82.57-2-121.38-9.41a347.73,347.73,0,0,1-54.95-15c-16.88-6.32-32.07-14.07-43.1-23.34s-17.69-14.73-16-27.2c.91-6.19,3.87-12.7,8.79-19s11.53-12.53,19.08-18.56a148.86,148.86,0,0,0-32.41,11.82c-9.92,5.17-19,11.69-25.43,19.6s-10.42,11.64-10.94,21,2,18.69,6.7,27.4S436,340.73,444,348.15A171.33,171.33,0,0,0,471,368.48c19.86,12.28,42.65,22.16,66.74,30,48.28,15.79,101.73,23.67,155,25.36a725.69,725.69,0,0,0,156.84-12.45c12.53-2.42,24.93-5.06,37.1-8s24.16-6.16,35.86-9.65L954,384.16c10-3,20.12-5.9,30.19-8.75,40.43-11.24,73.58-20.84,115.35-27.37s84.37-9.94,127-7.22a349.77,349.77,0,0,1,63,9.52,224.4,224.4,0,0,1,29.74,9.73,126.54,126.54,0,0,1,13.68,6.5,62.84,62.84,0,0,1,6.16,3.84A22.69,22.69,0,0,1,1344.12,375Z"/></clipPath><linearGradient id="linear-gradient-4" x1="433.39" y1="323.84" x2="1573.63" y2="323.84" gradientUnits="userSpaceOnUse"><stop offset="0" stop-color="#fff"/><stop offset="0.09" stop-color="#fff" stop-opacity="0.98"/><stop offset="0.22" stop-color="#fff" stop-opacity="0.91"/><stop offset="0.36" stop-color="#fff" stop-opacity="0.8"/><stop offset="0.51" stop-color="#fff" stop-opacity="0.65"/><stop offset="0.68" stop-color="#fff" stop-opacity="0.46"/><stop offset="0.85" stop-color="#fff" stop-opacity="0.23"/><stop offset="1" stop-color="#fff" stop-opacity="0"/></linearGradient><linearGradient id="linear-gradient-5" x1="755.02" y1="340.4" x2="755.02" y2="405.58" gradientUnits="userSpaceOnUse"><stop offset="0.22" stop-color="#aa002a"/><stop offset="1" stop-color="#cd212a"/></linearGradient><linearGradient id="Безымянный_градиент_4" x1="761.44" y1="330.3" x2="761.07" y2="331.12" gradientUnits="userSpaceOnUse"><stop offset="0" stop-color="#100d57"/><stop offset="1" stop-color="#4f58ff"/></linearGradient><linearGradient id="Безымянный_градиент_4-2" x1="778.34" y1="339.87" x2="778.32" y2="339.91" xlink:href="#Безымянный_градиент_4"/><linearGradient id="Безымянный_градиент_4-3" x1="762.47" y1="56.08" x2="760.03" y2="61.45" xlink:href="#Безымянный_градиент_4"/><linearGradient id="Безымянный_градиент_4-4" x1="779.33" y1="47.4" x2="777.34" y2="51.79" xlink:href="#Безымянный_градиент_4"/><linearGradient id="Безымянный_градиент_4-5" x1="761.44" y1="330.3" x2="761.06" y2="331.13" xlink:href="#Безымянный_градиент_4"/><linearGradient id="Безымянный_градиент_4-6" x1="762.47" y1="56.08" x2="760.01" y2="61.49" xlink:href="#Безымянный_градиент_4"/><linearGradient id="Безымянный_градиент_4-7" x1="778.34" y1="339.87" x2="778.32" y2="339.91" xlink:href="#Безымянный_градиент_4"/><linearGradient id="Безымянный_градиент_4-8" x1="779.33" y1="47.4" x2="777.32" y2="51.82" xlink:href="#Безымянный_градиент_4"/><linearGradient id="linear-gradient-6" x1="685.55" y1="198.06" x2="913.24" y2="198.06" gradientUnits="userSpaceOnUse"><stop offset="0" stop-color="#7f0011"/><stop offset="1" stop-color="#cd212a"/></linearGradient><linearGradient id="Безымянный_градиент_4-13" x1="781.84" y1="132.36" x2="725.14" y2="257.11" xlink:href="#Безымянный_градиент_4"/><radialGradient id="radial-gradient-3" cx="745.21" cy="182.28" r="173.79" gradientUnits="userSpaceOnUse"><stop offset="0.22" stop-color="#880014"/><stop offset="1" stop-color="#cd212a"/></radialGradient><linearGradient id="linear-gradient-7" x1="706.91" y1="292.01" x2="710.7" y2="-88.22" gradientUnits="userSpaceOnUse"><stop offset="0.22" stop-color="#ff152f" stop-opacity="0"/><stop offset="1" stop-color="#ff5584"/></linearGradient></defs><g class="cls-2"><g id="Designed_by_Freepik" data-name="Designed by Freepik"><g class="cls-3"><path class="cls-4" d="M1223.47,421.63c0,30.87-121.55,55.89-281.23,55.89S653,452.5,653,421.63s129.47-55.88,289.21-55.88S1223.47,390.77,1223.47,421.63Z"/><path class="cls-5" d="M190,421.63c0,30.87,137.37,55.89,297.08,55.89s289.18-25,289.18-55.89S646.8,365.75,487.09,365.75,190,390.77,190,421.63Z"/></g><path class="cls-6" d="M608.66,359.25c-10.52-1.06-22.55-4-26.83-6.61s.72-4.62,11-4.62c10.35.16,22.22,3,26.72,6.47s-.34,5.79-10.85,4.76Zm66.6,18.52c9.34,1.69,19,5.4,23.46,9.54,5.38,5,1.78,8.18-9,6.09S665.39,386,659.79,382c-4.54-3.31-2.45-5.4,4.51-5.33-8.91-1.77-18.18-5.12-22.39-8.21-4.72-3.94-.11-6.85,10.41-6.41,10.44.25,22.33,3.75,27,8.48,4.21,3.84,2.46,6.95-4.06,7.27Zm39.92,1.81c6-1.2,7.52-5.25,3.56-9.69-4.51-5.49-16-9.23-25.59-8.47-10,.25-14.31,4.29-9.68,9.08,4.14,3.88,13.18,7.6,21.58,8.94-6.58.74-8.51,3.94-4.16,8.06,5.39,5,18.21,10.48,28,11.4S742,395,737,389.29c-4.11-4.79-13.21-8.64-21.82-9.71Zm37.27-1.4c8.12.62,16.74,4.56,20.52,9.92,4.44,6.4,1.12,12.24-8,12.3s-20.92-5.28-25.89-11.09c-4.08-4.79-2.23-8.95,4-10.48-7.89-.9-16.39-4.71-20.31-9.22-4.46-5.54-.54-10.67,9-11.6,9.17-1.37,20.14,2.42,24.4,8.46,3.61,5,2,9.81-3.7,11.71Zm35.26-4.08c5.54-2.44,7.29-7.85,4-13.25-3.86-6.51-14.23-10.32-23.11-8.52-9,1.57-12.89,7.63-8.67,13.71,3.6,5,11.58,8.83,19,9.33-6,2.21-7.85,7.22-4.2,12.56,4.42,6.45,15.33,11.55,23.8,10.65s11.85-7.51,8-14.42c-3.23-5.81-11.2-9.8-18.94-10.06Zm33.47-6.44c7.32-.08,14.71,3.87,17.35,10,3.25,7.31-.53,14.69-8.4,16.32s-17.81-3.23-21.67-10.19c-3.19-5.81-1.06-11.47,4.71-14.33-7-.06-14.52-3.89-17.73-9.3-3.85-6.59.12-13.36,8.62-15.54s18.33,1.55,21.72,8.43a10.57,10.57,0,0,1-4.6,14.57Zm32-8.5a12.81,12.81,0,0,0,5.34-15.67c-2.86-7.21-12.09-10.87-20.34-8.31s-12.21,10.11-8.82,17c2.74,5.79,9.6,9.5,16.3,9.22a12.31,12.31,0,0,0-5.36,15.86c3.15,7.33,12,11.89,19.5,9.67a14,14,0,0,0,9.05-17.9c-2-6.43-8.72-10.33-15.67-9.91Zm30.55-10.47c6.53-.74,12.64,3,14,9.67,1.58,7.86-2.93,16.47-10,19.24s-14.87-1.39-17.2-9a15.34,15.34,0,0,1,6-17.18,14.14,14.14,0,0,1-14.71-9c-2.81-7.19,1.26-15.33,9.19-18.27s16.55.58,18.83,7.9a15.55,15.55,0,0,1-6.17,16.62Zm29.42-12.49c5.06-4.11,8-11.21,6.87-17.46-1.65-7.44-9.4-10.65-17.15-7.34s-11.93,12-9.76,19.34a11.45,11.45,0,0,0,12.93,8.71,19.46,19.46,0,0,0-6.81,18.25c1.59,7.85,8.28,11.54,15,8.25s11.36-12.6,10.65-20.61c-.54-6.66-5.64-10.15-11.71-9.14Zm27.89-14.43c5.54-1.42,9.76,1.67,9.56,8.33-.28,8-5.3,18.08-11.57,22s-12,.47-12.64-7.51a24,24,0,0,1,7.81-19c-5.41,1.14-10.11-2.08-11.24-8.29-1.54-7.47,3-16.49,10.51-20.13s14.28-1,15.2,6.43c.49,6.2-2.7,13.72-7.63,18.24Zm26.52-16.65c4.74-5,8.27-7.37,8.55-13.5-.2-7.36-6.27-9.74-13.26-5.31-7.16,4.1-12.09,8.05-11.19,15.48.37,6.22,4.42,9.27,9.35,7.75a30.94,30.94,0,0,0-9,19.64c-.3,8,4.43,11.19,10.2,6.55s11.26-15.2,12.54-23.12c1-6.59-2.29-9.39-7.14-7.49Zm24.31-13.73c4.54-2.6,6.91-.47,4.92,6.09-2.4,7.71-8.38,13.33-13.58,18.79s-8.59,3.21-7.23-4.7c1.14-6.72,5.21-9.76,10.22-15.37-4.49,2.28-7.72-.24-7.38-6.46-.06-7.34,5.18-17,11.84-21.85s11.75-3.1,11.07,4c-1.06,6.06-5.14,14.07-9.86,19.48Zm23-23.2a88.47,88.47,0,0,0,10-19.73c1.6-6.81-2.23-7.48-8.15-1.55-6.2,5.42-11.74,15.53-12.52,22.64-1.12,5.83,1,8,4.6,5.54A76.33,76.33,0,0,0,998,296.16c-2.45,7.72-.39,9.25,4,2.63s10.56-18.56,14.17-26c2.79-5.81,1.85-7.35-1.2-4.65Zm-368.3,115c11.89,3.49,16.45,2.44,10.79-1.58-4.68-3.37-15.24-7.07-25.62-9.55,7.55.86,10-.8,5.61-3.91-4.68-3.84-17.29-7.45-28.44-8.65s-16.41.24-11.83,3c4.16,2.11,13.8,5.09,23.29,7.33-7.51-1.06-10.07-.36-5.49,1.9,5.65,2.81,19.8,7.92,31.69,11.42Zm-155-193.48c-.5,2.93-1,4.09-1.07,2.61a26.56,26.56,0,0,1,0-7.83c.39-3,1.16-4.34,1.64-2.89a34.14,34.14,0,0,1-.54,8.11Zm11.63-34.41c-1.1,2.17-2.43,2.64-2.94,1-.74-1.51-.55-4.52.39-6.7s2.54-2.82,3.39-1.28c.65,1.71.25,4.83-.84,7Zm16.52-28c-1.33,1.91-3,2.1-3.89.37a6.28,6.28,0,0,1,.26-6.4c1.27-1.91,3.15-2.21,4.28-.56s.68,4.69-.65,6.59Zm20-23.68c-1.55,1.57-3.65,1.66-4.82-.1a4.83,4.83,0,0,1,.13-6,3.75,3.75,0,0,1,5.42.35,4.54,4.54,0,0,1-.73,5.79Zm23-19.62a4.36,4.36,0,0,1-5.79-.88c-1.59-1.68-1.52-4,.19-5.25a4.94,4.94,0,0,1,6.17.65,3.65,3.65,0,0,1-.57,5.48ZM587.9,67.12c-1.88,1.13-4.76.62-6.55-1.1s-1.71-3.81.1-4.9a6.26,6.26,0,0,1,6.77.9c1.78,1.72,1.56,4-.32,5.1ZM615,52.91a7.08,7.08,0,0,1-7.09-1.29c-2.07-1.58-2.13-3.52-.09-4.49s5.23-.47,7.29,1.12,1.93,3.68-.11,4.66ZM643.7,41a9.36,9.36,0,0,1-7.77-1.31c-2.2-1.47-2.26-3.29-.16-4.07a10.05,10.05,0,0,1,7.85,1.21c2.23,1.51,2.21,3.39.08,4.17Zm30.24-9.64a11.81,11.81,0,0,1-8.22-1.3c-2.31-1.45-2.49-3-.29-3.64a12.58,12.58,0,0,1,8.28,1.29c2.39,1.35,2.47,3,.23,3.65ZM705.76,24a15.38,15.38,0,0,1-8.69-1.33c-2.53-1.29-2.69-2.65-.42-3.09a16.83,16.83,0,0,1,8.85,1.29c2.52,1.25,2.58,2.63.26,3.13Zm33.32-5.22a22.08,22.08,0,0,1-9.17-1.35c-2.68-1.1-2.85-2.2-.34-2.46a26.34,26.34,0,0,1,9.33,1.53c2.67,1.06,2.7,2,.18,2.28Zm35.07-2.63a36,36,0,0,1-9.76-1.48c-2.73-.88-2.8-1.56-.19-1.55a40.32,40.32,0,0,1,9.72,1.49c2.82.83,2.9,1.5.23,1.54Zm36.89,0a69.54,69.54,0,0,1-10.19-1.35c-2.82-.67-2.88-1-.13-.83a89.28,89.28,0,0,1,10.12,1.37c2.93.56,3,.94.2.81Zm-317,192.34c-1.05,3.26-2,4.5-2.3,2.81a37.27,37.27,0,0,1,1.35-9.16c.88-3.4,2-4.43,2.31-2.62s-.3,5.71-1.36,9ZM510.37,176c-1.67,2.47-3.52,2.89-4.22,1s.19-5.57,1.8-8.12,3.35-2.9,4.06-1,0,5.59-1.64,8.05Zm20.71-27c-1.9,2.14-4.21,2.25-5.24.26s-.31-5.55,1.43-7.72,4.06-2.35,5.18-.3.54,5.61-1.37,7.76Zm23.72-23.24c-2.2,1.89-4.89,1.82-6.29-.26s-.78-5.41,1.26-7.4a4.25,4.25,0,0,1,6.42.73c1.51,2,.82,5.06-1.39,6.93ZM581.05,106a5.55,5.55,0,0,1-7.28-1.08,4.59,4.59,0,0,1,1.2-6.63,5.44,5.44,0,0,1,7.24,1.09,4.38,4.38,0,0,1-1.16,6.62ZM609.2,88.72a6.82,6.82,0,0,1-8-1.27,3.91,3.91,0,0,1,1-6.29,7,7,0,0,1,8,1.3,3.84,3.84,0,0,1-1,6.26Zm29.8-15a8.57,8.57,0,0,1-8.7-1.49c-2.12-2-1.74-4.69.82-5.89a8.53,8.53,0,0,1,8.54,1.56c2.23,2,2,4.59-.66,5.82Zm31.12-13a10.2,10.2,0,0,1-9.2-1.63c-2.37-1.93-2.08-4.35.55-5.35a10.24,10.24,0,0,1,9.21,1.59c2.46,1.87,2.21,4.33-.56,5.39ZM702.7,49.48a12.34,12.34,0,0,1-9.78-1.65c-2.5-1.82-2.35-4,.45-4.88a13,13,0,0,1,9.71,1.66c2.61,1.76,2.43,4-.38,4.87Zm33.87-9.18a15.21,15.21,0,0,1-10.35-1.65c-2.67-1.67-2.53-3.61.36-4.38A16.32,16.32,0,0,1,736.91,36c2.77,1.61,2.64,3.46-.34,4.26ZM771.72,33A19.67,19.67,0,0,1,761,31.28c-2.89-1.5-2.81-3.14.28-3.67a22.35,22.35,0,0,1,10.82,1.84c2.88,1.47,2.76,3-.33,3.52ZM808.3,27.8A27,27,0,0,1,797,26c-3-1.28-2.82-2.49.4-2.72A31.44,31.44,0,0,1,808.74,25c3,1.24,2.81,2.44-.44,2.76Zm38.06-3a39.17,39.17,0,0,1-11.68-1.55c-3.11-1.05-2.93-1.9.39-2a47.71,47.71,0,0,1,11.7,1.58c3.14,1,3,1.81-.41,2ZM498,226.05c-1.69,3.51-3.42,4.82-3.76,3s.51-6.24,2.05-9.84,3.41-4.74,4-2.78-.57,6.09-2.27,9.6Zm20.71-30.37c-2.35,2.69-5,3.11-5.82,1s.25-6,2.4-8.77,4.84-3.19,5.83-1,0,6.09-2.41,8.76Zm24.37-25.59c-2.52,2.41-5.55,2.49-6.81.21s-.27-6,2.16-8.51,5.43-2.67,6.82-.34.34,6.23-2.17,8.64Zm27-22.45c-2.82,2.08-6.21,2.08-7.74-.3s-.77-6.14,1.81-8.37c2.79-2,6.38-1.67,8.1.76s.64,5.83-2.17,7.91Zm29.2-19.4c-3,1.8-7,1.22-8.88-1.21s-1.13-5.87,1.82-7.64a7.11,7.11,0,0,1,8.95,1.13c2,2.44,1.11,5.93-1.89,7.72ZM630,110.78c-3.17,1.62-7.44,1-9.6-1.47s-1.46-5.69,1.57-7.34a8.38,8.38,0,0,1,9.6,1.47c2.22,2.45,1.57,5.72-1.57,7.34Zm32.06-15.53a9.92,9.92,0,0,1-10.26-1.71c-2.38-2.41-1.75-5.59,1.48-7a9.8,9.8,0,0,1,10.2,1.72c2.43,2.36,1.84,5.53-1.42,7Zm33.19-13.89a11.33,11.33,0,0,1-10.75-1.82c-2.6-2.37-2-5.25,1.24-6.58a11.53,11.53,0,0,1,10.74,1.82c2.7,2.31,2.11,5.25-1.23,6.58Zm34.39-12.25a13.41,13.41,0,0,1-11.29-1.87c-2.77-2.26-2.22-5,1.09-6.2a13.78,13.78,0,0,1,11.32,2c2.87,2.2,2.3,4.93-1.12,6.12ZM765.1,58.39a15.29,15.29,0,0,1-11.71-1.91c-2.94-2.1-2.51-4.55.92-5.6s9,.07,12,2,2.35,4.43-1.17,5.48Zm36.57-9.11a18.58,18.58,0,0,1-12.22-1.93c-3.15-1.86-2.69-4.14.95-4.91a20.91,20.91,0,0,1,12.39,2.1c3.14,1.86,2.57,3.9-1.12,4.74Zm37.69-7.38a23.29,23.29,0,0,1-12.71-2c-3.21-1.72-2.68-3.49,1.12-4a26.07,26.07,0,0,1,12.81,2c3.22,1.64,2.63,3.4-1.22,4Zm39-5.64a30.4,30.4,0,0,1-13.12-1.75c-3.28-1.46-2.68-2.88,1.22-3.25a32.79,32.79,0,0,1,13,1.74c3.35,1.32,2.82,2.79-1.1,3.26ZM503.62,242.5c2.44-3.63,3.94-7.85,3.1-9.92s-3.57-1.17-5.77,2.64-3.57,8.39-2.94,10.38,3.16.54,5.61-3.1Zm24.64-27.89c-3,2.82-6.5,3.28-7.71,1-1-2.28.48-6.48,3.38-9.4s6.18-3.39,7.43-1,0,6.53-3.1,9.35Zm27.82-23.88c-3.24,2.64-7.22,2.61-8.78.12s-.12-6.73,2.91-9.36,6.86-2.79,8.54-.18.54,6.79-2.67,9.42Zm29.78-21.34c-3.46,2.29-7.8,2.15-9.6-.54s-.61-6.79,2.56-9.21c3.44-2.26,7.76-1.77,9.76,1s.71,6.51-2.72,8.79Zm31.6-18.85c-3.68,2-8.46,1.39-10.64-1.39s-.91-6.69,2.65-8.7,8.25-1.39,10.48,1.38,1.2,6.7-2.49,8.71Zm32.84-17.28c-3.77,1.87-8.8,1.13-11.22-1.72s-1.35-6.6,2.33-8.51,8.65-1,11.14,1.82,1.52,6.55-2.25,8.41Zm34-15.75c-3.89,1.71-9.23.86-11.89-2s-1.65-6.54,2.22-8.2a11.15,11.15,0,0,1,11.79,2c2.65,2.81,1.76,6.44-2.12,8.14Zm34.92-14.43c-4,1.61-9.57.72-12.38-2.06s-1.85-6.3,2-7.87,9.36-.55,12.25,2.16,2.12,6.17-1.87,7.77ZM755,90c-4.07,1.46-9.83.49-12.81-2.17s-2.15-6,1.85-7.45,9.7-.41,12.78,2.19S759,88.53,755,90Zm36.68-11.85c-4.14,1.31-10.11.33-13.23-2.22s-2.29-5.68,1.85-7,10-.11,13.22,2.38,2.31,5.48-1.84,6.79ZM829.2,67.49c-4.34,1.1-10.39.19-13.65-2.26s-2.45-5.17,1.86-6.3c4.25-.93,10.35.15,13.69,2.41s2.44,5-1.9,6.15Zm38.41-9.27c-4.42.93-10.71,0-14-2.19s-2.44-4.72,1.93-5.51,10.63.17,14,2.23,2.43,4.54-2,5.47Zm39.32-8c-4.53.84-10.95-.06-14.3-2s-2.34-4,2.12-4.69,10.82.17,14.21,1.94,2.49,3.92-2,4.75ZM510.61,258.1C507.37,261.71,504,263,503,261s1-6.82,4-10.63,6.45-4.64,7.59-2.4-.78,6.55-4,10.14Zm28.23-25.17c-3.9,2.84-8.08,3.18-9.55.79s.53-6.93,4.19-9.9,7.69-3.34,9.27-.78,0,7-3.91,9.89ZM569.53,211c-4,2.67-8.73,2.54-10.58-.14s0-7.28,3.8-10,8.31-2.74,10.23.09c2.08,2.84.51,7.39-3.45,10.07Zm32.26-20c-4.19,2.42-9.21,2.11-11.46-.82-2.09-3-.39-7.44,3.58-10,4.06-2.35,9.11-1.8,11.39,1.24s.68,7.22-3.51,9.63Zm33.69-18.05c-4.33,2.16-9.87,1.47-12.33-1.62s-.75-7.49,3.41-9.7,9.61-1.41,12.08,1.71,1.15,7.46-3.16,9.61Zm34.6-16.8c-4.46,2-10.17,1.11-12.89-2s-1.19-7.48,3.14-9.56,10-1.08,12.73,2.11,1.48,7.45-3,9.5Zm35.52-15.73c-4.53,1.91-10.58.91-13.48-2.26s-1.41-7.43,3.09-9.35,10.26-.89,13.18,2.36,1.72,7.34-2.79,9.25Zm36.17-14.64c-4.61,1.85-10.85.68-13.9-2.45s-1.66-7.28,2.91-9.08,10.55-.7,13.62,2.47,2,7.22-2.63,9.06Zm36.83-13.71c-4.65,1.71-11.06.56-14.23-2.6s-1.83-7,2.77-8.71,10.92-.49,14.07,2.62,2,7-2.61,8.69Zm37.48-12.79c-4.78,1.59-11.29.4-14.55-2.56s-2-6.77,2.73-8.31,11.25-.23,14.46,2.75c3.38,2.94,2.13,6.52-2.64,8.12Zm38.1-11.89c-4.87,1.44-11.49.33-14.77-2.52s-2.09-6.34,2.76-7.78c4.83-1.28,11.48,0,14.74,2.73s2.14,6.14-2.73,7.57Zm38.73-10.92c-5,1.27-11.74.21-15.13-2.41s-2-5.9,3-7.1,11.72,0,15,2.57,2.13,5.67-2.87,6.94Zm39.31-10c-5,1.22-11.83.18-15.18-2.2s-1.87-5.2,3.18-6.28,11.65-.19,15,2.12,2,5.13-3,6.36ZM518.79,273c4.08-3.47,6.56-7.71,5-10.1-1.31-2.42-5.87-1.84-9.7,1.88s-6.08,8.56-5,10.79c1.27,2,5.6.9,9.68-2.57Zm31.4-22.15c-4.62,2.78-9.77,3-11.54.46-1.57-2.66.76-7.35,5.15-10.37s9.39-3.2,11.2-.35-.2,7.48-4.81,10.26ZM583.44,231c-4.72,2.7-10.31,2.41-12.43-.51s.11-7.78,4.67-10.6,9.92-2.57,12.07.58.38,7.83-4.31,10.53Zm34.4-18.44c-4.89,2.47-10.79,2.06-13.24-1.15s-.31-8.12,4.36-10.83c4.82-2.49,10.65-1.74,13.07,1.64,2.63,3.34.68,7.87-4.19,10.34Zm35.34-16.95c-5,2.31-11.26,1.41-14-2-2.54-3.48-.69-8.24,4.22-10.59s11.08-1.43,13.73,2.16c2.81,3.42,1,8.15-4,10.46Zm36-16.2c-5.07,2.22-11.54,1.11-14.45-2.42s-1-8.33,4-10.62,11.36-1.12,14.27,2.57c3,3.52,1.24,8.25-3.8,10.47ZM725.85,164c-5.16,2.13-11.82.92-14.92-2.66s-1.27-8.36,3.91-10.53c5-2.12,11.55-.86,14.6,2.84s1.6,8.21-3.59,10.35Zm37.07-14.69c-5.2,2.06-12,.8-15.24-2.84s-1.47-8.33,3.73-10.38,11.86-.71,15,3,1.7,8.17-3.49,10.24Zm37.49-14.09c-5.27,2-12.21.67-15.43-2.92s-1.64-8.17,3.59-10.14,12.1-.49,15.34,3.14,1.77,8-3.5,9.92Zm37.85-13.47c-5.33,1.87-12.31.53-15.62-3S821,110.9,826.28,109s12.39-.33,15.69,3.12,1.62,7.68-3.71,9.55ZM876.6,108.8c-5.4,1.76-12.44.51-15.75-2.86s-1.64-7.56,3.74-9.28,12.48-.27,15.77,3.06S882,107,876.6,108.8Zm38.71-12.38c-5.45,1.67-12.6.54-15.85-2.67s-1.59-7.13,3.86-8.7,12.65-.22,16,2.86,1.48,6.84-4,8.51Zm39-11.9c-5.41,1.66-12.62.51-15.87-2.38s-1.33-6.49,4.13-8,12.61-.54,15.8,2.24,1.34,6.47-4.06,8.12ZM528,287.26c-5,3.18-10.25,4.06-11.69,1.9s1.31-7,6-10.56,10.27-3.9,11.92-1.31-1.19,6.78-6.22,10Zm34.34-19c-5.49,2.67-11.58,2.66-13.48-.13s.7-7.55,6-10.46,11.06-3,13.15.17-.17,7.75-5.65,10.42Zm35.4-17.46c-5.49,2.64-11.94,2-14.26-1.11s.2-8.13,5.52-10.94,11.57-2.37,14,1.06.21,8.37-5.25,11Zm36.1-16.69c-5.56,2.52-12.29,1.78-14.93-1.76s-.21-8.62,5.26-11.33c5.42-2.54,12-1.68,14.76,2.08s.48,8.48-5.09,11Zm36.68-15.72c-5.67,2.36-12.59,1.19-15.47-2.54s-.62-8.95,5-11.36,12.4-1.36,15.3,2.58.8,9-4.85,11.32ZM707.67,203c-5.73,2.34-12.95,1-16-2.94s-.78-9.08,4.86-11.49,12.66-1.09,15.76,3c3.06,3.94,1,9.06-4.65,11.41ZM745.07,188c-5.72,2.27-13.09.88-16.24-3.12s-1-9.28,4.7-11.59,12.8-.9,16,3.22,1.27,9.22-4.45,11.49Zm37.55-14.55c-5.74,2.26-13.13.78-16.44-3.32-3.12-4.1-1.06-9.26,4.62-11.53s13-.75,16.28,3.36,1.3,9.24-4.46,11.49Zm37.84-14.27c-5.78,2.2-13.25.63-16.52-3.4s-1.23-9.19,4.55-11.39,13.17-.53,16.41,3.59,1.35,9-4.44,11.2Zm37.94-14c-5.86,2.14-13.2.62-16.5-3.36s-1.16-9,4.59-11.1,13.3-.48,16.56,3.5,1.21,8.83-4.65,11Zm38.24-13.78c-5.88,2.08-13.35.65-16.6-3.18s-1.11-8.72,4.75-10.78,13.32-.48,16.52,3.36,1.2,8.52-4.67,10.6Zm38.2-13.58c-5.91,2-13.26.76-16.4-2.93s-1.06-8.42,4.89-10.32,13.4-.54,16.47,3.12,1,8.08-5,10.13Zm38.25-13.59c-5.83,2.13-13.26.88-16.32-2.58s-.65-7.8,5.31-9.67,13.11-1,16,2.36.82,7.76-5,9.89ZM538.33,295.76c6-2.8,9.62-1.59,7.53-4.3s-8.57-2.7-14.33.48-8.73,2.46-7,4.76,7.82,1.87,13.8-.94Zm36.76-10.42c-6.34,2.4-13.05,2.09-15.28-.83s.77-7.8,6.85-10.54,12.86-2.47,15.23.85-.48,8.13-6.8,10.52Zm37.3-14.89c-6.2,2.49-13.43,1.51-16-2s.29-8.47,6.41-11.11c6-2.85,13.17-2.06,15.88,1.7s0,8.85-6.27,11.37Zm37.5-14.75c-6.27,2.44-13.6,1.23-16.45-2.59s-.23-9.11,5.95-11.75S652.92,240,655.9,244s.23,9.29-6,11.72Zm37.66-14.4c-6.28,2.38-13.81.94-16.89-3.16s-.48-9.63,5.76-12.12,13.81-1.1,16.88,3.16.52,9.73-5.75,12.12ZM725.3,227c-6.28,2.42-14,.72-17.12-3.61s-.61-9.83,5.61-12.37,13.82-.91,17,3.54.77,10-5.51,12.44Zm37.8-14.32c-6.23,2.42-14,.74-17.26-3.73s-.8-10.17,5.45-12.63,14-.77,17.28,3.77.78,10.18-5.47,12.59Zm37.77-14.3c-6.29,2.42-14,.7-17.27-3.9s-.87-10.2,5.33-12.64,14.08-.67,17.34,3.93.89,10.18-5.4,12.61ZM838.57,184c-6.27,2.41-14,.73-17.27-3.86s-.83-10.25,5.49-12.67,14.15-.53,17.4,4.07.65,10-5.62,12.46Zm37.75-14.31c-6.3,2.37-13.94.73-17.17-3.79s-.73-10.14,5.53-12.52c6.43-2.33,14.13-.59,17.31,3.94s.65,10-5.67,12.37ZM914,155.26c-6.28,2.45-13.9.84-17-3.59s-.54-9.94,5.8-12.28,14-.66,17.05,3.7.43,9.72-5.85,12.17Zm37.45-14.68c-6.28,2.44-13.64,1.11-16.63-3.1s-.37-9.77,5.94-12,14-.85,16.75,3.27.21,9.41-6.06,11.86Zm37.3-15.08c-6.15,2.61-13.69,1.29-16.51-2.75s.2-9.06,6.52-11.45,13.41-1.43,16,2.4.1,9.21-6,11.8ZM550.05,309c-6.95,2.35-14.23,2.37-16.33,0s1.47-6.55,8-9.43c6.71-2.79,14.33-2.31,16.7.52s-1.43,6.58-8.37,8.94Zm38.81-12.29c7.1-2.06,10.27-1.51,7.51-5s-10.42-4.08-17.27-1.58-10.27,1.71-7.73,4.83,10.38,3.81,17.49,1.74Zm38.74-6.94c-7,2.25-15.12.95-18-2.73s.33-8.68,7.29-11.12c6.65-2.7,14.6-1.55,17.69,2.44s0,9.16-6.94,11.41Zm38.54-12.67c-6.89,2.32-15.19.76-18.26-3.34s-.07-9.42,6.66-12,14.9-1.08,18.18,3.28.32,9.7-6.58,12Zm38.25-12.86c-6.91,2.36-15.22.57-18.46-3.87s-.37-10.12,6.45-12.57,15.08-.87,18.42,3.79.5,10.29-6.41,12.65ZM742.49,251c-6.8,2.46-15.17.48-18.53-4.22s-.5-10.43,6.25-13,15.12-.7,18.44,4.12.65,10.67-6.16,13.13Zm37.84-13.5c-6.8,2.5-15.09.54-18.45-4.32s-.63-10.93,6.2-13.5,15-.66,18.35,4.33.7,11-6.1,13.49Zm37.52-13.9c-6.73,2.56-14.9.64-18.31-4.34s-.55-11.19,6.28-13.76,14.93-.55,18.15,4.41.6,11.15-6.12,13.69Zm37.31-14.12c-6.73,2.6-14.78.64-18-4.4s-.45-11.22,6.35-13.9,14.91-.44,18.15,4.57.26,11.11-6.47,13.73Zm37.1-14.54c-6.66,2.61-14.57.72-17.74-4.25s-.23-11.23,6.52-13.86,14.72-.68,17.72,4.34.17,11.15-6.5,13.77Zm36.79-15c-6.64,2.76-14.4.94-17.37-4s.05-11.11,6.79-13.78,14.48-.83,17.35,4-.16,11-6.77,13.78Zm36.31-15.6c-6.57,2.85-14,1.38-16.76-3.39s.37-11,7-13.67,14.28-1.07,16.88,3.57-.57,10.65-7.11,13.49Zm35.8-16.47c-6.37,3.14-13.67,1.68-16.25-2.85s.86-10.42,7.55-13.24c6.45-3,13.56-1.91,15.81,2.44s-.76,10.49-7.11,13.65ZM562.84,322c7.85-1.65,12.11-5.18,9.15-8.2s-11.64-3.88-19.3-1.71c-7.5,2.34-11.47,6.25-8.89,8.63s11.17,2.91,19,1.28Zm40.52-8.72c-7.91,1.58-16.67.41-19.71-2.86s.56-7.71,8.33-9.76,16.28-1.08,19.57,2.58-.27,8.46-8.19,10Zm39.86-9.52c7.61-1.94,10.94-1.85,7.47-6.12s-12.21-5.71-19.68-3.31c-7.59,2.2-11.2,1.78-7.84,5.64s12.43,5.72,20.05,3.79Zm39.06-5.14c-7.48,2.11-16.46.08-19.92-4.31s-.14-9.77,7.34-12.14,16.27-.57,19.83,4.08.24,10.26-7.25,12.37Zm38.59-11.21c-7.35,2.26-16.25,0-19.87-4.74s-.31-10.54,7.1-13,16.13-.47,19.69,4.48.42,11-6.92,13.24Zm38-12c-7.29,2.44-16.12.1-19.68-5s-.35-11.14,6.94-13.68,16.1-.51,19.57,4.7.44,11.52-6.83,13.95Zm37.46-12.66c-7.14,2.56-15.76.27-19.31-5.08s-.35-11.59,6.94-14.3,15.82-.41,19.26,5,.27,11.86-6.89,14.41Zm37-13.25c-7.11,2.67-15.51.38-18.91-5.05s-.3-12.06,7-14.79,15.62-.46,18.93,5,.08,12.11-7,14.81Zm36.51-14c-7,2.77-15.14.56-18.42-5s0-12.23,7.17-15,15.47-.46,18.57,5.07-.31,12.18-7.32,14.94ZM905.94,221c-7,2.86-14.8.7-17.9-4.82s.36-12.27,7.47-15.14,15.13-.76,18,4.69-.58,12.42-7.53,15.27Zm35.59-15.41c-6.79,3.05-14.47,1-17.32-4.46s.72-12.22,7.8-15.16,14.78-1.06,17.35,4.24-1,12.33-7.83,15.38Zm34.75-16.43c6.68-3.25,10.59-10.11,8.32-15.27S975,167,968,170.1s-10.52,10-8.06,15.37,9.64,6.89,16.33,3.64Zm34-17.74c6.37-3.68,10.22-10.85,8.39-15.72s-8.63-5.86-15.26-2.31c-6.77,3.33-10.63,10-8.55,15.11s9.07,6.59,15.42,2.92ZM576.7,334.67c-8.83.88-18.56-.31-21.63-2.76-2.89-2.55,1.68-6,10.09-7.68,8.59-1.49,18.2,0,21.37,3.25,3.4,3.19-1,6.32-9.83,7.19Zm41.91-5c8.65-1.06,12.24-5.59,8.59-9.55-3.43-4-12.7-5.53-21.19-3.89s-12.71,5.89-9.41,9.35,13.36,5.14,22,4.09ZM659.14,323c-8.3,1.55-18.19-.88-21.89-4.95-3.48-4.14.43-9,8.73-10.87,8-2.21,17.55-.1,21.14,4.51,3.79,4.46.29,9.74-8,11.31Zm39.39-8.27c8.08-1.85,11.42-7.61,7.69-12.57s-13.1-7.32-21.06-5.05c-8,2.08-11.77,7.61-8.19,12.3,3.79,4.66,13.51,7.19,21.56,5.32Zm38.34-9.45c7.85-2.1,11.28-2.93,7.56-8.29s-12.9-7.86-20.76-5.44-11.45,2.91-7.86,8.11c3.78,5.06,13.19,7.73,21.06,5.62Zm37.6-10.61c7.67-2.39,11.1-3.58,7.45-9.22-3.44-5.68-12.57-8.19-20.3-5.61s-11.29,8.91-7.69,14.42,12.87,2.8,20.54.41Zm36.77-6.27c7.49-2.56,11-9.47,7.6-15.28s-12.22-8.44-19.81-5.76-11.2,9.45-7.74,15.18,12.46,8.42,20,5.86Zm36-12.67c7.38-2.78,11.09-9.88,7.91-15.78s-11.86-8.59-19.34-5.77-11.05,10-7.76,15.89,11.81,8.45,19.19,5.66Zm35.39-13.62c7.27-2.95,11.18-10.14,8.25-16.15s-11.27-8.62-18.75-5.68-11,10.31-7.95,16.3,11.22,8.47,18.45,5.53Zm34.65-14.58c7.13-3.11,11.12-10.71,8.56-16.62s-10.49-8.29-17.88-5.24-11.09,10.49-8.35,16.57,10.54,8.39,17.67,5.29Zm33.94-15.71c7-3.4,11.06-11.17,8.93-17s-9.68-7.92-16.89-4.54S932.13,221,934.53,227s9.79,8.27,16.73,4.86Zm32.88-17.16c-6.73,3.7-13.31,1.83-15.41-3.94s1.93-13.51,9-17.06,14.28-1.77,16,3.91-2.79,13.4-9.54,17.09Zm31.78-18.89c-6.36,4.25-12.63,2.58-14.23-3s2.75-13.15,9.64-17c6.63-4.12,13.07-3.07,14.26,2.26s-3.3,13.52-9.67,17.76ZM591.71,347.11c9.7.05,14.59-2.69,10.8-6.08s-14.41-5.52-23.93-4.86c-9.4.92-14.22,3.71-10.68,6.29s14.12,4.6,23.81,4.65Zm42.91-1.31c-9.34.41-20-2.13-23.81-5.68s.44-7.49,9.81-8.48c9.13-1.12,19.38.91,23.31,5.13s.05,8.63-9.31,9Zm40.84-3.7c8.85-1.06,12.6-6.26,8.68-11.15s-14.27-7.36-22.91-5.57c-9,1.37-13,6-9.09,10.39s14.48,7.43,23.32,6.33Zm39.27-5.85c-8.45,1.52-18.72-1.67-22.61-6.62s-.13-10.39,8.5-12.21c8.42-2,18.46.7,22.4,6.05s.17,11.27-8.29,12.78Zm37.87-7.66c-8.23,1.9-18-1.31-21.91-6.81s-.18-11.45,8.24-13.57c8.3-2.29,18.12.55,21.94,6.31,3.65,5.82-.06,12.18-8.27,14.07Zm36.72-9.18c-7.87,2.28-17.32-1-21-6.86s0-12.26,8.13-14.78,17.49.4,21.08,6.48-.33,12.9-8.2,15.16Zm35.74-10.57c-7.71,2.55-16.72-.59-20.15-6.71s.14-7.8,8.15-10.55,17.1.23,20.42,6.52c3.17,6.33-.69,8.19-8.42,10.74Zm34.73-11.9c-7.49,2.81-15.93,5.2-19.1-1.16s.41-13.78,8.24-16.71,16.62,0,19.58,6.41-1.21,8.61-8.72,11.46Zm33.8-7.84c-7.38,3.07-15.34.19-18-6.28-2.93-6.45.87-14.2,8.58-17.34s16-.29,18.68,6.17c2.4,6.57-1.84,14.37-9.22,17.45Zm32.91-14.53c-7.18,3.31-14.61.62-17-5.91s1.49-14.4,9.05-17.73,15.35-1,17.51,5.56c2,6.48-2.42,14.77-9.6,18.08Zm31.91-15.95c-6.92,3.72-13.85,1.16-15.72-5.35-2.14-6.44,2.19-14.49,9.61-18.08,7.21-3.69,14.49-1.57,16.15,4.82,1.48,6.41-3.13,14.89-10,18.61ZM989,240.78c-6.65,4.12-12.73,2.15-14.09-4.2-1.59-6.36,2.87-14.68,10-18.64s13.72-2.23,14.9,3.92c.86,6.25-4.13,14.8-10.78,18.92ZM652,361.75c9.94.33,13.75-3.7,9.33-8.19s-15.81-7.12-25.62-6.55c-10,.28-14.3,3.73-9.85,7.4s16.21,7,26.14,7.34Zm40.8-.71c-9.26.48-20.8-3.29-25.29-7.85s-.48-8.84,9.06-9.68c9.23-1.34,20.33,1.71,24.79,6.81s.71,10.22-8.56,10.72Zm38.7-3.44c8.87-1.11,12.34-7,8.22-12.69-4.32-5.64-15-8.82-23.88-7.1-9.14,1.41-13,6.68-8.46,11.85,4.34,5.24,15.26,9,24.12,7.94Zm36.88-5.76c-8.4,1.63-18.88-2.11-22.92-7.89-4.32-5.7-.5-11.77,8.2-13.66,8.59-2.07,18.88,1.23,23,7.28,3.79,6.17.17,12.65-8.25,14.27Zm35.47-7.67c8.09-2.11,11.77-9.11,8.37-15.6-3.72-6.45-13.49-9.72-21.92-7.36s-12.15,9-8.1,15.13c3.77,6.25,13.56,9.94,21.65,7.83Zm34.19-9.44c-7.82,2.45-17.05-1.1-20.4-7.63-3.73-6.47.1-13.72,8.31-16.4s17.45.6,20.81,7.29c3,6.77-.92,14.27-8.72,16.74Zm32.81-11.1c7.58-2.84,11.78-10.74,9.29-17.69-2.84-6.83-11.62-10.06-19.61-7.09s-11.82,10.79-8.52,17.47c2.89,6.82,11.24,10.16,18.84,7.31Zm31.86-12.72c-7.28,3.15-15.12,0-17.49-6.91-2.85-6.87,1.21-9.77,9-13s16-.16,18.35,6.73c1.9,7.06-2.55,10-9.84,13.18Zm30.63-14.35c7.08-3.52,11.68-7.05,10.4-14.11-1.78-6.89-9.19-9.49-16.79-5.94s-11.88,12-9.57,18.91c1.73,7.07,8.89,4.64,16,1.14Zm29.51-10.78c-6.69,4-13.3,1.25-14.38-5.77-1.69-6.91,2.9-15.61,10.28-19.47,7.17-4.07,14-1.75,15.13,5,.51,7-4.33,16.19-11,20.19Zm27.87-18.4c6.35-4.53,11.63-13.89,11.8-20.71-.41-6.59-6.36-8.33-13.37-4s-11.77,13.38-10.74,20.21c.43,7,6,9,12.31,4.48Zm26.17-20.95c-5.79,5.37-10.55,3.75-10.17-3-.37-6.6,4.79-15.91,11.45-20.76,6.31-5.36,11.23-4.5,10.87,1.83-1.11,6.44-6.37,16.54-12.15,21.92ZM1029.08,201c-.44-5.89-6.24-6.77-12.79-2.1-6.89,4.37-11.54,12.77-10.54,18.91.71,6.17,6.29,7.83,12.46,3S1029.3,206.9,1029.08,201Z"/><path class="cls-7" d="M616.4,50a2.32,2.32,0,0,1-1.44,2.9,6.72,6.72,0,0,1-5.2-.13Q613,51.34,616.4,50ZM589.11,63.22a2.89,2.89,0,0,1-1.21,3.9,5.41,5.41,0,0,1-5.08-.07q3.07-2,6.29-3.83ZM564.28,80.66a3.54,3.54,0,0,1-1.54,3.27,4.11,4.11,0,0,1-3,.69c1.46-1.34,3-2.67,4.51-4ZM526.37,204.37c2.12-1.11,4.08-.87,5,.89s.43,4.86-1.4,7.44c-1.31-2.74-2.52-5.52-3.59-8.33Zm8.94,18.18c3.08-1.79,6.11-1.65,7.44.49s.52,5.28-1.8,8c-2-2.76-3.89-5.59-5.64-8.45Zm12,16.57c3.27-1.12,6.32-.68,7.65,1.42,1.13,1.66.84,4-.59,6.26-2.47-2.5-4.84-5.06-7.06-7.68Zm16.5,16.42a5.7,5.7,0,0,1,4.16,2.27,4.11,4.11,0,0,1,.74,1.75c-1.67-1.32-3.31-2.65-4.9-4Zm44.72,27.72c.49-2.82,3.51-5.7,8.28-7.36,6.65-2.7,14.6-1.55,17.69,2.44s0,9.16-6.94,11.41c-.47.14-.93.28-1.4.39q-9.09-3.09-17.63-6.88Zm27.52,10c5.52-.54,10.93.79,13.88,3.56q-7.05-1.59-13.88-3.56Zm50.18,3.53a24.39,24.39,0,0,1,12.87.61c-4.32-.09-8.62-.29-12.87-.61Zm28.38.49c-1.28-4.52,2.31-3.77,9-5.75,7.86-2.42,17.16.05,20.76,5.44.58.83,1-3.66,1.23-2.81a249.52,249.52,0,0,1-31,3.12Zm42.4.09a12.7,12.7,0,0,1-3.12-3.13c-3.6-5.51-.08-11.91,7.69-14.42s16.86-.07,20.3,5.61a8.51,8.51,0,0,1,1.46,4.69,229.7,229.7,0,0,1-26.33,7.25ZM794.53,286a13.09,13.09,0,0,1-3.24-3.45c-3.44-5.73.06-12.47,7.74-15.18s16.52-.14,19.81,5.76c.15.29.32.6.46.9a201.87,201.87,0,0,1-24.77,12Zm33-17c-2.32-5.66,1.18-12.14,8.29-14.8a17.91,17.91,0,0,1,11.77-.28A168.36,168.36,0,0,1,827.56,269Zm36.65-32.26c-5.29.19-10.34-2.08-12.75-6.16-3.2-5.5,0-12.23,7.17-15,6.44-2.53,14-.84,17.6,3.65a125.27,125.27,0,0,1-12,17.55ZM886,196.1c-4.77,0-9.25-2-11.45-5.42-3.14-5-.23-11.23,6.52-13.86a17.66,17.66,0,0,1,8.61-1A98.69,98.69,0,0,1,886,196.1Zm-3.53-65.82a9.27,9.27,0,0,1-2.4-2,5.63,5.63,0,0,1-1.14-5.87c1.28,2.59,2.47,5.22,3.54,7.87Zm-11-20.69c-4.13,0-8.28-1.29-10.59-3.65-2.81-2.88-2.05-6.3,1.51-8.32a129.11,129.11,0,0,1,9.08,12ZM853,87.67c-4.71,1-10.6-.18-13.63-2.81s-2.23-5.89,1.87-7.48A154,154,0,0,1,853,87.67ZM827.85,67.76c-4.18.64-9.37-.32-12.3-2.53-2.45-1.77-2.61-3.78-.71-5.16q6.74,3.63,13,7.69ZM736.2,35.65l.71.39c2.77,1.61,2.64,3.46-.34,4.26a15.21,15.21,0,0,1-10.35-1.65c-2.36-1.48-2.53-3.17-.54-4.08,3.54.3,7.05.65,10.52,1.08ZM531.08,149c-1.9,2.14-4.21,2.25-5.24.26s-.31-5.55,1.44-7.72,4.05-2.35,5.17-.3.54,5.61-1.37,7.76Zm23.72-23.24c-2.2,1.89-4.89,1.82-6.29-.26s-.78-5.41,1.26-7.4a4.25,4.25,0,0,1,6.42.73c1.51,2,.82,5.06-1.39,6.93ZM581.05,106a5.55,5.55,0,0,1-7.28-1.08,4.59,4.59,0,0,1,1.2-6.63,5.44,5.44,0,0,1,7.24,1.09,4.38,4.38,0,0,1-1.16,6.62ZM609.2,88.72a6.82,6.82,0,0,1-8-1.27,3.91,3.91,0,0,1,1-6.29,7,7,0,0,1,8,1.3,3.84,3.84,0,0,1-1,6.26Zm29.8-15a8.57,8.57,0,0,1-8.7-1.49c-2.12-2-1.76-4.69.82-5.89a8.53,8.53,0,0,1,8.54,1.56c2.23,2,2,4.59-.66,5.82Zm31.12-13a10.2,10.2,0,0,1-9.2-1.63c-2.37-1.93-2.08-4.35.55-5.35a10.24,10.24,0,0,1,9.21,1.59c2.46,1.87,2.21,4.33-.56,5.39ZM702.7,49.48a12.34,12.34,0,0,1-9.78-1.65c-2.5-1.82-2.35-4,.45-4.88a13,13,0,0,1,9.71,1.66c2.61,1.76,2.43,4-.38,4.87ZM543.1,170.09c-2.52,2.41-5.56,2.49-6.81.21s-.27-6,2.16-8.51,5.43-2.66,6.82-.34.34,6.23-2.17,8.64Zm27-22.45c-2.82,2.08-6.22,2.08-7.74-.3s-.77-6.14,1.81-8.37c2.79-2,6.38-1.66,8.1.76s.64,5.83-2.17,7.91Zm29.2-19.4c-3,1.8-7,1.22-8.88-1.21s-1.13-5.87,1.82-7.64a7.11,7.11,0,0,1,8.95,1.13c2,2.44,1.11,5.93-1.89,7.72ZM630,110.78c-3.17,1.62-7.44,1-9.6-1.47s-1.46-5.69,1.57-7.34a8.38,8.38,0,0,1,9.6,1.47c2.22,2.45,1.57,5.72-1.57,7.34Zm32.06-15.53a9.92,9.92,0,0,1-10.26-1.71c-2.38-2.41-1.75-5.59,1.48-7a9.8,9.8,0,0,1,10.2,1.72c2.43,2.36,1.84,5.53-1.42,7Zm33.19-13.89a11.33,11.33,0,0,1-10.75-1.82c-2.6-2.37-2-5.25,1.24-6.58a11.55,11.55,0,0,1,10.74,1.81c2.7,2.32,2.11,5.26-1.23,6.59Zm34.39-12.25a13.41,13.41,0,0,1-11.29-1.87c-2.77-2.26-2.22-5,1.09-6.2a13.78,13.78,0,0,1,11.32,2c2.87,2.2,2.3,4.93-1.12,6.12ZM765.1,58.39a15.29,15.29,0,0,1-11.71-1.91c-2.94-2.1-2.51-4.55.92-5.6s9,.07,12,2,2.35,4.44-1.17,5.48Zm-209,132.34c-3.24,2.64-7.22,2.62-8.78.12s-.12-6.73,2.91-9.36,6.86-2.79,8.54-.18.54,6.79-2.67,9.42Zm29.78-21.34c-3.46,2.29-7.8,2.15-9.6-.54s-.61-6.79,2.56-9.21c3.44-2.26,7.76-1.77,9.76,1s.71,6.51-2.72,8.79Zm31.6-18.85c-3.68,2-8.46,1.39-10.64-1.39s-.91-6.69,2.65-8.7,8.25-1.39,10.48,1.38,1.2,6.7-2.49,8.71Zm32.84-17.28c-3.77,1.87-8.8,1.13-11.22-1.72s-1.35-6.6,2.33-8.51,8.65-1,11.14,1.82,1.52,6.55-2.25,8.41Zm34-15.75c-3.89,1.71-9.23.86-11.89-2s-1.65-6.54,2.22-8.2a11.15,11.15,0,0,1,11.79,2c2.65,2.81,1.76,6.44-2.12,8.14Zm34.92-14.43c-4,1.61-9.57.72-12.38-2.06s-1.85-6.3,2-7.87,9.36-.55,12.25,2.16,2.12,6.17-1.87,7.77ZM755,90c-4.07,1.46-9.83.49-12.81-2.17s-2.15-6,1.85-7.45,9.7-.41,12.78,2.19S759,88.53,755,90Zm36.68-11.85c-4.14,1.31-10.11.33-13.23-2.22s-2.31-5.68,1.83-7,10-.11,13.24,2.38,2.31,5.48-1.84,6.79ZM569.53,211c-4,2.67-8.73,2.54-10.58-.14s0-7.28,3.79-10,8.32-2.75,10.24.09c2.08,2.84.51,7.39-3.45,10.07Zm32.26-20c-4.19,2.42-9.21,2.11-11.46-.82-2.09-3-.39-7.44,3.58-10,4.06-2.35,9.11-1.8,11.39,1.24s.68,7.22-3.51,9.63Zm33.69-18.05c-4.33,2.16-9.87,1.47-12.33-1.62s-.75-7.49,3.41-9.7,9.61-1.41,12.08,1.71,1.15,7.46-3.16,9.61Zm34.6-16.81c-4.46,2.05-10.17,1.12-12.89-2s-1.19-7.48,3.14-9.56,10-1.08,12.73,2.11,1.48,7.45-3,9.49Zm35.52-15.72c-4.53,1.91-10.58.91-13.47-2.25s-1.42-7.44,3.08-9.36,10.26-.89,13.18,2.36,1.72,7.34-2.79,9.25Zm36.17-14.64c-4.61,1.85-10.85.68-13.9-2.45s-1.66-7.28,2.91-9.08,10.55-.7,13.62,2.47,2,7.22-2.63,9.06Zm36.83-13.71c-4.65,1.71-11.06.56-14.23-2.6s-1.83-7,2.77-8.71,10.9-.49,14.07,2.62,2,7-2.61,8.69Zm37.48-12.79c-4.78,1.59-11.29.4-14.55-2.56s-2-6.77,2.73-8.31,11.25-.23,14.46,2.75c3.38,2.94,2.13,6.52-2.64,8.12ZM583.44,231c-4.72,2.7-10.31,2.41-12.43-.51s.11-7.78,4.67-10.6,9.92-2.57,12.07.58.38,7.83-4.31,10.53Zm34.4-18.44c-4.89,2.47-10.79,2.06-13.24-1.15s-.31-8.12,4.36-10.83c4.82-2.49,10.65-1.74,13.07,1.64,2.63,3.34.68,7.87-4.19,10.34Zm35.34-16.95c-5,2.31-11.26,1.41-14-2-2.54-3.48-.69-8.24,4.22-10.59s11.08-1.43,13.73,2.16c2.81,3.42,1,8.15-4,10.46Zm36-16.2c-5.07,2.22-11.54,1.11-14.45-2.42s-1-8.33,4-10.62,11.36-1.12,14.27,2.57c3,3.52,1.24,8.25-3.8,10.47ZM725.85,164c-5.16,2.13-11.82.92-14.92-2.66s-1.27-8.36,3.91-10.52c5-2.13,11.55-.87,14.6,2.83s1.6,8.21-3.59,10.35Zm37.07-14.69c-5.2,2.06-12,.8-15.24-2.84s-1.47-8.33,3.73-10.38,11.86-.71,15,3,1.7,8.17-3.49,10.24Zm37.49-14.09c-5.27,2-12.21.67-15.43-2.92s-1.64-8.17,3.59-10.14,12.1-.49,15.34,3.14,1.77,8-3.5,9.92Zm37.85-13.47c-5.33,1.87-12.31.53-15.62-3S821,110.9,826.28,109s12.39-.33,15.69,3.12,1.62,7.68-3.71,9.55ZM597.76,250.77c-5.49,2.64-11.94,2-14.26-1.11s.2-8.13,5.52-10.94,11.57-2.37,14,1.06.21,8.37-5.25,11Zm36.1-16.69c-5.56,2.52-12.29,1.78-14.93-1.76s-.21-8.62,5.26-11.33c5.42-2.54,12-1.68,14.76,2.08s.48,8.48-5.09,11Zm36.68-15.71c-5.67,2.35-12.59,1.18-15.47-2.56s-.62-8.94,5-11.35,12.4-1.36,15.3,2.58.8,9-4.85,11.33ZM707.67,203c-5.73,2.34-12.95,1-16-2.94s-.78-9.08,4.86-11.49,12.66-1.09,15.76,3c3.06,3.94,1,9.06-4.65,11.41ZM745.07,188c-5.72,2.27-13.09.88-16.24-3.12s-1-9.28,4.7-11.59,12.8-.9,16,3.22,1.27,9.22-4.45,11.49Zm37.55-14.55c-5.74,2.26-13.13.77-16.44-3.33-3.12-4.09-1.06-9.25,4.62-11.52s13-.75,16.28,3.36,1.3,9.24-4.46,11.49Zm37.84-14.27c-5.78,2.2-13.25.63-16.52-3.4s-1.23-9.19,4.55-11.39,13.17-.53,16.41,3.59,1.35,9-4.44,11.2Zm37.94-14c-5.86,2.14-13.2.62-16.5-3.36s-1.16-9,4.59-11.1,13.3-.48,16.56,3.5,1.21,8.83-4.65,11Zm-246,125.21c-6.2,2.49-13.43,1.51-16-2s.29-8.47,6.41-11.11c6-2.85,13.17-2.06,15.88,1.7s0,8.85-6.27,11.37Zm37.5-14.75c-6.27,2.44-13.6,1.23-16.45-2.59s-.23-9.11,5.95-11.75S652.92,240,655.9,244s.23,9.29-6,11.72Zm37.66-14.4c-6.28,2.38-13.81.94-16.89-3.16s-.48-9.63,5.76-12.12,13.81-1.1,16.88,3.16.52,9.73-5.75,12.12ZM725.3,227c-6.28,2.42-14,.72-17.12-3.61s-.61-9.83,5.61-12.37,13.82-.91,17,3.54.77,10-5.51,12.44Zm37.8-14.32c-6.23,2.42-14,.74-17.26-3.73s-.8-10.17,5.45-12.63,14-.77,17.28,3.77.78,10.18-5.47,12.59Zm37.77-14.3c-6.29,2.42-14,.7-17.27-3.9s-.87-10.2,5.33-12.64,14.08-.67,17.34,3.93.89,10.18-5.4,12.61ZM838.56,184c-6.26,2.41-13.94.73-17.26-3.86s-.83-10.25,5.49-12.67,14.15-.53,17.4,4.07.65,10-5.63,12.46Zm37.76-14.31c-6.3,2.37-13.94.73-17.17-3.79s-.73-10.14,5.53-12.52c6.43-2.33,14.13-.59,17.31,3.94s.65,10-5.67,12.37ZM666.14,277.08c-6.89,2.32-15.19.76-18.26-3.34s-.07-9.42,6.66-12,14.9-1.08,18.18,3.28.32,9.7-6.58,12Zm38.25-12.86c-6.91,2.36-15.22.57-18.46-3.87s-.37-10.12,6.45-12.57,15.08-.87,18.42,3.79.5,10.29-6.41,12.65ZM742.49,251c-6.8,2.46-15.17.48-18.53-4.22s-.5-10.43,6.25-13,15.12-.7,18.44,4.12.65,10.67-6.16,13.13Zm37.84-13.5c-6.8,2.5-15.09.54-18.45-4.32s-.63-10.93,6.2-13.5,15-.66,18.35,4.33.7,11-6.1,13.49Zm37.52-13.9c-6.73,2.56-14.9.64-18.31-4.34s-.55-11.19,6.28-13.76,14.93-.55,18.15,4.41.6,11.15-6.12,13.69Zm37.31-14.12c-6.73,2.6-14.78.64-18-4.4s-.45-11.22,6.35-13.9,14.91-.44,18.15,4.57.26,11.11-6.47,13.73ZM682.28,298.6c-7.48,2.11-16.46.08-19.92-4.31s-.14-9.77,7.34-12.14,16.27-.57,19.83,4.08.24,10.26-7.25,12.37Zm38.59-11.21c7.34-2.26,10.51-8.22,6.92-13.24s-12.34-7-19.69-4.48-10.66,8.21-7.1,13,12.52,7,19.87,4.74Zm38-12c7.27-2.43,10.39-8.68,6.83-13.95s-12.25-7.34-19.57-4.7-10.48,8.61-6.94,13.68,12.39,7.41,19.68,5Zm37.46-12.66c7.16-2.55,10.35-9,6.89-14.41s-12.05-7.58-19.26-5-10.43,9.06-6.94,14.3,12.17,7.64,19.31,5.08Zm18.12-18.3c-3.39-5.39-.3-12.06,7-14.79s15.62-.46,18.93,5,.08,12.11-7,14.81S817.86,249.9,814.46,244.47Z"/><path class="cls-8" d="M1309.12,411.05a11.85,11.85,0,0,0-.91-5.84,34,34,0,0,0-2.91-5.69,66.79,66.79,0,0,0-8.72-10.69,127.58,127.58,0,0,0-24.6-18.69c-18.75-11.34-41.55-20.16-65.83-26.64a446.31,446.31,0,0,0-76.25-12.82c-26.07-2.24-52.34,2.78-78.23,3.81-51.83,2.08-94.05,4.2-141.61,14.53-11.94,2.56-23.67,5.38-35.29,8.31q-8.71,2.18-17.31,4.54l-8.32,2.29-7.43,2c-9.84,2.58-19.71,5.08-29.69,7.3s-20,4.38-30.06,6.23a753.19,753.19,0,0,1-122.77,13c-41.19.89-82.57-2-121.38-9.41a347.73,347.73,0,0,1-54.95-15C466,362,450.79,354.25,439.76,345s-17.69-14.73-16-27.2c.91-6.19,3.87-12.7,8.79-19s11.53-12.53,19.08-18.56A148.86,148.86,0,0,0,419.24,292c-9.92,5.17-19,11.69-25.43,19.6s-10.42,11.64-10.94,21,2,18.69,6.7,27.4S401,376.83,409,384.25A171.33,171.33,0,0,0,436,404.58c19.86,12.28,42.65,22.16,66.74,30,48.28,15.8,101.73,23.68,155,25.37a725.69,725.69,0,0,0,156.84-12.45c12.53-2.42,24.93-5.06,37.1-8s24.16-6.16,35.86-9.65L919,420.26c10-3,20.12-5.9,30.19-8.75,40.43-11.24,73.58-20.84,115.35-27.37s84.37-9.94,127-7.22a349.77,349.77,0,0,1,63,9.52,224.4,224.4,0,0,1,29.74,9.73,126.54,126.54,0,0,1,13.68,6.5,62.84,62.84,0,0,1,6.16,3.84A22.69,22.69,0,0,1,1309.12,411.05Z"/><g class="cls-9"><path class="cls-10" d="M433.7,275.49c8.53-7.89,20.52-14.4,33.63-19.57a225,225,0,0,1,23.51-7.52,28.64,28.64,0,0,0-3.2,8.32,22.14,22.14,0,0,0-.31,3.69c-.81.75-1.61,1.49-2.36,2.25-6.51,6.32-10.44,12.83-11.64,19-2.26,12.47,6.64,17.94,21.16,27.2s34.69,17,57,23.34a581.62,581.62,0,0,0,72.73,15c51.36,7.45,106.14,10.3,160.66,9.41a1309.3,1309.3,0,0,0,162.51-13c13.36-1.85,26.6-4,39.78-6.23s26.27-4.72,39.28-7.3l9.85-2,11-2.29c7.56-1.57,7.28-3.09,15-4.54,15.38-2.93,30.91-5.74,46.71-8.31,63-10.33,129.31-12.45,197.91-14.53,34.26-1,77-6.05,111.48-3.81s68.71,6.34,100.92,12.82a491,491,0,0,1,54.25,14c-19.56-2.79-39.46-4.57-59.37-5.55-56.37-2.72-120.7.77-176,7.21s-109.66,16.14-163.15,27.37c-13.36,2.84-26.72,5.72-40,8.75l-41.56,9.62c-15.52,3.5-23.47,6.67-39.56,9.67s-32.52,5.58-49.12,8a1263.32,1263.32,0,0,1-207.58,12.46c-70.48-1.71-141.22-9.57-205.16-25.37-31.87-7.88-62-17.75-88.34-30.05A233.52,233.52,0,0,1,468,323.2c-10.53-7.41-19.45-15.54-25.68-24.27s-9.64-12.72-8.86-22C433.54,276.42,433.63,276,433.7,275.49Z"/></g></g><g id="Objects"><text class="cls-11" transform="translate(282.91 530.26)">You Dream We Deliver</text><polygon class="cls-12" points="755.02 339.79 808.88 339.79 781.95 372.14 755.02 404.48 728.09 372.14 701.16 339.79 755.02 339.79"/><path class="cls-13" d="M764.28,332.58c-2-1.2-4.06-2.44-6-3.74C760.22,330.13,762.24,331.37,764.28,332.58Z"/><path class="cls-14" d="M781.23,341.21c-2-.85-3.88-1.73-5.78-2.66Q778.3,339.93,781.23,341.21Z"/><path class="cls-15" d="M758.23,60.63c2-1.3,4-2.54,6-3.74C762.24,58.1,760.22,59.34,758.23,60.63Z"/><path class="cls-16" d="M781.23,48.26q-2.93,1.27-5.78,2.66C777.35,50,779.28,49.11,781.23,48.26Z"/><path class="cls-17" d="M758.23,328.84c2,1.29,4,2.53,6,3.74C762.24,331.38,760.22,330.14,758.23,328.84Z"/><path class="cls-18" d="M764.28,56.89c-2,1.21-4.06,2.45-6,3.74C760.22,59.33,762.24,58.09,764.28,56.89Z"/><path class="cls-19" d="M775.45,338.55q2.85,1.38,5.78,2.66C779.28,340.36,777.35,339.48,775.45,338.55Z"/><path class="cls-20" d="M781.23,48.26q-2.93,1.27-5.78,2.66C777.35,50,779.28,49.11,781.23,48.26Z"/><path class="cls-17" d="M758.23,328.84c2,1.29,4,2.53,6,3.74C762.24,331.38,760.22,330.14,758.23,328.84Z"/><path class="cls-18" d="M764.28,56.89c-2,1.21-4.06,2.45-6,3.74C760.22,59.33,762.24,58.09,764.28,56.89Z"/><path class="cls-19" d="M775.45,338.55q2.85,1.38,5.78,2.66C779.28,340.36,777.35,339.48,775.45,338.55Z"/><path class="cls-20" d="M781.23,48.26q-2.93,1.27-5.78,2.66C777.35,50,779.28,49.11,781.23,48.26Z"/><path class="cls-21" d="M799.27,41.66c-1,.31-2.06.62-3.08,1q-4.87,1.56-9.61,3.44c-.71.27-1.41.56-2.12.84-1.08.45-2.16.9-3.23,1.37q-2.93,1.27-5.78,2.66c-1.91.92-3.8,1.88-5.65,2.88s-3.71,2-5.52,3.09c-2,1.21-4.06,2.45-6,3.74-.66.42-1.32.85-2,1.3-.87.59-1.74,1.17-2.6,1.78s-1.95,1.38-2.91,2.09c-.63.46-1.27.92-1.89,1.41s-1,.77-1.53,1.17l-1.24,1c-.63.48-1.24,1-1.84,1.48s-1.22,1-1.82,1.5q-1.62,1.35-3.21,2.76c-.53.46-1.06.94-1.58,1.42l-1.55,1.43c-.47.42-.93.85-1.37,1.3s-.7.65-1,1c-.56.55-1.12,1.1-1.67,1.66s-1.11,1.1-1.66,1.67v0l-1.61,1.69c-1.08,1.14-2.15,2.3-3.18,3.47-.52.58-1,1.18-1.56,1.78l-1,1.14c-.23.26-.46.52-.67.8s-.45.52-.67.79q-1.12,1.35-2.19,2.73c-.35.43-.7.88-1,1.33-.62.8-1.23,1.6-1.83,2.41l-.1.14c-.4.53-.8,1.08-1.18,1.62l-.11.15q-1.38,1.92-2.7,3.88c-.62.93-1.25,1.86-1.86,2.81-.24.38-.48.76-.73,1.14-.63,1-1.26,2-1.87,3-.71,1.18-1.41,2.37-2.09,3.58s-1.35,2.41-2,3.63c-.46.86-.91,1.73-1.35,2.6q-.84,1.64-1.62,3.27c-.21.45-.42.89-.64,1.34s-.41.88-.62,1.33c-.43.95-.87,1.92-1.29,2.9s-.74,1.71-1.08,2.57c0,.05,0,.11-.08.16l-.07.19c-.41,1-.81,2-1.2,3,0,.07,0,.14-.07.2-.44,1.14-.86,2.27-1.27,3.41-.3.8-.57,1.61-.85,2.41l-.51,1.53c-.17.5-.33,1-.51,1.53-.25.79-.49,1.58-.73,2.38-.16.55-.32,1.1-.47,1.64l-.54,1.84c-.23.86-.47,1.73-.69,2.6q-.27,1-.51,2c-.19.75-.37,1.5-.54,2.24,0,.1-.05.19-.06.29-.09.38-.18.77-.26,1.17s-.21,1-.31,1.45c-.23,1.06-.44,2.13-.65,3.2-.24,1.27-.46,2.54-.66,3.82-.09.5-.17,1-.25,1.5a1.87,1.87,0,0,1,0,.25l-.22,1.53c-.14,1-.26,2-.39,3s-.23,2-.33,3-.23,2.18-.31,3.27-.18,2.22-.25,3.34q0,.61-.06,1.23A68.52,68.52,0,0,1,822,194.74,159.89,159.89,0,0,1,707.89,347.86a159.77,159.77,0,0,0,91.38-306.2Zm-41,287.18c2,1.29,4,2.53,6,3.74C762.24,331.38,760.22,330.14,758.23,328.84Zm17.22,9.71q2.85,1.38,5.78,2.66C779.28,340.36,777.35,339.48,775.45,338.55Z"/><path class="cls-22" d="M822,194.74a68.52,68.52,0,0,1-136.46,8.85c0-.59-.08-1.19-.1-1.8,0-.24,0-.47,0-.72v0c0-.82-.06-1.65-.07-2.49h0c0-1.27-.05-2.54-.05-3.8s0-2.54.05-3.81h0c0-.84,0-1.67.07-2.49v0c0-.24,0-.48,0-.72,0-.61.06-1.2.1-1.8A68.52,68.52,0,0,1,822,194.74Z"/><path class="cls-23" d="M753.49,263.25a68.61,68.61,0,0,1-67.94-59.66q0,.61.06,1.23c-.06-1-.11-2-.16-3,0-.24,0-.47,0-.72v0c0-.82-.06-1.65-.07-2.49h0c0-1.27-.05-2.54-.05-3.8s0-2.54.05-3.81h0c0-.84,0-1.67.07-2.49v0c0-.24,0-.48,0-.72,0-1,.1-2,.16-3s.15-2.23.25-3.34.18-2.17.31-3.27.21-2,.33-3,.25-2,.39-3l.22-1.53a1.87,1.87,0,0,0,0-.25c.08-.49.16-1,.25-1.5.2-1.28.42-2.55.66-3.82.21-1.07.42-2.14.65-3.2.1-.48.19-1,.31-1.45s.17-.79.26-1.17c0-.1,0-.19.06-.29.17-.74.35-1.49.54-2.24s.33-1.36.51-2c.22-.87.46-1.74.69-2.6l.54-1.84c.15-.54.31-1.09.47-1.64.24-.8.48-1.59.73-2.38.18-.51.34-1,.51-1.53s.33-1,.51-1.53c.28-.8.55-1.61.85-2.41.41-1.14.83-2.27,1.27-3.41,0-.06,0-.13.07-.2.39-1,.79-2,1.2-3l.07-.19s.05-.11.08-.16c.34-.86.71-1.72,1.08-2.57s.86-2,1.29-2.9c.21-.45.41-.9.62-1.33s.43-.89.64-1.34q.78-1.64,1.62-3.27c.44-.87.89-1.74,1.35-2.6.65-1.22,1.32-2.43,2-3.63s1.38-2.4,2.09-3.58c.61-1,1.24-2,1.87-3,.25-.38.49-.76.73-1.14.61-.95,1.24-1.88,1.86-2.81q1.32-2,2.7-3.88l.11-.15c.38-.54.78-1.09,1.18-1.62l.1-.14c.6-.81,1.21-1.61,1.83-2.41.33-.45.68-.9,1-1.33q1.07-1.38,2.19-2.73c.22-.27.45-.53.67-.79s.44-.54.67-.8l1-1.14c.51-.6,1-1.2,1.56-1.78,1-1.17,2.1-2.33,3.18-3.47l1.61-1.69v0c.55-.57,1.11-1.13,1.66-1.67s1.11-1.11,1.67-1.66c.34-.34.69-.67,1-1s.9-.88,1.37-1.3l1.55-1.43c.52-.48,1-1,1.58-1.42q1.59-1.41,3.21-2.76c.6-.51,1.21-1,1.82-1.5s1.21-1,1.84-1.48l1.24-1q.75-.6,1.53-1.17c.62-.49,1.26-.95,1.89-1.41,1-.71,1.93-1.4,2.91-2.09s1.73-1.19,2.6-1.78c.66-.45,1.32-.88,2-1.3,2-1.3,4-2.54,6-3.74,1.81-1,3.65-2.09,5.52-3.09s3.74-2,5.65-2.88,3.83-1.81,5.78-2.66c1.07-.47,2.15-.92,3.23-1.37.71-.28,1.41-.57,2.12-.84q4.74-1.89,9.61-3.44c1-.33,2-.64,3.08-1a160.63,160.63,0,0,0-91.38,0h0a159.79,159.79,0,0,0,0,306.25h0A159.89,159.89,0,0,0,822,194.74,68.6,68.6,0,0,1,753.49,263.25Z"/><path class="cls-24" d="M753.49,263.25a68.61,68.61,0,0,1-67.94-59.66q0,.61.06,1.23c-.06-1-.11-2-.16-3,0-.24,0-.47,0-.72v0c0-.82-.06-1.65-.07-2.49h0c0-1.27-.05-2.54-.05-3.8s0-2.54.05-3.81h0c0-.84,0-1.67.07-2.49v0c0-.24,0-.48,0-.72,0-1,.1-2,.16-3s.15-2.23.25-3.34.18-2.17.31-3.27.21-2,.33-3,.25-2,.39-3l.22-1.53a1.87,1.87,0,0,0,0-.25c.08-.49.16-1,.25-1.5.2-1.28.42-2.55.66-3.82.21-1.07.42-2.14.65-3.2.1-.48.19-1,.31-1.45s.17-.79.26-1.17c0-.1,0-.19.06-.29.17-.74.35-1.49.54-2.24s.33-1.36.51-2c.22-.87.46-1.74.69-2.6l.54-1.84c.15-.54.31-1.09.47-1.64.24-.8.48-1.59.73-2.38.18-.51.34-1,.51-1.53s.33-1,.51-1.53c.28-.8.55-1.61.85-2.41.41-1.14.83-2.27,1.27-3.41,0-.06,0-.13.07-.2.39-1,.79-2,1.2-3l.07-.19s.05-.11.08-.16c.34-.86.71-1.72,1.08-2.57s.86-2,1.29-2.9c.21-.45.41-.9.62-1.33s.43-.89.64-1.34q.78-1.64,1.62-3.27c.44-.87.89-1.74,1.35-2.6.65-1.22,1.32-2.43,2-3.63s1.38-2.4,2.09-3.58c.61-1,1.24-2,1.87-3,.25-.38.49-.76.73-1.14.61-.95,1.24-1.88,1.86-2.81q1.32-2,2.7-3.88l.11-.15c.38-.54.78-1.09,1.18-1.62l.1-.14c.6-.81,1.21-1.61,1.83-2.41.33-.45.68-.9,1-1.33q1.07-1.38,2.19-2.73c.22-.27.45-.53.67-.79s.44-.54.67-.8l1-1.14c.51-.6,1-1.2,1.56-1.78,1-1.17,2.1-2.33,3.18-3.47l1.61-1.69v0c.55-.57,1.11-1.13,1.66-1.67s1.11-1.11,1.67-1.66c.34-.34.69-.67,1-1s.9-.88,1.37-1.3l1.55-1.43c.52-.48,1-1,1.58-1.42q1.59-1.41,3.21-2.76c.6-.51,1.21-1,1.82-1.5s1.21-1,1.84-1.48l1.24-1q.75-.6,1.53-1.17c.62-.49,1.26-.95,1.89-1.41,1-.71,1.93-1.4,2.91-2.09s1.73-1.19,2.6-1.78c.66-.45,1.32-.88,2-1.3,2-1.3,4-2.54,6-3.74,1.81-1,3.65-2.09,5.52-3.09s3.74-2,5.65-2.88,3.83-1.81,5.78-2.66c1.07-.47,2.15-.92,3.23-1.37.71-.28,1.41-.57,2.12-.84q4.74-1.89,9.61-3.44c1-.33,2-.64,3.08-1a160.63,160.63,0,0,0-91.38,0h0a159.79,159.79,0,0,0,0,306.25h0A159.89,159.89,0,0,0,822,194.74,68.6,68.6,0,0,1,753.49,263.25Z"/><path class="cls-25" d="M822,194.74a68.52,68.52,0,1,1-68.52-68.52A68.6,68.6,0,0,1,822,194.74Z"/><path class="cls-26" d="M143.52,143.46c0-49.95-.3-56.08-.92-65.89-.61-8.88-3.37-14.09-11-15.93-2.76-.61-7-.61-10.11-.92-4-.31-5.52-1.53-5.52-3.37s1.84-2.76,6.74-2.76c17.47,0,32.18.92,45.67.92,6.43,0,81.52-.31,86.42-.31A108.18,108.18,0,0,0,271.32,54a22.08,22.08,0,0,1,4.9-1.23c1.54,0,1.84,1.23,1.84,2.76s-.61,4.6-1.53,13.48c-.92,6.13-1.53,16.86-2.45,32.8,0,2.45-1.23,4.29-3.07,4.29-1.53,0-2.75-1.54-3.06-4.29a36.28,36.28,0,0,0-1.53-10.73c-1.54-7-5.52-11-20.23-12.26-10.11-.92-36.78-1.53-46-1.53-1.84,0-2.45.92-2.45,3.06v67.42c0,2.15.3,3.68,2.45,3.68,8.58.31,33.4,0,44.44-.3,15-.62,19-1.54,22.37-7,1.84-2.76,2.76-4,4.29-4,1.84,0,1.84,1.84,1.84,3.68,0,3.07-1.53,14.1-2.45,26-.31,7.05-.31,22.07-.31,25.44,0,4-.92,5.82-2.76,5.82-2.14,0-2.76-2.14-3.37-4.9-.31-2.46-.61-4.6-.92-7.05-1.22-8.89-5.51-14.1-20.53-15-8.58-.61-33.71-1.22-43.21-1.22-1.54,0-1.84,1.53-1.84,4V198c0,10.42-.31,28.5,0,40.14.3,21.46,4.6,26.36,38.61,26.36,8,0,19.92-.31,28.5-3.68s12.26-10.11,15-24.21q.92-5.52,3.68-5.52c2.45,0,2.76,3.07,2.76,6.75,0,11.95-3.37,35.24-4.91,41.06-2.14,8-4.29,8.28-15.63,8.28-42.29,0-65.27-1.84-97.45-1.84-14.41,0-27.28.92-44.13.92-5.52,0-7.36-.92-7.36-3.07,0-1.53,1.53-3.06,6.13-3.06a60.45,60.45,0,0,0,9.19-1.23c8.59-1.22,9.81-12.87,10.42-32.18.62-12.26.92-30.34.92-49.34Z"/><path class="cls-26" d="M386.25,162.47c0-38.93-.31-46-.62-54.56-.3-11-4.59-14.09-12.56-15.32-3.37-.31-6.44-.61-9.5-.92-3.68,0-4.91-1.84-4.91-3.06,0-2.15,2.45-3.07,5.52-3.07,17.47,0,29.73.92,45.05.92,19.61,0,37.08-.92,47.81-.92,60.37,0,71.41,25.75,71.41,41.07,0,21.45-15.94,34.94-34.33,43.52,30,8.88,53.94,25.43,53.94,57.92,0,29.73-30.34,58.84-85.5,58.84-9.5,0-46.89-1.53-53.33-1.53-12.87,0-26.05.92-41.37.92-4.29,0-6.13-1.23-6.13-3.07,0-1.53.92-3.06,4.9-3.06,3.37-.31,5.52-.31,7.66-.92,6.44-.92,9.5-4,10.12-14.4,1.53-15.33,1.84-29.43,1.84-64.67Zm50.87,46.58c0,13.18-.31,29.73.92,43.82.3,6.13,1.22,9.2,6.13,12.26,5.21,3.07,12.87,4,18.08,4,14.4,0,30.65-9.5,30.65-34.94,0-13.49-2.46-27.28-13.8-37.7-7.66-7.66-18.08-10.72-26-11.34a92.28,92.28,0,0,0-14.41.31c-.92,0-1.53.61-1.53,1.84Zm0-44.75c0,2.15,1.53,2.76,3.06,2.76,4.29,1.23,13.18.92,16.55.92,5.21,0,13.79-.92,17.16-4,5.52-4.29,8.59-12.87,8.59-23.91,0-22.06-11-38-32.49-38-4.29,0-8,.31-10.11,1.23-1.23.61-2.76,1.22-2.76,4.9Z"/><path class="cls-26" d="M984.74,162.47c0-41.38-.31-45.36-.92-53.94-.62-11.34-5.52-15-11.34-15.63-4.91-.92-7.36-.92-9.5-1.23-3.37,0-4.6-1.53-4.6-3.06s.92-3.07,5.52-3.07c11,0,39.22.92,42.6.92,4.59,0,33.4-.92,47.19-.92,27.58,0,46.58,2.76,57.62,8.89,14.71,7.36,26,20.53,26,41.37s-14.1,37.7-36.47,52.1c14.4,22.07,34,51.18,50.87,69.88,14.1,16.24,20.53,20.22,29.12,21.45,2.75.61,5.2.61,7.35.92,2.76.31,4.29,1.84,4.29,3.37,0,2.45-3.06,2.76-5.52,2.76h-23.9c-31.87,0-45-3.07-55.16-9.5-8-5.21-16.55-15.94-26.36-31.87-12.87-21.46-17.47-30.35-22.68-38.31-.3-.92-1.53-1.54-3.06-1.54l-18.39-.3a1.93,1.93,0,0,0-2.15,2.14v16.25c0,19.92.62,32.79,1.23,40.76.61,6.74,2.14,12.26,10.42,14.4,3.68,1.23,9.19,1.53,12.56,1.84,4.91.31,4.91,1.84,4.91,3.37s-1.23,2.76-5.21,2.76c-18.7,0-51.18-.92-52.71-.92-3.07,0-31.88.92-40.76.92-4.6,0-5.52-1.53-5.52-3.37,0-1.54,1.84-2.76,4.9-2.76,2.45-.31,6.44-.31,9.5-.92,5.52-1.23,8-5.82,8.58-15.32,1.23-11,1.54-28.81,1.54-54.86ZM1035.3,179a5.09,5.09,0,0,0,2.45,4c5.22,2.76,14.72,3.68,22.68,3.68,6.13,0,12.57-1.23,16.86-4.29,4.9-3.68,9.5-14.41,9.5-31.57,0-37.7-25.74-46.58-39.53-46.58-4,0-8.59,0-10.12.92-1.22.61-1.84.92-1.84,3.06Z"/><path class="cls-26" d="M1227.76,187c0-55.47,38-105.11,118.6-105.11,69.88,0,113.7,46.88,113.7,99,0,62.22-43.21,109.11-115.54,109.11C1263,290,1227.76,233.87,1227.76,187Zm173.46,6.13c0-40.45-14.71-93.47-64.36-93.47-23.6,0-50.26,12-50.26,74.16,0,49,19.61,97.77,65.28,97.77C1368.73,271.57,1401.22,265.13,1401.22,193.11Z"/></g></g></svg>