<svg xmlns="http://www.w3.org/2000/svg" xmlns:xlink="http://www.w3.org/1999/xlink" width="44.999" height="32.386" viewBox="0 0 44.999 32.386">
  <defs>
    <linearGradient id="linear-gradient" x1="0.5" x2="0.5" y2="1" gradientUnits="objectBoundingBox">
      <stop offset="0" stop-color="#982929"/>
      <stop offset="1" stop-color="#e61e1e"/>
    </linearGradient>
  </defs>
  <path id="Icon_awesome-opencart" data-name="Icon awesome-opencart" d="M29.763,30.987a3.213,3.213,0,1,1-3.206-3.22,3.2,3.2,0,0,1,3.206,3.22Zm-17.852-3.22a3.213,3.213,0,1,0,3.22,3.22,3.212,3.212,0,0,0-3.22-3.22ZM32.421,8.782C11.173,8.782,5.759,7.882,0,1.807c2.419,3.635,3.748,10.47,26.234,10.139,23.435-.352,9.141,6.054,4.978,13.282C44.339,13.507,53.67,8.782,32.421,8.782Z" transform="translate(0 -1.807)" fill="url(#linear-gradient)"/>
</svg>
