<svg xmlns="http://www.w3.org/2000/svg" width="74.438" height="56.249" viewBox="0 0 74.438 56.249">
  <g id="Buy" transform="translate(0)">
    <rect id="Rectangle_58" data-name="Rectangle 58" width="3" height="32" transform="translate(71.438 0.193)" fill="#05203d"/>
    <path id="Path_89" data-name="Path 89" d="M53.3,8H14V51.749H59.985V21.794l-1.56,2.969c-1.924,3.662-5.043,3.662-6.967,0a15.947,15.947,0,0,1,0-13.258ZM27.138,33H23.854c-.907,0-1.642-1.4-1.642-3.125s.735-3.125,1.642-3.125h3.285c.907,0,1.642,1.4,1.642,3.125S28.046,33,27.138,33Zm9.854-6.25c2.4-.009,4.448,3.273,4.854,7.768s-.951,8.892-3.211,10.407v3.7H35.35v-3.7c-1.961-1.32-3.276-4.841-3.285-8.8H35.35c0,1.726.735,3.125,1.642,3.125s1.642-1.4,1.642-3.125S37.9,33,36.992,33c-2.4.009-4.448-3.273-4.854-7.768s.951-8.892,3.211-10.407v-3.7h3.285v3.7c1.961,1.32,3.276,4.841,3.285,8.8H38.635c0-1.726-.735-3.125-1.642-3.125s-1.642,1.4-1.642,3.125S36.085,26.75,36.992,26.75Zm13.138,0c.907,0,1.642,1.4,1.642,3.125S51.038,33,50.131,33H46.846c-.907,0-1.642-1.4-1.642-3.125s.735-3.125,1.642-3.125Z" transform="translate(-14 4.5)" fill="#05203d"/>
    <path id="Path_90" data-name="Path 90" d="M63.067,19.465l-1.807,1.147a6.483,6.483,0,0,1-7.272,0l-.847-.537-2.089,3.969v9l1.107.856c3.352,2.579,7.144,2.021,10.248-1.506l2.58-2.944A1.14,1.14,0,0,1,65.823,29l1.652-.022V9.056L62.507,4.328A1.088,1.088,0,0,0,61.773,4H37.7a1.289,1.289,0,0,0-1.026.684L33.021,10.25H44.366l1.256-2.391c.641-1.221,1.681-1.221,2.322,0a5.316,5.316,0,0,1,0,4.419L41.563,24.425a5.316,5.316,0,0,0,0,4.419c.641,1.22,1.681,1.22,2.322,0l4.364-8.3h0l3.285-6.25c.44-.837,1.09-1.13,1.68-.756l1.807,1.15a4.629,4.629,0,0,0,5.193,0l1.807-1.15c.862-.545,1.793.342,2.079,1.981s-.18,3.411-1.041,3.956Z" transform="translate(-1.783 -4)" fill="#05203d"/>
  </g>
</svg>
