<svg xmlns="http://www.w3.org/2000/svg" width="20.504" height="14.353" viewBox="0 0 20.504 14.353">
  <path id="Icon_awesome-money-check" data-name="Icon awesome-money-check" d="M0,15.578A1.025,1.025,0,0,0,1.025,16.6H19.479A1.025,1.025,0,0,0,20.5,15.578V5.326H0ZM14.353,8.914a.512.512,0,0,1,.513-.513h3.076a.512.512,0,0,1,.513.513V9.939a.512.512,0,0,1-.513.513H14.866a.512.512,0,0,1-.513-.513Zm0,3.845a.256.256,0,0,1,.256-.256H18.2a.256.256,0,0,1,.256.256v.513a.256.256,0,0,1-.256.256H14.609a.256.256,0,0,1-.256-.256ZM2.05,9.683a.256.256,0,0,1,.256-.256h9.74a.256.256,0,0,1,.256.256V10.2a.256.256,0,0,1-.256.256H2.307A.256.256,0,0,1,2.05,10.2Zm0,3.076a.256.256,0,0,1,.256-.256H7.945a.256.256,0,0,1,.256.256v.513a.256.256,0,0,1-.256.256H2.307a.256.256,0,0,1-.256-.256ZM19.992,2.25H.513A.512.512,0,0,0,0,2.763V4.3H20.5V2.763A.512.512,0,0,0,19.992,2.25Z" transform="translate(0 -2.25)" fill="#fff"/>
</svg>
