<svg xmlns="http://www.w3.org/2000/svg" width="29" height="28" viewBox="0 0 29 28">
  <g id="Group_6390" data-name="Group 6390" transform="translate(-1167 -3174)">
    <ellipse id="Ellipse_4" data-name="Ellipse 4" cx="14.5" cy="14" rx="14.5" ry="14" transform="translate(1167 3174)" fill="#e3e3e3" opacity="0.11"/>
    <path id="linkedin" d="M3.507,15.679H.259V5.218H3.507ZM1.881,3.791a1.89,1.89,0,1,1,1.881-1.9A1.9,1.9,0,0,1,1.881,3.791ZM15.666,15.679H12.424V10.586c0-1.214-.024-2.77-1.689-2.77-1.689,0-1.948,1.319-1.948,2.683v5.18H5.542V5.218H8.658V6.645H8.7a3.413,3.413,0,0,1,3.074-1.689c3.288,0,3.892,2.165,3.892,4.977v5.746Z" transform="translate(1173.411 3178.846)" fill="#fff"/>
  </g>
</svg>
