<svg id="company_location" data-name="company location" xmlns="http://www.w3.org/2000/svg" width="22.539" height="29.584" viewBox="0 0 22.539 29.584">
  <g id="Group_6282" data-name="Group 6282" transform="translate(0 0)">
    <g id="Group_6281" data-name="Group 6281" transform="translate(0 0)">
      <path id="Path_4577" data-name="Path 4577" d="M82.953,7.69A10.98,10.98,0,0,0,75.8.539,11.5,11.5,0,0,0,65.551,2.182a11.321,11.321,0,0,0-4.589,9.077,11.173,11.173,0,0,0,2.25,6.757l9.021,11.568,9.021-11.569A11.393,11.393,0,0,0,82.953,7.69ZM72.233,17.328A6.069,6.069,0,1,1,78.3,11.259,6.076,6.076,0,0,1,72.233,17.328Z" transform="translate(-60.962 0)" fill="#be1a25"/>
    </g>
  </g>
  <g id="Group_6284" data-name="Group 6284" transform="translate(6.936 6.935)">
    <g id="Group_6283" data-name="Group 6283">
      <path id="Path_4578" data-name="Path 4578" d="M185.333,120.027a4.329,4.329,0,1,0,4.335,4.323A4.33,4.33,0,0,0,185.333,120.027Z" transform="translate(-180.998 -120.027)" fill="#be1a25"/>
    </g>
  </g>
</svg>
