<svg xmlns="http://www.w3.org/2000/svg" xmlns:xlink="http://www.w3.org/1999/xlink" width="104.322" height="120.511" viewBox="0 0 104.322 120.511">
  <defs>
    <linearGradient id="linear-gradient" x1="0.5" y1="0.009" x2="0.5" y2="1.017" gradientUnits="objectBoundingBox">
      <stop offset="0.22" stop-color="#aa002a"/>
      <stop offset="1" stop-color="#cd212a"/>
    </linearGradient>
    <linearGradient id="linear-gradient-2" x1="-0.001" y1="0.5" x2="0.999" y2="0.5" gradientUnits="objectBoundingBox">
      <stop offset="0" stop-color="#7f0011"/>
      <stop offset="1" stop-color="#cd212a"/>
    </linearGradient>
    <radialGradient id="radial-gradient" cx="0.664" cy="0.47" r="0.555" gradientTransform="translate(-0.185) scale(1.37 1)" gradientUnits="objectBoundingBox">
      <stop offset="0.22" stop-color="#880014"/>
      <stop offset="1" stop-color="#cd212a"/>
    </radialGradient>
    <linearGradient id="linear-gradient-3" x1="0.496" y1="0.821" x2="0.513" y2="-0.394" gradientUnits="objectBoundingBox">
      <stop offset="0.22" stop-color="#ff152f" stop-opacity="0"/>
      <stop offset="1" stop-color="#ff5584"/>
    </linearGradient>
  </defs>
  <g id="Group_6347" data-name="Group 6347" transform="translate(20322.322 2891.005)">
    <path id="Path_4608" data-name="Path 4608" d="M718.733,339.79h17.573l-8.786,10.555L718.733,360.9l-8.786-10.551L701.16,339.79Z" transform="translate(-20988.404 -3131.39)" fill="url(#linear-gradient)"/>
    <path id="Path_4621" data-name="Path 4621" d="M722.734,41.66c-.326.1-.672.2-1,.326q-1.589.509-3.135,1.122c-.232.088-.46.183-.692.274-.352.147-.7.294-1.054.447q-.956.414-1.886.868c-.623.3-1.24.613-1.843.94s-1.21.653-1.8,1.008c-.653.395-1.325.8-1.958,1.22-.215.137-.431.277-.653.424-.284.192-.568.382-.848.581s-.636.45-.949.682c-.206.15-.414.3-.617.46s-.326.251-.5.382l-.4.326c-.206.157-.4.326-.6.483s-.4.326-.594.489q-.529.44-1.047.9c-.173.15-.346.307-.516.463l-.506.467c-.153.137-.3.277-.447.424s-.228.212-.326.326c-.183.179-.365.359-.545.542s-.362.359-.542.545h0l-.525.551c-.352.372-.7.75-1.038,1.132-.17.189-.326.385-.509.581l-.326.372c-.075.085-.15.17-.219.261s-.147.17-.219.258q-.365.44-.715.891c-.114.14-.228.287-.326.434-.2.261-.4.522-.6.786l-.033.046c-.13.173-.261.352-.385.529l-.036.049q-.45.626-.881,1.266c-.2.3-.408.607-.607.917-.078.124-.157.248-.238.372-.206.326-.411.653-.61.979-.232.385-.46.773-.682,1.168s-.44.786-.653,1.184c-.15.281-.3.564-.44.848q-.274.535-.529,1.067c-.069.147-.137.29-.209.437s-.134.287-.2.434c-.14.31-.284.626-.421.946s-.241.558-.352.839a.052.052,0,0,1-.026.052l-.023.062q-.2.489-.392.979a.074.074,0,0,1-.023.065c-.144.372-.281.741-.414,1.113-.1.261-.186.525-.277.786l-.166.5c-.055.163-.108.326-.166.5-.082.258-.16.516-.238.777-.052.179-.1.359-.153.535l-.176.6c-.075.281-.153.564-.225.848q-.088.326-.166.653c-.062.245-.121.489-.176.731a.965.965,0,0,1-.02.095c-.029.124-.059.251-.085.382s-.068.326-.1.473c-.075.346-.144.695-.212,1.044-.078.414-.15.829-.215,1.246-.029.163-.055.326-.082.489a.606.606,0,0,1,0,.082l-.072.5c-.046.326-.085.653-.127.979s-.075.653-.108.979-.075.711-.1,1.067-.059.724-.082,1.09q0,.2-.02.4A22.356,22.356,0,0,1,730.15,91.6a52.167,52.167,0,0,1-37.23,49.958,52.128,52.128,0,1,0,29.814-99.9Zm-13.377,93.7c.653.421,1.305.825,1.958,1.22-.662-.392-1.321-.8-1.971-1.22Zm5.618,3.168q.93.45,1.886.868c-.649-.277-1.279-.564-1.9-.868Z" transform="translate(-20977.969 -2930.53)" fill="url(#linear-gradient-2)"/>
    <path id="Path_4623" data-name="Path 4623" d="M645.8,109.548a22.385,22.385,0,0,1-22.167-19.465q0,.2.02.4c-.02-.326-.036-.653-.052-.979V89.27h0c0-.268-.02-.538-.023-.812h0c0-.414-.016-.829-.016-1.24s0-.829.016-1.243h0c0-.274,0-.545.023-.812h0v-.235c0-.326.033-.653.052-.979s.049-.728.082-1.09.059-.708.1-1.067.068-.653.108-.979.082-.653.127-.979l.072-.5a.606.606,0,0,0,0-.082c.026-.16.052-.326.082-.489.065-.418.137-.832.215-1.246.069-.349.137-.7.212-1.044.033-.157.062-.326.1-.473s.055-.258.085-.382a.166.166,0,0,1,.02-.095c.055-.241.114-.486.176-.731s.108-.444.166-.653c.072-.284.15-.568.225-.848l.176-.6c.049-.176.1-.356.153-.535.078-.261.157-.519.238-.777.059-.166.111-.326.166-.5s.108-.326.166-.5c.091-.261.179-.525.277-.786.134-.372.271-.741.414-1.113a.081.081,0,0,1,.023-.065q.191-.489.392-.979l.023-.062s.016-.036.026-.052c.111-.281.232-.561.352-.839s.281-.653.421-.946c.069-.147.134-.294.2-.434s.14-.29.209-.437q.254-.535.529-1.067c.144-.284.29-.568.44-.848.212-.4.431-.793.653-1.184s.45-.783.682-1.168c.2-.326.4-.653.61-.979.082-.124.16-.248.238-.372.2-.31.4-.613.607-.917q.431-.653.881-1.266l.036-.049c.124-.176.255-.356.385-.529l.033-.046c.2-.264.395-.525.6-.786.108-.147.222-.294.326-.434q.349-.45.715-.891c.072-.088.147-.173.219-.258s.144-.176.219-.261l.326-.372c.166-.2.326-.392.509-.581.326-.382.685-.76,1.038-1.132l.525-.551h0c.179-.186.362-.369.542-.545s.362-.362.545-.542c.111-.111.225-.219.326-.326s.294-.287.447-.424l.506-.467a5.8,5.8,0,0,1,.516-.463q.519-.46,1.047-.9c.2-.166.395-.326.594-.489s.395-.326.6-.483l.4-.326q.245-.2.5-.382c.2-.16.411-.31.617-.46.326-.232.63-.457.949-.682s.564-.388.848-.581c.215-.147.431-.287.653-.424.653-.424,1.305-.829,1.958-1.22.591-.326,1.191-.682,1.8-1.008s1.22-.653,1.843-.94,1.25-.591,1.886-.868c.349-.153.7-.3,1.054-.447.232-.091.46-.186.692-.274q1.547-.617,3.135-1.122c.326-.108.653-.209,1-.326a52.408,52.408,0,0,0-29.814,0h0a52.134,52.134,0,0,0,0,99.919h0a52.167,52.167,0,0,0,37.269-50A22.382,22.382,0,0,1,645.8,109.548Z" transform="translate(-20914.992 -2926.12)" fill="url(#radial-gradient)"/>
    <path id="Path_4624" data-name="Path 4624" d="M645.8,109.548a22.385,22.385,0,0,1-22.167-19.465q0,.2.02.4c-.02-.326-.036-.653-.052-.979V89.27h0c0-.268-.02-.538-.023-.812h0c0-.414-.016-.829-.016-1.24s0-.829.016-1.243h0c0-.274,0-.545.023-.812h0v-.235c0-.326.033-.653.052-.979s.049-.728.082-1.09.059-.708.1-1.067.068-.653.108-.979.082-.653.127-.979l.072-.5a.606.606,0,0,0,0-.082c.026-.16.052-.326.082-.489.065-.418.137-.832.215-1.246.069-.349.137-.7.212-1.044.033-.157.062-.326.1-.473s.055-.258.085-.382a.166.166,0,0,1,.02-.095c.055-.241.114-.486.176-.731s.108-.444.166-.653c.072-.284.15-.568.225-.848l.176-.6c.049-.176.1-.356.153-.535.078-.261.157-.519.238-.777.059-.166.111-.326.166-.5s.108-.326.166-.5c.091-.261.179-.525.277-.786.134-.372.271-.741.414-1.113a.081.081,0,0,1,.023-.065q.191-.489.392-.979l.023-.062s.016-.036.026-.052c.111-.281.232-.561.352-.839s.281-.653.421-.946c.069-.147.134-.294.2-.434s.14-.29.209-.437q.254-.535.529-1.067c.144-.284.29-.568.44-.848.212-.4.431-.793.653-1.184s.45-.783.682-1.168c.2-.326.4-.653.61-.979.082-.124.16-.248.238-.372.2-.31.4-.613.607-.917q.431-.653.881-1.266l.036-.049c.124-.176.255-.356.385-.529l.033-.046c.2-.264.395-.525.6-.786.108-.147.222-.294.326-.434q.349-.45.715-.891c.072-.088.147-.173.219-.258s.144-.176.219-.261l.326-.372c.166-.2.326-.392.509-.581.326-.382.685-.76,1.038-1.132l.525-.551h0c.179-.186.362-.369.542-.545s.362-.362.545-.542c.111-.111.225-.219.326-.326s.294-.287.447-.424l.506-.467a5.8,5.8,0,0,1,.516-.463q.519-.46,1.047-.9c.2-.166.395-.326.594-.489s.395-.326.6-.483l.4-.326q.245-.2.5-.382c.2-.16.411-.31.617-.46.326-.232.63-.457.949-.682s.564-.388.848-.581c.215-.147.431-.287.653-.424.653-.424,1.305-.829,1.958-1.22.591-.326,1.191-.682,1.8-1.008s1.22-.653,1.843-.94,1.25-.591,1.886-.868c.349-.153.7-.3,1.054-.447.232-.091.46-.186.692-.274q1.547-.617,3.135-1.122c.326-.108.653-.209,1-.326a52.408,52.408,0,0,0-29.814,0h0a52.134,52.134,0,0,0,0,99.919h0a52.167,52.167,0,0,0,37.269-50A22.382,22.382,0,0,1,645.8,109.548Z" transform="translate(-20915.971 -2926.12)" fill="url(#linear-gradient-3)"/>
    <path id="Path_4625" data-name="Path 4625" d="M729.672,148.576a22.356,22.356,0,1,1-22.356-22.356A22.356,22.356,0,0,1,729.672,148.576Z" transform="translate(-20977.49 -2987.5)" fill="none"/>
  </g>
</svg>
