<svg xmlns="http://www.w3.org/2000/svg" width="56.273" height="57.042" viewBox="0 0 56.273 57.042">
  <path id="Icon_simple-paypal" data-name="Icon simple-paypal" d="M16.278,57.042H8.9a2.189,2.189,0,0,1-2.225-2.8l.354-1.6h4.922a3.794,3.794,0,0,0,3.522-2.809L18,38.912a3.8,3.8,0,0,1,3.518-2.8h2.1q13.508,0,21.01-5.562a17.307,17.307,0,0,0,7.51-14.581,13.958,13.958,0,0,0-1.4-6.629c0-.038-.038-.074-.038-.109l.321.178a10.989,10.989,0,0,1,4.067,4.311,13.858,13.858,0,0,1,1.421,6.633,17.263,17.263,0,0,1-7.52,14.581C44,38.6,36.979,40.454,28,40.454H25.858a3.8,3.8,0,0,0-3.527,2.819L19.8,54.218A3.765,3.765,0,0,1,16.306,57ZM9.915,50.636H2.536a2.192,2.192,0,0,1-2.225-2.8L10.7,2.809A3.791,3.791,0,0,1,14.224,0H29.59a48.414,48.414,0,0,1,8.67.687A18.222,18.222,0,0,1,44.639,3.04a10.956,10.956,0,0,1,4.033,4.321,14.306,14.306,0,0,1,1.388,6.648,17.161,17.161,0,0,1-7.52,14.543c-4.991,3.71-12.017,5.528-21,5.528h-2.1a3.788,3.788,0,0,0-3.513,2.778L13.407,47.765a3.791,3.791,0,0,1-3.529,2.786Zm17.7-41.281H25.2a3.784,3.784,0,0,0-3.518,2.8l-2.21,9.554a2.184,2.184,0,0,0,2.21,2.8h1.821c3.955,0,7.059-.815,9.269-2.427a8.092,8.092,0,0,0,3.316-6.921,4.875,4.875,0,0,0-2.139-4.373c-1.426-.96-3.565-1.438-6.384-1.438l.045,0Z" transform="translate(-0.241)" fill="#FFF"/>
</svg>
