<svg id="Group_1" data-name="Group 1" xmlns="http://www.w3.org/2000/svg" width="39" height="39" viewBox="0 0 39 39">
  <path id="Path_58" data-name="Path 58" d="M19.5,0A19.5,19.5,0,1,1,0,19.5,19.5,19.5,0,0,1,19.5,0Z" fill="#f37920"/>
  <path id="up" d="M22.088,40.021V58.088a.718.718,0,0,0,.718.718h3.351a.718.718,0,0,0,.718-.718V40.021h2.756a1.436,1.436,0,0,0,1.015-2.452L25.5,32.42a1.436,1.436,0,0,0-2.031,0l-5.149,5.149a1.436,1.436,0,0,0,1.015,2.452Z" transform="translate(-4.635 -25.836)" fill="#fff"/>
</svg>
