<svg xmlns="http://www.w3.org/2000/svg" width="348.075" height="259.358" viewBox="0 0 348.075 259.358">
  <g id="subscribe" transform="translate(0 0)">
    <g id="freepik--background-complete--inject-2" transform="translate(0 0)">
      <rect id="Rectangle_914" data-name="Rectangle 914" width="348.075" height="0.174" transform="translate(0 227.92)" fill="#ebebeb"/>
      <rect id="Rectangle_915" data-name="Rectangle 915" width="51.369" height="0.174" transform="translate(232.048 232.66)" fill="#ebebeb"/>
      <rect id="Rectangle_916" data-name="Rectangle 916" width="6.05" height="0.174" transform="translate(72.135 233.83)" fill="#ebebeb"/>
      <rect id="Rectangle_917" data-name="Rectangle 917" width="13.359" height="0.174" transform="translate(284.113 239.121)" fill="#ebebeb"/>
      <rect id="Rectangle_918" data-name="Rectangle 918" width="33.882" height="0.174" transform="translate(139.23 236.768)" fill="#ebebeb"/>
      <rect id="Rectangle_919" data-name="Rectangle 919" width="16.972" height="0.174" transform="translate(116.062 236.768)" fill="#ebebeb"/>
      <rect id="Rectangle_920" data-name="Rectangle 920" width="23.077" height="0.174" transform="translate(36.52 233.83)" fill="#ebebeb"/>
      <path id="Path_4634" data-name="Path 4634" d="M176.6,251.871H42.178A3.975,3.975,0,0,1,38.21,247.9V58.94A3.975,3.975,0,0,1,42.178,55H176.6a3.975,3.975,0,0,1,3.975,3.975V247.9A3.975,3.975,0,0,1,176.6,251.871ZM42.178,55.139a3.8,3.8,0,0,0-3.794,3.8V247.9a3.8,3.8,0,0,0,3.794,3.8H176.6a3.808,3.808,0,0,0,3.8-3.8V58.94a3.808,3.808,0,0,0-3.8-3.8Z" transform="translate(-11.61 -55)" fill="#ebebeb"/>
      <path id="Path_4635" data-name="Path 4635" d="M392.9,251.871H258.475A3.982,3.982,0,0,1,254.5,247.9V58.94A3.982,3.982,0,0,1,258.475,55H392.9a3.975,3.975,0,0,1,3.961,3.94V247.9A3.975,3.975,0,0,1,392.9,251.871ZM258.475,55.139a3.808,3.808,0,0,0-3.8,3.8V247.9a3.808,3.808,0,0,0,3.8,3.8H392.9a3.808,3.808,0,0,0,3.8-3.8V58.94a3.808,3.808,0,0,0-3.8-3.8Z" transform="translate(-77.33 -55)" fill="#ebebeb"/>
      <rect id="Rectangle_921" data-name="Rectangle 921" width="107.736" height="1.998" transform="translate(121.123 225.915)" fill="#f0f0f0"/>
      <path id="Path_4636" data-name="Path 4636" d="M378.067,222.1s8.918,12.531,21.991,1.831c12.141-9.92.209-33.923.209-33.923s14.111,4.434,16.387-14.174S398.9,161.949,398.9,161.949c7.135-14.188-1.044-14.619-7.149-13.366,1.852-3.481,2.437-7.755-1.97-11.354-10.087-8.235-16.965,1.392-16.965,1.392s-5.249-18.044-17.668-7.511V231.842C371.266,245.494,378.067,222.1,378.067,222.1Z" transform="translate(-107.912 -77.123)" fill="#f5f5f5"/>
      <rect id="Rectangle_922" data-name="Rectangle 922" width="205.712" height="181.473" transform="translate(46.176 46.447)" fill="#fafafa"/>
      <path id="Path_4637" data-name="Path 4637" d="M257.242,81.22H81.13l-14.8,28.194H272.042Z" transform="translate(-20.154 -62.967)" fill="#f0f0f0"/>
      <path id="Path_4638" data-name="Path 4638" d="M273.772,339.375V320.739H261.686V302.11H173.7v18.629h12.085v18.636h12.092V358h87.98V339.375Z" transform="translate(-52.779 -130.084)" fill="#f5f5f5"/>
      <path id="Path_4639" data-name="Path 4639" d="M141.076,302.11v18.629h12.085v18.636h12.092V358H66.33V302.11Z" transform="translate(-20.154 -130.084)" fill="#ebebeb"/>
      <rect id="Rectangle_923" data-name="Rectangle 923" width="87.986" height="1.998" transform="translate(120.921 188.657)" fill="#f0f0f0"/>
      <rect id="Rectangle_924" data-name="Rectangle 924" width="87.986" height="1.998" transform="translate(133.007 207.286)" fill="#f0f0f0"/>
      <rect id="Rectangle_925" data-name="Rectangle 925" width="57.857" height="109.142" transform="translate(57.008 62.883)" fill="#f0f0f0"/>
      <rect id="Rectangle_926" data-name="Rectangle 926" width="1.086" height="109.142" transform="translate(57.008 172.026) rotate(180)" fill="#e6e6e6"/>
      <circle id="Ellipse_227" data-name="Ellipse 227" cx="3.209" cy="3.209" r="3.209" transform="translate(103.009 114.245)" fill="#fafafa"/>
      <rect id="Rectangle_927" data-name="Rectangle 927" width="84.102" height="83.928" transform="translate(134.949 62.883)" fill="#f5f5f5"/>
      <rect id="Rectangle_928" data-name="Rectangle 928" width="76.047" height="77.085" transform="translate(215.549 66.823) rotate(90)" fill="#fff"/>
      <path id="Path_4640" data-name="Path 4640" d="M198.89,151v76.041h2.269s10.4-24.887,13.3-76.047Z" transform="translate(-60.433 -84.167)" fill="#fafafa"/>
      <path id="Path_4641" data-name="Path 4641" d="M302.836,151v76.04h-2.276S290.166,202.153,287.27,151Z" transform="translate(-87.287 -84.17)" fill="#fafafa"/>
      <rect id="Rectangle_929" data-name="Rectangle 929" width="81.199" height="5.291" transform="translate(136.404 102.202)" fill="#f5f5f5"/>
      <rect id="Rectangle_930" data-name="Rectangle 930" width="81.199" height="5.291" transform="translate(179.649 64.248) rotate(90)" fill="#f5f5f5"/>
    </g>
    <g id="freepik--Shadow--inject-2" transform="translate(39.061 243.597)">
      <ellipse id="freepik--path--inject-2" cx="134.977" cy="7.88" rx="134.977" ry="7.88" fill="#f5f5f5"/>
    </g>
    <g id="freepik--Mailbox--inject-2" transform="translate(50.325 115.087)">
      <path id="Path_4642" data-name="Path 4642" d="M3.119,0H25.054a3.119,3.119,0,0,1,3.119,3.119V41.344H0V3.112A3.119,3.119,0,0,1,3.119,0Z" transform="translate(81.296 136.391) rotate(180)" fill="#be1a25"/>
      <path id="Path_4643" data-name="Path 4643" d="M176.776,356.85H148.61v16.589l28.166-6.105Z" transform="translate(-95.48 -261.804)" opacity="0.2"/>
      <path id="Path_4644" data-name="Path 4644" d="M206.48,267.491a39.681,39.681,0,0,1,79.361,0v50.123H206.48Z" transform="translate(-113.064 -222.595)" fill="#be1a25"/>
      <path id="Path_4645" data-name="Path 4645" d="M206.48,267.491a39.681,39.681,0,0,1,79.361,0v50.123H206.48Z" transform="translate(-113.064 -222.595)" opacity="0.3"/>
      <path id="Path_4646" data-name="Path 4646" d="M72.29,267.481V312.7a4.943,4.943,0,0,0,4.95,4.943h88.467V267.481A39.681,39.681,0,0,1,205.387,227.8H111.971A39.681,39.681,0,0,0,72.29,267.481Z" transform="translate(-72.29 -222.592)" fill="#be1a25"/>
      <rect id="Rectangle_931" data-name="Rectangle 931" width="93.416" height="13.923" transform="translate(93.423 80.246) rotate(180)" opacity="0.2"/>
      <rect id="Rectangle_932" data-name="Rectangle 932" width="93.416" height="13.923" transform="translate(93.423 62) rotate(180)" opacity="0.2"/>
      <rect id="Rectangle_933" data-name="Rectangle 933" width="11.368" height="0.696" transform="translate(87.903 2.771)" fill="#be1a25"/>
      <rect id="Rectangle_934" data-name="Rectangle 934" width="6.112" height="0.696" transform="translate(75.832 2.771)" fill="#be1a25"/>
      <path id="Path_4647" data-name="Path 4647" d="M128.543,278.253V221.865a1.545,1.545,0,0,0-1.8-1.525l-19.68,3.237v8.166H122.1v46.385a7.386,7.386,0,1,0,6.439.132Z" transform="translate(-82.855 -220.319)" fill="#263238"/>
      <path id="Path_4648" data-name="Path 4648" d="M212.126,362.551H313.931a2.819,2.819,0,0,0,2.826-2.785h0a2.826,2.826,0,0,0-2.826-2.826H206.48A5.646,5.646,0,0,0,212.126,362.551Z" transform="translate(-113.064 -261.831)" fill="#be1a25"/>
      <path id="Path_4649" data-name="Path 4649" d="M212.126,362.551h41.6a2.819,2.819,0,0,0,2.826-2.785h0a2.826,2.826,0,0,0-2.826-2.826H206.48A5.646,5.646,0,0,0,212.126,362.551Z" transform="translate(-113.064 -261.831)" opacity="0.2"/>
    </g>
    <g id="freepik--Character--inject-2" transform="translate(159.036 37.794)">
      <path id="Path_4650" data-name="Path 4650" d="M351.208,401.428l-5.889.049-1.608-13.638,5.9-.049Z" transform="translate(-263.472 -193.912)" fill="#ff8b7b"/>
      <path id="Path_4651" data-name="Path 4651" d="M343.71,387.849l.828,7.031,5.9-.056-.828-7.024Z" transform="translate(-263.472 -193.915)" opacity="0.2"/>
      <path id="Path_4652" data-name="Path 4652" d="M417.427,381.818l-5.068,3.007-8.249-10.978,5.068-3.007Z" transform="translate(-281.824 -188.761)" fill="#ff8b7b"/>
      <path id="Path_4653" data-name="Path 4653" d="M404.12,373.847l4.247,5.66,5.075-3.007-4.253-5.66Z" transform="translate(-281.827 -188.761)" opacity="0.2"/>
      <path id="Path_4654" data-name="Path 4654" d="M340.556,406.446,347,406.39a.557.557,0,0,1,.529.4l1.559,5.228a.8.8,0,0,1-.773,1.051c-2.325,0-5.688-.125-8.611-.1-3.411,0-4.929.244-8.932.278-2.423,0-3.272-2.423-2.276-2.652,4.532-1.044,6.878-1.184,10.679-3.676a2.59,2.59,0,0,1,1.385-.473Z" transform="translate(-258.724 -199.563)" fill="#263238"/>
      <path id="Path_4655" data-name="Path 4655" d="M341.762,407.354a9.326,9.326,0,0,0,1.887-.23.125.125,0,0,0,.1-.118.139.139,0,0,0-.077-.139c-.278-.139-2.785-1.323-3.432-.905a.425.425,0,0,0-.195.376.828.828,0,0,0,.313.7A2.27,2.27,0,0,0,341.762,407.354Zm1.392-.418a3.864,3.864,0,0,1-2.631-.139.564.564,0,0,1-.209-.459.153.153,0,0,1,.063-.139c.383-.237,1.782.265,2.792.724Z" transform="translate(-262.359 -199.406)" fill="#be1a25"/>
      <path id="Path_4656" data-name="Path 4656" d="M344.206,406.514a.2.2,0,0,0,.084,0,.125.125,0,0,0,.049-.132c0-.111-.46-2.645-1.866-2.485-.369.042-.473.223-.494.376-.1.7,1.392,1.935,2.172,2.256Zm-1.615-2.374c.842,0,1.267,1.392,1.392,1.977-.773-.439-1.81-1.441-1.754-1.831,0,0,0-.118.251-.146Z" transform="translate(-262.944 -198.803)" fill="#be1a25"/>
      <path id="Path_4657" data-name="Path 4657" d="M345.467,172.946c-.773,4.476-1.754,8.771-2.945,13.109q-.891,3.244-1.97,6.467c-.376,1.079-.731,2.151-1.156,3.223-.2.536-.4,1.072-.634,1.608l-.327.808-.167.4-.09.216-.125.271a19.225,19.225,0,0,1-2.088,3.481c-.7.982-1.455,1.887-2.2,2.785-1.49,1.754-3.042,3.383-4.616,4.984a128.266,128.266,0,0,1-9.9,8.959l-3.14-3.126c2.68-3.4,5.381-6.843,7.992-10.247,1.3-1.7,2.569-3.425,3.752-5.131.592-.849,1.156-1.706,1.65-2.541a13.92,13.92,0,0,0,1.142-2.242c.042-.084.139-.418.216-.64l.237-.738c.167-.48.313-.982.459-1.483.3-1,.578-2.012.863-3.021.543-2.04,1.051-4.1,1.545-6.175.961-4.177,1.887-8.4,2.722-12.531Z" transform="translate(-255.085 -128.156)" fill="#ff8b7b"/>
      <path id="Path_4658" data-name="Path 4658" d="M354.057,171.123c-.355,6.725-3.613,16.165-3.613,16.165l-9.147-3.481-3.766-1.392a53.14,53.14,0,0,1,3.147-13.011c2.785-7.17,9.238-8.918,12.531-3.641C353.973,166.953,354.175,168.888,354.057,171.123Z" transform="translate(-261.594 -125.518)" fill="#be1a25"/>
      <path id="Path_4659" data-name="Path 4659" d="M355.7,174.365c-.355,6.725-3.613,16.165-3.613,16.165l-9.147-3.481a51.511,51.511,0,0,1,2.13-6.975C347.354,174.1,352.227,171.894,355.7,174.365Z" transform="translate(-263.238 -128.76)" opacity="0.2"/>
      <path id="Path_4660" data-name="Path 4660" d="M315.508,234.71l-6.21,1.016-.049,6.091s5.959-.835,8.291-3.69Z" transform="translate(-253.001 -147.398)" fill="#ff8b7b"/>
      <path id="Path_4661" data-name="Path 4661" d="M301.06,239.7l.132,4,5.569-1.441.042-6.091Z" transform="translate(-250.513 -147.842)" fill="#ff8b7b"/>
      <path id="Path_4662" data-name="Path 4662" d="M346.731,236s-8.848,32.211-11.194,50.241c-2.437,18.754,3.314,58.971,3.314,58.971l10.644-.23s.8-41,4.281-59.437c3.815-20.1,11.083-49.935,11.083-49.935Z" transform="translate(-260.806 -147.672)" fill="#263238"/>
      <path id="Path_4663" data-name="Path 4663" d="M351.866,391.69l-12.517.251-.919-4.156,13.276-.035Z" transform="translate(-261.867 -193.899)" fill="#be1a25"/>
      <path id="Path_4664" data-name="Path 4664" d="M351.866,391.69l-12.517.251-.919-4.156,13.276-.035Z" transform="translate(-261.867 -193.899)" fill="#fff" opacity="0.4"/>
      <path id="Path_4665" data-name="Path 4665" d="M411.755,388.617l5.534-3.286a.557.557,0,0,1,.7.077l3.975,3.731a.8.8,0,0,1-.139,1.3c-2.019,1.156-4.978,2.785-7.491,4.24-2.931,1.747-4.177,2.694-7.581,4.734-2.088,1.239-4.045-.439-3.3-1.142,3.39-3.188,5.346-4.49,7.379-8.549A2.554,2.554,0,0,1,411.755,388.617Z" transform="translate(-281.574 -193.138)" fill="#263238"/>
      <path id="Path_4666" data-name="Path 4666" d="M412.289,392.545a10.13,10.13,0,0,0,1.518-1.142.153.153,0,0,0,.035-.16.132.132,0,0,0-.139-.084c-.313,0-3.049.237-3.418.947a.4.4,0,0,0,0,.425.829.829,0,0,0,.606.425A2.284,2.284,0,0,0,412.289,392.545Zm1.009-1.072a3.847,3.847,0,0,1-2.346,1.2.564.564,0,0,1-.411-.285.153.153,0,0,1,0-.16C410.764,391.856,412.191,391.584,413.3,391.473Z" transform="translate(-283.682 -194.935)" fill="#be1a25"/>
      <path id="Path_4667" data-name="Path 4667" d="M414,390.813a.189.189,0,0,0,.056-.07.125.125,0,0,0,0-.139c-.07-.083-1.733-2.088-2.861-1.211-.3.223-.3.439-.244.578.251.62,2.2.961,3.014.863Zm-2.59-1.239c.731-.425,1.789.55,2.221,1-.9,0-2.29-.334-2.444-.7,0,0-.042-.1.146-.244Z" transform="translate(-283.893 -194.331)" fill="#be1a25"/>
      <path id="Path_4668" data-name="Path 4668" d="M367.69,235.629s0,31.647.828,49.81c.849,18.894,24.449,51.4,24.449,51.4l9.085-5.569s-15.942-30.937-15.7-49.7c.265-20.46,1.852-46.405,1.852-46.405Z" transform="translate(-270.758 -147.538)" fill="#263238"/>
      <path id="Path_4669" data-name="Path 4669" d="M413.242,371.578l-10.059,6.14-2.513-2.5,11.069-7.379Z" transform="translate(-280.779 -187.85)" fill="#be1a25"/>
      <path id="Path_4670" data-name="Path 4670" d="M413.242,371.578l-10.059,6.14-2.513-2.5,11.069-7.379Z" transform="translate(-280.779 -187.85)" fill="#fff" opacity="0.4"/>
      <path id="Path_4671" data-name="Path 4671" d="M349.643,162.053S343.065,180,350.374,213l31.522-.7c.111-4.838-3.432-28.375.752-51.271a81.162,81.162,0,0,0-10.609-1.065,113.814,113.814,0,0,0-13.394.285,58.839,58.839,0,0,0-9,1.8Z" transform="translate(-264.448 -124.663)" fill="#be1a25"/>
      <path id="Path_4672" data-name="Path 4672" d="M375.4,138.33c-.752,4.323-1.427,12.245,1.65,15.058,0,0-1.086,4.421-9.092,4.567-6.4.118-4.3-4.281-4.3-4.281,4.783-1.253,4.581-4.817,3.669-8.145Z" transform="translate(-269.433 -118.113)" fill="#ff8b7b"/>
      <path id="Path_4673" data-name="Path 4673" d="M373.856,142.54l-4.776,4.26a13.652,13.652,0,0,1,.459,2.367c1.831-.3,4.316-2.374,4.469-4.3A6.419,6.419,0,0,0,373.856,142.54Z" transform="translate(-271.18 -119.393)" opacity="0.2"/>
      <path id="Path_4674" data-name="Path 4674" d="M388.14,177.93l5.256,3.787c-.23,4.031-.3,7.95-.265,11.626C389.908,190.1,388.1,184.133,388.14,177.93Z" transform="translate(-276.971 -130.146)" opacity="0.2"/>
      <path id="Path_4675" data-name="Path 4675" d="M377.653,156.87s-1.511,3.634-8.563,6.725a8.785,8.785,0,0,1,4.957,5.082s5.131-4.873,6.5-9.746Z" transform="translate(-271.183 -123.747)" fill="#fff"/>
      <path id="Path_4676" data-name="Path 4676" d="M361.1,167.8s2.158-3.133,5.27-3.766c-1.093-1.337-2.221-4.3-1.176-5.708a13.44,13.44,0,0,0-2.652,1.009S358.313,161.88,361.1,167.8Z" transform="translate(-268.467 -124.19)" fill="#fff"/>
      <path id="Path_4677" data-name="Path 4677" d="M359.4,120.441c-2.875,1.232-4.3,8.973-.557,10.658S364.845,118.115,359.4,120.441Z" transform="translate(-267.384 -112.602)" fill="#263238"/>
      <path id="Path_4678" data-name="Path 4678" d="M373.921,125.338c-.237,5.848-.077,9.28-2.959,12.336-4.337,4.6-11.6,2.088-13.115-3.71-1.392-5.221-.752-13.923,4.908-16.346a7.978,7.978,0,0,1,11.166,7.72Z" transform="translate(-267.577 -111.617)" fill="#ff8b7b"/>
      <path id="Path_4679" data-name="Path 4679" d="M368.051,131.239c0,.473-.23.863-.543.87s-.571-.376-.578-.849.23-.863.543-.87S368.044,130.759,368.051,131.239Z" transform="translate(-270.527 -115.701)" fill="#263238"/>
      <path id="Path_4680" data-name="Path 4680" d="M360.331,131.4c0,.473-.23.863-.543.87s-.571-.369-.578-.849.23-.863.543-.87S360.324,130.926,360.331,131.4Z" transform="translate(-268.181 -115.749)" fill="#263238"/>
      <path id="Path_4681" data-name="Path 4681" d="M362.336,132.06a17.054,17.054,0,0,1-2.186,4.114,2.736,2.736,0,0,0,2.276.376Z" transform="translate(-268.467 -116.208)" fill="#ff5652"/>
      <path id="Path_4682" data-name="Path 4682" d="M365.389,139.53h0a3.975,3.975,0,0,0,3.272-1.671.132.132,0,0,0-.049-.188.139.139,0,0,0-.188.042,3.773,3.773,0,0,1-3.042,1.538.139.139,0,0,0,.007.278Z" transform="translate(-270.017 -117.907)" fill="#263238"/>
      <path id="Path_4683" data-name="Path 4683" d="M369.79,128.389a.3.3,0,0,0,.174-.063.278.278,0,0,0,.042-.39,2.785,2.785,0,0,0-2.3-1.107.28.28,0,1,0,.049.557h0a2.242,2.242,0,0,1,1.81.891.272.272,0,0,0,.223.111Z" transform="translate(-270.686 -114.619)" fill="#263238"/>
      <path id="Path_4684" data-name="Path 4684" d="M357.267,128.311a.292.292,0,0,0,.258-.16,2.193,2.193,0,0,1,1.566-1.295.285.285,0,0,0,.237-.32.292.292,0,0,0-.32-.237,2.785,2.785,0,0,0-1.97,1.615.271.271,0,0,0,.132.369A.264.264,0,0,0,357.267,128.311Z" transform="translate(-267.513 -114.457)" fill="#263238"/>
      <path id="Path_4685" data-name="Path 4685" d="M396.46,167.5c1.316,1.894,2.471,3.745,3.662,5.653s2.29,3.829,3.383,5.778a110.558,110.558,0,0,1,5.9,12.217c.223.522.418,1.079.62,1.622l.306.821.153.418.181.571a12.607,12.607,0,0,1,.473,4.629,17.572,17.572,0,0,1-2.652,7.658,30.329,30.329,0,0,1-4.532,5.667c-.828.835-1.706,1.608-2.6,2.353a33.418,33.418,0,0,1-2.819,2.088l-2.833-3.4c.62-.7,1.323-1.559,1.949-2.36s1.239-1.657,1.817-2.492a30.221,30.221,0,0,0,2.889-5.11,11.467,11.467,0,0,0,1.065-4.762,5.52,5.52,0,0,0-.39-1.831l-.557-1.239c-.216-.459-.411-.926-.647-1.392-1.8-3.724-3.871-7.428-6.05-11.09s-4.462-7.337-6.725-10.853Z" transform="translate(-277.251 -126.977)" fill="#ff8b7b"/>
      <path id="Path_4686" data-name="Path 4686" d="M394.5,161.481c5.507,1.19,13.429,18.176,13.429,18.176l-14.751,7.2a66.221,66.221,0,0,1-6.5-12.781C384.109,166.9,388.606,160.2,394.5,161.481Z" transform="translate(-276.303 -125.1)" fill="#be1a25"/>
      <path id="Path_4687" data-name="Path 4687" d="M341.417,222.275l14.821,43.781a6.864,6.864,0,0,1-4.281,8.674L252.33,308.507a6.857,6.857,0,0,1-8.674-4.3l-14.814-43.767a6.641,6.641,0,0,1-.348-2.583,6.864,6.864,0,0,1,4.629-6.091l99.647-33.777a6.85,6.85,0,0,1,7.372,2.019,6.62,6.62,0,0,1,1.274,2.262Z" transform="translate(-228.459 -142.21)" fill="#be1a25"/>
      <path id="Path_4688" data-name="Path 4688" d="M341.417,222.275l14.821,43.781a6.864,6.864,0,0,1-4.281,8.674L252.33,308.507a6.857,6.857,0,0,1-8.674-4.3l-14.814-43.767a6.641,6.641,0,0,1-.348-2.583,6.864,6.864,0,0,1,4.629-6.091l99.647-33.777a6.85,6.85,0,0,1,7.372,2.019,6.62,6.62,0,0,1,1.274,2.262Z" transform="translate(-228.459 -142.21)" fill="#fff" opacity="0.8"/>
      <path id="Path_4689" data-name="Path 4689" d="M340.106,220.019,298.886,256.88a20.634,20.634,0,0,1-15.315,5.186l-55.121-4.177a6.864,6.864,0,0,1,4.629-6.091l99.647-33.777a6.85,6.85,0,0,1,7.379,2Z" transform="translate(-228.45 -142.217)" fill="#be1a25" opacity="0.6"/>
      <path id="Path_4690" data-name="Path 4690" d="M397.985,232.52l-6.335.042,3.905,6.4s4.511-1.093,4.929-3.362Z" transform="translate(-278.038 -146.733)" fill="#ff8b7b"/>
      <path id="Path_4691" data-name="Path 4691" d="M385.96,236.332l3.474,5.145,4.393-2.5-3.905-6.4Z" transform="translate(-276.309 -146.751)" fill="#ff8b7b"/>
      <path id="Path_4692" data-name="Path 4692" d="M377.837,120.045c1.392,3.815-2.819,12.649-5.27,12.482s-3.119-9.349-1.727-11.633c-1.323.613-13.923.634-13.86-.7.32-4.831,8.89-6.586,18.288-4.177C377.711,115.9,378.623,116.572,377.837,120.045Z" transform="translate(-267.504 -111.009)" fill="#263238"/>
      <path id="Path_4693" data-name="Path 4693" d="M382.666,136.447a5.5,5.5,0,0,1-3.411,2.527c-1.894.459-2.785-1.246-2.186-3,.522-1.58,2.137-3.717,4.017-3.4A2.479,2.479,0,0,1,382.666,136.447Z" transform="translate(-273.552 -116.355)" fill="#ff8b7b"/>
      <path id="Path_4694" data-name="Path 4694" d="M345.976,118.521l28.918,3.342a.557.557,0,0,0,.613-.487h0a.557.557,0,0,0-.48-.613L346.1,117.429a.557.557,0,0,0-.613.48h0A.557.557,0,0,0,345.976,118.521Z" transform="translate(-264.011 -111.761)" fill="#be1a25"/>
      <path id="Path_4695" data-name="Path 4695" d="M379.218,118.876l.5-4.316a1.894,1.894,0,0,0-1.74-1.866l-17.759-3.355c-1.316-.251-2.527.487-2.52,1.532V116.4Z" transform="translate(-267.723 -109.289)" fill="#be1a25"/>
      <path id="Path_4696" data-name="Path 4696" d="M360.08,116.7l7.518.87.258-2.193-7.769-.891Z" transform="translate(-268.446 -110.87)" fill="#fff"/>
    </g>
  </g>
</svg>
