<svg xmlns="http://www.w3.org/2000/svg" width="29" height="28" viewBox="0 0 29 28">
  <g id="Group_6392" data-name="Group 6392" transform="translate(-1087 -3174)">
    <ellipse id="Ellipse_6" data-name="Ellipse 6" cx="14.5" cy="14" rx="14.5" ry="14" transform="translate(1087 3174)" fill="#e3e3e3" opacity="0.11"/>
    <path id="twitter" d="M17.914,52.123c.013.177.013.355.013.532A11.563,11.563,0,0,1,6.284,64.3,11.564,11.564,0,0,1,0,62.461a8.465,8.465,0,0,0,.988.051,8.2,8.2,0,0,0,5.08-1.748,4.1,4.1,0,0,1-3.826-2.838,5.16,5.16,0,0,0,.773.063,4.328,4.328,0,0,0,1.077-.139A4.093,4.093,0,0,1,.811,53.834v-.051a4.121,4.121,0,0,0,1.85.519,4.1,4.1,0,0,1-1.267-5.473,11.632,11.632,0,0,0,8.438,4.282,4.619,4.619,0,0,1-.1-.937,4.1,4.1,0,0,1,7.082-2.8,8.057,8.057,0,0,0,2.6-.988,4.081,4.081,0,0,1-1.8,2.255,8.2,8.2,0,0,0,2.356-.633,8.8,8.8,0,0,1-2.052,2.116Z" transform="translate(1092.78 3132.799)" fill="#fff"/>
  </g>
</svg>
