<svg xmlns="http://www.w3.org/2000/svg" width="24.231" height="24.386" viewBox="0 0 24.231 24.386">
  <g id="Group_6388" data-name="Group 6388" transform="translate(-1155 -26)">
    <path id="Icon_awesome-opencart" data-name="Icon awesome-opencart" d="M16.027,17.519A1.73,1.73,0,1,1,14.3,15.785,1.721,1.721,0,0,1,16.027,17.519ZM6.414,15.785a1.73,1.73,0,1,0,1.734,1.734A1.73,1.73,0,0,0,6.414,15.785ZM17.458,5.563C6.016,5.563,3.1,5.078,0,1.807c1.3,1.957,2.018,5.638,14.126,5.46,12.619-.189,4.922,3.26,2.681,7.152C23.875,8.107,28.9,5.563,17.458,5.563Z" transform="translate(1155 31.141)" fill="#be1a25"/>
    <circle id="Ellipse_10" data-name="Ellipse 10" cx="4.5" cy="4.5" r="4.5" transform="translate(1164 26)" fill="#05203d"/>
  </g>
</svg>
