<svg xmlns="http://www.w3.org/2000/svg" width="33.306" height="33.306" viewBox="0 0 33.306 33.306">
  <path id="Icon_metro-earth2" data-name="Icon metro-earth2" d="M19.224,35.234A16.653,16.653,0,1,1,35.876,18.581,16.654,16.654,0,0,1,19.224,35.234Zm13.5-18.049a.1.1,0,0,0,.052-.073.507.507,0,0,0,.16.292c0,.01,0,.008,0,.023s.015-.006.022-.006a.5.5,0,0,0,.317.119.513.513,0,0,0,.435-.251.25.25,0,0,1,.022.025c0-.017,0-.033-.005-.05a.5.5,0,0,0,.069-.245.521.521,0,0,0-.52-.52.514.514,0,0,0-.429.241s0-.016-.011-.011a.471.471,0,0,0-.08-.249v.539A.544.544,0,0,1,32.721,17.185ZM8.807,17.029c0-.157-.358-.425-.451-.425,0-.028-.146-.349-.2-.349,0-.108-.38-.594-.44-.382-.04.137.29.323.29.482.061,0,.32.489.371.575.564.953-.422.3-.422-.1a1.327,1.327,0,0,1-.325-.673,2.152,2.152,0,0,1-.275-.522c0-.3-.168-.45-.5-.45-.016-.03-.3-.424-.3-.424a1.1,1.1,0,0,0-.35-.573,4.035,4.035,0,0,1-.074-.847,2.871,2.871,0,0,0-.11-.891,14.524,14.524,0,0,0,8.2,19.807c.006-.516.045-1.134.162-1.134,0-.077.066-.4.125-.4a6.307,6.307,0,0,0,0-.673c-.074-.149.1-.339.15-.573.288-.145.084-1.6.3-1.6a9.887,9.887,0,0,0,.049-1.82c.055,0-.328-.407-.325-.4-.367,0-.624-.589-.624-.847a1.57,1.57,0,0,1-.126-.424c.084,0-.526-.891-.526-.873-.323-.179.018-.429.05-.722-.28-.093,0-.848.125-.848a.235.235,0,0,1,.151-.2c.062.249.353-.124.125-.124,0-.164-.019-.516,0-.6,0-.254-.225-.751-.4-.225-.187-.093-.66-.076-.7-.374.029-.147-.27-.447-.375-.5.1-.256-.507-.6-.725-.6,0-.055-.116-.03-.15-.1-.223,0-.274-.3-.526-.3-.29,0-.583-.2-.85-.2-.09-.178-.5-.108-.6-.3-.218,0-.3-.412-.309-.564-.009-.187-.158-.835-.418-.835ZM29.89,8.677a.052.052,0,0,1-.008.023c.016,0,.034.018.052.025C29.918,8.709,29.9,8.693,29.89,8.677Zm.313.345a.336.336,0,0,1,.055.177c.036,0,.054-.019.083-.026C30.3,9.121,30.248,9.073,30.2,9.021Zm.9,4.742c.017-.45-.375-.375-.5-.624-.129,0-.176-.1-.351-.1a.214.214,0,0,0-.269.081c-.267.1-.106-.13-.307-.13.009-.257-.093-.328-.376-.3-.162.366-.412.586-.375,1,.12.027.1.054.075.174.159.008,1.125-.05,1.125-.15.033,0,.2.345.2.05.134,0,.205.315.526.224C30.859,14.05,31.394,13.763,31.107,13.763Zm.051,5.311c.019-.092-.046-.132-.1-.225.143,0-.451-1.1-.451-1.272-.091-.045-.206-.359-.227-.474a1.2,1.2,0,0,1-.3-.5,1.808,1.808,0,0,1-.475-.623c.179.02.45.056.45-.175-.121,0-.138-.149-.024-.149-.037-.153.081-.263.107-.383a2.823,2.823,0,0,0,.093-.54.824.824,0,0,0-.35.075c0,.1-.3-.025-.35-.025-.066-.131-.541.171-.674-.1-.215-.195-.157-.345-.227-.619-.035-.139-.226-.148-.341-.171-.326-.063-.091.388-.108.491.2,0-.126.248-.126.374-.337-.073-.225-.449-.424-.549-.059-.1-.012-.175-.151-.175,0-.133.071-.375-.075-.424,0-.065-.283-.091-.325-.175-.179,0-.6-.677-.723-.449-.08.146.068.181.1.3.259-.051.234.427.551.374a.867.867,0,0,0,.024.2c.234-.055.207.174.325.174-.085.113-.356-.181-.282.067.043.144.019.266-.168.407,0-.155-.012-.573-.175-.573-.11-.221-.438-.168-.577-.374-.112,0-.156-.35-.35-.374a.391.391,0,0,1-.226.1c-.105.211-.7.022-.7.05-.009,0-.333.793-.352.9-.036.224-.216.228-.271.44-.027.106-.68.056-.68.134a.665.665,0,0,1-.526-.6,4.7,4.7,0,0,1,.1-.9c.057.016.069.035.1.1.173-.065.576.043.576-.15q.251.006.15.2c.156.029.426.069.426-.15-.092,0-.1-.008-.1-.1.3-.311-.225-.592-.225-.747-.106-.035-.323-.265-.169-.179.13.072.606.221.418-.1a.035.035,0,0,0,.024-.024c.053.037.277.267.277.05.061,0,.3-.15.1-.15.019-.112.015-.206.024-.275.317.171.141-.117.3-.224,0,.207.171-.1.275-.1.124-.184.407-.042.476-.25-.153-.05-.125-.433-.125-.572.184.03.389-.249.417-.057.01.074.02.278.057.306.274.144.2-.082.2-.224-.092,0-.213-.321-.226-.475-.075.01-.2.042-.226.1-.273,0-.458-.1-.674-.1a3.866,3.866,0,0,1-.25-.325c-.152-.261.152-.185.2-.2,0-.248,1.031-.2,1.076-.6-.339,0,.35-.575.35-.572.23-.2.352-.366.638-.388.121-.008,1.463-.379,1.463-.211.054,0,.233,0,.418.01A14.507,14.507,0,0,0,9.568,7.689a.369.369,0,0,1,.04.137c.136-.009.332-.1.376.076a.855.855,0,0,1-.2-.026c.048.386-.169.15-.35.15a.5.5,0,0,0-.165-.065c-.055.052-.113.1-.169.153.006.017,0,.018.007.036.058,0,.028.091.195.146a3.709,3.709,0,0,0,.607.134,1.932,1.932,0,0,0,.4-.03c0-.021.343-.174.1-.174.033-.137-.028-.172-.176-.174.012-.146.359-.05.5-.05.108-.182,0-.16.1-.326.114-.2.251-.027.326-.222a.349.349,0,0,1,.251.247c.091.075.551.754.551.274.164.055.247.363.25.525.3-.044.325-.267.325-.5.069,0-.025-.111-.025-.15.111-.041.251.106.251-.049.048,0,.05.048.05.1.155.03.255-.018.35.016.066.023.032.363,0,.483-.037.152-.328.154-.328.225-.329.246.388.374.5.524A1.383,1.383,0,0,1,13.01,9.1c-.162,0-.556.172-.7.049.2,0,.27-.243.3-.474a.358.358,0,0,0-.458.23c-.087.306-.29-.012-.392.194-.04.012-.4.18-.4.124-.406.057-.3.4-.3.773.161.1.489.373.475.524.364.065.5.1.825.15a.4.4,0,0,0,.2.124c0,.214.195.176.375.176,0-.274.318.228.35.324-.044,0,.075.28.1.375-.05-.018-.066,0-.05.05.158.058.409.042.451-.125-.152,0-.1-.174-.1-.275a.188.188,0,0,1,.025-.349c0,.142.515-.088.225-.2a.561.561,0,0,0,0-.542c-.074-.087-.167,0-.2-.131.2-.049.052-.424.05-.6.062-.024.225.04.225,0,.193,0,.513.244.626-.051.322.147.066.286.4.175a1.445,1.445,0,0,0,.426.449c0,.018-.009.125.074.125,0,.08-.05-.046-.05.1.047.005.3.051.3-.049.161,0,.275-.2.275-.349.1-.066.278.549.4.549.09.139.376.342.376.474.06.061.124.045.124.225.076,0,.226-.3.226-.025a.473.473,0,0,1,.3.274c-.18,0-.009.175-.1.175,0,.173-.386.035-.474.025-.12.536-.842.151-1.279.289a1.49,1.49,0,0,0-.7.833c.279,0,.4-.241.651-.325.2,0,.243-.123.426-.174,0,.051.05.024.05.075-.356,0-.139.23-.035.4a.429.429,0,0,0,.221.186.99.99,0,0,0-.084.188s0,0,0,0c-.068.023-.2.072-.226.125-.4.045-.2.018-.177-.079.015.034.159,0,.153,0-.024-.121-.06-.1-.025-.174-.219,0-.325.1-.5.1-.029.059-.182.2-.25.2a1.184,1.184,0,0,1-.3.524c0-.041-.356.224-.325.224-.079.128-.165.124-.2.324a1.679,1.679,0,0,0-.125.4c-.155.1-.212.524-.476.524-.161.321-.451.278-.451.7a2.2,2.2,0,0,1,.165.684c.037.176.1.359-.139.363-.017-.026-.181-.275-.151-.275a1.587,1.587,0,0,0-.2-.536c-.1-.138-.282.022-.426-.039-.061-.123-.477-.15-.624-.15.024.093.092.122.1.225a.568.568,0,0,1-.321.088c-.218-.03-.192-.2-.431-.176a.723.723,0,0,0-.651.736,2.2,2.2,0,0,0,0,.748c0,.211.175.364.175.524.17,0,.36.374.526.374.019.132-.083.153.2.151,0-.015.154-.1.175-.2-.2-.048,0-.3.125-.349,0,.178.25-.059.25-.075.028-.011.276-.1.276-.1,0-.2.188.02.05.1-.135,0-.125.225-.2.225-.032.16-.1.3-.133.456-.048.193.108.212.058.392a3.129,3.129,0,0,0,.6,0,.177.177,0,0,0-.025-.1c.29,0,.025.549.2.549,0,.207.1.368.1.5a.331.331,0,0,1,.175.374c.167.022.525.065.525-.15.253,0,.271.172.252.349.5,0,.188-.5.4-.5.02-.082.054-.1.1-.043.1.055.181-.1.263-.153a.678.678,0,0,1,.134-.071c.071.043.077.03.108.078a.75.75,0,0,0,.393-.159c.18.022.122.409.459.433a1.2,1.2,0,0,0,.565-.033c.029-.02.136.068.148.105.112,0,.1.1.152.1a.041.041,0,0,0,.051.024c.015.043.1.055.151.174,0,.108.225.127.225.2.161.081-.055.1.193.178a1.8,1.8,0,0,0,.409.122c.047-.178.2.024.276.024.04.081.06.02.1.1.232.194.079.119.175.325.111.073.147.327.177.474-.09,0-.026.342-.026.375-.108,0,.277.205.277-.051.158.026.262.2.375.2-.066.151.175.264.175.026.237.024.174.378.151.5.176,0,.227-.1.377-.117a1.018,1.018,0,0,1,.549-.178,1.04,1.04,0,0,1,1.041,1.041,1.028,1.028,0,0,1-.883,1.009,1.822,1.822,0,0,1-.131.142c0,.05-.011.547-.026.547,0,.1-.076.648-.15.648,0,.282-.184.333-.25.6-.152.112-.563.3-.627.424-.118,0-.205.1-.325.1-.017.034-.272.275-.226.275-.019.177.014.593-.082.71-.065.077-.157.069-.117.189-.141,0,.008.1-.213.1a.5.5,0,0,0-.4.367.554.554,0,0,1-.241.481c0,.071-.325.092-.325.275.03,0,0,.339,0,.374a.591.591,0,0,0-.375.174c-.327,0-.287.033-.5.175,0,.044-.03.2-.075.2,0,.253-.18.023-.326.151.057,0,.13.249.1.249,0,.22-.136.238-.275.4-.066.044-.128.225-.175.225,0,.148-.074.282-.074.424.031,0,0,.063.024.123.07-.02.072-.1.1-.1,0-.125.2.074.075.074-.1.156-.214.159-.276.375-.062,0-.117.06-.162.131A14.486,14.486,0,0,0,31.445,26.5a3.993,3.993,0,0,1,.113-.842c.1.075.178.215.25,0-.18-.035-.136-.1-.075-.249a.631.631,0,0,0,.32.085c.034-.065.061-.133.1-.2-.1-.079.039-.284.087-.184.026-.05.049-.1.073-.152-.011,0-.008,0-.025,0,0-.091.017-.079.076-.125a.092.092,0,0,0,0,.018,14.5,14.5,0,0,0,1.433-6.27c0-.074-.01-.145-.011-.219-.027.1-.078.212-.15.237,0,.066-.744.389-.7.524-.131,0-.591.131-.675.3a1.161,1.161,0,0,0-.5.2c-.464,0-.376-.547-.6-.547Zm2.116-5.7h-.553c0-.005-.008-.006-.012-.014-.028,0-.146-.264-.1-.325a.739.739,0,0,1,.09.006c-.047-.114-.1-.227-.149-.34a.719.719,0,0,1-.366.184c0,.043-.222.474,0,.474a.076.076,0,0,0,.006.022.518.518,0,0,0,.044,1.034h.205c.012.095.063.177.246.218.057.24.486.326.551.074-.181,0-.122-.174-.106-.291h.146a.52.52,0,0,0,0-1.041Zm-1.516,6.767c.036,0,.277,0,.277-.047a2.543,2.543,0,0,0,.725-.1c0,.323-.272.5-.226.823-.18,0-.1.185-.1.249-.117.072-.134.2-.275.275,0,.145-.325.384-.42.508s-.434.379-.477.555c.011-.042-.6.632-.454.632,0,.126-.171,1.122.05,1.122,0,.087.188.923.074.923,0,.269-.175.433-.175.647-.085.058-.207.091-.25.176-.153,0-.227.325-.3.325,0,.347-.1.6-.1,1,.028,0-.2.561-.2.6-.184.124-.651.568-.651.8,0,0-.325.456-.375.524a3.222,3.222,0,0,0-.851.2c-.16,0-.575.126-.674-.025,0-.158-.086-.359-.1-.575-.077,0-.09-.324-.175-.324a8.6,8.6,0,0,1-.4-1.023,1.676,1.676,0,0,0-.1-.424c0-.343-.251-.63-.251-.947-.074,0-.227-.7-.15-.7a7.82,7.82,0,0,1,.181-1.013,2.409,2.409,0,0,0-.106-1.034c-.043,0-.186-.238-.2-.3a.758.758,0,0,1-.275-.647,1.687,1.687,0,0,0,.151-.9,1.118,1.118,0,0,0-.627-.075c-.161-.324-1.245-.124-1.552-.124,0,.177-.755-.034-.825-.175-.184,0-.55-.391-.55-.573a2.053,2.053,0,0,1-.525-1.022c-.175-.087-.122-.425-.026-.425a1.779,1.779,0,0,0-.1-.53c-.03-.105.1-.219.1-.343a1.5,1.5,0,0,1,.2-.879,3.4,3.4,0,0,0,.2-.372c.1-.261.135-.012.276-.246.134-.067.212-.289.351-.4.06-.08.062-.113,0-.175a1.5,1.5,0,0,0,.175-.473c.2-.272.057-.148.25-.125.071-.077.188-.275.3-.275a.316.316,0,0,1,.276-.15c0,.15.408-.049.451-.049a1.152,1.152,0,0,1,.626-.3c0-.171.887.048,1.026.025v-.075c.189.045.535.8.5.973a1.95,1.95,0,0,1,.376,0c0,.161.3.2.442.208.193.009.758-.02.758-.283a.234.234,0,0,1,.252.274c.169.019,1.171.039,1.1.249.147,0,.184.251.325.251-.028.173.175.623.325.623a.785.785,0,0,0,.226.522,1.826,1.826,0,0,0,.525.8c-.094.177.143.323.2.5-.014,0,.051.261.124.3,0,.177.373.9.577.9.014.087-.192.127.075.147Zm-5.4-5.584c.039-.149.126-.033.207-.006.193.062.126,0,.269-.068C26.831,14.892,26.6,14.584,26.355,14.56Zm-.527-.748c.1,0,.13.458-.15.374,0-.113-.072-.324.076-.324.043.177.074.105.074-.05Zm-.124-.3c.116.05.167.033.15-.05.152.05-.02.158-.05.275C25.727,13.661,25.75,13.634,25.7,13.513Zm-2.678-2.22c-.246-.063.253-.136.275-.2a.116.116,0,0,1-.108-.159c.037-.086.1.1.184.06.1-.01.3-.161.2.13s-.2.512-.573.517c-.134-.135-.005-.206.025-.35Zm.926-1.022c.2,0,.025.15-.02.15.034.014-.006.134-.006.174.187,0,.19-.117.325-.15-.028.168-.215.2-.032.343.1.076.2.165.157.281.238,0,.274.229.225.5.132,0,.126.006.126-.126.128.035.119.151,0,.151-.119.234-.43.224-.651.224,0-.181-.036-.193-.2-.142-.229.07-.05-.182-.046-.307.025,0,.519.023.225-.075-.016-.269-.076-.349-.325-.349,0-.183-.065-.17-.095-.371-.043-.3.232.021.321-.3Zm-.076,1.621c0,.061-.125.11-.15.024.024.008.033,0,.024-.024ZM21.826,9.214H20.785a.52.52,0,0,1,0-1.041h1.041a.52.52,0,0,1,0,1.041Zm-6.064,9.211c.058,0,.126.023.126.075C15.812,18.5,15.714,18.572,15.762,18.425Zm-.949.051c-.042.079-.379.066-.426-.026.125,0,.222.051.35,0,0-.069-.057-.124-.1-.2.136,0,.289.1.476.1,0-.116-.051.025,0-.125a.584.584,0,0,1,.275.274A3.712,3.712,0,0,0,14.813,18.476Zm-1.1-.6a.7.7,0,0,1-.451-.225c.124.005.247.056.325-.075.317.032.346.251.6.251.048.084.321.278.057.3a.578.578,0,0,1-.532-.254Zm.2.7c-.093,0-.246.041-.175-.151C13.859,18.441,13.918,18.492,13.911,18.576Zm.175-.025-.15.025C13.951,18.46,14.06,18.331,14.086,18.551Zm.925,1.1c-.02.07-.017.074-.1.074.008-.032.016-.065.024-.1ZM12.76,17.578c.024.008.05.018.075.025.032.124.1.062.175.025C13.01,17.772,12.675,17.814,12.76,17.578Z" transform="translate(-2.571 -1.928)" fill="#fff"/>
</svg>
