<svg xmlns="http://www.w3.org/2000/svg" width="29.409" height="29.409" viewBox="0 0 29.409 29.409">
  <path id="Icon_awesome-phone" data-name="Icon awesome-phone" d="M28.34,1.413,22.367.034a1.387,1.387,0,0,0-1.58.8L18.03,7.266a1.375,1.375,0,0,0,.4,1.608l3.481,2.849A21.288,21.288,0,0,1,11.729,21.9L8.88,18.421a1.377,1.377,0,0,0-1.608-.4L.838,20.781a1.4,1.4,0,0,0-.8,1.585L1.413,28.34a1.378,1.378,0,0,0,1.344,1.068A26.649,26.649,0,0,0,29.409,2.757,1.377,1.377,0,0,0,28.34,1.413Z" transform="translate(0.001 0.001)" fill="#fff"/>
</svg>
