<svg id="Successfull" xmlns="http://www.w3.org/2000/svg" width="69.778" height="69.778" viewBox="0 0 69.778 69.778">
  <g id="Group_6413" data-name="Group 6413" transform="translate(16.568 8.767)">
    <g id="Group_6412" data-name="Group 6412">
      <path id="Path_4683" data-name="Path 4683" d="M172.783,65.1a2.629,2.629,0,0,0-3.719,0L137.515,96.561,126.132,84.2a2.63,2.63,0,1,0-3.869,3.563L135.5,102.137a2.627,2.627,0,0,0,1.879.848h.056a2.633,2.633,0,0,0,1.857-.767l33.487-33.4A2.629,2.629,0,0,0,172.783,65.1Z" transform="translate(-121.568 -64.327)" fill="#00a120"/>
    </g>
  </g>
  <g id="Group_6415" data-name="Group 6415">
    <g id="Group_6414" data-name="Group 6414">
      <path id="Path_4684" data-name="Path 4684" d="M67.149,32.259a2.63,2.63,0,0,0-2.63,2.63A29.63,29.63,0,1,1,34.889,5.26a2.63,2.63,0,1,0,0-5.26A34.889,34.889,0,1,0,69.778,34.889,2.63,2.63,0,0,0,67.149,32.259Z" fill="#00a120"/>
    </g>
  </g>
</svg>
