<svg xmlns="http://www.w3.org/2000/svg" width="28" height="28" viewBox="0 0 28 28">
  <g id="Group_6389" data-name="Group 6389" transform="translate(-1207 -3174)">
    <circle id="Ellipse_3" data-name="Ellipse 3" cx="14" cy="14" r="14" transform="translate(1207 3174)" fill="#e3e3e3" opacity="0.11"/>
    <path id="youtube" d="M29.963,66.065a2.191,2.191,0,0,0-1.357-1.671,37.359,37.359,0,0,0-6-.395,37.36,37.36,0,0,0-6,.395,2.191,2.191,0,0,0-1.357,1.671,32.4,32.4,0,0,0,0,9.1,2.149,2.149,0,0,0,1.357,1.644,37.359,37.359,0,0,0,6,.395,37.359,37.359,0,0,0,6-.395,2.149,2.149,0,0,0,1.357-1.644,32.4,32.4,0,0,0,0-9.1ZM21.038,73.4V67.822l4.012,2.792Z" transform="translate(1198.437 3117.577)" fill="#fff"/>
  </g>
</svg>
